<svg xmlns="http://www.w3.org/2000/svg" xmlns:xlink="http://www.w3.org/1999/xlink" width="180" zoomAndPan="magnify" viewBox="0 0 135 135.000003" height="180" preserveAspectRatio="xMidYMid meet"><defs><clipPath id="ee87db08a4"><path d="M 0.496094 0 L 134.503906 0 L 134.503906 134.007812 L 0.496094 134.007812 Z M 0.496094 0 "></path></clipPath><clipPath id="a382607c4d"><path d="M 0.496094 0 L 134.503906 0 L 134.503906 134.007812 L 0.496094 134.007812 Z M 0.496094 0 "></path></clipPath><clipPath id="18419c58f7"><path d="M 67.5 0 C 30.496094 0 0.496094 30 0.496094 67.003906 C 0.496094 104.007812 30.496094 134.007812 67.5 134.007812 C 104.503906 134.007812 134.503906 104.007812 134.503906 67.003906 C 134.503906 30 104.503906 0 67.5 0 Z M 67.5 0 "></path></clipPath><clipPath id="17634d4dc4"><path d="M 19.308594 27.316406 L 115.347656 27.316406 L 115.347656 106.976562 L 19.308594 106.976562 Z M 19.308594 27.316406 "></path></clipPath><clipPath id="86527373c4"><path d="M 68.109375 1.464844 C 31.578125 1.464844 1.964844 31.078125 1.964844 67.609375 C 1.964844 104.136719 31.578125 133.75 68.109375 133.75 C 104.636719 133.75 134.25 104.136719 134.25 67.609375 C 134.25 31.078125 104.636719 1.464844 68.109375 1.464844 Z M 68.109375 1.464844 "></path></clipPath><clipPath id="54f8c053be"><path d="M 55 27.316406 L 107 27.316406 L 107 76 L 55 76 Z M 55 27.316406 "></path></clipPath><clipPath id="f3df36ec1a"><path d="M 79 27.316406 L 107 27.316406 L 107 76 L 79 76 Z M 79 27.316406 "></path></clipPath><clipPath id="78ea043cc7"><path d="M 52 80 L 111 80 L 111 106.976562 L 52 106.976562 Z M 52 80 "></path></clipPath><clipPath id="3341e492fb"><path d="M 85 80 L 111 80 L 111 106.976562 L 85 106.976562 Z M 85 80 "></path></clipPath><clipPath id="44e0935b56"><path d="M 54 27.316406 L 100 27.316406 L 100 73 L 54 73 Z M 54 27.316406 "></path></clipPath><clipPath id="e2bee0f25d"><path d="M 51 83 L 111.84375 83 L 111.84375 106.976562 L 51 106.976562 Z M 51 83 "></path></clipPath><clipPath id="6e30e4fef9"><path d="M 23.65625 79.449219 L 56 79.449219 L 56 106.976562 L 23.65625 106.976562 Z M 23.65625 79.449219 "></path></clipPath></defs><g id="ddecdf4870"><g clip-rule="nonzero" clip-path="url(#ee87db08a4)"><path style=" stroke:none;fill-rule:nonzero;fill:#ffffff;fill-opacity:1;" d="M 0.496094 0 L 134.503906 0 L 134.503906 134.007812 L 0.496094 134.007812 Z M 0.496094 0 "></path><path style=" stroke:none;fill-rule:nonzero;fill:#ffffff;fill-opacity:1;" d="M 0.496094 0 L 134.503906 0 L 134.503906 134.007812 L 0.496094 134.007812 Z M 0.496094 0 "></path></g><g clip-rule="nonzero" clip-path="url(#a382607c4d)"><g clip-rule="nonzero" clip-path="url(#18419c58f7)"><path style=" stroke:none;fill-rule:nonzero;fill:#f4dddd;fill-opacity:1;" d="M 0.496094 0 L 134.503906 0 L 134.503906 134.007812 L 0.496094 134.007812 Z M 0.496094 0 "></path><path style="fill:none;stroke-width:12;stroke-linecap:butt;stroke-linejoin:miter;stroke:#7b2e07;stroke-opacity:1;stroke-miterlimit:4;" d="M 90.000004 -0.00000933333 C 40.29599 -0.00000933333 -0.000306642 40.296288 -0.000306642 90.000301 C -0.000306642 139.704314 40.29599 180.000611 90.000004 180.000611 C 139.704017 180.000611 180.000314 139.704314 180.000314 90.000301 C 180.000314 40.296288 139.704017 -0.00000933333 90.000004 -0.00000933333 Z M 90.000004 -0.00000933333 " transform="matrix(0.744485,0,0,0.744485,0.496322,0.00000694853)"></path></g></g><g clip-rule="nonzero" clip-path="url(#17634d4dc4)"><g clip-rule="nonzero" clip-path="url(#86527373c4)"><path style=" stroke:none;fill-rule:nonzero;fill:#ffdfdf;fill-opacity:1;" d="M 1.964844 1.464844 L 134.25 1.464844 L 134.25 133.75 L 1.964844 133.75 Z M 1.964844 1.464844 "></path><path style="fill:none;stroke-width:8;stroke-linecap:butt;stroke-linejoin:miter;stroke:#f80303;stroke-opacity:1;stroke-miterlimit:4;" d="M 90.002512 -0.00140745 C 40.29372 -0.00140745 -0.00165434 40.293967 -0.00165434 90.002758 C -0.00165434 139.706234 40.29372 180.001609 90.002512 180.001609 C 139.705987 180.001609 180.001362 139.706234 180.001362 90.002758 C 180.001362 40.293967 139.705987 -0.00140745 90.002512 -0.00140745 Z M 90.002512 -0.00140745 " transform="matrix(0.734905,0,0,0.734905,1.96606,1.465878)"></path></g></g><g clip-rule="nonzero" clip-path="url(#54f8c053be)"><path style=" stroke:none;fill-rule:nonzero;fill:#92e0c4;fill-opacity:1;" d="M 81.480469 27.449219 C 64.753906 27.449219 55.980469 41.296875 55.980469 57.089844 C 55.980469 72.878906 67.398438 75.175781 81.480469 75.175781 C 95.566406 75.175781 106.984375 72.878906 106.984375 57.089844 C 106.984375 41.296875 98.207031 27.449219 81.480469 27.449219 "></path></g><g clip-rule="nonzero" clip-path="url(#f3df36ec1a)"><path style=" stroke:none;fill-rule:nonzero;fill:#77d1b3;fill-opacity:1;" d="M 81.480469 27.449219 C 80.6875 27.449219 79.910156 27.476562 79.15625 27.539062 C 94.367188 28.761719 102.328125 42.046875 102.328125 57.089844 C 102.328125 72 92.148438 74.878906 79.15625 75.152344 C 79.921875 75.167969 80.699219 75.175781 81.480469 75.175781 C 95.566406 75.175781 106.984375 72.878906 106.984375 57.089844 C 106.984375 41.296875 98.207031 27.449219 81.480469 27.449219 "></path></g><g clip-rule="nonzero" clip-path="url(#78ea043cc7)"><path style=" stroke:none;fill-rule:nonzero;fill:#ffcdbe;fill-opacity:1;" d="M 90.667969 92.304688 L 90.667969 80.199219 L 72.292969 80.199219 L 72.292969 92.304688 C 72.292969 92.953125 71.769531 93.527344 71.007812 93.714844 C 63.949219 95.457031 52.410156 97.152344 52.410156 105.039062 L 52.410156 105.890625 C 52.410156 106.53125 53.050781 107.050781 53.835938 107.050781 L 109.125 107.050781 C 109.910156 107.050781 110.550781 106.53125 110.550781 105.890625 L 110.550781 105.039062 C 110.550781 97.152344 99.007812 95.457031 91.953125 93.714844 C 91.191406 93.527344 90.667969 92.953125 90.667969 92.304688 "></path></g><g clip-rule="nonzero" clip-path="url(#3341e492fb)"><path style=" stroke:none;fill-rule:nonzero;fill:#ebb1a6;fill-opacity:1;" d="M 91.953125 93.714844 C 91.191406 93.527344 90.667969 92.953125 90.667969 92.304688 L 90.667969 80.199219 L 85.5 80.199219 L 85.5 94.199219 C 85.5 94.851562 86.023438 95.421875 86.785156 95.609375 C 93.84375 97.347656 105.382812 97.152344 105.382812 105.039062 L 105.382812 105.890625 C 105.382812 106.53125 104.742188 107.050781 103.957031 107.050781 L 109.125 107.050781 C 109.910156 107.050781 110.550781 106.53125 110.550781 105.890625 L 110.550781 105.039062 C 110.550781 97.152344 99.007812 95.457031 91.953125 93.714844 "></path></g><path style=" stroke:none;fill-rule:nonzero;fill:#ffcdbe;fill-opacity:1;" d="M 101.25 64.722656 C 101.25 78.691406 88.066406 88.148438 81.480469 88.148438 C 74.894531 88.148438 61.710938 78.691406 61.710938 64.722656 C 61.710938 43.316406 71.617188 38.527344 81.523438 38.519531 C 91.953125 38.507812 101.25 43.316406 101.25 64.722656 "></path><path style=" stroke:none;fill-rule:nonzero;fill:#ebae9d;fill-opacity:1;" d="M 81.523438 38.519531 C 81.003906 38.519531 80.480469 38.535156 79.964844 38.558594 C 88.835938 39.695312 96.082031 45.652344 96.082031 64.550781 C 96.082031 77.050781 85.523438 85.9375 78.585938 87.667969 C 79.632812 87.984375 80.613281 88.148438 81.480469 88.148438 C 88.066406 88.148438 101.25 78.691406 101.25 64.722656 C 101.25 43.316406 91.953125 38.507812 81.523438 38.519531 "></path><path style=" stroke:none;fill-rule:nonzero;fill:#6a61b2;fill-opacity:1;" d="M 101.242188 63.816406 L 97.109375 66.570312 C 96.113281 67.234375 94.941406 67.589844 93.742188 67.589844 L 88.375 67.589844 C 86.792969 67.589844 85.359375 66.667969 84.699219 65.230469 L 84.222656 64.179688 C 83.726562 63.109375 82.660156 62.421875 81.480469 62.421875 C 80.894531 62.421875 80.332031 62.59375 79.851562 62.898438 C 79.375 63.203125 78.984375 63.644531 78.738281 64.179688 L 78.261719 65.230469 C 77.601562 66.667969 76.167969 67.589844 74.585938 67.589844 L 69.21875 67.589844 C 68.019531 67.589844 66.847656 67.234375 65.851562 66.570312 L 61.71875 63.816406 C 61.738281 62.191406 61.824219 60.664062 61.953125 59.230469 C 67.570312 57.511719 74.367188 56.523438 81.480469 56.523438 C 88.613281 56.523438 95.40625 57.515625 101.019531 59.238281 C 101.148438 60.671875 101.222656 62.195312 101.242188 63.816406 "></path><path style=" stroke:none;fill-rule:nonzero;fill:#5f55ad;fill-opacity:1;" d="M 97.109375 66.570312 L 101.242188 63.816406 C 101.222656 62.195312 101.148438 60.667969 101.019531 59.238281 C 99.355469 58.726562 97.585938 58.285156 95.734375 57.90625 C 95.964844 59.921875 96.082031 62.128906 96.082031 64.550781 C 96.082031 65.449219 96.023438 66.328125 95.921875 67.1875 C 96.335938 67.023438 96.734375 66.820312 97.109375 66.570312 "></path><path style=" stroke:none;fill-rule:nonzero;fill:#6a61b2;fill-opacity:1;" d="M 58.183594 83.097656 C 57.488281 81.898438 56.082031 81.308594 54.738281 81.65625 L 49.167969 83.101562 L 53.675781 90.90625 L 57.710938 86.800781 C 58.683594 85.8125 58.875 84.296875 58.183594 83.097656 "></path><path style=" stroke:none;fill-rule:nonzero;fill:#92e0c4;fill-opacity:1;" d="M 40.253906 99.386719 L 32.695312 105.109375 C 31.574219 105.960938 29.964844 105.632812 29.261719 104.417969 L 25.261719 97.488281 C 24.558594 96.269531 25.078125 94.710938 26.375 94.164062 L 35.113281 90.476562 C 36.925781 89.714844 38.453125 88.398438 39.484375 86.722656 C 40.304688 85.382812 41.449219 84.273438 42.804688 83.492188 L 46.484375 81.367188 C 47.179688 80.964844 48.070312 81.203125 48.472656 81.898438 L 54.367188 92.105469 C 54.769531 92.800781 54.53125 93.691406 53.832031 94.09375 L 50.152344 96.21875 C 48.796875 97 47.261719 97.4375 45.691406 97.480469 C 43.726562 97.535156 41.824219 98.199219 40.253906 99.386719 "></path><path style=" stroke:none;fill-rule:nonzero;fill:#77d1b3;fill-opacity:1;" d="M 54.367188 92.105469 L 48.472656 81.898438 C 48.070312 81.203125 47.179688 80.964844 46.484375 81.367188 L 42.804688 83.492188 L 43.632812 83.011719 C 44.3125 82.617188 45.1875 82.871094 45.589844 83.5625 L 51.480469 93.769531 C 51.886719 94.46875 51.660156 95.351562 50.984375 95.742188 L 53.832031 94.09375 C 54.53125 93.691406 54.769531 92.800781 54.367188 92.105469 "></path><path style=" stroke:none;fill-rule:nonzero;fill:#ecc52e;fill-opacity:1;" d="M 44.664062 70.324219 C 41.535156 71.359375 40.183594 72.714844 39.144531 75.84375 C 38.863281 76.695312 37.667969 76.695312 37.386719 75.84375 C 36.351562 72.714844 35 71.359375 31.867188 70.324219 C 31.015625 70.042969 31.015625 68.847656 31.867188 68.566406 C 35 67.53125 36.351562 66.175781 37.386719 63.046875 C 37.667969 62.199219 38.863281 62.199219 39.144531 63.046875 C 40.183594 66.175781 41.535156 67.53125 44.664062 68.566406 C 45.515625 68.847656 45.515625 70.042969 44.664062 70.324219 "></path><path style=" stroke:none;fill-rule:nonzero;fill:#e9a52d;fill-opacity:1;" d="M 50.105469 48.640625 C 47.003906 49.5625 45.855469 50.707031 44.9375 53.808594 C 44.773438 54.355469 44.007812 54.355469 43.84375 53.808594 C 42.925781 50.707031 41.777344 49.5625 38.679688 48.640625 C 38.132812 48.476562 38.132812 47.710938 38.679688 47.546875 C 41.777344 46.632812 42.925781 45.480469 43.84375 42.382812 C 44.007812 41.835938 44.773438 41.835938 44.9375 42.382812 C 45.855469 45.480469 47.003906 46.632812 50.105469 47.546875 C 50.652344 47.710938 50.652344 48.476562 50.105469 48.640625 "></path><path style="fill:none;stroke-width:15;stroke-linecap:round;stroke-linejoin:round;stroke:#000000;stroke-opacity:1;stroke-miterlimit:10;" d="M 0.00556703 -0.00918741 C 19.713284 -30.217106 29.78259 -68.748078 29.78259 -109.478875 C 29.78259 -153.271286 14.655953 -179.215625 -10.086417 -194.342263 " transform="matrix(0.172244,0,0,-0.172244,101.85451,38.228886)"></path><g clip-rule="nonzero" clip-path="url(#44e0935b56)"><path style="fill:none;stroke-width:15;stroke-linecap:round;stroke-linejoin:round;stroke:#000000;stroke-opacity:1;stroke-miterlimit:10;" d="M 0.00625846 0.00745931 C -24.736111 15.111419 -39.862748 41.078436 -39.862748 84.870847 C -39.862748 176.53782 11.096102 256.93352 108.183256 256.93352 C 148.09762 256.93352 180.21054 243.371706 204.204516 220.987911 " transform="matrix(0.172244,0,0,-0.172244,62.846578,71.70441)"></path></g><g clip-rule="nonzero" clip-path="url(#e2bee0f25d)"><path style="fill:none;stroke-width:15;stroke-linecap:round;stroke-linejoin:round;stroke:#000000;stroke-opacity:1;stroke-miterlimit:10;" d="M -0.00664248 -0.0131962 L -0.00664248 -45.960072 C -0.00664248 -49.724722 3.032292 -53.058479 7.454622 -54.147052 C 48.412202 -64.261715 115.427512 -74.104234 115.427512 -119.89236 L 115.427512 -124.813619 C 115.427512 -128.555591 111.708219 -131.571847 107.149818 -131.571847 L -213.843312 -131.571847 C -218.401713 -131.571847 -222.121006 -128.555591 -222.121006 -124.813619 L -222.121006 -119.89236 C -222.121006 -74.104234 -155.128375 -64.261715 -114.148116 -54.147052 C -109.725786 -53.058479 -106.686852 -49.724722 -106.686852 -45.960072 L -106.686852 -0.0131962 " transform="matrix(0.172244,0,0,-0.172244,90.669113,84.388352)"></path></g><path style="fill:none;stroke-width:15;stroke-linecap:round;stroke-linejoin:round;stroke:#000000;stroke-opacity:1;stroke-miterlimit:10;" d="M 0.00222841 0.00789305 C 0.00222841 -81.090844 -76.5381 -135.995778 -114.774247 -135.995778 C -153.010393 -135.995778 -229.550721 -81.090844 -229.550721 0.00789305 C -229.550721 124.286718 -172.037752 152.090704 -114.524782 152.136061 C -53.972877 152.204097 0.00222841 124.286718 0.00222841 0.00789305 Z M 0.00222841 0.00789305 " transform="matrix(0.172244,0,0,-0.172244,101.249616,64.724016)"></path><path style="fill:none;stroke-width:15;stroke-linecap:round;stroke-linejoin:round;stroke:#000000;stroke-opacity:1;stroke-miterlimit:10;" d="M -0.00179829 0.0110016 C 17.528772 -8.312051 35.08202 -8.312051 52.612591 0.0110016 " transform="matrix(0.172244,0,0,-0.172244,76.949528,75.802676)"></path><path style="fill:none;stroke-width:15;stroke-linecap:round;stroke-linejoin:round;stroke:#000000;stroke-opacity:1;stroke-miterlimit:10;" d="M -0.000674616 0.0107105 C 32.611175 9.989302 72.071967 15.726993 113.369726 15.726993 C 154.780879 15.726993 194.218992 9.966624 226.808163 -0.0346468 " transform="matrix(0.172244,0,0,-0.172244,61.953241,59.232314)"></path><path style="fill:none;stroke-width:15;stroke-linecap:round;stroke-linejoin:round;stroke:#000000;stroke-opacity:1;stroke-miterlimit:10;" d="M -0.00323938 0.00075945 L -23.997215 -15.987666 C -29.780262 -19.843031 -36.583847 -21.906785 -43.546182 -21.906785 L -74.7066 -21.906785 C -83.891439 -21.906785 -92.214492 -16.554632 -96.047178 -8.2089 L -98.813969 -2.108352 C -101.694153 4.105589 -107.885415 8.097026 -114.734357 8.097026 C -118.136149 8.097026 -121.40187 7.099167 -124.19134 5.330235 C -126.958131 3.561302 -129.225993 0.998619 -130.654745 -2.108352 L -133.421537 -8.2089 C -137.254223 -16.554632 -145.577275 -21.906785 -154.762114 -21.906785 L -185.922532 -21.906785 C -192.884867 -21.906785 -199.688452 -19.843031 -205.471499 -15.987666 L -229.465475 0.00075945 " transform="matrix(0.172244,0,0,-0.172244,101.242745,63.816537)"></path><path style="fill:none;stroke-width:15;stroke-linecap:round;stroke-linejoin:round;stroke:#000000;stroke-opacity:1;stroke-miterlimit:10;" d="M 0.0125529 -0.00774328 L 23.439563 23.827484 C 29.086538 29.565174 30.197791 38.364478 26.183676 45.326814 C 22.146882 52.289149 13.98258 55.713621 6.181136 53.695224 L -26.15857 45.304135 " transform="matrix(0.172244,0,0,-0.172244,53.673619,90.904916)"></path><path style="fill:none;stroke-width:15;stroke-linecap:round;stroke-linejoin:round;stroke:#000000;stroke-opacity:1;stroke-miterlimit:10;" d="M 0.00406388 0.000768373 L 59.399359 34.26816 " transform="matrix(0.172244,0,0,-0.172244,58.182894,83.097789)"></path><g clip-rule="nonzero" clip-path="url(#6e30e4fef9)"><path style="fill:none;stroke-width:15;stroke-linecap:round;stroke-linejoin:round;stroke:#000000;stroke-opacity:1;stroke-miterlimit:10;" d="M -0.0106156 -0.00970641 L 9.378331 3.959051 C 19.901209 8.381381 28.768548 16.024075 34.755703 25.753201 C 39.518212 33.531966 46.163046 39.972693 54.032526 44.508417 L 75.395782 56.845584 C 79.432576 59.181481 84.6033 57.798085 86.939198 53.761292 L 121.161229 -5.497931 C 123.497126 -9.534725 122.113731 -14.705449 118.054259 -17.041347 L 96.691003 -29.378514 C 88.821523 -33.936916 79.908827 -36.454242 70.792023 -36.703707 C 59.384679 -37.021208 48.340193 -40.876572 39.22339 -47.770871 L -4.659732 -80.995044 C -11.168495 -85.938982 -20.512084 -84.033978 -24.594235 -76.980929 L -47.817138 -36.749064 C -51.899289 -29.673336 -48.883033 -20.624568 -41.353732 -17.449562 L -32.21425 -13.594197 " transform="matrix(0.172244,0,0,-0.172244,33.497922,91.158484)"></path></g><path style="fill:none;stroke-width:15;stroke-linecap:round;stroke-linejoin:round;stroke:#000000;stroke-opacity:1;stroke-miterlimit:10;" d="M -0.00534249 0.00324305 C -18.170914 -6.006591 -26.017715 -13.876071 -32.050227 -32.041644 C -33.683087 -36.985583 -40.622744 -36.985583 -42.255604 -32.041644 C -48.265437 -13.876071 -56.112238 -6.006591 -74.300488 0.00324305 C -79.244426 1.636104 -79.244426 8.575761 -74.300488 10.208621 C -56.112238 16.218455 -48.265437 24.087935 -42.255604 42.253508 C -40.622744 47.174768 -33.683087 47.174768 -32.050227 42.253508 C -26.017715 24.087935 -18.170914 16.218455 -0.00534249 10.208621 C 4.938596 8.575761 4.938596 1.636104 -0.00534249 0.00324305 Z M -0.00534249 0.00324305 " transform="matrix(0.172244,0,0,-0.172244,44.664983,70.324777)"></path><path style="fill:none;stroke-width:15;stroke-linecap:round;stroke-linejoin:round;stroke:#000000;stroke-opacity:1;stroke-miterlimit:10;" d="M 0.00886379 0.00385963 C -17.997957 -5.348294 -24.66547 -11.993129 -29.994945 -29.999952 C -30.947447 -33.174958 -35.392456 -33.174958 -36.344957 -29.999952 C -41.674432 -11.993129 -48.341945 -5.348294 -66.326088 0.00385963 C -69.501094 0.956362 -69.501094 5.401371 -66.326088 6.353873 C -48.341945 11.660669 -41.674432 18.350861 -36.344957 36.335005 C -35.392456 39.510012 -30.947447 39.510012 -29.994945 36.335005 C -24.66547 18.350861 -17.997957 11.660669 0.00886379 6.353873 C 3.18387 5.401371 3.18387 0.956362 0.00886379 0.00385963 Z M 0.00886379 0.00385963 " transform="matrix(0.172244,0,0,-0.172244,50.103942,48.64129)"></path></g></svg>
