<svg xmlns="http://www.w3.org/2000/svg" xmlns:xlink="http://www.w3.org/1999/xlink" width="180" zoomAndPan="magnify" viewBox="0 0 135 135.000003" height="180" preserveAspectRatio="xMidYMid meet"><defs><clipPath id="509ef443b1"><path d="M 0.496094 0 L 134.503906 0 L 134.503906 134.007812 L 0.496094 134.007812 Z M 0.496094 0 "></path></clipPath><clipPath id="cb453a5010"><path d="M 0.496094 0 L 134.503906 0 L 134.503906 134.007812 L 0.496094 134.007812 Z M 0.496094 0 "></path></clipPath><clipPath id="9b65bd2b40"><path d="M 67.5 0 C 30.496094 0 0.496094 30 0.496094 67.003906 C 0.496094 104.007812 30.496094 134.007812 67.5 134.007812 C 104.503906 134.007812 134.503906 104.007812 134.503906 67.003906 C 134.503906 30 104.503906 0 67.5 0 Z M 67.5 0 "></path></clipPath><clipPath id="5f59653b86"><path d="M 19.339844 31.917969 L 110.914062 31.917969 L 110.914062 107.109375 L 19.339844 107.109375 Z M 19.339844 31.917969 "></path></clipPath><clipPath id="9757f951b9"><path d="M 64.082031 2.414062 C 27.757812 2.414062 -1.6875 31.859375 -1.6875 68.183594 C -1.6875 104.507812 27.757812 133.957031 64.082031 133.957031 C 100.40625 133.957031 129.855469 104.507812 129.855469 68.183594 C 129.855469 31.859375 100.40625 2.414062 64.082031 2.414062 Z M 64.082031 2.414062 "></path></clipPath><clipPath id="7e38c4ff56"><path d="M 21 31.917969 L 106 31.917969 L 106 105 L 21 105 Z M 21 31.917969 "></path></clipPath></defs><g id="30404cfa42"><g clip-rule="nonzero" clip-path="url(#509ef443b1)"><path style=" stroke:none;fill-rule:nonzero;fill:#ffffff;fill-opacity:1;" d="M 0.496094 0 L 134.503906 0 L 134.503906 134.007812 L 0.496094 134.007812 Z M 0.496094 0 "></path><path style=" stroke:none;fill-rule:nonzero;fill:#ffffff;fill-opacity:1;" d="M 0.496094 0 L 134.503906 0 L 134.503906 134.007812 L 0.496094 134.007812 Z M 0.496094 0 "></path></g><g clip-rule="nonzero" clip-path="url(#cb453a5010)"><g clip-rule="nonzero" clip-path="url(#9b65bd2b40)"><path style=" stroke:none;fill-rule:nonzero;fill:#f4dddd;fill-opacity:1;" d="M 0.496094 0 L 134.503906 0 L 134.503906 134.007812 L 0.496094 134.007812 Z M 0.496094 0 "></path><path style="fill:none;stroke-width:12;stroke-linecap:butt;stroke-linejoin:miter;stroke:#7b2e07;stroke-opacity:1;stroke-miterlimit:4;" d="M 90.000004 -0.00000933333 C 40.29599 -0.00000933333 -0.000306642 40.296288 -0.000306642 90.000301 C -0.000306642 139.704314 40.29599 180.000611 90.000004 180.000611 C 139.704017 180.000611 180.000314 139.704314 180.000314 90.000301 C 180.000314 40.296288 139.704017 -0.00000933333 90.000004 -0.00000933333 Z M 90.000004 -0.00000933333 " transform="matrix(0.744485,0,0,0.744485,0.496322,0.00000694853)"></path></g></g><g clip-rule="nonzero" clip-path="url(#5f59653b86)"><g clip-rule="nonzero" clip-path="url(#9757f951b9)"><path style=" stroke:none;fill-rule:nonzero;fill:#ffdfdf;fill-opacity:1;" d="M -1.6875 2.414062 L 129.855469 2.414062 L 129.855469 133.957031 L -1.6875 133.957031 Z M -1.6875 2.414062 "></path><path style="fill:none;stroke-width:8;stroke-linecap:butt;stroke-linejoin:miter;stroke:#f80303;stroke-opacity:1;stroke-miterlimit:4;" d="M 89.998863 0.00224869 C 40.294104 0.00224869 0.00219354 40.294152 0.00219354 89.998903 C 0.00219354 139.703654 40.294104 180.000903 89.998863 180.000903 C 139.703622 180.000903 180.000877 139.703654 180.000877 89.998903 C 180.000877 40.294152 139.703622 0.00224869 89.998863 0.00224869 Z M 89.998863 0.00224869 " transform="matrix(0.7308,0,0,0.7308,-1.689103,2.412419)"></path></g></g><path style=" stroke:none;fill-rule:nonzero;fill:#fdb59f;fill-opacity:1;" d="M 105.078125 88.304688 C 104.882812 89.945312 103.386719 91.128906 101.734375 91.128906 L 99.648438 91.128906 C 101.449219 91.128906 102.992188 92.660156 102.859375 94.589844 C 102.746094 96.296875 101.226562 97.582031 99.507812 97.582031 L 94.722656 97.582031 C 96.644531 97.582031 98.175781 99.257812 97.929688 101.226562 C 97.722656 102.863281 96.261719 104.039062 94.621094 104.039062 L 22.773438 104.039062 L 22.773438 80.070312 L 42.007812 80.070312 L 42.007812 90.089844 L 45.632812 90.089844 L 45.632812 80.070312 L 56.308594 80.070312 C 57.351562 80.070312 58.363281 79.699219 59.164062 79.023438 C 62.128906 76.515625 66.128906 73.382812 72.816406 71.589844 C 73.789062 71.320312 74.675781 70.828125 75.386719 70.121094 L 78.25 67.257812 C 79.503906 65.996094 81.546875 65.996094 82.808594 67.257812 C 84.066406 68.511719 84.066406 70.550781 82.808594 71.816406 L 76.398438 78.234375 L 97.675781 78.234375 C 99.492188 78.234375 100.90625 79.707031 100.90625 81.464844 C 100.90625 83.242188 99.464844 84.683594 97.675781 84.683594 L 101.878906 84.683594 C 103.824219 84.683594 105.308594 86.390625 105.078125 88.304688 Z M 105.078125 88.304688 "></path><path style=" stroke:none;fill-rule:nonzero;fill:#f0c020;fill-opacity:1;" d="M 48.738281 92.257812 C 48.398438 92.585938 48.253906 93.066406 48.332031 93.527344 L 48.773438 96.042969 C 48.972656 97.183594 47.8125 98.085938 46.757812 97.605469 L 44.414062 96.554688 C 44.035156 96.382812 43.601562 96.382812 43.226562 96.554688 L 40.878906 97.605469 C 39.828125 98.085938 38.667969 97.183594 38.867188 96.042969 L 39.308594 93.527344 C 39.386719 93.066406 39.238281 92.585938 38.902344 92.257812 L 36.9375 90.292969 C 36.125 89.488281 36.53125 88.101562 37.65625 87.863281 L 40.453125 87.265625 C 40.871094 87.175781 41.226562 86.910156 41.429688 86.53125 L 42.007812 85.449219 L 42.007812 90.089844 L 45.632812 90.089844 L 45.632812 85.445312 L 46.214844 86.53125 C 46.414062 86.910156 46.769531 87.175781 47.183594 87.265625 L 49.984375 87.863281 C 51.105469 88.101562 51.511719 89.488281 50.699219 90.292969 Z M 48.738281 92.257812 "></path><path style=" stroke:none;fill-rule:nonzero;fill:#f0c020;fill-opacity:1;" d="M 49.714844 37.9375 L 49.714844 60.324219 L 47.683594 68.34375 L 47.074219 70.757812 L 40.566406 70.757812 L 39.953125 68.34375 L 37.925781 60.324219 L 37.925781 37.9375 C 37.925781 34.679688 40.5625 32.042969 43.820312 32.042969 C 47.078125 32.042969 49.714844 34.679688 49.714844 37.9375 Z M 49.714844 37.9375 "></path><path style=" stroke:none;fill-rule:nonzero;fill:#f0c020;fill-opacity:1;" d="M 47.527344 74.3125 L 40.113281 74.3125 C 39.359375 74.3125 38.746094 73.699219 38.746094 72.9375 L 38.746094 72.128906 C 38.746094 71.371094 39.359375 70.757812 40.113281 70.757812 L 47.527344 70.757812 C 48.28125 70.757812 48.894531 71.371094 48.894531 72.128906 L 48.894531 72.9375 C 48.894531 73.699219 48.28125 74.3125 47.527344 74.3125 Z M 47.527344 74.3125 "></path><path style=" stroke:none;fill-rule:nonzero;fill:#72c2e9;fill-opacity:1;" d="M 49.714844 60.324219 L 47.683594 68.34375 L 47.074219 70.757812 L 40.566406 70.757812 L 39.953125 68.34375 L 37.925781 60.324219 Z M 49.714844 60.324219 "></path><path style=" stroke:none;fill-rule:nonzero;fill:#4ba5c8;fill-opacity:1;" d="M 47.683594 68.34375 L 47.074219 70.757812 L 40.566406 70.757812 L 39.953125 68.34375 Z M 47.683594 68.34375 "></path><path style=" stroke:none;fill-rule:nonzero;fill:#fc5d3d;fill-opacity:1;" d="M 42.007812 74.308594 L 45.632812 74.308594 L 45.632812 90.089844 L 42.007812 90.089844 Z M 42.007812 74.308594 "></path><path style=" stroke:none;fill-rule:nonzero;fill:#000000;fill-opacity:1;" d="M 29.019531 72.324219 C 28.359375 69.492188 27.394531 69.171875 26.054688 68.730469 C 25.21875 68.449219 25.214844 67.261719 26.054688 66.984375 C 27.339844 66.558594 28.347656 66.28125 29.019531 63.382812 C 29.238281 62.4375 30.59375 62.441406 30.8125 63.382812 C 31.46875 66.222656 32.386719 66.523438 33.777344 66.984375 C 34.613281 67.261719 34.613281 68.449219 33.777344 68.730469 C 31.46875 69.492188 31.207031 70.621094 30.8125 72.324219 C 30.589844 73.273438 29.238281 73.273438 29.019531 72.324219 Z M 29.019531 72.324219 "></path><path style=" stroke:none;fill-rule:nonzero;fill:#f0c020;fill-opacity:1;" d="M 28.539062 67.863281 C 29.046875 68.21875 29.503906 68.699219 29.894531 69.394531 C 30.226562 68.847656 30.671875 68.332031 31.335938 67.878906 C 30.800781 67.511719 30.320312 67.011719 29.914062 66.273438 C 29.5 67.023438 29.023438 67.511719 28.539062 67.863281 Z M 28.539062 67.863281 "></path><path style=" stroke:none;fill-rule:nonzero;fill:#efefef;fill-opacity:1;" d="M 46.292969 43.507812 C 46.292969 43.832031 46.230469 44.148438 46.101562 44.449219 C 45.980469 44.753906 45.800781 45.019531 45.566406 45.253906 C 45.335938 45.484375 45.066406 45.664062 44.765625 45.792969 C 44.460938 45.914062 44.148438 45.980469 43.816406 45.980469 C 43.492188 45.980469 43.171875 45.914062 42.871094 45.792969 C 42.566406 45.664062 42.300781 45.484375 42.070312 45.253906 C 41.835938 45.019531 41.660156 44.753906 41.53125 44.449219 C 41.40625 44.148438 41.34375 43.832031 41.34375 43.507812 C 41.34375 43.175781 41.40625 42.863281 41.53125 42.558594 C 41.660156 42.257812 41.835938 41.988281 42.070312 41.753906 C 42.300781 41.523438 42.566406 41.34375 42.871094 41.21875 C 43.171875 41.09375 43.492188 41.027344 43.816406 41.027344 C 44.148438 41.027344 44.460938 41.09375 44.765625 41.21875 C 45.066406 41.34375 45.335938 41.523438 45.566406 41.753906 C 45.800781 41.988281 45.980469 42.257812 46.101562 42.558594 C 46.230469 42.863281 46.292969 43.175781 46.292969 43.507812 Z M 46.292969 43.507812 "></path><path style=" stroke:none;fill-rule:nonzero;fill:#fc5d3d;fill-opacity:1;" d="M 70.632812 34.527344 C 62.300781 34.527344 55.546875 41.277344 55.546875 49.605469 C 55.546875 52.644531 56.449219 55.46875 57.992188 57.835938 L 56.628906 63.609375 L 62.402344 62.246094 C 64.769531 63.789062 67.59375 64.691406 70.632812 64.691406 C 78.960938 64.691406 85.714844 57.9375 85.714844 49.605469 C 85.71875 41.277344 78.960938 34.527344 70.632812 34.527344 Z M 70.632812 34.527344 "></path><path style=" stroke:none;fill-rule:nonzero;fill:#f0c020;fill-opacity:1;" d="M 71.488281 54.796875 L 65.738281 49.046875 L 72.792969 41.992188 L 78.546875 47.738281 Z M 71.488281 54.796875 "></path><path style=" stroke:none;fill-rule:nonzero;fill:#efefef;fill-opacity:1;" d="M 63.023438 53.21875 L 66.328125 56.523438 C 67.277344 57.472656 68.808594 57.472656 69.75 56.523438 L 71.484375 54.789062 L 65.734375 49.039062 L 63.023438 51.75 C 62.617188 52.15625 62.617188 52.8125 63.023438 53.21875 Z M 63.023438 53.21875 "></path><path style=" stroke:none;fill-rule:nonzero;fill:#f9dfe0;fill-opacity:1;" d="M 94.722656 101.746094 L 30.472656 101.746094 C 29.996094 101.746094 29.605469 101.359375 29.605469 100.882812 C 29.605469 100.40625 29.996094 100.019531 30.472656 100.019531 L 94.722656 100.019531 C 95.203125 100.019531 95.585938 100.40625 95.585938 100.882812 C 95.585938 101.359375 95.203125 101.746094 94.722656 101.746094 Z M 27.019531 101.746094 L 25.980469 101.746094 C 25.503906 101.746094 25.117188 101.359375 25.117188 100.882812 C 25.117188 100.40625 25.503906 100.019531 25.980469 100.019531 L 27.019531 100.019531 C 27.496094 100.019531 27.882812 100.40625 27.882812 100.882812 C 27.882812 101.359375 27.496094 101.746094 27.019531 101.746094 Z M 27.019531 101.746094 "></path><path style=" stroke:none;fill-rule:nonzero;fill:#ffcbc3;fill-opacity:1;" d="M 77.734375 58.851562 C 77.414062 58.496094 77.445312 57.949219 77.796875 57.632812 C 78.035156 57.417969 78.269531 57.191406 78.484375 56.960938 C 78.8125 56.613281 79.359375 56.597656 79.707031 56.921875 C 80.054688 57.25 80.074219 57.792969 79.746094 58.140625 C 79.492188 58.410156 79.230469 58.671875 78.953125 58.921875 C 78.597656 59.238281 78.050781 59.203125 77.734375 58.851562 Z M 80.695312 55.496094 C 80.265625 55.285156 80.085938 54.769531 80.296875 54.34375 C 81.027344 52.859375 81.394531 51.265625 81.394531 49.605469 C 81.394531 42.949219 75.777344 38.832031 70.570312 38.832031 C 68.390625 38.832031 66.265625 39.515625 64.4375 40.808594 C 64.042969 41.082031 63.507812 40.992188 63.230469 40.601562 C 62.957031 40.210938 63.050781 39.671875 63.4375 39.398438 C 65.5625 37.894531 68.027344 37.105469 70.570312 37.105469 C 77.492188 37.105469 83.125 42.710938 83.125 49.605469 C 83.125 51.53125 82.695312 53.382812 81.851562 55.101562 C 81.640625 55.53125 81.125 55.707031 80.695312 55.496094 Z M 80.695312 55.496094 "></path><path style=" stroke:none;fill-rule:nonzero;fill:#000000;fill-opacity:1;" d="M 83.757812 91.996094 L 87.199219 91.996094 C 87.679688 91.996094 88.066406 91.609375 88.066406 91.128906 C 88.066406 90.660156 87.679688 90.265625 87.199219 90.265625 L 83.757812 90.265625 C 83.28125 90.265625 82.890625 90.660156 82.890625 91.128906 C 82.890625 91.609375 83.28125 91.996094 83.757812 91.996094 Z M 83.757812 91.996094 "></path><path style=" stroke:none;fill-rule:nonzero;fill:#000000;fill-opacity:1;" d="M 91.519531 91.128906 C 91.519531 91.367188 91.433594 91.574219 91.265625 91.742188 C 91.097656 91.914062 90.894531 91.996094 90.65625 91.996094 C 90.417969 91.996094 90.214844 91.914062 90.046875 91.742188 C 89.878906 91.574219 89.792969 91.367188 89.792969 91.128906 C 89.792969 90.890625 89.878906 90.6875 90.046875 90.519531 C 90.214844 90.351562 90.417969 90.265625 90.65625 90.265625 C 90.894531 90.265625 91.097656 90.351562 91.265625 90.519531 C 91.433594 90.6875 91.519531 90.890625 91.519531 91.128906 Z M 91.519531 91.128906 "></path><g clip-rule="nonzero" clip-path="url(#7e38c4ff56)"><path style=" stroke:none;fill-rule:nonzero;fill:#000000;fill-opacity:1;" d="M 48.601562 61.1875 L 46.398438 69.894531 L 41.238281 69.894531 C 39.820312 64.28125 40.316406 66.257812 39.035156 61.1875 Z M 39.609375 72.9375 L 39.609375 72.125 C 39.609375 71.851562 39.832031 71.621094 40.113281 71.621094 L 47.527344 71.621094 C 47.800781 71.621094 48.03125 71.851562 48.03125 72.125 L 48.03125 72.9375 C 48.03125 73.21875 47.800781 73.445312 47.527344 73.445312 C 47.527344 73.445312 40.484375 73.445312 40.113281 73.445312 C 39.832031 73.445312 39.609375 73.21875 39.609375 72.9375 Z M 49.804688 88.707031 C 50.257812 88.800781 50.421875 89.359375 50.089844 89.683594 L 48.128906 91.644531 C 47.59375 92.171875 47.351562 92.933594 47.484375 93.675781 L 47.921875 96.191406 C 48 96.652344 47.542969 97.011719 47.113281 96.820312 L 44.765625 95.765625 C 44.164062 95.496094 43.476562 95.496094 42.875 95.765625 L 40.523438 96.820312 C 40.105469 97.011719 39.636719 96.65625 39.71875 96.191406 L 40.15625 93.675781 C 40.285156 92.933594 40.042969 92.171875 39.511719 91.648438 L 37.542969 89.683594 C 37.222656 89.359375 37.382812 88.800781 37.835938 88.707031 L 40.636719 88.113281 C 40.8125 88.074219 40.984375 88.011719 41.144531 87.9375 L 41.144531 90.089844 C 41.144531 90.566406 41.527344 90.957031 42.007812 90.957031 C 42.484375 90.957031 42.871094 90.570312 42.871094 90.089844 L 42.871094 75.175781 L 44.769531 75.175781 C 44.769531 82.402344 44.769531 89.335938 44.769531 90.089844 C 44.769531 90.566406 45.152344 90.957031 45.632812 90.957031 C 46.105469 90.957031 46.496094 90.570312 46.496094 90.089844 L 46.496094 87.9375 C 46.839844 88.101562 46.835938 88.074219 49.804688 88.707031 Z M 101.78125 83.820312 L 101.015625 83.820312 C 101.488281 83.15625 101.769531 82.339844 101.769531 81.464844 C 101.769531 79.207031 99.933594 77.367188 97.675781 77.367188 L 78.480469 77.367188 L 83.421875 72.425781 C 85.023438 70.820312 85.015625 68.234375 83.421875 66.644531 C 81.816406 65.039062 79.230469 65.050781 77.640625 66.644531 L 74.773438 69.507812 C 74.195312 70.089844 73.4375 70.523438 72.589844 70.757812 C 65.851562 72.5625 61.839844 75.632812 58.601562 78.363281 C 57.964844 78.90625 57.148438 79.207031 56.308594 79.207031 L 46.496094 79.207031 L 46.496094 75.171875 L 47.527344 75.171875 C 48.757812 75.171875 49.757812 74.171875 49.757812 72.941406 L 49.757812 72.128906 C 49.757812 71.117188 49.082031 70.261719 48.160156 69.988281 L 50.523438 60.644531 C 50.558594 60.507812 50.578125 60.367188 50.578125 60.21875 L 50.578125 37.9375 C 50.578125 34.210938 47.546875 31.179688 43.820312 31.179688 C 40.09375 31.179688 37.070312 34.191406 37.0625 37.9375 L 37.0625 46.792969 C 37.0625 47.246094 37.386719 47.660156 37.835938 47.703125 C 38.355469 47.753906 38.785156 47.347656 38.785156 46.84375 L 38.785156 37.9375 C 38.785156 35.167969 41.050781 32.90625 43.820312 32.902344 C 46.585938 32.90625 48.847656 35.167969 48.851562 37.9375 L 48.851562 59.460938 L 38.785156 59.460938 L 38.785156 53.800781 C 38.785156 53.351562 38.464844 52.9375 38.015625 52.894531 C 37.5 52.84375 37.0625 53.246094 37.0625 53.75 L 37.0625 60.210938 C 37.0625 60.351562 37.082031 60.492188 37.117188 60.628906 L 39.480469 69.988281 C 38.558594 70.261719 37.878906 71.117188 37.878906 72.128906 L 37.878906 72.941406 C 37.878906 74.175781 38.878906 75.171875 40.109375 75.171875 L 41.144531 75.171875 L 41.144531 79.207031 L 22.824219 79.207031 C 22.371094 79.207031 21.960938 79.53125 21.914062 79.984375 C 21.867188 80.496094 22.269531 80.933594 22.773438 80.933594 L 41.144531 80.933594 L 41.144531 85.230469 L 40.664062 86.128906 C 40.585938 86.28125 40.445312 86.386719 40.273438 86.421875 L 37.476562 87.019531 C 35.691406 87.390625 35.03125 89.609375 36.324219 90.90625 L 38.296875 92.871094 C 38.429688 93.003906 38.488281 93.191406 38.457031 93.378906 L 38.019531 95.894531 C 37.695312 97.742188 39.585938 99.152344 41.234375 98.394531 L 43.582031 97.339844 C 43.730469 97.273438 43.90625 97.273438 44.058594 97.339844 L 46.402344 98.394531 C 48.089844 99.15625 49.941406 97.71875 49.621094 95.894531 L 49.183594 93.382812 C 49.152344 93.191406 49.210938 93.003906 49.347656 92.867188 L 51.308594 90.90625 C 52.609375 89.613281 51.945312 87.390625 50.164062 87.019531 L 47.367188 86.421875 C 47.199219 86.386719 47.058594 86.28125 46.972656 86.125 L 46.496094 85.230469 L 46.496094 80.933594 L 56.308594 80.933594 C 57.558594 80.933594 58.769531 80.488281 59.71875 79.683594 C 62.808594 77.074219 66.644531 74.140625 73.046875 72.421875 C 74.1875 72.105469 75.207031 71.519531 75.996094 70.730469 L 78.863281 67.863281 C 79.78125 66.945312 81.273438 66.9375 82.199219 67.867188 C 83.125 68.785156 83.121094 70.277344 82.195312 71.203125 L 75.785156 77.621094 C 75.246094 78.164062 75.632812 79.097656 76.398438 79.097656 L 97.59375 79.097656 C 98.792969 79.097656 99.867188 79.957031 100.019531 81.144531 C 100.210938 82.585938 99.085938 83.816406 97.683594 83.820312 L 83.804688 83.820312 C 83.355469 83.820312 82.941406 84.148438 82.894531 84.597656 C 82.84375 85.113281 83.246094 85.550781 83.753906 85.550781 L 101.878906 85.550781 C 103.328125 85.550781 104.382812 86.824219 104.222656 88.199219 C 104.082031 89.359375 102.992188 90.265625 101.734375 90.265625 C 101.574219 90.265625 94.015625 90.265625 94.160156 90.265625 C 93.707031 90.265625 93.296875 90.59375 93.25 91.042969 C 93.199219 91.558594 93.605469 91.996094 94.109375 91.996094 L 99.648438 91.996094 C 100.945312 91.996094 102.097656 93.09375 102 94.53125 C 101.917969 95.738281 100.800781 96.71875 99.507812 96.71875 L 83.804688 96.71875 C 83.355469 96.71875 82.941406 97.046875 82.894531 97.496094 C 82.84375 98.011719 83.246094 98.445312 83.753906 98.445312 L 94.730469 98.445312 C 96.128906 98.453125 97.257812 99.664062 97.074219 101.117188 C 96.921875 102.292969 95.871094 103.175781 94.617188 103.175781 L 22.824219 103.175781 C 22.371094 103.175781 21.960938 103.5 21.914062 103.949219 C 21.867188 104.464844 22.269531 104.902344 22.773438 104.902344 L 94.617188 104.902344 C 96.734375 104.902344 98.523438 103.371094 98.789062 101.332031 C 98.914062 100.308594 98.65625 99.273438 98.066406 98.445312 L 99.507812 98.445312 C 101.730469 98.445312 103.578125 96.777344 103.722656 94.644531 C 103.792969 93.621094 103.492188 92.640625 102.871094 91.847656 C 104.492188 91.414062 105.734375 90.078125 105.9375 88.40625 C 106.210938 86.121094 104.511719 83.820312 101.78125 83.820312 Z M 101.78125 83.820312 "></path></g><path style=" stroke:none;fill-rule:nonzero;fill:#000000;fill-opacity:1;" d="M 37.925781 51.160156 C 38.402344 51.160156 38.785156 50.773438 38.785156 50.300781 C 38.785156 49.820312 38.402344 49.433594 37.925781 49.433594 C 37.449219 49.433594 37.0625 49.820312 37.0625 50.300781 C 37.0625 50.773438 37.449219 51.160156 37.925781 51.160156 Z M 37.925781 51.160156 "></path><path style=" stroke:none;fill-rule:nonzero;fill:#000000;fill-opacity:1;" d="M 42.957031 50.691406 L 42.957031 55.640625 C 42.957031 56.117188 43.34375 56.503906 43.820312 56.503906 C 44.296875 56.503906 44.683594 56.117188 44.683594 55.640625 L 44.683594 50.691406 C 44.683594 50.210938 44.296875 49.824219 43.820312 49.824219 C 43.34375 49.824219 42.957031 50.210938 42.957031 50.691406 Z M 42.957031 50.691406 "></path><path style=" stroke:none;fill-rule:nonzero;fill:#000000;fill-opacity:1;" d="M 47.15625 43.507812 C 47.15625 41.664062 45.660156 40.167969 43.816406 40.167969 C 41.976562 40.167969 40.480469 41.664062 40.480469 43.507812 C 40.480469 45.34375 41.976562 46.84375 43.816406 46.84375 C 45.660156 46.84375 47.15625 45.34375 47.15625 43.507812 Z M 43.816406 45.113281 C 42.933594 45.113281 42.207031 44.390625 42.207031 43.507812 C 42.207031 42.617188 42.933594 41.894531 43.816406 41.894531 C 44.707031 41.894531 45.429688 42.617188 45.429688 43.507812 C 45.429688 44.390625 44.707031 45.113281 43.816406 45.113281 Z M 43.816406 45.113281 "></path><path style=" stroke:none;fill-rule:nonzero;fill:#000000;fill-opacity:1;" d="M 80.503906 38.171875 C 80.792969 37.796875 80.71875 37.253906 80.34375 36.960938 C 77.621094 34.867188 74.246094 33.660156 70.632812 33.660156 C 70.632812 33.660156 70.628906 33.660156 70.628906 33.660156 C 58.160156 33.664062 50.515625 47.417969 57.070312 57.992188 L 55.789062 63.410156 C 55.640625 64.035156 56.210938 64.597656 56.828125 64.449219 L 62.246094 63.167969 C 72.796875 69.707031 86.578125 62.101562 86.578125 49.605469 C 86.578125 49.597656 86.574219 49.59375 86.574219 49.585938 C 86.570312 47.117188 86.023438 44.753906 84.9375 42.554688 C 84.730469 42.140625 84.203125 41.957031 83.785156 42.164062 C 83.355469 42.375 83.179688 42.894531 83.390625 43.320312 C 84.359375 45.285156 84.851562 47.402344 84.851562 49.605469 C 84.851562 49.609375 84.851562 49.613281 84.851562 49.617188 C 84.84375 60.871094 72.300781 67.671875 62.875 61.519531 C 62.675781 61.394531 62.433594 61.351562 62.203125 61.40625 L 57.789062 62.449219 L 58.832031 58.035156 C 58.886719 57.804688 58.84375 57.5625 58.71875 57.363281 C 52.582031 47.960938 59.347656 35.386719 70.632812 35.386719 C 70.632812 35.386719 70.636719 35.386719 70.636719 35.386719 C 73.800781 35.386719 76.792969 36.40625 79.292969 38.328125 C 79.679688 38.625 80.210938 38.546875 80.503906 38.171875 Z M 80.503906 38.171875 "></path><path style=" stroke:none;fill-rule:nonzero;fill:#000000;fill-opacity:1;" d="M 82.84375 40.710938 C 83.21875 40.398438 83.257812 39.859375 82.964844 39.496094 C 82.671875 39.140625 82.101562 39.085938 81.75 39.375 C 81.378906 39.671875 81.324219 40.214844 81.625 40.59375 C 81.949219 40.972656 82.492188 41.007812 82.84375 40.710938 Z M 82.84375 40.710938 "></path><path style=" stroke:none;fill-rule:nonzero;fill:#000000;fill-opacity:1;" d="M 73.40625 41.371094 C 73.078125 41.046875 72.507812 41.046875 72.179688 41.371094 C 63.894531 49.660156 65.941406 47.609375 62.410156 51.140625 C 61.671875 51.878906 61.671875 53.089844 62.410156 53.828125 L 65.71875 57.132812 C 67.003906 58.417969 69.078125 58.417969 70.359375 57.132812 C 73.738281 53.757812 73.660156 53.835938 79.152344 48.339844 C 79.488281 48.003906 79.488281 47.460938 79.152344 47.121094 Z M 72.792969 43.203125 L 74.449219 44.855469 L 68.613281 50.695312 L 66.953125 49.039062 Z M 69.140625 55.914062 C 68.535156 56.519531 67.550781 56.519531 66.945312 55.914062 L 63.632812 52.605469 C 63.566406 52.539062 63.566406 52.429688 63.632812 52.363281 L 65.734375 50.261719 C 66.480469 51.003906 66.515625 51.035156 70.265625 54.789062 Z M 71.488281 53.566406 C 70.96875 53.054688 71.386719 53.472656 69.832031 51.914062 L 75.667969 46.078125 L 77.324219 47.730469 Z M 71.488281 53.566406 "></path></g></svg>
