<svg xmlns="http://www.w3.org/2000/svg" xmlns:xlink="http://www.w3.org/1999/xlink" width="180" zoomAndPan="magnify" viewBox="0 0 135 135.000003" height="180" preserveAspectRatio="xMidYMid meet"><defs><clipPath id="80468d8945"><path d="M 0.496094 0 L 134.503906 0 L 134.503906 134.007812 L 0.496094 134.007812 Z M 0.496094 0 "></path></clipPath><clipPath id="5d8ce9f03b"><path d="M 0.496094 0 L 134.503906 0 L 134.503906 134.007812 L 0.496094 134.007812 Z M 0.496094 0 "></path></clipPath><clipPath id="a31c2c7a99"><path d="M 67.5 0 C 30.496094 0 0.496094 30 0.496094 67.003906 C 0.496094 104.007812 30.496094 134.007812 67.5 134.007812 C 104.503906 134.007812 134.503906 104.007812 134.503906 67.003906 C 134.503906 30 104.503906 0 67.5 0 Z M 67.5 0 "></path></clipPath><clipPath id="6700572821"><path d="M 30.761719 23.941406 L 111.167969 23.941406 L 111.167969 110.300781 L 30.761719 110.300781 Z M 30.761719 23.941406 "></path></clipPath><clipPath id="11cf700140"><path d="M 69.105469 -4.5625 C 30.535156 -4.5625 -0.734375 26.707031 -0.734375 65.277344 C -0.734375 103.84375 30.535156 135.113281 69.105469 135.113281 C 107.671875 135.113281 138.941406 103.84375 138.941406 65.277344 C 138.941406 26.707031 107.671875 -4.5625 69.105469 -4.5625 Z M 69.105469 -4.5625 "></path></clipPath><clipPath id="945f2dec3a"><path d="M 32 23.941406 L 90 23.941406 L 90 72 L 32 72 Z M 32 23.941406 "></path></clipPath><clipPath id="7b31a53e3f"><path d="M 30.761719 23.941406 L 92 23.941406 L 92 73 L 30.761719 73 Z M 30.761719 23.941406 "></path></clipPath></defs><g id="9a1a38b858"><g clip-rule="nonzero" clip-path="url(#80468d8945)"><path style=" stroke:none;fill-rule:nonzero;fill:#ffffff;fill-opacity:1;" d="M 0.496094 0 L 134.503906 0 L 134.503906 134.007812 L 0.496094 134.007812 Z M 0.496094 0 "></path><path style=" stroke:none;fill-rule:nonzero;fill:#ffffff;fill-opacity:1;" d="M 0.496094 0 L 134.503906 0 L 134.503906 134.007812 L 0.496094 134.007812 Z M 0.496094 0 "></path></g><g clip-rule="nonzero" clip-path="url(#5d8ce9f03b)"><g clip-rule="nonzero" clip-path="url(#a31c2c7a99)"><path style=" stroke:none;fill-rule:nonzero;fill:#f4dddd;fill-opacity:1;" d="M 0.496094 0 L 134.503906 0 L 134.503906 134.007812 L 0.496094 134.007812 Z M 0.496094 0 "></path><path style="fill:none;stroke-width:12;stroke-linecap:butt;stroke-linejoin:miter;stroke:#7b2e07;stroke-opacity:1;stroke-miterlimit:4;" d="M 90.000004 -0.00000933333 C 40.29599 -0.00000933333 -0.000306642 40.296288 -0.000306642 90.000301 C -0.000306642 139.704314 40.29599 180.000611 90.000004 180.000611 C 139.704017 180.000611 180.000314 139.704314 180.000314 90.000301 C 180.000314 40.296288 139.704017 -0.00000933333 90.000004 -0.00000933333 Z M 90.000004 -0.00000933333 " transform="matrix(0.744485,0,0,0.744485,0.496322,0.00000694853)"></path></g></g><g clip-rule="nonzero" clip-path="url(#6700572821)"><g clip-rule="nonzero" clip-path="url(#11cf700140)"><path style=" stroke:none;fill-rule:nonzero;fill:#ffdfdf;fill-opacity:1;" d="M -0.734375 -4.5625 L 138.941406 -4.5625 L 138.941406 135.113281 L -0.734375 135.113281 Z M -0.734375 -4.5625 "></path><path style="fill:none;stroke-width:8;stroke-linecap:butt;stroke-linejoin:miter;stroke:#f80303;stroke-opacity:1;stroke-miterlimit:4;" d="M 90.001808 -0.00233829 C 40.295314 -0.00233829 -0.00248646 40.295454 -0.00248646 90.001937 C -0.00248646 139.703386 40.295314 180.001178 90.001808 180.001178 C 139.703268 180.001178 180.001069 139.703386 180.001069 90.001937 C 180.001069 40.295454 139.703268 -0.00233829 90.001808 -0.00233829 Z M 90.001808 -0.00233829 " transform="matrix(0.775961,0,0,0.775961,-0.732446,-4.560686)"></path></g></g><g clip-rule="nonzero" clip-path="url(#945f2dec3a)"><path style=" stroke:none;fill-rule:nonzero;fill:#6ec5e7;fill-opacity:1;" d="M 83.878906 71.535156 L 83.878906 70.089844 C 80.5625 59.992188 71.078125 50.328125 59.898438 50.328125 C 50.632812 50.328125 42.519531 57.71875 38.15625 65.183594 L 38.15625 71.535156 C 34.367188 66.667969 32.167969 60.574219 32.167969 53.9375 C 32.167969 49.503906 33.179688 45.285156 34.980469 41.53125 C 34.65625 40.59375 34.582031 39.550781 34.730469 38.503906 C 35.234375 34.898438 38.375 32.265625 41.945312 32.300781 C 47.023438 27.832031 53.699219 25.085938 61.019531 25.085938 C 62.027344 25.085938 63 25.125 63.972656 25.234375 C 64.839844 24.078125 66.246094 23.46875 67.761719 23.683594 C 69.5625 23.898438 70.933594 25.269531 71.222656 26.964844 C 74.6875 28.261719 77.785156 30.171875 80.457031 32.625 C 81.402344 32.40625 82.457031 32.398438 83.496094 32.597656 C 87.148438 33.300781 89.386719 36.621094 88.890625 40.304688 C 88.75 41.390625 88.351562 42.363281 87.777344 43.1875 C 89.144531 46.507812 89.867188 50.152344 89.867188 53.9375 C 89.867188 60.574219 87.664062 66.667969 83.878906 71.535156 Z M 83.878906 71.535156 "></path></g><g clip-rule="nonzero" clip-path="url(#7b31a53e3f)"><path style=" stroke:none;fill-rule:nonzero;fill:#292b2d;fill-opacity:1;" d="M 83.878906 72.894531 C 83.734375 72.894531 83.582031 72.871094 83.441406 72.816406 C 82.890625 72.628906 82.523438 72.117188 82.523438 71.535156 L 82.523438 70.308594 C 79.386719 61.015625 70.65625 51.691406 59.898438 51.691406 C 50.976562 51.691406 43.398438 59.085938 39.511719 65.558594 L 39.511719 71.535156 C 39.511719 72.117188 39.144531 72.628906 38.597656 72.816406 C 38.046875 73.007812 37.441406 72.824219 37.082031 72.367188 C 32.984375 67.097656 30.8125 60.722656 30.8125 53.9375 C 30.8125 49.625 31.753906 45.308594 33.53125 41.425781 C 33.289062 40.457031 33.234375 39.394531 33.386719 38.316406 C 33.953125 34.242188 37.363281 31.164062 41.421875 30.953125 C 46.902344 26.292969 53.839844 23.730469 61.019531 23.730469 C 61.832031 23.730469 62.625 23.757812 63.414062 23.816406 C 64.59375 22.644531 66.238281 22.097656 67.953125 22.339844 C 69.992188 22.582031 71.71875 24.019531 72.367188 25.949219 C 75.496094 27.207031 78.351562 28.964844 80.867188 31.175781 C 81.796875 31.054688 82.78125 31.082031 83.753906 31.269531 C 88.042969 32.09375 90.832031 36.054688 90.238281 40.488281 C 90.105469 41.503906 89.78125 42.453125 89.289062 43.332031 C 90.574219 46.660156 91.222656 50.230469 91.222656 53.9375 C 91.222656 60.71875 89.054688 67.097656 84.949219 72.367188 C 84.6875 72.707031 84.289062 72.894531 83.878906 72.894531 Z M 59.898438 48.972656 C 71.410156 48.972656 80.792969 58.351562 84.605469 68.09375 C 87.167969 63.867188 88.507812 59.035156 88.507812 53.9375 C 88.507812 50.347656 87.839844 46.90625 86.515625 43.714844 C 86.34375 43.285156 86.394531 42.796875 86.660156 42.417969 C 87.136719 41.730469 87.433594 40.960938 87.546875 40.132812 C 87.949219 37.097656 86.140625 34.492188 83.238281 33.933594 C 82.382812 33.777344 81.523438 33.78125 80.761719 33.949219 C 80.324219 34.054688 79.863281 33.933594 79.535156 33.628906 C 76.980469 31.28125 74.023438 29.464844 70.746094 28.238281 C 70.292969 28.066406 69.96875 27.667969 69.886719 27.191406 C 69.691406 26.039062 68.769531 25.171875 67.601562 25.03125 C 66.578125 24.902344 65.644531 25.269531 65.0625 26.046875 C 64.773438 26.4375 64.308594 26.621094 63.824219 26.585938 C 62.898438 26.480469 61.976562 26.445312 61.019531 26.445312 C 54.332031 26.445312 47.878906 28.894531 42.839844 33.324219 C 42.585938 33.542969 42.265625 33.675781 41.925781 33.660156 C 39.035156 33.609375 36.480469 35.796875 36.074219 38.695312 C 35.953125 39.558594 36.019531 40.386719 36.265625 41.09375 C 36.382812 41.429688 36.363281 41.800781 36.207031 42.121094 C 34.453125 45.769531 33.527344 49.855469 33.527344 53.9375 C 33.527344 58.59375 34.648438 63.035156 36.796875 66.996094 L 36.796875 65.1875 C 36.796875 64.945312 36.863281 64.710938 36.984375 64.5 C 41.171875 57.339844 49.683594 48.972656 59.898438 48.972656 Z M 59.898438 48.972656 "></path></g><path style=" stroke:none;fill-rule:nonzero;fill:#92e0f7;fill-opacity:1;" d="M 83.878906 71.535156 L 83.878906 70.089844 C 80.5625 59.992188 71.078125 50.328125 59.898438 50.328125 C 50.632812 50.328125 42.519531 57.71875 38.15625 65.183594 L 38.15625 71.535156 C 36.785156 69.773438 35.621094 67.847656 34.695312 65.800781 C 33.882812 63.992188 38.539062 43.597656 60.597656 43.597656 C 79.898438 43.597656 88.078125 64.214844 87.226562 66.050781 C 86.316406 68.007812 85.195312 69.84375 83.878906 71.535156 Z M 83.878906 71.535156 "></path><path style=" stroke:none;fill-rule:nonzero;fill:#292b2d;fill-opacity:1;" d="M 38.15625 72.894531 C 37.746094 72.894531 37.347656 72.707031 37.082031 72.367188 C 35.644531 70.519531 34.425781 68.496094 33.457031 66.359375 C 32.699219 64.667969 34.164062 59.054688 37.199219 54.351562 C 40.765625 48.828125 47.726562 42.234375 60.597656 42.234375 C 73.769531 42.234375 81.460938 51.207031 84.875 56.550781 C 87.191406 60.179688 89.238281 64.9375 88.457031 66.621094 C 87.507812 68.664062 86.332031 70.597656 84.949219 72.367188 C 84.589844 72.824219 83.988281 73.007812 83.441406 72.816406 C 82.890625 72.628906 82.519531 72.113281 82.519531 71.535156 L 82.519531 70.308594 C 79.386719 61.019531 70.65625 51.691406 59.898438 51.691406 C 50.976562 51.691406 43.394531 59.085938 39.511719 65.558594 L 39.511719 71.535156 C 39.511719 72.117188 39.144531 72.628906 38.597656 72.816406 C 38.449219 72.871094 38.304688 72.894531 38.15625 72.894531 Z M 59.898438 48.972656 C 71.410156 48.972656 80.789062 58.347656 84.605469 68.089844 C 85.113281 67.246094 85.578125 66.375 85.992188 65.476562 C 86.007812 64.652344 84.007812 58.769531 79.011719 53.363281 C 75.460938 49.527344 69.386719 44.953125 60.597656 44.953125 C 52.441406 44.953125 45.933594 47.796875 41.261719 53.40625 C 37.042969 58.464844 35.78125 64.292969 35.976562 65.371094 C 36.226562 65.910156 36.5 66.457031 36.796875 67 L 36.796875 65.1875 C 36.796875 64.941406 36.859375 64.707031 36.980469 64.5 C 41.171875 57.339844 49.683594 48.972656 59.898438 48.972656 Z M 59.898438 48.972656 "></path><path style=" stroke:none;fill-rule:nonzero;fill:#ffdcc4;fill-opacity:1;" d="M 83.886719 70.066406 L 83.886719 72.605469 C 83.886719 73.507812 83.8125 74.449219 83.671875 75.394531 L 80.414062 72.605469 C 79.90625 72.167969 79.109375 72.207031 78.640625 72.679688 L 76.863281 74.449219 C 76.394531 74.921875 76.359375 75.71875 76.789062 76.222656 L 80.699219 80.785156 C 79.652344 81.835938 79.46875 83.503906 80.335938 84.695312 C 78.019531 89.078125 74.761719 93.167969 71.214844 96.175781 C 67.851562 98.996094 64.226562 100.808594 61.007812 100.808594 C 57.417969 100.808594 53.945312 99.320312 50.796875 96.929688 C 43.484375 91.359375 38.160156 80.894531 38.160156 72.605469 L 38.160156 65.183594 C 42.503906 57.722656 50.617188 50.339844 59.917969 50.339844 C 71.070312 50.339844 80.558594 59.972656 83.886719 70.066406 Z M 83.886719 70.066406 "></path><path style=" stroke:none;fill-rule:nonzero;fill:#f9c3a5;fill-opacity:1;" d="M 61.007812 100.808594 C 57.417969 100.808594 53.945312 99.324219 50.796875 96.933594 C 43.484375 91.359375 38.160156 80.894531 38.160156 72.605469 L 38.160156 65.183594 C 42.503906 57.722656 50.617188 50.339844 59.917969 50.339844 C 64.480469 50.339844 43.386719 59.695312 42.871094 68.085938 C 41.273438 94.277344 62.910156 100.808594 61.007812 100.808594 Z M 61.007812 100.808594 "></path><path style=" stroke:none;fill-rule:nonzero;fill:#292b2d;fill-opacity:1;" d="M 52.230469 72.894531 C 49.640625 72.894531 47.347656 71.480469 46.390625 69.292969 L 48.875 68.203125 C 49.394531 69.382812 50.742188 70.179688 52.230469 70.179688 C 53.71875 70.179688 55.066406 69.382812 55.585938 68.203125 L 58.070312 69.292969 C 57.113281 71.480469 54.820312 72.894531 52.230469 72.894531 Z M 52.230469 72.894531 "></path><path style=" stroke:none;fill-rule:nonzero;fill:#292b2d;fill-opacity:1;" d="M 69.65625 72.894531 C 67.046875 72.894531 64.765625 71.472656 63.839844 69.273438 L 66.339844 68.222656 C 66.832031 69.390625 68.167969 70.179688 69.65625 70.179688 C 71.148438 70.179688 72.496094 69.382812 73.011719 68.203125 L 75.5 69.292969 C 74.539062 71.480469 72.246094 72.894531 69.65625 72.894531 Z M 69.65625 72.894531 "></path><path style=" stroke:none;fill-rule:nonzero;fill:#292b2d;fill-opacity:1;" d="M 59.675781 84.640625 C 59.296875 84.640625 58.921875 84.582031 58.5625 84.472656 C 56.953125 83.964844 56.316406 82.519531 56.246094 82.351562 C 56.140625 82.097656 56.117188 81.8125 56.171875 81.546875 L 58.15625 72.386719 L 60.8125 72.957031 L 58.945312 81.582031 C 59.050781 81.703125 59.207031 81.832031 59.398438 81.886719 C 59.804688 82.007812 60.410156 81.828125 61.113281 81.386719 C 61.410156 81.195312 61.777344 81.140625 62.113281 81.203125 L 64.8125 81.765625 L 64.257812 84.425781 L 62.074219 83.96875 C 61.234375 84.417969 60.4375 84.640625 59.675781 84.640625 Z M 59.675781 84.640625 "></path><path style=" stroke:none;fill-rule:nonzero;fill:#292b2d;fill-opacity:1;" d="M 61.019531 90.929688 C 58.335938 90.929688 55.71875 89.949219 53.445312 88.085938 L 55.167969 85.984375 C 58.726562 88.90625 63.308594 88.902344 66.867188 85.984375 L 68.585938 88.085938 C 66.320312 89.949219 63.703125 90.929688 61.019531 90.929688 Z M 61.019531 90.929688 "></path><path style=" stroke:none;fill-rule:nonzero;fill:#292b2d;fill-opacity:1;" d="M 75.324219 49.460938 L 75.023438 46.761719 C 75.125 46.75 77.605469 46.40625 80.191406 43.683594 L 82.160156 45.550781 C 78.851562 49.039062 75.472656 49.441406 75.324219 49.460938 Z M 75.324219 49.460938 "></path><path style=" stroke:none;fill-rule:nonzero;fill:#292b2d;fill-opacity:1;" d="M 68.53125 45.894531 C 67.257812 45.894531 66.367188 45.558594 66.289062 45.53125 L 67.253906 42.992188 C 67.34375 43.03125 69.484375 43.769531 71.449219 42.042969 L 73.242188 44.082031 C 71.597656 45.53125 69.855469 45.894531 68.53125 45.894531 Z M 68.53125 45.894531 "></path><path style=" stroke:none;fill-rule:nonzero;fill:#292b2d;fill-opacity:1;" d="M 47.964844 47.648438 C 43.832031 46.234375 41.929688 44.097656 41.855469 44.007812 L 43.894531 42.214844 L 42.871094 43.113281 L 43.890625 42.210938 C 43.90625 42.226562 45.453125 43.917969 48.84375 45.082031 Z M 47.964844 47.648438 "></path><path style=" stroke:none;fill-rule:nonzero;fill:#292b2d;fill-opacity:1;" d="M 56.742188 44.148438 C 56.640625 43.96875 54.207031 39.800781 54.085938 32.296875 L 56.800781 32.253906 C 56.910156 38.976562 59.058594 42.722656 59.082031 42.761719 Z M 56.742188 44.148438 "></path><path style=" stroke:none;fill-rule:nonzero;fill:#cce6ed;fill-opacity:1;" d="M 91.199219 78.054688 C 92.363281 80.546875 91.921875 83.601562 89.855469 85.664062 C 87.792969 87.730469 84.730469 88.183594 82.238281 87.015625 L 80.515625 84.953125 C 79.492188 83.730469 79.574219 81.925781 80.703125 80.800781 C 80.703125 80.800781 80.0625 80.046875 79.253906 79.089844 C 79.097656 78.90625 78.9375 78.710938 78.761719 78.515625 C 78.082031 77.707031 77.34375 76.84375 76.808594 76.210938 C 76.371094 75.695312 76.394531 74.925781 76.878906 74.4375 L 78.632812 72.691406 C 79.117188 72.207031 79.894531 72.171875 80.417969 72.617188 L 82.710938 74.566406 L 84.988281 76.515625 C 85.542969 75.960938 86.273438 75.652344 87.027344 75.613281 C 87.765625 75.582031 88.527344 75.820312 89.136719 76.335938 Z M 91.199219 78.054688 "></path><path style=" stroke:none;fill-rule:nonzero;fill:#292b2d;fill-opacity:1;" d="M 85.0625 89 C 83.910156 89 82.75 88.75 81.664062 88.246094 C 81.484375 88.160156 81.328125 88.039062 81.195312 87.882812 L 79.472656 85.820312 C 78.269531 84.390625 78.113281 82.429688 78.972656 80.863281 L 75.816406 77.144531 C 74.875 76.015625 74.933594 74.46875 75.917969 73.480469 L 77.671875 71.730469 C 78.644531 70.75 80.238281 70.6875 81.296875 71.578125 L 85.054688 74.789062 C 85.628906 74.476562 86.277344 74.289062 86.949219 74.257812 C 88.078125 74.207031 89.15625 74.574219 90.007812 75.292969 L 92.070312 77.015625 C 92.222656 77.144531 92.34375 77.304688 92.429688 77.480469 C 93.867188 80.550781 93.214844 84.222656 90.8125 86.625 C 89.261719 88.179688 87.175781 89 85.0625 89 Z M 83.078125 85.902344 C 85.058594 86.703125 87.363281 86.230469 88.894531 84.703125 C 90.421875 83.179688 90.886719 80.878906 90.085938 78.894531 L 88.265625 77.375 C 87.929688 77.09375 87.511719 76.914062 87.082031 76.96875 C 86.660156 76.988281 86.25 77.171875 85.945312 77.480469 C 85.441406 77.976562 84.636719 78.011719 84.097656 77.546875 L 79.539062 73.648438 L 77.839844 75.398438 L 79.800781 77.644531 C 79.941406 77.800781 80.113281 78.003906 80.273438 78.191406 L 81.738281 79.925781 C 82.195312 80.460938 82.160156 81.261719 81.664062 81.765625 C 81.039062 82.386719 80.988281 83.40625 81.554688 84.078125 Z M 83.078125 85.902344 "></path><path style=" stroke:none;fill-rule:nonzero;fill:#70e8d1;fill-opacity:1;" d="M 97.019531 84.359375 L 97.019531 84.390625 C 97.546875 86.832031 98.761719 89.078125 100.523438 90.84375 L 105.0625 95.382812 C 106.578125 96.898438 106.585938 99.351562 105.070312 100.863281 C 104.308594 101.625 103.324219 101.996094 102.335938 101.996094 C 101.339844 101.988281 100.351562 101.617188 99.589844 100.855469 L 95.074219 96.339844 C 93.292969 94.558594 91.027344 93.34375 88.570312 92.828125 C 87.546875 92.617188 86.625 92.113281 85.902344 91.394531 C 85.785156 91.273438 85.679688 91.152344 85.566406 91.023438 L 82.238281 87.015625 C 84.730469 88.183594 87.789062 87.726562 89.851562 85.660156 C 91.917969 83.601562 92.363281 80.546875 91.199219 78.054688 L 95.214844 81.390625 C 96.132812 82.152344 96.769531 83.203125 97.019531 84.359375 Z M 97.019531 84.359375 "></path><path style=" stroke:none;fill-rule:nonzero;fill:#292b2d;fill-opacity:1;" d="M 102.335938 103.355469 C 100.925781 103.34375 99.613281 102.800781 98.632812 101.816406 L 94.113281 97.300781 C 92.527344 95.710938 90.511719 94.625 88.289062 94.15625 C 87.023438 93.894531 85.863281 93.269531 84.945312 92.351562 C 84.832031 92.242188 84.722656 92.117188 84.613281 91.992188 L 81.195312 87.878906 C 80.789062 87.394531 80.777344 86.691406 81.164062 86.1875 C 81.554688 85.6875 82.238281 85.527344 82.816406 85.785156 C 84.851562 86.738281 87.296875 86.296875 88.894531 84.703125 C 90.492188 83.109375 90.921875 80.671875 89.96875 78.632812 C 89.703125 78.054688 89.867188 77.371094 90.367188 76.980469 C 90.875 76.597656 91.578125 76.605469 92.066406 77.015625 L 96.082031 80.347656 C 97.226562 81.289062 98.03125 82.617188 98.34375 84.074219 C 98.367188 84.167969 98.378906 84.265625 98.378906 84.359375 L 98.378906 84.390625 C 98.820312 86.304688 99.902344 88.304688 101.484375 89.878906 L 106.023438 94.425781 C 107.011719 95.414062 107.558594 96.726562 107.5625 98.121094 C 107.5625 99.515625 107.019531 100.835938 106.03125 101.824219 C 105.046875 102.808594 103.734375 103.355469 102.335938 103.355469 Z M 85.632812 88.980469 L 86.609375 90.15625 C 86.613281 90.15625 86.863281 90.433594 86.867188 90.4375 C 87.40625 90.980469 88.089844 91.339844 88.84375 91.496094 C 91.589844 92.078125 94.078125 93.421875 96.035156 95.382812 L 100.550781 99.894531 C 101.488281 100.839844 103.148438 100.871094 104.109375 99.902344 C 104.585938 99.425781 104.847656 98.800781 104.847656 98.128906 C 104.84375 97.457031 104.578125 96.820312 104.105469 96.347656 L 99.5625 91.800781 C 97.617188 89.859375 96.277344 87.390625 95.691406 84.679688 L 97.019531 84.363281 L 95.691406 84.648438 C 95.503906 83.785156 95.027344 83 94.351562 82.4375 L 93.160156 81.457031 C 93.03125 83.367188 92.226562 85.214844 90.8125 86.625 C 89.398438 88.039062 87.546875 88.84375 85.632812 88.980469 Z M 85.632812 88.980469 "></path><path style=" stroke:none;fill-rule:nonzero;fill:#5fc5ed;fill-opacity:1;" d="M 80.699219 80.800781 L 76.808594 76.230469 C 76.359375 75.707031 76.390625 74.933594 76.875 74.449219 L 78.636719 72.691406 C 79.121094 72.207031 79.894531 72.175781 80.414062 72.621094 L 84.988281 76.515625 Z M 80.699219 80.800781 "></path><path style=" stroke:none;fill-rule:nonzero;fill:#292b2d;fill-opacity:1;" d="M 80.699219 82.160156 C 80.683594 82.160156 80.667969 82.160156 80.648438 82.160156 C 80.269531 82.140625 79.914062 81.972656 79.667969 81.679688 L 75.773438 77.113281 C 74.875 76.0625 74.933594 74.46875 75.914062 73.484375 L 77.675781 71.730469 C 78.652344 70.75 80.246094 70.691406 81.296875 71.585938 L 85.867188 75.484375 C 86.15625 75.726562 86.324219 76.085938 86.34375 76.464844 C 86.359375 76.839844 86.210938 77.210938 85.949219 77.476562 L 81.660156 81.761719 C 81.40625 82.019531 81.0625 82.160156 80.699219 82.160156 Z M 79.535156 73.652344 L 77.835938 75.410156 L 80.773438 78.808594 L 82.988281 76.59375 Z M 79.535156 73.652344 "></path><path style=" stroke:none;fill-rule:nonzero;fill:#292b2d;fill-opacity:1;" d="M 84.117188 81.898438 L 86.03125 79.976562 L 88.304688 82.25 L 86.382812 84.171875 Z M 84.117188 81.898438 "></path><path style=" stroke:none;fill-rule:nonzero;fill:#292b2d;fill-opacity:1;" d="M 102.992188 109.0625 C 102.53125 109.0625 102.0625 109 101.59375 108.871094 L 89.671875 105.648438 C 88.949219 105.453125 88.519531 104.707031 88.714844 103.984375 C 88.910156 103.257812 89.65625 102.832031 90.382812 103.027344 L 102.300781 106.25 C 103.671875 106.636719 104.660156 105.890625 105.125 105.085938 C 105.589844 104.285156 105.730469 103.0625 104.730469 102.066406 C 104.195312 101.53125 104.195312 100.671875 104.730469 100.144531 C 105.257812 99.613281 106.117188 99.609375 106.648438 100.140625 C 108.34375 101.835938 108.675781 104.375 107.472656 106.445312 C 106.515625 108.105469 104.8125 109.0625 102.992188 109.0625 Z M 102.992188 109.0625 "></path><path style=" stroke:none;fill-rule:nonzero;fill:#292b2d;fill-opacity:1;" d="M 46.359375 66.796875 L 45.410156 65.796875 L 44.675781 64.65625 C 46.796875 63.289062 49.679688 61.4375 52.25 61.4375 C 54.882812 61.4375 56.984375 62.835938 58.007812 65.273438 L 55.503906 66.328125 C 55.089844 65.332031 54.1875 64.152344 52.253906 64.152344 C 50.476562 64.152344 48.003906 65.75 46.359375 66.796875 Z M 46.359375 66.796875 "></path><path style=" stroke:none;fill-rule:nonzero;fill:#292b2d;fill-opacity:1;" d="M 75.757812 66.941406 C 73.894531 65.746094 71.425781 64.152344 69.648438 64.152344 C 67.714844 64.152344 66.8125 65.332031 66.398438 66.328125 L 63.894531 65.273438 C 64.917969 62.835938 67.019531 61.4375 69.652344 61.4375 C 72.222656 61.4375 75.101562 63.289062 77.007812 64.519531 Z M 75.757812 66.941406 "></path><path style=" stroke:none;fill-rule:nonzero;fill:#292b2d;fill-opacity:1;" d="M 61.007812 102.167969 C 57.316406 102.167969 53.605469 100.769531 49.972656 98.019531 C 42.464844 92.289062 36.800781 81.367188 36.800781 72.605469 L 36.800781 65.183594 C 36.800781 64.941406 36.867188 64.707031 36.984375 64.5 C 41.15625 57.339844 49.664062 48.980469 59.917969 48.980469 C 72.027344 48.980469 81.789062 59.375 85.175781 69.648438 C 85.222656 69.789062 85.242188 69.925781 85.242188 70.070312 L 85.242188 72.609375 C 85.242188 73.585938 85.164062 74.59375 85.011719 75.597656 C 84.9375 76.085938 84.605469 76.492188 84.144531 76.667969 C 83.679688 76.832031 83.164062 76.746094 82.789062 76.421875 L 79.527344 73.640625 L 77.820312 75.410156 L 81.730469 79.90625 C 82.195312 80.441406 82.160156 81.25 81.660156 81.75 C 81.070312 82.339844 80.972656 83.261719 81.4375 83.898438 C 81.742188 84.320312 81.777344 84.875 81.539062 85.335938 C 79.144531 89.863281 75.789062 94.082031 72.09375 97.210938 C 69.398438 99.472656 65.285156 102.167969 61.007812 102.167969 Z M 39.515625 65.554688 L 39.515625 72.605469 C 39.515625 80.601562 44.71875 90.597656 51.617188 95.855469 C 54.765625 98.242188 57.925781 99.453125 61.007812 99.453125 C 63.710938 99.453125 67.023438 97.917969 70.34375 95.136719 C 73.601562 92.375 76.582031 88.691406 78.789062 84.707031 C 78.257812 83.484375 78.328125 82.046875 78.972656 80.855469 L 75.761719 77.113281 C 74.859375 76.058594 74.925781 74.46875 75.902344 73.488281 L 77.675781 71.71875 C 78.660156 70.738281 80.246094 70.675781 81.292969 71.578125 L 82.527344 72.628906 C 82.527344 72.625 82.527344 72.613281 82.527344 72.605469 L 82.527344 70.292969 C 79.386719 61.015625 70.660156 51.699219 59.917969 51.699219 C 50.960938 51.695312 43.386719 59.085938 39.515625 65.554688 Z M 39.515625 65.554688 "></path></g></svg>
