<svg xmlns="http://www.w3.org/2000/svg" xmlns:xlink="http://www.w3.org/1999/xlink" width="180" zoomAndPan="magnify" viewBox="0 0 135 135.000003" height="180" preserveAspectRatio="xMidYMid meet"><defs><clipPath id="a608decf88"><path d="M 0.496094 0 L 134.503906 0 L 134.503906 134.007812 L 0.496094 134.007812 Z M 0.496094 0 "></path></clipPath><clipPath id="08c17fc261"><path d="M 0.496094 0 L 134.503906 0 L 134.503906 134.007812 L 0.496094 134.007812 Z M 0.496094 0 "></path></clipPath><clipPath id="c683c28d43"><path d="M 67.5 0 C 30.496094 0 0.496094 30 0.496094 67.003906 C 0.496094 104.007812 30.496094 134.007812 67.5 134.007812 C 104.503906 134.007812 134.503906 104.007812 134.503906 67.003906 C 134.503906 30 104.503906 0 67.5 0 Z M 67.5 0 "></path></clipPath><clipPath id="b8740356c9"><path d="M 23.09375 23.5625 L 111.6875 23.5625 L 111.6875 110.667969 L 23.09375 110.667969 Z M 23.09375 23.5625 "></path></clipPath><clipPath id="f74e604c9f"><path d="M 67.234375 -0.902344 C 29.890625 -0.902344 -0.386719 29.375 -0.386719 66.71875 C -0.386719 104.0625 29.890625 134.339844 67.234375 134.339844 C 104.578125 134.339844 134.851562 104.0625 134.851562 66.71875 C 134.851562 29.375 104.578125 -0.902344 67.234375 -0.902344 Z M 67.234375 -0.902344 "></path></clipPath><clipPath id="8deaacf58e"><path d="M 26 73.777344 L 106 73.777344 L 106 107.027344 L 26 107.027344 Z M 26 73.777344 "></path></clipPath><clipPath id="75f9302744"><path d="M 24.144531 68.734375 L 70.765625 68.734375 L 70.765625 78.824219 L 24.144531 78.824219 Z M 24.144531 68.734375 "></path></clipPath><clipPath id="355efab8fb"><path d="M 24.144531 23.632812 L 44 23.632812 L 44 43.503906 L 24.144531 43.503906 Z M 24.144531 23.632812 "></path></clipPath><clipPath id="0aaf75123f"><path d="M 87 67 L 107.542969 67 L 107.542969 76.808594 L 87 76.808594 Z M 87 67 "></path></clipPath></defs><g id="7b7c3fc814"><g clip-rule="nonzero" clip-path="url(#a608decf88)"><path style=" stroke:none;fill-rule:nonzero;fill:#ffffff;fill-opacity:1;" d="M 0.496094 0 L 134.503906 0 L 134.503906 134.007812 L 0.496094 134.007812 Z M 0.496094 0 "></path><path style=" stroke:none;fill-rule:nonzero;fill:#ffffff;fill-opacity:1;" d="M 0.496094 0 L 134.503906 0 L 134.503906 134.007812 L 0.496094 134.007812 Z M 0.496094 0 "></path></g><g clip-rule="nonzero" clip-path="url(#08c17fc261)"><g clip-rule="nonzero" clip-path="url(#c683c28d43)"><path style=" stroke:none;fill-rule:nonzero;fill:#f4dddd;fill-opacity:1;" d="M 0.496094 0 L 134.503906 0 L 134.503906 134.007812 L 0.496094 134.007812 Z M 0.496094 0 "></path><path style="fill:none;stroke-width:12;stroke-linecap:butt;stroke-linejoin:miter;stroke:#7b2e07;stroke-opacity:1;stroke-miterlimit:4;" d="M 90.000004 -0.00000933333 C 40.29599 -0.00000933333 -0.000306642 40.296288 -0.000306642 90.000301 C -0.000306642 139.704314 40.29599 180.000611 90.000004 180.000611 C 139.704017 180.000611 180.000314 139.704314 180.000314 90.000301 C 180.000314 40.296288 139.704017 -0.00000933333 90.000004 -0.00000933333 Z M 90.000004 -0.00000933333 " transform="matrix(0.744485,0,0,0.744485,0.496322,0.00000694853)"></path></g></g><g clip-rule="nonzero" clip-path="url(#b8740356c9)"><g clip-rule="nonzero" clip-path="url(#f74e604c9f)"><path style=" stroke:none;fill-rule:nonzero;fill:#ffdfdf;fill-opacity:1;" d="M -0.386719 -0.902344 L 134.851562 -0.902344 L 134.851562 134.339844 L -0.386719 134.339844 Z M -0.386719 -0.902344 "></path><path style="fill:none;stroke-width:8;stroke-linecap:butt;stroke-linejoin:miter;stroke:#f80303;stroke-opacity:1;stroke-miterlimit:4;" d="M 90.001713 -0.00189658 C 40.298041 -0.00189658 -0.000407818 40.296561 -0.000407818 90.000245 C -0.000407818 139.703928 40.298041 180.002386 90.001713 180.002386 C 139.705386 180.002386 179.998635 139.703928 179.998635 90.000245 C 179.998635 40.296561 139.705386 -0.00189658 90.001713 -0.00189658 Z M 90.001713 -0.00189658 " transform="matrix(0.751328,0,0,0.751328,-0.386412,-0.900919)"></path></g></g><path style=" stroke:none;fill-rule:nonzero;fill:#ffb5c0;fill-opacity:1;" d="M 69.410156 72.457031 L 69.410156 74.488281 L 62.226562 79.796875 L 62.226562 102.8125 L 68.238281 105.804688 L 94.535156 105.804688 C 99.933594 105.804688 104.308594 101.429688 104.308594 96.03125 L 104.308594 72.457031 Z M 69.410156 72.457031 "></path><path style=" stroke:none;fill-rule:nonzero;fill:#ff8e9e;fill-opacity:1;" d="M 69.410156 74.488281 L 69.410156 72.457031 L 27.332031 72.457031 L 27.332031 96.03125 C 27.332031 101.429688 31.707031 105.804688 37.101562 105.804688 L 68.238281 105.804688 C 66.171875 103.742188 65.015625 100.941406 65.015625 98.023438 L 65.015625 83.199219 C 65.015625 79.761719 66.644531 76.53125 69.410156 74.488281 Z M 69.410156 74.488281 "></path><path style=" stroke:none;fill-rule:nonzero;fill:#ffddcf;fill-opacity:1;" d="M 104.355469 70.261719 C 99.371094 69.265625 94.28125 68.644531 89.113281 68.421875 C 81.347656 68.085938 73.402344 68.660156 65.363281 70.261719 C 53.066406 72.71875 40.589844 72.71875 28.289062 70.261719 C 26.964844 70 25.679688 70.859375 25.414062 72.179688 C 25.152344 73.503906 26.011719 74.789062 27.332031 75.050781 C 40.269531 77.636719 53.386719 77.636719 66.324219 75.050781 C 67.351562 74.847656 68.378906 74.664062 69.410156 74.488281 C 80.707031 72.613281 92.125 72.800781 103.398438 75.050781 C 104.722656 75.316406 106.007812 74.460938 106.273438 73.136719 C 106.535156 71.8125 105.679688 70.527344 104.355469 70.261719 Z M 104.355469 70.261719 "></path><path style=" stroke:none;fill-rule:nonzero;fill:#676fb2;fill-opacity:1;" d="M 89.113281 68.421875 L 75.675781 68.421875 L 75.675781 93.21875 L 83.976562 96.804688 C 91.839844 96.804688 98.527344 90.03125 98.457031 81.992188 C 98.40625 75.816406 94.546875 70.546875 89.113281 68.421875 Z M 89.113281 68.421875 "></path><path style=" stroke:none;fill-rule:nonzero;fill:#4c5699;fill-opacity:1;" d="M 79.113281 81.269531 C 80.140625 75.609375 83.875 70.804688 89.113281 68.421875 C 85.78125 60.789062 83.640625 52.679688 82.785156 44.371094 C 82.640625 42.964844 81.476562 42.164062 80.332031 42.164062 C 79.480469 42.164062 78.625 42.589844 78.164062 43.519531 C 73.335938 53.203125 70.363281 63.707031 69.410156 74.488281 C 69.183594 77.019531 69.074219 79.5625 69.074219 82.113281 C 69.074219 90.296875 75.675781 96.804688 83.976562 96.804688 C 79.90625 92.738281 78.089844 86.933594 79.113281 81.269531 Z M 79.113281 81.269531 "></path><path style=" stroke:none;fill-rule:nonzero;fill:#efedff;fill-opacity:1;" d="M 56.664062 59.96875 L 69.226562 72.535156 C 69.28125 72.589844 69.347656 72.648438 69.410156 72.699219 C 70.46875 73.585938 72.050781 73.527344 73.042969 72.535156 C 74.101562 71.476562 74.101562 69.765625 73.042969 68.714844 L 60.484375 56.148438 Z M 56.664062 59.96875 "></path><path style=" stroke:none;fill-rule:nonzero;fill:#ffb357;fill-opacity:1;" d="M 56.4375 63.453125 L 58.605469 65.617188 C 59.394531 66.410156 60.675781 66.410156 61.46875 65.617188 L 66.132812 60.957031 C 66.925781 60.164062 66.925781 58.882812 66.132812 58.089844 L 63.96875 55.921875 L 56.4375 55.921875 Z M 56.4375 63.453125 "></path><path style=" stroke:none;fill-rule:nonzero;fill:#ea5b70;fill-opacity:1;" d="M 55.660156 45.390625 L 45.777344 45.390625 L 38.574219 52.59375 L 43.644531 57.664062 L 55.660156 57.664062 Z M 55.660156 45.390625 "></path><path style=" stroke:none;fill-rule:nonzero;fill:#ffb357;fill-opacity:1;" d="M 43.644531 57.664062 L 49.753906 63.769531 C 51.511719 65.527344 54.363281 65.527344 56.121094 63.769531 L 63.324219 56.566406 L 54.03125 47.277344 Z M 43.644531 57.664062 "></path><path style=" stroke:none;fill-rule:nonzero;fill:#ff8e9e;fill-opacity:1;" d="M 53.109375 38.058594 L 45.777344 45.390625 L 50.84375 50.460938 L 58.179688 50.460938 L 58.179688 43.128906 Z M 53.109375 38.058594 "></path><path style=" stroke:none;fill-rule:nonzero;fill:#ffce71;fill-opacity:1;" d="M 50.84375 50.460938 L 56.957031 56.566406 C 58.714844 58.324219 61.5625 58.324219 63.324219 56.566406 L 64.285156 55.605469 C 66.042969 53.847656 66.042969 50.996094 64.285156 49.238281 L 58.179688 43.128906 Z M 50.84375 50.460938 "></path><path style=" stroke:none;fill-rule:nonzero;fill:#55dafe;fill-opacity:1;" d="M 38.488281 46.953125 L 45.84375 45.328125 L 47.46875 37.972656 L 41.339844 31.847656 L 32.359375 31.847656 L 32.359375 40.828125 Z M 38.488281 46.953125 "></path><path style=" stroke:none;fill-rule:nonzero;fill:#7ce3ff;fill-opacity:1;" d="M 32.808594 49.929688 C 31.230469 51.511719 31.230469 54.078125 32.808594 55.65625 C 34.390625 57.242188 36.957031 57.242188 38.539062 55.65625 L 47.292969 46.90625 L 41.5625 41.175781 Z M 32.808594 49.929688 "></path><path style=" stroke:none;fill-rule:nonzero;fill:#b9f0ff;fill-opacity:1;" d="M 50.445312 32.296875 L 41.5625 41.175781 C 39.980469 42.757812 39.980469 45.324219 41.5625 46.90625 C 43.144531 48.492188 45.707031 48.492188 47.292969 46.90625 L 56.171875 38.023438 C 57.757812 36.441406 57.757812 33.875 56.171875 32.296875 C 54.589844 30.714844 52.023438 30.714844 50.445312 32.296875 Z M 50.445312 32.296875 "></path><path style=" stroke:none;fill-rule:nonzero;fill:#7ce3ff;fill-opacity:1;" d="M 26.554688 35.167969 C 24.972656 36.753906 24.972656 39.316406 26.554688 40.902344 C 28.136719 42.484375 30.703125 42.484375 32.28125 40.902344 L 36.785156 36.398438 L 31.054688 30.667969 Z M 26.554688 35.167969 "></path><path style=" stroke:none;fill-rule:nonzero;fill:#b9f0ff;fill-opacity:1;" d="M 35.683594 26.039062 L 31.054688 30.667969 C 29.476562 32.253906 29.476562 34.820312 31.054688 36.398438 C 32.636719 37.980469 35.203125 37.980469 36.785156 36.398438 L 41.414062 31.769531 C 42.996094 30.1875 42.996094 27.621094 41.414062 26.039062 C 39.832031 24.457031 37.269531 24.457031 35.683594 26.039062 Z M 35.683594 26.039062 "></path><path style=" stroke:none;fill-rule:nonzero;fill:#495560;fill-opacity:1;" d="M 52.738281 92.621094 C 52.738281 93.015625 52.667969 93.398438 52.53125 93.765625 C 52.398438 94.132812 52.207031 94.457031 51.953125 94.734375 C 51.699219 95.019531 51.414062 95.230469 51.085938 95.386719 C 50.757812 95.539062 50.414062 95.613281 50.0625 95.613281 C 49.707031 95.613281 49.367188 95.539062 49.035156 95.386719 C 48.707031 95.230469 48.421875 95.019531 48.167969 94.734375 C 47.921875 94.457031 47.726562 94.132812 47.589844 93.765625 C 47.457031 93.398438 47.386719 93.015625 47.386719 92.621094 C 47.386719 92.222656 47.457031 91.84375 47.589844 91.476562 C 47.726562 91.109375 47.921875 90.785156 48.167969 90.503906 C 48.421875 90.222656 48.707031 90.007812 49.035156 89.855469 C 49.367188 89.703125 49.707031 89.625 50.0625 89.625 C 50.414062 89.625 50.757812 89.703125 51.085938 89.855469 C 51.414062 90.007812 51.699219 90.222656 51.953125 90.503906 C 52.207031 90.785156 52.398438 91.109375 52.53125 91.476562 C 52.667969 91.84375 52.738281 92.222656 52.738281 92.621094 Z M 52.738281 92.621094 "></path><g clip-rule="nonzero" clip-path="url(#8deaacf58e)"><path style=" stroke:none;fill-rule:nonzero;fill:#000000;fill-opacity:1;" d="M 28.550781 75.050781 L 28.550781 96.03125 C 28.550781 98.394531 29.386719 100.410156 31.058594 102.078125 C 32.726562 103.75 34.742188 104.582031 37.101562 104.582031 L 86.636719 104.582031 C 86.796875 104.582031 86.957031 104.613281 87.105469 104.679688 C 87.253906 104.742188 87.386719 104.828125 87.5 104.941406 C 87.613281 105.054688 87.703125 105.191406 87.765625 105.339844 C 87.828125 105.488281 87.859375 105.644531 87.859375 105.804688 C 87.859375 105.96875 87.828125 106.125 87.765625 106.273438 C 87.703125 106.425781 87.613281 106.554688 87.5 106.667969 C 87.386719 106.78125 87.253906 106.875 87.105469 106.9375 C 86.957031 106.996094 86.796875 107.027344 86.636719 107.027344 L 37.101562 107.027344 C 34.066406 107.027344 31.476562 105.953125 29.328125 103.804688 C 27.183594 101.660156 26.109375 99.066406 26.109375 96.03125 L 26.109375 75.050781 C 26.109375 74.890625 26.140625 74.738281 26.203125 74.585938 C 26.265625 74.4375 26.351562 74.304688 26.46875 74.1875 C 26.582031 74.074219 26.714844 73.988281 26.867188 73.925781 C 27.015625 73.863281 27.167969 73.835938 27.332031 73.835938 C 27.492188 73.835938 27.648438 73.863281 27.800781 73.925781 C 27.949219 73.988281 28.078125 74.074219 28.195312 74.1875 C 28.308594 74.304688 28.398438 74.4375 28.460938 74.585938 C 28.519531 74.738281 28.550781 74.890625 28.550781 75.050781 Z M 91.523438 104.582031 L 94.535156 104.582031 C 96.898438 104.582031 98.914062 103.75 100.582031 102.078125 C 102.25 100.410156 103.085938 98.394531 103.085938 96.03125 L 103.085938 75.058594 C 103.085938 74.898438 103.117188 74.746094 103.179688 74.59375 C 103.242188 74.445312 103.332031 74.3125 103.445312 74.195312 C 103.558594 74.082031 103.691406 73.996094 103.839844 73.933594 C 103.988281 73.871094 104.148438 73.839844 104.308594 73.839844 C 104.46875 73.839844 104.628906 73.871094 104.777344 73.933594 C 104.925781 73.996094 105.058594 74.082031 105.171875 74.195312 C 105.285156 74.3125 105.378906 74.445312 105.4375 74.59375 C 105.5 74.746094 105.53125 74.898438 105.53125 75.058594 L 105.53125 96.03125 C 105.53125 99.066406 104.457031 101.660156 102.308594 103.804688 C 100.160156 105.953125 97.570312 107.027344 94.535156 107.027344 L 91.523438 107.027344 C 91.363281 107.027344 91.207031 106.996094 91.054688 106.9375 C 90.90625 106.875 90.777344 106.78125 90.660156 106.667969 C 90.546875 106.554688 90.457031 106.425781 90.394531 106.273438 C 90.335938 106.125 90.300781 105.96875 90.300781 105.804688 C 90.300781 105.644531 90.335938 105.488281 90.394531 105.339844 C 90.457031 105.191406 90.546875 105.054688 90.660156 104.941406 C 90.777344 104.828125 90.90625 104.742188 91.054688 104.679688 C 91.207031 104.613281 91.363281 104.582031 91.523438 104.582031 Z M 91.523438 104.582031 "></path></g><g clip-rule="nonzero" clip-path="url(#75f9302744)"><path style="fill:none;stroke-width:15;stroke-linecap:round;stroke-linejoin:round;stroke:#000000;stroke-opacity:1;stroke-miterlimit:10;" d="M 261.251997 284.723311 C 258.518081 285.226927 255.784165 285.730544 253.050249 286.282123 C 177.555796 301.366627 100.958183 301.366627 25.439749 286.282123 C 17.309946 284.675348 9.41996 289.951327 7.789203 298.05715 C 6.182428 306.186954 11.458406 314.076941 19.564227 315.683716 C 98.991682 331.583599 179.522297 331.583599 258.949752 315.683716 C 265.256944 314.436667 271.564136 313.309526 277.89531 312.230348 " transform="matrix(0.162884,0,0,0.162884,24.145322,23.630811)"></path></g><path style="fill:none;stroke-width:15;stroke-linecap:round;stroke-linejoin:round;stroke:#000000;stroke-opacity:1;stroke-miterlimit:10;" d="M 278.902506 302.014134 C 276.888042 320.480061 275.832846 339.233769 275.832846 359.042673 C 275.832846 409.284384 316.361949 449.237936 367.323098 449.237936 C 415.598296 449.237936 456.654996 407.653627 456.247307 358.29924 C 455.911563 320.719878 432.505406 288.104734 398.859057 274.96275 C 378.402652 228.102461 365.260671 178.340385 360.008675 127.331258 C 359.121351 118.697838 351.974799 113.781584 344.948156 113.781584 C 339.720142 113.781584 334.468145 116.395592 331.638303 122.103242 C 309.647068 166.229614 293.915061 213.137866 284.873954 261.437057 " transform="matrix(0.162884,0,0,0.162884,24.145324,23.630811)"></path><path style="fill:none;stroke-width:15;stroke-linecap:round;stroke-linejoin:round;stroke:#000000;stroke-opacity:1;stroke-miterlimit:10;" d="M 231.730468 255.201809 L 276.768133 300.239486 C 283.267179 306.714552 293.771171 306.666588 300.198271 300.239486 C 306.697317 293.740439 306.697317 283.236444 300.198271 276.785361 L 255.184588 231.747683 " transform="matrix(0.162884,0,0,0.162884,24.145324,23.630811)"></path><path style=" stroke:none;fill-rule:nonzero;fill:#000000;fill-opacity:1;" d="M 40.953125 53.246094 L 50.617188 62.90625 C 51.253906 63.550781 52.027344 63.867188 52.933594 63.867188 C 53.839844 63.867188 54.613281 63.550781 55.253906 62.90625 L 57.644531 60.519531 C 57.761719 60.402344 57.890625 60.3125 58.039062 60.253906 C 58.191406 60.191406 58.347656 60.160156 58.507812 60.160156 C 58.671875 60.160156 58.828125 60.191406 58.976562 60.253906 C 59.128906 60.3125 59.257812 60.402344 59.371094 60.519531 C 59.488281 60.632812 59.578125 60.761719 59.636719 60.910156 C 59.699219 61.0625 59.730469 61.21875 59.730469 61.382812 C 59.730469 61.542969 59.699219 61.699219 59.636719 61.851562 C 59.578125 62 59.488281 62.128906 59.371094 62.246094 L 56.984375 64.636719 C 55.863281 65.753906 54.515625 66.3125 52.933594 66.3125 C 51.355469 66.3125 50.007812 65.753906 48.886719 64.636719 L 39.222656 54.972656 C 39.109375 54.855469 39.023438 54.726562 38.960938 54.578125 C 38.898438 54.425781 38.871094 54.269531 38.871094 54.109375 C 38.871094 53.945312 38.898438 53.792969 38.960938 53.644531 C 39.023438 53.492188 39.109375 53.359375 39.222656 53.246094 C 39.339844 53.128906 39.472656 53.042969 39.621094 52.980469 C 39.773438 52.917969 39.925781 52.886719 40.085938 52.886719 C 40.253906 52.886719 40.40625 52.917969 40.554688 52.980469 C 40.707031 53.042969 40.839844 53.128906 40.953125 53.246094 Z M 61.097656 57.058594 L 63.421875 54.738281 C 64.0625 54.101562 64.382812 53.328125 64.382812 52.421875 C 64.382812 51.515625 64.0625 50.742188 63.421875 50.101562 L 53.757812 40.441406 C 53.644531 40.324219 53.558594 40.191406 53.496094 40.042969 C 53.429688 39.890625 53.398438 39.738281 53.398438 39.574219 C 53.398438 39.410156 53.429688 39.257812 53.496094 39.109375 C 53.558594 38.957031 53.644531 38.824219 53.757812 38.710938 C 53.875 38.59375 54.007812 38.507812 54.15625 38.445312 C 54.308594 38.382812 54.460938 38.355469 54.621094 38.355469 C 54.785156 38.355469 54.941406 38.382812 55.089844 38.445312 C 55.242188 38.507812 55.371094 38.59375 55.484375 38.710938 L 65.148438 48.371094 C 66.265625 49.492188 66.828125 50.839844 66.828125 52.421875 C 66.828125 54 66.265625 55.351562 65.148438 56.46875 L 62.828125 58.792969 C 62.714844 58.90625 62.582031 58.992188 62.429688 59.054688 C 62.28125 59.117188 62.128906 59.144531 61.960938 59.144531 C 61.800781 59.144531 61.648438 59.117188 61.496094 59.054688 C 61.347656 58.992188 61.214844 58.90625 61.097656 58.792969 C 60.984375 58.675781 60.898438 58.542969 60.835938 58.394531 C 60.773438 58.242188 60.746094 58.089844 60.746094 57.925781 C 60.746094 57.761719 60.773438 57.609375 60.835938 57.457031 C 60.898438 57.308594 60.984375 57.175781 61.097656 57.058594 Z M 61.097656 57.058594 "></path><path style="fill:none;stroke-width:15;stroke-linecap:round;stroke-linejoin:round;stroke:#000000;stroke-opacity:1;stroke-miterlimit:10;" d="M 187.100492 97.881701 L 196.621234 88.360957 C 206.357811 78.648359 206.357811 62.892366 196.621234 53.20375 C 186.908638 43.491152 171.15265 43.491152 161.464036 53.20375 L 53.186582 161.457251 C 43.497968 171.169849 43.497968 186.925842 53.186582 196.614458 C 62.899177 206.351038 78.655166 206.351038 88.367761 196.614458 Z M 187.100492 97.881701 " transform="matrix(0.162884,0,0,0.162884,24.145324,23.630811)"></path><g clip-rule="nonzero" clip-path="url(#355efab8fb)"><path style="fill:none;stroke-width:15;stroke-linecap:round;stroke-linejoin:round;stroke:#000000;stroke-opacity:1;stroke-miterlimit:10;" d="M 105.562674 50.445852 L 106.018326 49.966217 C 115.730923 40.253619 115.730923 24.497627 106.018326 14.785029 C 96.30573 5.072431 80.573722 5.072431 70.837144 14.785029 L 14.791865 70.830317 C 5.079269 80.566897 5.079269 96.298908 14.791865 106.035487 C 24.504461 115.748086 40.260451 115.748086 49.949066 106.035487 Z M 105.562674 50.445852 " transform="matrix(0.162884,0,0,0.162884,24.145322,23.630811)"></path></g><path style="fill:none;stroke-width:15;stroke-linecap:round;stroke-linejoin:round;stroke:#000000;stroke-opacity:1;stroke-miterlimit:10;" d="M 80.429813 400.746891 L 80.429813 412.737752 " transform="matrix(0.162884,0,0,0.162884,24.145324,23.630811)"></path><path style="fill:none;stroke-width:15;stroke-linecap:round;stroke-linejoin:round;stroke:#000000;stroke-opacity:1;stroke-miterlimit:10;" d="M 175.541304 423.55351 C 175.541304 425.975664 175.109633 428.325873 174.270273 430.580155 C 173.454895 432.834437 172.27979 434.82492 170.720979 436.527622 C 169.162167 438.278288 167.411502 439.597283 165.397038 440.53257 C 163.382573 441.467858 161.272182 441.92351 159.113828 441.92351 C 156.931491 441.92351 154.845082 441.467858 152.806636 440.53257 C 150.816153 439.597283 149.041506 438.278288 147.482695 436.527622 C 145.971846 434.82492 144.772761 432.834437 143.9334 430.580155 C 143.118022 428.325873 142.686351 425.975664 142.686351 423.55351 C 142.686351 421.131356 143.118022 418.781147 143.9334 416.526865 C 144.772761 414.272583 145.971846 412.2821 147.482695 410.579397 C 149.041506 408.828732 150.816153 407.509737 152.806636 406.574449 C 154.845082 405.639162 156.931491 405.159528 159.113828 405.159528 C 161.272182 405.159528 163.382573 405.639162 165.397038 406.574449 C 167.411502 407.509737 169.162167 408.828732 170.720979 410.579397 C 172.27979 412.2821 173.454895 414.272583 174.270273 416.526865 C 175.109633 418.781147 175.541304 421.131356 175.541304 423.55351 Z M 175.541304 423.55351 " transform="matrix(0.162884,0,0,0.162884,24.145324,23.630811)"></path><path style="fill:none;stroke-width:15;stroke-linecap:round;stroke-linejoin:round;stroke:#000000;stroke-opacity:1;stroke-miterlimit:10;" d="M 237.797842 400.746891 L 237.797842 412.737752 " transform="matrix(0.162884,0,0,0.162884,24.145324,23.630811)"></path><path style="fill:none;stroke-width:15;stroke-linecap:round;stroke-linejoin:round;stroke:#000000;stroke-opacity:1;stroke-miterlimit:10;" d="M 208.947836 119.70507 L 119.711866 208.941064 " transform="matrix(0.162884,0,0,0.162884,24.145324,23.630811)"></path><path style="fill:none;stroke-width:15;stroke-linecap:round;stroke-linejoin:round;stroke:#000000;stroke-opacity:1;stroke-miterlimit:10;" d="M 50.428684 105.579835 L 79.758325 134.885501 " transform="matrix(0.162884,0,0,0.162884,24.145324,23.630811)"></path><path style="fill:none;stroke-width:15;stroke-linecap:round;stroke-linejoin:round;stroke:#000000;stroke-opacity:1;stroke-miterlimit:10;" d="M 134.868311 79.751518 L 105.562653 50.445852 " transform="matrix(0.162884,0,0,0.162884,24.145324,23.630811)"></path><path style="fill:none;stroke-width:15;stroke-linecap:round;stroke-linejoin:round;stroke:#000000;stroke-opacity:1;stroke-miterlimit:10;" d="M 198.25199 244.481979 L 211.561844 257.767854 C 216.406151 262.636144 224.272154 262.636144 229.140442 257.767854 L 257.774613 229.157657 C 262.642902 224.289367 262.642902 216.423362 257.774613 211.555072 L 244.488742 198.245215 " transform="matrix(0.162884,0,0,0.162884,24.145324,23.630811)"></path><g clip-rule="nonzero" clip-path="url(#0aaf75123f)"><path style="fill:none;stroke-width:15;stroke-linecap:round;stroke-linejoin:round;stroke:#000000;stroke-opacity:1;stroke-miterlimit:10;" d="M 440.707204 308.417254 C 456.007541 310.215883 471.307878 312.638038 486.560252 315.683716 C 488.478789 316.091406 490.373345 316.091406 492.147992 315.755662 C 498.023514 314.700466 502.963748 310.143938 504.210797 303.932672 C 505.817573 295.802868 500.565576 287.91288 492.435773 286.282123 C 461.835099 280.166784 430.586918 276.329708 398.859103 274.96275 L 393.607107 278.512045 " transform="matrix(0.162884,0,0,0.162884,24.145322,23.630811)"></path></g></g></svg>
