<svg xmlns="http://www.w3.org/2000/svg" xmlns:xlink="http://www.w3.org/1999/xlink" width="180" zoomAndPan="magnify" viewBox="0 0 135 135.000003" height="180" preserveAspectRatio="xMidYMid meet"><defs><clipPath id="bdbfc4cd2c"><path d="M 0.496094 0 L 134.503906 0 L 134.503906 134.007812 L 0.496094 134.007812 Z M 0.496094 0 "></path></clipPath><clipPath id="fb8373bddb"><path d="M 0.496094 0 L 134.503906 0 L 134.503906 134.007812 L 0.496094 134.007812 Z M 0.496094 0 "></path></clipPath><clipPath id="54003bd4f9"><path d="M 67.5 0 C 30.496094 0 0.496094 30 0.496094 67.003906 C 0.496094 104.007812 30.496094 134.007812 67.5 134.007812 C 104.503906 134.007812 134.503906 104.007812 134.503906 67.003906 C 134.503906 30 104.503906 0 67.5 0 Z M 67.5 0 "></path></clipPath><clipPath id="92440a1ac8"><path d="M 31.046875 30.550781 L 104.007812 30.550781 L 104.007812 103.511719 L 31.046875 103.511719 Z M 31.046875 30.550781 "></path></clipPath><clipPath id="168f020702"><path d="M 68.042969 13.214844 C 38.046875 13.214844 13.726562 37.535156 13.726562 67.535156 C 13.726562 97.53125 38.046875 121.851562 68.042969 121.851562 C 98.042969 121.851562 122.363281 97.53125 122.363281 67.535156 C 122.363281 37.535156 98.042969 13.214844 68.042969 13.214844 Z M 68.042969 13.214844 "></path></clipPath><clipPath id="b5675d77c8"><path d="M 33.199219 81 L 46.5625 81 L 46.5625 95 L 33.199219 95 Z M 33.199219 81 "></path></clipPath><clipPath id="a5e8f52549"><path d="M 39 30.855469 L 101.398438 30.855469 L 101.398438 102.675781 L 39 102.675781 Z M 39 30.855469 "></path></clipPath></defs><g id="2ac0fb5b98"><g clip-rule="nonzero" clip-path="url(#bdbfc4cd2c)"><path style=" stroke:none;fill-rule:nonzero;fill:#ffffff;fill-opacity:1;" d="M 0.496094 0 L 134.503906 0 L 134.503906 134.007812 L 0.496094 134.007812 Z M 0.496094 0 "></path><path style=" stroke:none;fill-rule:nonzero;fill:#ffffff;fill-opacity:1;" d="M 0.496094 0 L 134.503906 0 L 134.503906 134.007812 L 0.496094 134.007812 Z M 0.496094 0 "></path></g><g clip-rule="nonzero" clip-path="url(#fb8373bddb)"><g clip-rule="nonzero" clip-path="url(#54003bd4f9)"><path style=" stroke:none;fill-rule:nonzero;fill:#f4dddd;fill-opacity:1;" d="M 0.496094 0 L 134.503906 0 L 134.503906 134.007812 L 0.496094 134.007812 Z M 0.496094 0 "></path><path style="fill:none;stroke-width:12;stroke-linecap:butt;stroke-linejoin:miter;stroke:#7b2e07;stroke-opacity:1;stroke-miterlimit:4;" d="M 90.000004 -0.00000933333 C 40.29599 -0.00000933333 -0.000306642 40.296288 -0.000306642 90.000301 C -0.000306642 139.704314 40.29599 180.000611 90.000004 180.000611 C 139.704017 180.000611 180.000314 139.704314 180.000314 90.000301 C 180.000314 40.296288 139.704017 -0.00000933333 90.000004 -0.00000933333 Z M 90.000004 -0.00000933333 " transform="matrix(0.744485,0,0,0.744485,0.496322,0.00000694853)"></path></g></g><g clip-rule="nonzero" clip-path="url(#92440a1ac8)"><g clip-rule="nonzero" clip-path="url(#168f020702)"><path style=" stroke:none;fill-rule:nonzero;fill:#ffdfdf;fill-opacity:1;" d="M 13.726562 13.214844 L 122.363281 13.214844 L 122.363281 121.851562 L 13.726562 121.851562 Z M 13.726562 13.214844 "></path><path style="fill:none;stroke-width:8;stroke-linecap:butt;stroke-linejoin:miter;stroke:#f80303;stroke-opacity:1;stroke-miterlimit:4;" d="M 89.996991 -0.00294025 C 40.295542 -0.00294025 -0.00153129 40.294133 -0.00153129 90.002055 C -0.00153129 139.703504 40.295542 180.000577 89.996991 180.000577 C 139.704913 180.000577 180.001986 139.703504 180.001986 90.002055 C 180.001986 40.294133 139.704913 -0.00294025 89.996991 -0.00294025 Z M 89.996991 -0.00294025 " transform="matrix(0.603526,0,0,0.603526,13.727487,13.216618)"></path></g></g><path style=" stroke:none;fill-rule:nonzero;fill:#f7d300;fill-opacity:1;" d="M 45.164062 87.710938 C 45.164062 88.066406 45.132812 88.414062 45.0625 88.761719 C 44.996094 89.109375 44.890625 89.449219 44.757812 89.773438 C 44.621094 90.101562 44.457031 90.410156 44.261719 90.703125 C 44.0625 91 43.839844 91.269531 43.589844 91.519531 C 43.339844 91.773438 43.066406 91.992188 42.773438 92.191406 C 42.480469 92.386719 42.171875 92.554688 41.84375 92.6875 C 41.515625 92.824219 41.179688 92.925781 40.832031 92.992188 C 40.484375 93.0625 40.136719 93.097656 39.78125 93.097656 C 39.429688 93.097656 39.078125 93.0625 38.730469 92.992188 C 38.386719 92.925781 38.050781 92.824219 37.722656 92.6875 C 37.394531 92.554688 37.085938 92.386719 36.789062 92.191406 C 36.5 91.992188 36.226562 91.773438 35.976562 91.519531 C 35.726562 91.269531 35.5 91 35.304688 90.703125 C 35.109375 90.410156 34.945312 90.101562 34.808594 89.773438 C 34.675781 89.449219 34.570312 89.109375 34.503906 88.761719 C 34.433594 88.414062 34.398438 88.066406 34.398438 87.710938 C 34.398438 87.355469 34.433594 87.007812 34.503906 86.660156 C 34.570312 86.316406 34.675781 85.976562 34.808594 85.652344 C 34.945312 85.324219 35.109375 85.015625 35.304688 84.71875 C 35.5 84.425781 35.726562 84.152344 35.976562 83.902344 C 36.226562 83.652344 36.5 83.429688 36.789062 83.234375 C 37.085938 83.039062 37.394531 82.871094 37.722656 82.734375 C 38.050781 82.601562 38.386719 82.496094 38.730469 82.429688 C 39.078125 82.359375 39.429688 82.324219 39.78125 82.324219 C 40.136719 82.324219 40.484375 82.359375 40.832031 82.429688 C 41.179688 82.496094 41.515625 82.601562 41.84375 82.734375 C 42.171875 82.871094 42.480469 83.039062 42.773438 83.234375 C 43.066406 83.429688 43.339844 83.652344 43.589844 83.902344 C 43.839844 84.152344 44.0625 84.425781 44.261719 84.71875 C 44.457031 85.015625 44.621094 85.324219 44.757812 85.652344 C 44.890625 85.976562 44.996094 86.316406 45.0625 86.660156 C 45.132812 87.007812 45.164062 87.355469 45.164062 87.710938 Z M 45.164062 87.710938 "></path><path style=" stroke:none;fill-rule:nonzero;fill:#f7d300;fill-opacity:1;" d="M 100.199219 62.574219 C 97.21875 62.574219 94.816406 64.980469 94.816406 67.960938 C 94.816406 65.582031 93.28125 63.570312 91.15625 62.863281 C 90.617188 62.671875 90.03125 62.574219 89.433594 62.574219 C 90.066406 62.574219 90.664062 62.46875 91.226562 62.265625 C 93.316406 61.535156 94.816406 59.535156 94.816406 57.1875 C 94.816406 60.167969 97.21875 62.574219 100.199219 62.574219 Z M 100.199219 62.574219 "></path><path style=" stroke:none;fill-rule:nonzero;fill:#5b6670;fill-opacity:1;" d="M 89.515625 33.296875 C 87.328125 33.296875 85.316406 33.953125 83.628906 35.09375 C 82.671875 35.738281 81.824219 36.53125 81.128906 37.449219 C 86.140625 41.460938 89.730469 47.417969 90.925781 54.277344 C 92.003906 54.136719 93.019531 53.824219 93.964844 53.371094 C 97.554688 51.707031 100.054688 48.054688 100.054688 43.839844 C 100.054688 38.011719 95.328125 33.296875 89.515625 33.296875 Z M 89.515625 33.296875 "></path><path style=" stroke:none;fill-rule:nonzero;fill:#a2c5d3;fill-opacity:1;" d="M 93.855469 53.140625 L 93.964844 53.371094 C 93.019531 53.824219 92.003906 54.136719 90.925781 54.277344 C 89.730469 47.417969 86.140625 41.460938 81.128906 37.449219 C 81.824219 36.53125 82.671875 35.738281 83.628906 35.09375 C 86.128906 36.71875 92.851562 42.070312 93.855469 53.140625 Z M 93.855469 53.140625 "></path><path style=" stroke:none;fill-rule:nonzero;fill:#5b6670;fill-opacity:1;" d="M 91.371094 59.34375 C 91.371094 60.335938 91.324219 61.304688 91.226562 62.265625 L 91.15625 62.863281 C 90.988281 64.277344 90.710938 65.664062 90.339844 67.003906 C 89.324219 66.199219 88.054688 65.722656 86.65625 65.722656 C 86.390625 65.722656 86.128906 65.734375 85.878906 65.78125 C 85.820312 65.125 85.746094 64.464844 85.664062 63.832031 C 85.652344 63.738281 85.640625 63.640625 85.625 63.542969 C 85.542969 62.933594 85.449219 62.335938 85.339844 61.75 C 85.339844 61.726562 85.328125 61.6875 85.316406 61.667969 C 85.207031 61.054688 85.085938 60.445312 84.945312 59.84375 C 84.910156 59.644531 84.859375 59.441406 84.800781 59.246094 C 84.695312 58.78125 84.574219 58.324219 84.441406 57.882812 C 84.441406 57.835938 84.429688 57.789062 84.40625 57.738281 C 84.265625 57.222656 84.105469 56.710938 83.941406 56.207031 C 83.902344 56.085938 83.867188 55.964844 83.820312 55.847656 C 83.652344 55.367188 83.484375 54.902344 83.304688 54.445312 C 83.042969 53.753906 82.757812 53.070312 82.445312 52.414062 C 82.226562 51.945312 82.011719 51.492188 81.773438 51.046875 C 81.761719 51 81.738281 50.964844 81.714844 50.914062 L 81.703125 50.902344 C 81.535156 50.558594 81.34375 50.222656 81.152344 49.886719 C 81.105469 49.945312 81.070312 50.019531 81.023438 50.078125 C 80.746094 50.484375 80.4375 50.878906 80.085938 51.25 C 79.917969 51.433594 79.75 51.609375 79.574219 51.777344 C 79.46875 51.898438 79.347656 52.003906 79.226562 52.101562 C 79.035156 52.28125 78.84375 52.449219 78.640625 52.617188 C 78.460938 52.757812 78.28125 52.902344 78.089844 53.046875 C 77.863281 53.226562 77.636719 53.382812 77.394531 53.539062 C 70.613281 58.121094 59.019531 59.34375 52.941406 59.34375 C 50.582031 59.34375 48.765625 59.617188 47.378906 60.027344 C 46.972656 61.84375 46.671875 63.773438 46.503906 65.75 C 46.386719 65.722656 46.277344 65.722656 46.160156 65.722656 C 44.414062 65.722656 42.832031 66.476562 41.753906 67.6875 C 40.953125 65.0625 40.535156 62.265625 40.535156 59.34375 C 40.535156 44.273438 51.925781 32.050781 65.957031 32.050781 C 71.640625 32.050781 76.890625 34.050781 81.128906 37.449219 C 86.140625 41.460938 89.730469 47.417969 90.925781 54.277344 C 91.214844 55.917969 91.371094 57.621094 91.371094 59.34375 Z M 91.371094 59.34375 "></path><path style=" stroke:none;fill-rule:nonzero;fill:#f4cfc6;fill-opacity:1;" d="M 46.300781 69.886719 C 46.300781 72.5 46.53125 75.023438 46.921875 77.441406 C 46.9375 77.488281 46.9375 77.523438 46.949219 77.574219 C 46.6875 77.621094 46.421875 77.644531 46.160156 77.644531 C 42.871094 77.644531 40.199219 74.964844 40.199219 71.671875 C 40.199219 70.152344 40.785156 68.75 41.753906 67.6875 C 42.832031 66.476562 44.414062 65.722656 46.160156 65.722656 C 46.277344 65.722656 46.386719 65.722656 46.503906 65.75 C 46.363281 67.101562 46.300781 68.488281 46.300781 69.886719 Z M 46.300781 69.886719 "></path><path style=" stroke:none;fill-rule:nonzero;fill:#f4cfc6;fill-opacity:1;" d="M 90.339844 67.003906 C 91.726562 68.089844 92.613281 69.777344 92.613281 71.671875 C 92.613281 74.964844 89.945312 77.644531 86.65625 77.644531 C 86.238281 77.644531 85.828125 77.585938 85.449219 77.511719 L 85.519531 77.070312 C 85.53125 76.960938 85.554688 76.84375 85.566406 76.722656 L 85.566406 76.710938 C 85.589844 76.601562 85.605469 76.460938 85.613281 76.339844 C 85.671875 76.015625 85.722656 75.695312 85.757812 75.359375 C 85.804688 74.949219 85.839844 74.53125 85.878906 74.101562 C 85.902344 73.960938 85.914062 73.8125 85.925781 73.683594 C 85.949219 73.324219 85.972656 72.976562 85.996094 72.617188 C 86.023438 72.292969 86.035156 71.957031 86.042969 71.636719 C 86.070312 71.050781 86.082031 70.476562 86.082031 69.886719 C 86.082031 68.5 86.023438 67.121094 85.878906 65.78125 C 86.128906 65.734375 86.390625 65.722656 86.65625 65.722656 C 88.054688 65.722656 89.324219 66.199219 90.339844 67.003906 Z M 90.339844 67.003906 "></path><path style=" stroke:none;fill-rule:nonzero;fill:#f4cfc6;fill-opacity:1;" d="M 86.140625 69.886719 C 86.125 74.394531 85.449219 78.894531 84.179688 83.125 C 82.75 87.882812 80.296875 92.257812 76.675781 95.695312 C 73.628906 98.59375 70.039062 100.28125 66.1875 100.28125 C 56.9375 100.28125 49.183594 90.644531 46.949219 77.574219 C 46.9375 77.523438 46.9375 77.488281 46.921875 77.441406 C 46.53125 75.023438 46.300781 72.5 46.300781 69.886719 C 46.300781 68.488281 46.363281 67.101562 46.503906 65.75 C 46.671875 63.773438 46.972656 61.84375 47.378906 60.027344 C 48.765625 59.617188 50.582031 59.34375 52.941406 59.34375 C 57.582031 59.34375 62.273438 58.808594 66.789062 57.757812 C 71.722656 56.617188 77.160156 54.777344 80.507812 50.761719 C 80.738281 50.484375 80.957031 50.207031 81.160156 49.914062 C 84.589844 55.929688 86.160156 62.914062 86.140625 69.886719 Z M 86.140625 69.886719 "></path><path style=" stroke:none;fill-rule:nonzero;fill:#a2c5d3;fill-opacity:1;" d="M 96.609375 91.304688 C 96.609375 91.972656 96.542969 92.632812 96.414062 93.289062 C 96.285156 93.945312 96.09375 94.582031 95.835938 95.195312 C 95.578125 95.8125 95.265625 96.402344 94.894531 96.957031 C 94.523438 97.507812 94.101562 98.027344 93.632812 98.496094 C 93.160156 98.96875 92.648438 99.390625 92.089844 99.761719 C 91.535156 100.132812 90.949219 100.449219 90.332031 100.703125 C 89.714844 100.957031 89.078125 101.152344 88.425781 101.28125 C 87.769531 101.410156 87.109375 101.476562 86.441406 101.476562 C 85.773438 101.476562 85.109375 101.410156 84.457031 101.28125 C 83.800781 101.152344 83.164062 100.957031 82.546875 100.703125 C 81.929688 100.449219 81.34375 100.132812 80.789062 99.761719 C 80.238281 99.390625 79.71875 98.96875 79.25 98.496094 C 78.777344 98.027344 78.355469 97.507812 77.984375 96.957031 C 77.613281 96.402344 77.300781 95.8125 77.042969 95.195312 C 76.792969 94.582031 76.597656 93.945312 76.46875 93.289062 C 76.335938 92.632812 76.273438 91.972656 76.273438 91.304688 C 76.273438 90.636719 76.335938 89.972656 76.46875 89.316406 C 76.597656 88.660156 76.792969 88.027344 77.042969 87.40625 C 77.300781 86.789062 77.613281 86.203125 77.984375 85.652344 C 78.355469 85.09375 78.777344 84.582031 79.25 84.109375 C 79.71875 83.636719 80.238281 83.214844 80.789062 82.839844 C 81.34375 82.472656 81.929688 82.15625 82.546875 81.902344 C 83.164062 81.648438 83.800781 81.453125 84.457031 81.324219 C 85.109375 81.191406 85.773438 81.128906 86.441406 81.128906 C 87.109375 81.128906 87.769531 81.191406 88.425781 81.324219 C 89.078125 81.453125 89.714844 81.648438 90.332031 81.902344 C 90.949219 82.15625 91.535156 82.472656 92.089844 82.839844 C 92.648438 83.214844 93.160156 83.636719 93.632812 84.109375 C 94.101562 84.582031 94.523438 85.09375 94.894531 85.652344 C 95.265625 86.203125 95.578125 86.789062 95.835938 87.40625 C 96.09375 88.027344 96.285156 88.660156 96.414062 89.316406 C 96.542969 89.972656 96.609375 90.636719 96.609375 91.304688 Z M 96.609375 91.304688 "></path><path style=" stroke:none;fill-rule:nonzero;fill:#3a0e33;fill-opacity:1;" d="M 60.71875 72.75 C 60.71875 73.410156 61.253906 73.945312 61.914062 73.945312 C 62.574219 73.945312 63.109375 73.410156 63.109375 72.75 C 63.109375 69.449219 60.429688 66.765625 57.128906 66.765625 C 53.828125 66.765625 51.148438 69.449219 51.148438 72.75 C 51.148438 73.410156 51.683594 73.945312 52.34375 73.945312 C 53.007812 73.945312 53.542969 73.410156 53.542969 72.75 C 53.542969 70.769531 55.148438 69.160156 57.128906 69.160156 C 59.109375 69.160156 60.71875 70.769531 60.71875 72.75 Z M 60.71875 72.75 "></path><path style=" stroke:none;fill-rule:nonzero;fill:#3a0e33;fill-opacity:1;" d="M 75.074219 66.765625 C 71.773438 66.765625 69.09375 69.449219 69.09375 72.75 C 69.09375 73.410156 69.628906 73.945312 70.289062 73.945312 C 70.953125 73.945312 71.488281 73.410156 71.488281 72.75 C 71.488281 70.769531 73.09375 69.160156 75.074219 69.160156 C 77.054688 69.160156 78.664062 70.769531 78.664062 72.75 C 78.664062 73.410156 79.199219 73.945312 79.859375 73.945312 C 80.519531 73.945312 81.054688 73.410156 81.054688 72.75 C 81.054688 69.449219 78.375 66.765625 75.074219 66.765625 Z M 75.074219 66.765625 "></path><g clip-rule="nonzero" clip-path="url(#b5675d77c8)"><path style=" stroke:none;fill-rule:nonzero;fill:#3a0e33;fill-opacity:1;" d="M 45.164062 86.515625 C 42.855469 86.515625 40.980469 84.632812 40.980469 82.324219 C 40.980469 81.664062 40.445312 81.128906 39.78125 81.128906 C 39.121094 81.128906 38.585938 81.664062 38.585938 82.324219 C 38.585938 84.632812 36.707031 86.515625 34.398438 86.515625 C 33.738281 86.515625 33.203125 87.050781 33.203125 87.710938 C 33.203125 88.375 33.738281 88.910156 34.398438 88.910156 C 36.707031 88.910156 38.585938 90.785156 38.585938 93.097656 C 38.585938 93.761719 39.121094 94.296875 39.78125 94.296875 C 40.445312 94.296875 40.980469 93.761719 40.980469 93.097656 C 40.980469 90.785156 42.855469 88.910156 45.164062 88.910156 C 45.828125 88.910156 46.363281 88.375 46.363281 87.710938 C 46.363281 87.050781 45.828125 86.515625 45.164062 86.515625 Z M 39.78125 89.316406 C 39.34375 88.695312 38.800781 88.148438 38.175781 87.710938 C 38.800781 87.273438 39.34375 86.730469 39.78125 86.105469 C 40.21875 86.730469 40.765625 87.273438 41.386719 87.710938 C 40.765625 88.148438 40.21875 88.695312 39.78125 89.316406 Z M 39.78125 89.316406 "></path></g><path style=" stroke:none;fill-rule:nonzero;fill:#3a0e33;fill-opacity:1;" d="M 73.03125 86.269531 C 70.710938 88.589844 68.300781 89.714844 65.863281 89.632812 C 62.03125 89.496094 59.28125 86.386719 59.230469 86.332031 C 58.800781 85.828125 58.046875 85.773438 57.546875 86.203125 C 57.046875 86.632812 56.988281 87.390625 57.417969 87.890625 C 57.558594 88.050781 60.851562 91.839844 65.75 92.023438 C 65.878906 92.03125 66.003906 92.03125 66.132812 92.03125 C 69.132812 92.03125 72.023438 90.664062 74.726562 87.960938 C 75.191406 87.492188 75.191406 86.734375 74.726562 86.265625 C 74.257812 85.800781 73.5 85.800781 73.03125 86.269531 Z M 73.03125 86.269531 "></path><g clip-rule="nonzero" clip-path="url(#a5e8f52549)"><path style=" stroke:none;fill-rule:nonzero;fill:#3a0e33;fill-opacity:1;" d="M 97.5625 92.019531 L 100.957031 87.496094 C 101.351562 86.96875 101.242188 86.21875 100.714844 85.820312 C 100.1875 85.425781 99.4375 85.535156 99.039062 86.0625 L 97.382812 88.277344 C 96.054688 83.472656 91.660156 79.929688 86.441406 79.929688 C 86.355469 79.929688 86.273438 79.941406 86.1875 79.945312 C 86.269531 79.570312 86.339844 79.199219 86.414062 78.828125 C 86.496094 78.828125 86.578125 78.835938 86.660156 78.835938 C 90.601562 78.835938 93.808594 75.625 93.808594 71.671875 C 93.808594 69.722656 93.035156 67.90625 91.675781 66.585938 C 91.828125 65.972656 91.960938 65.355469 92.074219 64.738281 C 93.007812 65.507812 93.617188 66.65625 93.617188 67.960938 C 93.617188 68.625 94.152344 69.160156 94.816406 69.160156 C 95.476562 69.160156 96.011719 68.625 96.011719 67.960938 C 96.011719 65.648438 97.890625 63.773438 100.199219 63.773438 C 100.859375 63.773438 101.394531 63.238281 101.394531 62.574219 C 101.394531 61.914062 100.859375 61.378906 100.199219 61.378906 C 97.890625 61.378906 96.011719 59.496094 96.011719 57.1875 C 96.011719 56.527344 95.476562 55.992188 94.816406 55.992188 C 94.152344 55.992188 93.617188 56.527344 93.617188 57.1875 C 93.617188 58.253906 93.207031 59.21875 92.546875 59.957031 C 92.550781 59.753906 92.570312 59.546875 92.570312 59.34375 C 92.570312 57.949219 92.472656 56.578125 92.289062 55.234375 C 97.472656 53.96875 101.25 49.273438 101.25 43.835938 C 101.25 37.363281 95.984375 32.097656 89.511719 32.097656 C 87.160156 32.097656 84.890625 32.785156 82.953125 34.097656 C 82.953125 34.101562 82.949219 34.101562 82.949219 34.101562 C 82.210938 34.601562 81.570312 35.195312 80.972656 35.839844 C 76.695312 32.699219 71.523438 30.855469 65.953125 30.855469 C 51.28125 30.855469 39.34375 43.636719 39.34375 59.34375 C 39.34375 62.117188 39.726562 64.828125 40.449219 67.4375 C 39.53125 68.660156 39.007812 70.128906 39.007812 71.671875 C 39.007812 75.566406 42.121094 78.734375 45.984375 78.828125 C 48.609375 92.210938 56.800781 101.476562 66.1875 101.476562 C 69.933594 101.476562 73.5625 100.015625 76.769531 97.242188 C 78.769531 100.496094 82.351562 102.675781 86.441406 102.675781 C 89.886719 102.675781 93.109375 101.136719 95.28125 98.449219 C 95.695312 97.933594 95.617188 97.183594 95.105469 96.765625 C 94.585938 96.351562 93.832031 96.433594 93.421875 96.945312 C 91.707031 99.0625 89.164062 100.28125 86.441406 100.28125 C 81.492188 100.28125 77.46875 96.253906 77.46875 91.304688 C 77.46875 86.351562 81.492188 82.324219 86.441406 82.324219 C 90.679688 82.324219 94.246094 85.28125 95.175781 89.246094 L 92.625 87.972656 C 92.03125 87.675781 91.316406 87.914062 91.019531 88.507812 C 90.722656 89.097656 90.964844 89.816406 91.554688 90.113281 L 96.074219 92.375 C 96.136719 92.410156 96.527344 92.625 96.988281 92.46875 C 97.328125 92.355469 97.511719 92.105469 97.5625 92.019531 Z M 94.816406 60.96875 C 95.253906 61.59375 95.796875 62.136719 96.417969 62.574219 C 95.796875 63.011719 95.253906 63.558594 94.816406 64.179688 C 94.375 63.558594 93.832031 63.011719 93.210938 62.574219 C 93.832031 62.136719 94.375 61.59375 94.816406 60.96875 Z M 89.570312 67.925781 C 89.585938 67.9375 91.417969 70.199219 91.417969 71.671875 C 91.414062 74.253906 89.367188 76.359375 86.8125 76.441406 C 86.996094 75.125 87.140625 73.691406 87.214844 72.152344 C 87.304688 70.269531 87.277344 68.527344 87.179688 66.957031 C 87.460938 66.949219 87.964844 66.964844 88.53125 67.207031 C 89.042969 67.425781 89.386719 67.730469 89.570312 67.925781 Z M 98.855469 43.839844 C 98.855469 46.964844 97.277344 49.785156 94.851562 51.488281 C 93.605469 42.757812 88.972656 37.707031 85.871094 35.246094 C 87.015625 34.757812 88.246094 34.488281 89.511719 34.488281 C 94.664062 34.488281 98.855469 38.683594 98.855469 43.839844 Z M 83.675781 36.578125 C 86.476562 38.59375 91.558594 43.46875 92.585938 52.652344 C 92.351562 52.738281 92.109375 52.804688 91.867188 52.871094 C 90.519531 46.675781 87.28125 41.246094 82.835938 37.332031 C 83.097656 37.066406 83.378906 36.816406 83.675781 36.578125 Z M 65.953125 33.199219 C 69.875 33.175781 73.871094 34.339844 77.242188 36.261719 C 83.902344 40.058594 88.414062 46.949219 89.742188 54.449219 C 90.023438 56.035156 90.175781 57.671875 90.175781 59.34375 C 90.175781 60 90.144531 60.65625 90.097656 61.3125 C 89.878906 61.347656 89.660156 61.378906 89.433594 61.378906 C 88.769531 61.378906 88.234375 61.914062 88.234375 62.574219 C 88.234375 63.238281 88.769531 63.773438 89.433594 63.773438 C 89.5625 63.773438 89.6875 63.796875 89.816406 63.808594 C 89.75 64.21875 89.695312 64.636719 89.566406 65.027344 C 88.839844 65.015625 88.03125 64.710938 87.3125 64.53125 C 87.207031 64.507812 87.09375 64.476562 87.011719 64.398438 C 86.902344 64.292969 86.878906 64.128906 86.859375 63.980469 C 86.308594 59.085938 84.851562 54.257812 82.527344 49.914062 C 83.253906 48.652344 83.722656 47.285156 83.882812 45.828125 C 83.953125 45.171875 83.480469 44.578125 82.824219 44.507812 C 82.144531 44.441406 81.574219 44.910156 81.503906 45.566406 C 80.894531 50.984375 74.96875 54.34375 70.300781 55.832031 C 64.964844 57.527344 59.285156 57.601562 53.75 57.980469 C 52.390625 58.070312 51.027344 58.183594 49.671875 58.339844 C 46.738281 58.679688 43.675781 59.808594 41.984375 62.363281 C 42.003906 61.503906 42.007812 60.597656 41.953125 59.710938 C 41.542969 52.929688 44.03125 46.027344 48.667969 41.066406 C 52.472656 36.996094 57.683594 34.28125 63.179688 33.414062 C 64.097656 33.269531 65.023438 33.203125 65.953125 33.199219 Z M 42.429688 65.578125 C 42.292969 64.980469 42.183594 64.371094 42.085938 63.757812 C 42.222656 63.933594 42.386719 64.085938 42.609375 64.167969 C 42.742188 64.21875 42.878906 64.242188 43.011719 64.242188 C 43.492188 64.242188 43.949219 63.941406 44.140625 63.476562 C 44.160156 63.433594 44.492188 62.691406 45.785156 61.960938 C 45.761719 62.105469 45.738281 62.253906 45.714844 62.402344 C 45.667969 62.71875 45.628906 63.035156 45.582031 63.347656 C 45.53125 63.753906 45.414062 64.5625 45.414062 64.5625 C 44.863281 64.664062 44.226562 64.828125 43.542969 65.082031 C 43.136719 65.238281 42.761719 65.410156 42.429688 65.578125 Z M 45.179688 67.019531 C 45.183594 67.019531 45.191406 67.019531 45.199219 67.019531 C 45.191406 67.101562 45.191406 67.191406 45.1875 67.273438 C 45.140625 68.105469 45.105469 68.964844 45.105469 69.886719 C 45.105469 70.867188 45.148438 71.851562 45.210938 72.839844 C 45.21875 73.003906 45.230469 73.164062 45.238281 73.328125 C 45.3125 74.28125 45.410156 75.242188 45.539062 76.199219 C 45.550781 76.265625 45.550781 76.335938 45.558594 76.40625 C 43.21875 76.113281 41.402344 74.101562 41.402344 71.671875 C 41.402344 70.5 41.835938 69.371094 42.648438 68.488281 C 42.992188 68.175781 43.457031 67.820312 44.058594 67.5 C 44.460938 67.285156 44.84375 67.132812 45.179688 67.019531 Z M 84.265625 77.320312 L 84.265625 77.324219 C 84.101562 78.316406 83.882812 79.3125 83.644531 80.296875 C 78.726562 81.542969 75.074219 86 75.074219 91.304688 C 75.074219 92.589844 75.300781 93.824219 75.695312 94.980469 C 72.808594 97.65625 69.535156 99.082031 66.1875 99.082031 C 57.742188 99.082031 50.316406 90.152344 48.121094 77.339844 C 48.117188 77.316406 48.109375 77.273438 48.101562 77.238281 C 47.894531 75.96875 47.742188 74.695312 47.640625 73.429688 C 47.550781 72.25 47.5 71.066406 47.5 69.886719 C 47.5 68.984375 47.535156 68.117188 47.589844 67.265625 C 47.621094 66.785156 47.648438 66.300781 47.695312 65.847656 C 47.746094 65.273438 47.820312 64.703125 47.890625 64.128906 C 48.027344 63.070312 48.1875 62.019531 48.394531 60.996094 C 48.464844 60.980469 48.542969 60.96875 48.617188 60.953125 C 49.867188 60.679688 51.3125 60.542969 52.941406 60.542969 C 53.230469 60.542969 53.546875 60.53125 53.855469 60.53125 C 54.0625 60.523438 54.261719 60.527344 54.476562 60.519531 C 54.507812 60.515625 54.542969 60.515625 54.574219 60.515625 C 56.152344 60.46875 57.910156 60.355469 59.753906 60.15625 C 67.324219 59.328125 76.445312 57.054688 80.960938 52.078125 C 82.960938 56.113281 84.246094 60.875 84.6875 65.914062 C 84.894531 67.566406 85.019531 69.535156 84.933594 71.742188 C 84.847656 73.859375 84.582031 75.738281 84.265625 77.320312 Z M 84.265625 77.320312 "></path></g><path style=" stroke:none;fill-rule:nonzero;fill:#3a0e33;fill-opacity:1;" d="M 85.839844 87.113281 C 85.179688 87.113281 84.644531 87.648438 84.644531 88.308594 L 84.644531 93.097656 C 84.644531 93.761719 85.179688 94.296875 85.839844 94.296875 L 90.625 94.296875 C 91.289062 94.296875 91.824219 93.761719 91.824219 93.097656 C 91.824219 92.4375 91.289062 91.902344 90.625 91.902344 L 87.039062 91.902344 L 87.039062 88.308594 C 87.039062 87.648438 86.503906 87.113281 85.839844 87.113281 Z M 85.839844 87.113281 "></path></g></svg>
