<svg xmlns="http://www.w3.org/2000/svg" xmlns:xlink="http://www.w3.org/1999/xlink" width="180" zoomAndPan="magnify" viewBox="0 0 135 135.000003" height="180" preserveAspectRatio="xMidYMid meet"><defs><clipPath id="be11cf56c4"><path d="M 0.496094 0 L 134.503906 0 L 134.503906 134.007812 L 0.496094 134.007812 Z M 0.496094 0 "></path></clipPath><clipPath id="3c5cc2990e"><path d="M 0.496094 0 L 134.503906 0 L 134.503906 134.007812 L 0.496094 134.007812 Z M 0.496094 0 "></path></clipPath><clipPath id="84c310d546"><path d="M 67.5 0 C 30.496094 0 0.496094 30 0.496094 67.003906 C 0.496094 104.007812 30.496094 134.007812 67.5 134.007812 C 104.503906 134.007812 134.503906 104.007812 134.503906 67.003906 C 134.503906 30 104.503906 0 67.5 0 Z M 67.5 0 "></path></clipPath><clipPath id="625d2eac8c"><path d="M 26.707031 26.210938 L 108.601562 26.210938 L 108.601562 108.105469 L 26.707031 108.105469 Z M 26.707031 26.210938 "></path></clipPath><clipPath id="7a49c95be5"><path d="M 66.390625 4.828125 C 31.496094 4.828125 3.203125 33.121094 3.203125 68.015625 C 3.203125 102.910156 31.496094 131.203125 66.390625 131.203125 C 101.285156 131.203125 129.574219 102.910156 129.574219 68.015625 C 129.574219 33.121094 101.285156 4.828125 66.390625 4.828125 Z M 66.390625 4.828125 "></path></clipPath><clipPath id="3d09aad310"><path d="M 26.707031 27.753906 L 106.867188 27.753906 L 106.867188 108.105469 L 26.707031 108.105469 Z M 26.707031 27.753906 "></path></clipPath></defs><g id="e4c22c07b8"><g clip-rule="nonzero" clip-path="url(#be11cf56c4)"><path style=" stroke:none;fill-rule:nonzero;fill:#ffffff;fill-opacity:1;" d="M 0.496094 0 L 134.503906 0 L 134.503906 134.007812 L 0.496094 134.007812 Z M 0.496094 0 "></path><path style=" stroke:none;fill-rule:nonzero;fill:#ffffff;fill-opacity:1;" d="M 0.496094 0 L 134.503906 0 L 134.503906 134.007812 L 0.496094 134.007812 Z M 0.496094 0 "></path></g><g clip-rule="nonzero" clip-path="url(#3c5cc2990e)"><g clip-rule="nonzero" clip-path="url(#84c310d546)"><path style=" stroke:none;fill-rule:nonzero;fill:#f4dddd;fill-opacity:1;" d="M 0.496094 0 L 134.503906 0 L 134.503906 134.007812 L 0.496094 134.007812 Z M 0.496094 0 "></path><path style="fill:none;stroke-width:12;stroke-linecap:butt;stroke-linejoin:miter;stroke:#7b2e07;stroke-opacity:1;stroke-miterlimit:4;" d="M 90.000004 -0.00000933333 C 40.29599 -0.00000933333 -0.000306642 40.296288 -0.000306642 90.000301 C -0.000306642 139.704314 40.29599 180.000611 90.000004 180.000611 C 139.704017 180.000611 180.000314 139.704314 180.000314 90.000301 C 180.000314 40.296288 139.704017 -0.00000933333 90.000004 -0.00000933333 Z M 90.000004 -0.00000933333 " transform="matrix(0.744485,0,0,0.744485,0.496322,0.00000694853)"></path></g></g><g clip-rule="nonzero" clip-path="url(#625d2eac8c)"><g clip-rule="nonzero" clip-path="url(#7a49c95be5)"><path style=" stroke:none;fill-rule:nonzero;fill:#ffdfdf;fill-opacity:1;" d="M 3.203125 4.828125 L 129.574219 4.828125 L 129.574219 131.203125 L 3.203125 131.203125 Z M 3.203125 4.828125 "></path><path style="fill:none;stroke-width:8;stroke-linecap:butt;stroke-linejoin:miter;stroke:#f80303;stroke-opacity:1;stroke-miterlimit:4;" d="M 90.001656 -0.00278089 C 40.298614 -0.00278089 -0.00130051 40.297134 -0.00130051 90.000176 C -0.00130051 139.703218 40.298614 180.003133 90.001656 180.003133 C 139.704699 180.003133 179.999049 139.703218 179.999049 90.000176 C 179.999049 40.297134 139.704699 -0.00278089 90.001656 -0.00278089 Z M 90.001656 -0.00278089 " transform="matrix(0.70206,0,0,0.70206,3.204038,4.830077)"></path></g></g><path style=" stroke:none;fill-rule:nonzero;fill:#aab2bd;fill-opacity:1;" d="M 102.957031 73.332031 L 102.957031 101.203125 C 102.484375 100.839844 101.957031 100.539062 101.378906 100.304688 C 100.046875 99.773438 98.816406 99.011719 97.75 98.046875 L 97.75 78.539062 L 66.496094 78.539062 L 66.496094 86.351562 L 61.289062 86.351562 L 61.289062 73.332031 Z M 102.957031 73.332031 "></path><path style=" stroke:none;fill-rule:nonzero;fill:#ffeaa7;fill-opacity:1;" d="M 66.496094 86.351562 L 66.496094 78.539062 L 97.75 78.539062 L 97.75 98.046875 C 97.585938 97.90625 97.429688 97.753906 97.273438 97.597656 L 95.714844 96.039062 C 95.101562 95.421875 94.550781 94.742188 94.078125 94.011719 C 93.613281 93.28125 93.21875 92.5 92.910156 91.6875 C 91.121094 86.910156 86.558594 83.75 81.460938 83.75 L 69.101562 83.75 C 67.660156 83.75 66.496094 84.914062 66.496094 86.351562 Z M 66.496094 86.351562 "></path><path style=" stroke:none;fill-rule:nonzero;fill:#5cd6b3;fill-opacity:1;" d="M 105.5625 106.480469 L 105.5625 107.1875 L 69.101562 107.1875 C 67.660156 107.1875 66.496094 106.023438 66.496094 104.582031 L 66.496094 86.351562 C 66.496094 84.914062 67.660156 83.75 69.101562 83.75 L 81.460938 83.75 C 86.558594 83.75 91.121094 86.910156 92.910156 91.6875 C 93.21875 92.5 93.613281 93.28125 94.078125 94.011719 C 94.550781 94.742188 95.101562 95.421875 95.714844 96.039062 L 97.273438 97.597656 C 97.429688 97.753906 97.585938 97.90625 97.75 98.046875 C 98.816406 99.011719 100.046875 99.773438 101.378906 100.304688 C 101.957031 100.539062 102.484375 100.839844 102.957031 101.203125 C 103.527344 101.640625 104.023438 102.164062 104.417969 102.753906 C 105.148438 103.828125 105.5625 105.121094 105.5625 106.480469 Z M 105.5625 106.480469 "></path><path style=" stroke:none;fill-rule:nonzero;fill:#b27946;fill-opacity:1;" d="M 48.265625 96.769531 L 47.25 98.800781 C 46.363281 100.570312 45.015625 102.019531 43.390625 103.019531 C 41.773438 104.023438 39.875 104.582031 37.894531 104.582031 C 32.113281 104.582031 27.425781 99.898438 27.425781 94.121094 L 27.425781 88.957031 C 27.425781 86.796875 28.304688 84.847656 29.71875 83.433594 C 31.128906 82.015625 33.085938 81.144531 35.246094 81.144531 C 36.679688 81.144531 37.847656 82.308594 37.847656 83.75 L 37.847656 86.351562 C 36.410156 86.351562 35.246094 87.515625 35.246094 88.957031 L 35.246094 94.164062 C 35.246094 94.882812 35.535156 95.535156 36.003906 96.007812 C 36.476562 96.480469 37.125 96.769531 37.847656 96.769531 C 37.847656 97.488281 38.140625 98.140625 38.605469 98.613281 C 39.082031 99.082031 39.730469 99.375 40.453125 99.375 C 41.171875 99.375 41.824219 99.082031 42.292969 98.613281 C 42.765625 98.140625 43.058594 97.488281 43.058594 96.769531 Z M 48.265625 96.769531 "></path><path style=" stroke:none;fill-rule:nonzero;fill:#f0d0b4;fill-opacity:1;" d="M 66.496094 99.375 L 66.496094 104.582031 L 57.226562 104.582031 C 54.984375 104.582031 52.996094 103.152344 52.289062 101.019531 L 50.871094 96.769531 L 43.058594 96.769531 C 43.058594 97.488281 42.765625 98.140625 42.292969 98.613281 C 41.824219 99.082031 41.171875 99.375 40.453125 99.375 C 39.730469 99.375 39.082031 99.082031 38.605469 98.613281 C 38.140625 98.140625 37.847656 97.488281 37.847656 96.769531 C 37.125 96.769531 36.476562 96.480469 36.003906 96.007812 C 35.535156 95.535156 35.246094 94.882812 35.246094 94.164062 L 35.246094 88.957031 C 35.246094 87.515625 36.410156 86.351562 37.847656 86.351562 L 43.058594 86.351562 C 45.929688 86.351562 48.265625 88.683594 48.265625 91.5625 L 50.871094 91.5625 L 53.023438 89.402344 C 54.980469 87.449219 57.628906 86.351562 60.390625 86.351562 L 66.496094 86.351562 Z M 66.496094 99.375 "></path><path style=" stroke:none;fill-rule:nonzero;fill:#aab2bd;fill-opacity:1;" d="M 37.847656 57.707031 L 48.265625 57.707031 L 48.265625 68.121094 L 37.847656 68.121094 Z M 37.847656 57.707031 "></path><path style=" stroke:none;fill-rule:nonzero;fill:#aab2bd;fill-opacity:1;" d="M 48.265625 55.101562 L 48.265625 57.707031 L 37.847656 57.707031 L 37.847656 55.101562 C 37.847656 52.222656 40.179688 49.890625 43.058594 49.890625 C 44.492188 49.890625 45.796875 50.472656 46.742188 51.417969 C 47.679688 52.359375 48.265625 53.660156 48.265625 55.101562 Z M 48.265625 55.101562 "></path><path style=" stroke:none;fill-rule:nonzero;fill:#ccd1d9;fill-opacity:1;" d="M 40.453125 68.121094 L 45.660156 68.121094 L 45.660156 73.332031 L 40.453125 73.332031 Z M 40.453125 68.121094 "></path><path style=" stroke:none;fill-rule:nonzero;fill:#ccd1d9;fill-opacity:1;" d="M 61.289062 62.914062 L 61.289062 70.726562 L 48.265625 62.914062 L 48.265625 55.101562 Z M 61.289062 62.914062 "></path><path style=" stroke:none;fill-rule:nonzero;fill:#e6e9ed;fill-opacity:1;" d="M 61.289062 57.707031 L 102.957031 57.707031 L 102.957031 73.332031 L 61.289062 73.332031 Z M 61.289062 57.707031 "></path><path style=" stroke:none;fill-rule:nonzero;fill:#ef7385;fill-opacity:1;" d="M 82.121094 65.519531 C 82.121094 65.859375 82.054688 66.195312 81.921875 66.511719 C 81.789062 66.832031 81.601562 67.113281 81.359375 67.359375 C 81.117188 67.601562 80.832031 67.792969 80.511719 67.921875 C 80.195312 68.054688 79.863281 68.121094 79.519531 68.121094 C 79.171875 68.121094 78.839844 68.054688 78.519531 67.921875 C 78.203125 67.792969 77.917969 67.601562 77.675781 67.359375 C 77.433594 67.113281 77.246094 66.832031 77.113281 66.511719 C 76.980469 66.195312 76.914062 65.859375 76.914062 65.519531 C 76.914062 65.171875 76.980469 64.839844 77.113281 64.519531 C 77.246094 64.203125 77.433594 63.917969 77.675781 63.675781 C 77.917969 63.429688 78.203125 63.242188 78.519531 63.113281 C 78.839844 62.980469 79.171875 62.914062 79.519531 62.914062 C 79.863281 62.914062 80.195312 62.980469 80.511719 63.113281 C 80.832031 63.242188 81.117188 63.429688 81.359375 63.675781 C 81.601562 63.917969 81.789062 64.203125 81.921875 64.519531 C 82.054688 64.839844 82.121094 65.171875 82.121094 65.519531 Z M 82.121094 65.519531 "></path><path style=" stroke:none;fill-rule:nonzero;fill:#ef7385;fill-opacity:1;" d="M 71.703125 65.519531 C 71.703125 65.859375 71.640625 66.195312 71.507812 66.511719 C 71.375 66.832031 71.1875 67.113281 70.941406 67.359375 C 70.695312 67.601562 70.414062 67.792969 70.09375 67.921875 C 69.777344 68.054688 69.445312 68.121094 69.101562 68.121094 C 68.753906 68.121094 68.421875 68.054688 68.101562 67.921875 C 67.785156 67.792969 67.5 67.601562 67.257812 67.359375 C 67.015625 67.113281 66.828125 66.832031 66.695312 66.511719 C 66.5625 66.195312 66.496094 65.859375 66.496094 65.519531 C 66.496094 65.171875 66.5625 64.839844 66.695312 64.519531 C 66.828125 64.203125 67.015625 63.917969 67.257812 63.675781 C 67.5 63.429688 67.785156 63.242188 68.101562 63.113281 C 68.421875 62.980469 68.753906 62.914062 69.101562 62.914062 C 69.445312 62.914062 69.777344 62.980469 70.09375 63.113281 C 70.414062 63.242188 70.695312 63.429688 70.941406 63.675781 C 71.1875 63.917969 71.375 64.203125 71.507812 64.519531 C 71.640625 64.839844 71.703125 65.171875 71.703125 65.519531 Z M 71.703125 65.519531 "></path><path style=" stroke:none;fill-rule:nonzero;fill:#69d6f4;fill-opacity:1;" d="M 87.332031 62.914062 L 97.75 62.914062 L 97.75 68.121094 L 87.332031 68.121094 Z M 87.332031 62.914062 "></path><path style=" stroke:none;fill-rule:nonzero;fill:#aab2bd;fill-opacity:1;" d="M 80.816406 52.496094 L 91.238281 52.496094 L 91.238281 57.707031 L 80.816406 57.707031 Z M 80.816406 52.496094 "></path><path style=" stroke:none;fill-rule:nonzero;fill:#ccd1d9;fill-opacity:1;" d="M 102.957031 47.289062 L 102.957031 49.890625 C 102.957031 51.328125 101.792969 52.496094 100.351562 52.496094 L 71.703125 52.496094 C 70.265625 52.496094 69.101562 51.328125 69.101562 49.890625 L 69.101562 47.289062 Z M 102.957031 47.289062 "></path><path style=" stroke:none;fill-rule:nonzero;fill:#69d6f4;fill-opacity:1;" d="M 102.957031 31.65625 L 102.957031 47.289062 L 69.101562 47.289062 L 69.101562 31.65625 C 69.101562 30.222656 70.265625 29.054688 71.703125 29.054688 L 100.351562 29.054688 C 101.792969 29.054688 102.957031 30.222656 102.957031 31.65625 Z M 102.957031 31.65625 "></path><path style=" stroke:none;fill-rule:nonzero;fill:#e6e9ed;fill-opacity:1;" d="M 95.144531 38.171875 L 94.917969 38.394531 C 92.5625 40.753906 89.363281 42.078125 86.027344 42.078125 C 88.1875 42.078125 89.933594 40.328125 89.933594 38.171875 C 89.933594 36.015625 88.1875 34.261719 86.027344 34.261719 C 87.695312 34.261719 89.332031 34.597656 90.839844 35.21875 C 92.351562 35.847656 93.742188 36.765625 94.917969 37.945312 Z M 95.144531 38.171875 "></path><path style=" stroke:none;fill-rule:nonzero;fill:#e6e9ed;fill-opacity:1;" d="M 86.027344 34.261719 C 83.871094 34.261719 82.121094 36.015625 82.121094 38.171875 C 82.121094 40.328125 83.871094 42.078125 86.027344 42.078125 C 82.691406 42.078125 79.496094 40.753906 77.132812 38.394531 L 76.914062 38.171875 L 77.132812 37.945312 C 79.496094 35.589844 82.691406 34.261719 86.027344 34.261719 Z M 86.027344 34.261719 "></path><path style=" stroke:none;fill-rule:nonzero;fill:#969faa;fill-opacity:1;" d="M 89.933594 38.171875 C 89.933594 38.429688 89.910156 38.683594 89.863281 38.933594 C 89.808594 39.183594 89.738281 39.429688 89.636719 39.667969 C 89.542969 39.902344 89.417969 40.125 89.277344 40.339844 C 89.136719 40.554688 88.972656 40.753906 88.789062 40.933594 C 88.609375 41.113281 88.414062 41.277344 88.199219 41.417969 C 87.988281 41.558594 87.761719 41.679688 87.523438 41.78125 C 87.285156 41.875 87.042969 41.953125 86.789062 42 C 86.539062 42.054688 86.285156 42.078125 86.027344 42.078125 C 85.773438 42.078125 85.519531 42.054688 85.269531 42 C 85.015625 41.953125 84.769531 41.875 84.535156 41.78125 C 84.296875 41.679688 84.070312 41.558594 83.855469 41.417969 C 83.644531 41.277344 83.449219 41.113281 83.269531 40.933594 C 83.082031 40.753906 82.921875 40.554688 82.78125 40.339844 C 82.636719 40.125 82.515625 39.902344 82.421875 39.667969 C 82.320312 39.429688 82.246094 39.183594 82.195312 38.933594 C 82.148438 38.683594 82.121094 38.429688 82.121094 38.171875 C 82.121094 37.914062 82.148438 37.660156 82.195312 37.410156 C 82.246094 37.15625 82.320312 36.910156 82.421875 36.675781 C 82.515625 36.441406 82.636719 36.214844 82.78125 36 C 82.921875 35.789062 83.082031 35.589844 83.269531 35.40625 C 83.449219 35.226562 83.644531 35.066406 83.855469 34.921875 C 84.070312 34.78125 84.296875 34.660156 84.535156 34.5625 C 84.769531 34.464844 85.015625 34.386719 85.269531 34.339844 C 85.519531 34.289062 85.773438 34.261719 86.027344 34.261719 C 86.285156 34.261719 86.539062 34.289062 86.789062 34.339844 C 87.042969 34.386719 87.285156 34.464844 87.523438 34.5625 C 87.761719 34.660156 87.988281 34.78125 88.199219 34.921875 C 88.414062 35.066406 88.609375 35.226562 88.789062 35.40625 C 88.972656 35.589844 89.136719 35.789062 89.277344 36 C 89.417969 36.214844 89.542969 36.441406 89.636719 36.675781 C 89.738281 36.910156 89.808594 37.15625 89.863281 37.410156 C 89.910156 37.660156 89.933594 37.914062 89.933594 38.171875 Z M 89.933594 38.171875 "></path><path style=" stroke:none;fill-rule:nonzero;fill:#000000;fill-opacity:1;" d="M 86.027344 43.378906 C 89.738281 43.378906 93.222656 41.933594 95.839844 39.316406 L 96.984375 38.171875 L 95.839844 37.023438 C 93.222656 34.40625 89.738281 32.960938 86.027344 32.960938 C 82.320312 32.960938 78.835938 34.40625 76.21875 37.023438 L 75.070312 38.171875 L 76.21875 39.316406 C 78.835938 41.933594 82.320312 43.378906 86.027344 43.378906 Z M 83.421875 38.171875 C 83.421875 36.734375 84.59375 35.566406 86.027344 35.566406 C 87.464844 35.566406 88.632812 36.734375 88.632812 38.171875 C 88.632812 39.605469 87.464844 40.773438 86.027344 40.773438 C 84.59375 40.773438 83.421875 39.605469 83.421875 38.171875 Z M 91.03125 39.605469 C 91.164062 39.152344 91.238281 38.667969 91.238281 38.171875 C 91.238281 37.671875 91.164062 37.191406 91.03125 36.734375 C 91.816406 37.125 92.554688 37.601562 93.234375 38.171875 C 92.554688 38.738281 91.816406 39.21875 91.03125 39.605469 Z M 81.019531 36.734375 C 80.890625 37.191406 80.816406 37.671875 80.816406 38.171875 C 80.816406 38.667969 80.890625 39.152344 81.019531 39.605469 C 80.238281 39.21875 79.503906 38.738281 78.820312 38.171875 C 79.503906 37.601562 80.238281 37.125 81.019531 36.734375 Z M 81.019531 36.734375 "></path><g clip-rule="nonzero" clip-path="url(#3d09aad310)"><path style=" stroke:none;fill-rule:nonzero;fill:#000000;fill-opacity:1;" d="M 104.261719 100.589844 L 104.261719 56.402344 L 92.539062 56.402344 L 92.539062 53.796875 L 100.351562 53.796875 C 102.507812 53.796875 104.261719 52.042969 104.261719 49.890625 L 104.261719 31.65625 C 104.261719 29.507812 102.507812 27.753906 100.351562 27.753906 L 71.703125 27.753906 C 69.550781 27.753906 67.796875 29.507812 67.796875 31.65625 L 67.796875 49.890625 C 67.796875 52.042969 69.550781 53.796875 71.703125 53.796875 L 79.519531 53.796875 L 79.519531 56.402344 L 59.984375 56.402344 L 59.984375 60.613281 L 49.523438 54.335938 C 49.140625 51.105469 46.386719 48.589844 43.058594 48.589844 C 39.464844 48.589844 36.542969 51.507812 36.542969 55.101562 L 36.542969 69.421875 L 39.148438 69.421875 L 39.148438 74.632812 L 41.753906 74.632812 L 41.753906 82.445312 L 44.359375 82.445312 L 44.359375 74.632812 L 46.960938 74.632812 L 46.960938 69.421875 L 49.566406 69.421875 L 49.566406 65.210938 L 59.984375 71.464844 L 59.984375 85.058594 C 57.007812 85.164062 54.222656 86.367188 52.105469 88.480469 L 50.328125 90.257812 L 49.4375 90.257812 C 48.828125 87.292969 46.199219 85.050781 43.058594 85.050781 L 39.148438 85.050781 L 39.148438 83.75 C 39.148438 81.59375 37.394531 79.839844 35.246094 79.839844 C 30.214844 79.839844 26.128906 83.929688 26.128906 88.957031 L 26.128906 94.121094 C 26.128906 100.609375 31.40625 105.886719 37.894531 105.886719 C 42.375 105.886719 46.410156 103.394531 48.414062 99.382812 L 49.070312 98.070312 L 49.929688 98.070312 L 51.050781 101.433594 C 51.9375 104.097656 54.421875 105.886719 57.226562 105.886719 L 65.417969 105.886719 C 65.953125 107.402344 67.402344 108.492188 69.101562 108.492188 L 106.867188 108.492188 L 106.867188 106.480469 C 106.867188 104.183594 105.894531 102.0625 104.261719 100.589844 Z M 96.449219 94.917969 C 95.429688 93.851562 94.652344 92.613281 94.132812 91.226562 C 92.160156 85.972656 87.070312 82.445312 81.460938 82.445312 L 69.101562 82.445312 C 68.644531 82.445312 68.207031 82.527344 67.796875 82.667969 L 67.796875 79.839844 L 96.449219 79.839844 Z M 65.191406 77.234375 L 65.191406 85.050781 L 62.589844 85.050781 L 62.589844 74.632812 L 101.65625 74.632812 L 101.65625 99.007812 C 100.714844 98.609375 99.839844 98.085938 99.050781 97.449219 L 99.050781 77.234375 Z M 71.703125 30.359375 L 100.351562 30.359375 C 101.070312 30.359375 101.65625 30.945312 101.65625 31.65625 L 101.65625 45.984375 L 70.402344 45.984375 L 70.402344 31.65625 C 70.402344 30.945312 70.988281 30.359375 71.703125 30.359375 Z M 70.402344 49.890625 L 70.402344 48.589844 L 101.65625 48.589844 L 101.65625 49.890625 C 101.65625 50.609375 101.070312 51.191406 100.351562 51.191406 L 71.703125 51.191406 C 70.988281 51.191406 70.402344 50.609375 70.402344 49.890625 Z M 82.121094 53.796875 L 89.933594 53.796875 L 89.933594 56.402344 L 82.121094 56.402344 Z M 101.65625 59.003906 L 101.65625 72.027344 L 62.589844 72.027344 L 62.589844 59.003906 Z M 43.058594 51.191406 C 45.207031 51.191406 46.960938 52.945312 46.960938 55.101562 L 46.960938 56.402344 L 39.148438 56.402344 L 39.148438 55.101562 C 39.148438 52.945312 40.902344 51.191406 43.058594 51.191406 Z M 44.359375 72.027344 L 41.753906 72.027344 L 41.753906 69.421875 L 44.359375 69.421875 Z M 39.148438 66.820312 L 39.148438 59.003906 L 46.960938 59.003906 L 46.960938 66.820312 Z M 49.566406 62.175781 L 49.566406 57.398438 L 59.984375 63.652344 L 59.984375 68.425781 Z M 46.085938 98.21875 C 44.523438 101.339844 41.386719 103.28125 37.894531 103.28125 C 32.84375 103.28125 28.730469 99.171875 28.730469 94.121094 L 28.730469 88.957031 C 28.730469 85.367188 31.652344 82.445312 35.246094 82.445312 C 35.957031 82.445312 36.542969 83.03125 36.542969 83.75 L 36.542969 85.273438 C 35.03125 85.8125 33.941406 87.257812 33.941406 88.957031 L 33.941406 94.164062 C 33.941406 95.925781 35.113281 97.417969 36.714844 97.90625 C 37.199219 99.507812 38.691406 100.679688 40.453125 100.679688 C 42.148438 100.679688 43.597656 99.589844 44.136719 98.070312 L 46.160156 98.070312 Z M 53.523438 100.609375 L 51.804688 95.464844 L 41.753906 95.464844 L 41.753906 96.769531 C 41.753906 97.488281 41.171875 98.070312 40.453125 98.070312 C 39.734375 98.070312 39.148438 97.488281 39.148438 96.769531 L 39.148438 95.464844 L 37.847656 95.464844 C 37.128906 95.464844 36.542969 94.882812 36.542969 94.164062 L 36.542969 88.957031 C 36.542969 88.238281 37.128906 87.652344 37.847656 87.652344 L 43.058594 87.652344 C 45.207031 87.652344 46.960938 89.40625 46.960938 91.5625 L 46.960938 92.863281 L 51.40625 92.863281 L 53.945312 90.324219 C 55.671875 88.605469 57.957031 87.652344 60.390625 87.652344 L 65.191406 87.652344 L 65.191406 98.070312 L 59.222656 98.070312 C 57.683594 98.070312 56.242188 98.671875 55.15625 99.757812 L 57 101.597656 C 57.59375 101.003906 58.382812 100.679688 59.222656 100.679688 L 65.191406 100.679688 L 65.191406 103.28125 L 57.226562 103.28125 C 55.542969 103.28125 54.054688 102.207031 53.523438 100.609375 Z M 69.101562 105.886719 C 68.382812 105.886719 67.796875 105.300781 67.796875 104.582031 L 67.796875 86.351562 C 67.796875 85.632812 68.382812 85.050781 69.101562 85.050781 L 81.460938 85.050781 C 85.988281 85.050781 90.101562 87.898438 91.691406 92.144531 C 92.375 93.964844 93.421875 95.585938 94.792969 96.960938 L 96.355469 98.519531 C 97.65625 99.824219 99.1875 100.832031 100.898438 101.515625 C 102.753906 102.257812 104.015625 103.933594 104.226562 105.886719 Z M 69.101562 105.886719 "></path></g><path style=" stroke:none;fill-rule:nonzero;fill:#000000;fill-opacity:1;" d="M 69.101562 69.421875 C 71.253906 69.421875 73.003906 67.667969 73.003906 65.519531 C 73.003906 63.363281 71.253906 61.609375 69.101562 61.609375 C 66.945312 61.609375 65.191406 63.363281 65.191406 65.519531 C 65.191406 67.667969 66.945312 69.421875 69.101562 69.421875 Z M 69.101562 64.214844 C 69.820312 64.214844 70.402344 64.800781 70.402344 65.519531 C 70.402344 66.238281 69.820312 66.820312 69.101562 66.820312 C 68.382812 66.820312 67.796875 66.238281 67.796875 65.519531 C 67.796875 64.800781 68.382812 64.214844 69.101562 64.214844 Z M 69.101562 64.214844 "></path><path style=" stroke:none;fill-rule:nonzero;fill:#000000;fill-opacity:1;" d="M 79.519531 69.421875 C 81.671875 69.421875 83.421875 67.667969 83.421875 65.519531 C 83.421875 63.363281 81.671875 61.609375 79.519531 61.609375 C 77.363281 61.609375 75.609375 63.363281 75.609375 65.519531 C 75.609375 67.667969 77.363281 69.421875 79.519531 69.421875 Z M 79.519531 64.214844 C 80.238281 64.214844 80.816406 64.800781 80.816406 65.519531 C 80.816406 66.238281 80.238281 66.820312 79.519531 66.820312 C 78.800781 66.820312 78.214844 66.238281 78.214844 65.519531 C 78.214844 64.800781 78.800781 64.214844 79.519531 64.214844 Z M 79.519531 64.214844 "></path><path style=" stroke:none;fill-rule:nonzero;fill:#000000;fill-opacity:1;" d="M 99.050781 61.609375 L 86.027344 61.609375 L 86.027344 69.421875 L 99.050781 69.421875 Z M 96.449219 66.820312 L 88.632812 66.820312 L 88.632812 64.214844 L 96.449219 64.214844 Z M 96.449219 66.820312 "></path></g></svg>
