<svg xmlns="http://www.w3.org/2000/svg" xmlns:xlink="http://www.w3.org/1999/xlink" width="180" zoomAndPan="magnify" viewBox="0 0 135 135.000003" height="180" preserveAspectRatio="xMidYMid meet"><defs><clipPath id="649ba0141b"><path d="M 0.496094 0 L 134.503906 0 L 134.503906 134.007812 L 0.496094 134.007812 Z M 0.496094 0 "></path></clipPath><clipPath id="4912293d66"><path d="M 0.496094 0 L 134.503906 0 L 134.503906 134.007812 L 0.496094 134.007812 Z M 0.496094 0 "></path></clipPath><clipPath id="5b112abb0b"><path d="M 67.5 0 C 30.496094 0 0.496094 30 0.496094 67.003906 C 0.496094 104.007812 30.496094 134.007812 67.5 134.007812 C 104.503906 134.007812 134.503906 104.007812 134.503906 67.003906 C 134.503906 30 104.503906 0 67.5 0 Z M 67.5 0 "></path></clipPath><clipPath id="8091c88b1a"><path d="M 31.058594 19.386719 L 104.019531 19.386719 L 104.019531 114.683594 L 31.058594 114.683594 Z M 31.058594 19.386719 "></path></clipPath><clipPath id="e56bb4263a"><path d="M 71.503906 -3.320312 C 33.957031 -3.320312 3.515625 27.117188 3.515625 64.667969 C 3.515625 102.214844 33.957031 132.65625 71.503906 132.65625 C 109.050781 132.65625 139.492188 102.214844 139.492188 64.667969 C 139.492188 27.117188 109.050781 -3.320312 71.503906 -3.320312 Z M 71.503906 -3.320312 "></path></clipPath></defs><g id="377f3df090"><g clip-rule="nonzero" clip-path="url(#649ba0141b)"><path style=" stroke:none;fill-rule:nonzero;fill:#ffffff;fill-opacity:1;" d="M 0.496094 0 L 134.503906 0 L 134.503906 134.007812 L 0.496094 134.007812 Z M 0.496094 0 "></path><path style=" stroke:none;fill-rule:nonzero;fill:#ffffff;fill-opacity:1;" d="M 0.496094 0 L 134.503906 0 L 134.503906 134.007812 L 0.496094 134.007812 Z M 0.496094 0 "></path></g><g clip-rule="nonzero" clip-path="url(#4912293d66)"><g clip-rule="nonzero" clip-path="url(#5b112abb0b)"><path style=" stroke:none;fill-rule:nonzero;fill:#f4dddd;fill-opacity:1;" d="M 0.496094 0 L 134.503906 0 L 134.503906 134.007812 L 0.496094 134.007812 Z M 0.496094 0 "></path><path style="fill:none;stroke-width:12;stroke-linecap:butt;stroke-linejoin:miter;stroke:#7b2e07;stroke-opacity:1;stroke-miterlimit:4;" d="M 90.000004 -0.00000933333 C 40.29599 -0.00000933333 -0.000306642 40.296288 -0.000306642 90.000301 C -0.000306642 139.704314 40.29599 180.000611 90.000004 180.000611 C 139.704017 180.000611 180.000314 139.704314 180.000314 90.000301 C 180.000314 40.296288 139.704017 -0.00000933333 90.000004 -0.00000933333 Z M 90.000004 -0.00000933333 " transform="matrix(0.744485,0,0,0.744485,0.496322,0.00000694853)"></path></g></g><g clip-rule="nonzero" clip-path="url(#8091c88b1a)"><g clip-rule="nonzero" clip-path="url(#e56bb4263a)"><path style=" stroke:none;fill-rule:nonzero;fill:#ffdfdf;fill-opacity:1;" d="M 3.515625 -3.320312 L 139.492188 -3.320312 L 139.492188 132.65625 L 3.515625 132.65625 Z M 3.515625 -3.320312 "></path><path style="fill:none;stroke-width:8;stroke-linecap:butt;stroke-linejoin:miter;stroke:#f80303;stroke-opacity:1;stroke-miterlimit:4;" d="M 89.999932 0.00230907 C 40.297489 0.00230907 0.000866555 40.293761 0.000866555 90.001374 C 0.000866555 139.703817 40.297489 180.00044 89.999932 180.00044 C 139.702375 180.00044 179.998997 139.703817 179.998997 90.001374 C 179.998997 40.293761 139.702375 0.00230907 89.999932 0.00230907 Z M 89.999932 0.00230907 " transform="matrix(0.755433,0,0,0.755433,3.51497,-3.322057)"></path></g></g><path style=" stroke:none;fill-rule:nonzero;fill:#ffffff;fill-opacity:1;" d="M 79.4375 26.929688 C 77.867188 24.96875 75.519531 23.84375 73.011719 23.84375 C 68.464844 23.84375 64.765625 27.542969 64.765625 32.089844 C 64.765625 32.453125 64.796875 32.820312 64.847656 33.183594 C 70.722656 33.226562 75.542969 35.601562 77.3125 36.601562 C 77.378906 36.570312 77.449219 36.542969 77.523438 36.53125 C 77.554688 36.527344 78.519531 36.402344 79.96875 36.5 C 80.8125 35.179688 81.253906 33.660156 81.253906 32.089844 C 81.253906 31.390625 81.167969 30.699219 80.996094 30.027344 C 80.894531 29.636719 81.128906 29.238281 81.519531 29.140625 C 81.527344 29.136719 81.539062 29.136719 81.546875 29.136719 L 80.453125 27.046875 C 80.140625 27.289062 79.6875 27.238281 79.4375 26.929688 Z M 79.4375 26.929688 "></path><path style=" stroke:none;fill-rule:nonzero;fill:#ffffff;fill-opacity:1;" d="M 87.601562 82.515625 C 89.332031 79.53125 90.4375 76.300781 90.894531 72.90625 C 91.050781 71.726562 91.128906 70.675781 91.128906 69.785156 C 91.128906 69.082031 91.113281 68.375 91.082031 67.671875 L 90.832031 63.914062 C 89.742188 62.929688 88.695312 61.90625 87.71875 60.847656 C 87.445312 60.550781 87.464844 60.089844 87.761719 59.816406 C 88.054688 59.546875 88.519531 59.5625 88.789062 59.859375 C 89.605469 60.742188 90.472656 61.609375 91.375 62.445312 C 92.359375 59.90625 94.675781 52.460938 91.203125 45.464844 C 87.472656 37.941406 80.367188 37.792969 78.300781 37.921875 C 78.28125 37.964844 78.261719 38.007812 78.234375 38.046875 C 78.011719 38.378906 77.554688 38.472656 77.222656 38.246094 C 76.640625 37.855469 62.773438 28.828125 50.664062 40.574219 C 50.441406 40.789062 50.222656 41.011719 50 41.242188 C 49.859375 41.386719 49.667969 41.464844 49.476562 41.464844 C 49.296875 41.464844 49.113281 41.394531 48.96875 41.261719 C 48.960938 41.253906 48.957031 41.242188 48.949219 41.230469 L 47.898438 42.53125 C 48.214844 42.773438 48.273438 43.21875 48.035156 43.539062 C 47.886719 43.738281 47.742188 43.9375 47.601562 44.140625 C 41.675781 52.683594 45.234375 61.605469 46.671875 64.488281 C 46.761719 64.480469 46.855469 64.488281 46.945312 64.515625 C 47.332031 64.628906 47.550781 65.03125 47.441406 65.421875 C 47.367188 65.660156 47.324219 65.824219 47.300781 65.914062 L 47.304688 69.164062 C 47.304688 69.378906 47.300781 69.582031 47.300781 69.785156 C 47.300781 70.21875 47.320312 70.703125 47.355469 71.214844 C 47.910156 78.789062 51.804688 85.777344 58.039062 90.394531 L 62.164062 93.449219 C 66.328125 96.789062 72.132812 96.816406 76.304688 93.53125 L 80.160156 90.738281 C 82.402344 89.109375 84.371094 87.164062 86.007812 84.945312 C 86.246094 84.621094 86.699219 84.554688 87.027344 84.789062 L 87.835938 83.492188 C 87.511719 83.28125 87.402344 82.851562 87.601562 82.515625 Z M 87.601562 82.515625 "></path><path style=" stroke:none;fill-rule:nonzero;fill:#ffffff;fill-opacity:1;" d="M 79.441406 93.054688 L 77.183594 94.691406 C 74.859375 96.523438 72.078125 97.4375 69.292969 97.4375 C 66.460938 97.4375 63.632812 96.492188 61.277344 94.601562 L 59.289062 93.128906 C 59.464844 95.210938 59.515625 98.972656 58.257812 103.21875 C 57.992188 104.128906 57.601562 104.988281 57.117188 105.789062 L 81.566406 105.714844 C 81.101562 104.933594 80.726562 104.097656 80.464844 103.21875 C 79.199219 98.921875 79.261719 95.121094 79.441406 93.054688 Z M 79.441406 93.054688 "></path><path style=" stroke:none;fill-rule:nonzero;fill:#fcce9c;fill-opacity:1;" d="M 87.902344 60.082031 C 85.269531 56.792969 83.011719 53.949219 82.273438 52.304688 C 80.800781 54.699219 78.386719 56.378906 75.472656 56.914062 C 72.628906 57.433594 69.375 57.441406 65.800781 56.9375 C 56.988281 55.707031 50.265625 64.6875 48.863281 66.722656 C 48.867188 66.800781 48.859375 66.875 48.839844 66.949219 C 48.769531 67.191406 48.726562 67.359375 48.699219 67.449219 L 48.703125 70.402344 C 48.699219 70.617188 48.699219 70.820312 48.699219 71.019531 C 48.699219 71.457031 48.71875 71.941406 48.757812 72.453125 C 49.308594 80.023438 53.199219 87.015625 59.4375 91.632812 L 63.5625 94.683594 C 67.726562 98.027344 72.28125 97.3125 76.449219 94.027344 L 80.492188 91.152344 C 85.890625 87.246094 89.925781 82.191406 91.21875 75.777344 L 91.988281 70.320312 C 91.984375 69.722656 91.984375 69.457031 91.957031 68.851562 L 92.246094 65.46875 C 91.148438 64.476562 90.4375 63.164062 89.460938 62.101562 C 89.199219 61.816406 88.042969 60.257812 87.902344 60.082031 Z M 87.902344 60.082031 "></path><path style=" stroke:none;fill-rule:nonzero;fill:#ffffff;fill-opacity:1;" d="M 85.484375 83.246094 L 86.519531 82.214844 L 97.101562 92.796875 L 96.070312 93.832031 Z M 85.484375 83.246094 "></path><path style=" stroke:none;fill-rule:nonzero;fill:#ff617c;fill-opacity:1;" d="M 91.824219 63.503906 C 92.8125 60.964844 95.546875 53.234375 92.078125 46.238281 C 89.71875 41.476562 85.933594 39.679688 82.976562 39.03125 C 81.992188 38.816406 81.21875 39.90625 81.757812 40.753906 C 83.171875 42.96875 83.660156 45.679688 83.039062 48.402344 C 82.925781 48.886719 82.78125 49.359375 82.609375 49.8125 C 82.945312 50.71875 84.167969 55.507812 87.539062 59.714844 C 87.789062 60.03125 90.921875 62.667969 91.824219 63.503906 Z M 91.824219 63.503906 "></path><path style=" stroke:none;fill-rule:nonzero;fill:#fcce9c;fill-opacity:1;" d="M 80.132812 93.792969 L 77.871094 95.433594 C 75.550781 97.265625 72.722656 98.371094 69.9375 98.371094 C 67.105469 98.371094 64.230469 97.832031 62.691406 96.609375 L 62.117188 96.1875 C 61.566406 95.777344 60.777344 96.179688 60.789062 96.867188 C 60.832031 99.011719 60.617188 100 59.65625 103.25 C 59.414062 104.058594 59.082031 104.832031 58.667969 105.558594 L 82.851562 105.558594 C 82.4375 104.832031 81.628906 104.140625 81.386719 103.332031 C 80.121094 99.035156 79.949219 95.863281 80.132812 93.792969 Z M 80.132812 93.792969 "></path><path style=" stroke:none;fill-rule:nonzero;fill:#ff617c;fill-opacity:1;" d="M 48.65625 44.34375 C 48.511719 44.542969 48.367188 44.742188 48.230469 44.945312 C 42.5625 53.109375 45.558594 61.613281 47.089844 64.871094 C 48.976562 62.175781 55.867188 53.453125 65.226562 54.769531 C 68.644531 55.25 71.746094 55.246094 74.4375 54.75 C 77.917969 54.113281 80.578125 51.566406 81.367188 48.105469 C 82.152344 44.675781 80.878906 41.261719 78.046875 39.195312 C 77.929688 39.105469 77.859375 39.058594 77.851562 39.054688 C 77.847656 39.050781 77.847656 39.050781 77.847656 39.050781 C 77.261719 38.660156 63.394531 29.632812 51.285156 41.378906 C 51.0625 41.59375 50.839844 41.816406 50.625 42.046875 C 50.480469 42.191406 48.898438 44.019531 48.65625 44.34375 Z M 48.65625 44.34375 "></path><path style=" stroke:none;fill-rule:nonzero;fill:#ff617c;fill-opacity:1;" d="M 80.683594 27.527344 C 78.980469 25.675781 76.644531 24.625 74.132812 24.625 C 69.585938 24.625 65.886719 28.324219 65.886719 32.871094 C 65.886719 33.238281 65.917969 33.605469 65.964844 33.964844 C 71.84375 34.007812 76.664062 36.382812 78.433594 37.382812 C 78.5 37.347656 78.570312 37.324219 78.648438 37.3125 C 78.679688 37.308594 79.640625 37.183594 81.09375 37.277344 C 81.933594 35.960938 82.375 34.445312 82.375 32.871094 C 82.375 32.171875 82.289062 31.480469 82.113281 30.808594 C 82.019531 30.425781 81.410156 28.316406 80.683594 27.527344 Z M 80.683594 27.527344 "></path><path style=" stroke:none;fill-rule:nonzero;fill:#b1ddb3;fill-opacity:1;" d="M 86.933594 84.71875 L 87.96875 83.6875 L 98.550781 94.273438 L 97.523438 95.300781 Z M 86.933594 84.71875 "></path><path style=" stroke:none;fill-rule:nonzero;fill:#ffffff;fill-opacity:1;" d="M 96.925781 95.015625 C 97.050781 95.757812 97.328125 96.652344 97.949219 97.277344 C 97.996094 97.324219 98.050781 97.371094 98.101562 97.414062 C 98.957031 98.15625 99.953125 97.875 100.558594 97.273438 C 101.160156 96.667969 101.441406 95.671875 100.699219 94.816406 C 100.65625 94.761719 100.613281 94.710938 100.5625 94.664062 C 99.941406 94.042969 99.042969 93.765625 98.300781 93.640625 Z M 96.925781 95.015625 "></path><path style=" stroke:none;fill-rule:nonzero;fill:#ffffff;fill-opacity:1;" d="M 84.492188 78.59375 C 84.445312 78.546875 84.398438 78.5 84.347656 78.457031 C 83.484375 77.71875 82.492188 77.996094 81.890625 78.605469 C 81.28125 79.210938 81 80.203125 81.742188 81.0625 C 81.785156 81.113281 81.832031 81.160156 81.882812 81.210938 C 82.578125 81.90625 83.613281 82.175781 84.433594 82.273438 L 85.5625 81.148438 C 85.460938 80.3125 85.1875 79.285156 84.492188 78.59375 Z M 84.492188 78.59375 "></path><path style=" stroke:none;fill-rule:nonzero;fill:#ffffff;fill-opacity:1;" d="M 60.300781 68.847656 C 60.003906 68.816406 59.734375 69.035156 59.703125 69.328125 C 59.671875 69.625 59.890625 69.890625 60.1875 69.925781 C 60.332031 69.9375 60.46875 69.898438 60.585938 69.808594 C 60.695312 69.71875 60.765625 69.589844 60.78125 69.445312 C 60.796875 69.300781 60.753906 69.160156 60.664062 69.046875 C 60.570312 68.9375 60.445312 68.863281 60.300781 68.847656 Z M 60.300781 68.847656 "></path><path style=" stroke:none;fill-rule:nonzero;fill:#ffffff;fill-opacity:1;" d="M 79.289062 68.84375 C 79.269531 68.84375 79.25 68.847656 79.230469 68.847656 C 79.085938 68.863281 78.957031 68.9375 78.863281 69.046875 C 78.773438 69.160156 78.734375 69.300781 78.75 69.445312 C 78.78125 69.742188 79.046875 69.957031 79.34375 69.925781 C 79.640625 69.890625 79.855469 69.625 79.824219 69.328125 C 79.808594 69.1875 79.738281 69.058594 79.625 68.96875 C 79.53125 68.886719 79.410156 68.84375 79.289062 68.84375 Z M 79.289062 68.84375 "></path><path style=" stroke:none;fill-rule:nonzero;fill:#000000;fill-opacity:1;" d="M 69.59375 79.199219 C 69.128906 79.199219 68.671875 79.125 68.226562 78.984375 C 67.828125 78.855469 67.449219 78.679688 67.089844 78.445312 C 66.75 78.226562 66.652344 77.777344 66.871094 77.4375 C 67.089844 77.101562 67.535156 77.003906 67.878906 77.21875 C 68.132812 77.382812 68.394531 77.507812 68.671875 77.597656 C 69.277344 77.789062 69.925781 77.789062 70.527344 77.597656 C 70.796875 77.507812 71.0625 77.382812 71.316406 77.21875 C 71.65625 77.003906 72.105469 77.101562 72.320312 77.4375 C 72.539062 77.777344 72.4375 78.226562 72.101562 78.445312 C 71.746094 78.675781 71.367188 78.855469 70.976562 78.980469 C 70.527344 79.125 70.066406 79.199219 69.59375 79.199219 Z M 69.59375 79.199219 "></path><path style=" stroke:none;fill-rule:nonzero;fill:#000000;fill-opacity:1;" d="M 78.671875 32.375 C 78.269531 32.375 77.945312 32.050781 77.945312 31.644531 C 77.945312 29.195312 75.949219 27.199219 73.496094 27.199219 C 73.09375 27.199219 72.769531 26.875 72.769531 26.472656 C 72.769531 26.070312 73.09375 25.742188 73.496094 25.742188 C 76.75 25.742188 79.398438 28.390625 79.398438 31.644531 C 79.398438 32.050781 79.074219 32.375 78.671875 32.375 Z M 78.671875 32.375 "></path><path style=" stroke:none;fill-rule:nonzero;fill:#000000;fill-opacity:1;" d="M 64.28125 86.125 C 64.09375 86.125 63.898438 86.050781 63.753906 85.902344 C 63.476562 85.605469 63.488281 85.148438 63.78125 84.871094 C 65.363281 83.367188 67.4375 82.542969 69.621094 82.542969 C 71.773438 82.542969 73.828125 83.347656 75.402344 84.816406 C 75.699219 85.089844 75.714844 85.550781 75.441406 85.84375 C 75.167969 86.136719 74.707031 86.15625 74.410156 85.882812 C 73.105469 84.667969 71.40625 84 69.621094 84 C 67.8125 84 66.097656 84.683594 64.785156 85.925781 C 64.644531 86.058594 64.464844 86.125 64.28125 86.125 Z M 64.28125 86.125 "></path><path style=" stroke:none;fill-rule:nonzero;fill:#000000;fill-opacity:1;" d="M 75.027344 71.136719 C 74.894531 71.136719 74.757812 71.101562 74.636719 71.023438 C 74.296875 70.8125 74.195312 70.359375 74.414062 70.019531 C 75.464844 68.363281 77.183594 67.292969 79.128906 67.085938 C 81.03125 66.875 82.902344 67.527344 84.273438 68.859375 C 84.558594 69.140625 84.566406 69.601562 84.285156 69.890625 C 84.003906 70.175781 83.546875 70.183594 83.257812 69.902344 C 82.199219 68.871094 80.75 68.375 79.285156 68.53125 C 77.78125 68.695312 76.453125 69.519531 75.640625 70.800781 C 75.503906 71.015625 75.265625 71.136719 75.027344 71.136719 Z M 75.027344 71.136719 "></path><path style=" stroke:none;fill-rule:nonzero;fill:#000000;fill-opacity:1;" d="M 79.285156 71.386719 C 78.277344 71.386719 77.410156 70.625 77.300781 69.601562 C 77.242188 69.070312 77.398438 68.546875 77.730469 68.136719 C 78.0625 67.71875 78.542969 67.457031 79.074219 67.402344 C 79.605469 67.347656 80.125 67.496094 80.542969 67.835938 C 80.953125 68.167969 81.214844 68.644531 81.269531 69.175781 C 81.390625 70.269531 80.59375 71.253906 79.5 71.375 C 79.425781 71.382812 79.355469 71.386719 79.285156 71.386719 Z M 79.289062 68.84375 C 79.269531 68.84375 79.25 68.847656 79.230469 68.847656 C 79.085938 68.863281 78.957031 68.9375 78.863281 69.046875 C 78.773438 69.160156 78.734375 69.300781 78.75 69.445312 C 78.78125 69.742188 79.046875 69.953125 79.34375 69.921875 C 79.640625 69.890625 79.855469 69.625 79.824219 69.328125 C 79.808594 69.1875 79.738281 69.054688 79.625 68.96875 C 79.53125 68.886719 79.410156 68.84375 79.289062 68.84375 Z M 79.289062 68.84375 "></path><path style=" stroke:none;fill-rule:nonzero;fill:#000000;fill-opacity:1;" d="M 64.503906 71.136719 C 64.261719 71.136719 64.023438 71.015625 63.886719 70.800781 C 63.078125 69.519531 61.746094 68.695312 60.242188 68.53125 C 58.777344 68.375 57.328125 68.871094 56.273438 69.902344 C 55.980469 70.183594 55.523438 70.175781 55.242188 69.890625 C 54.960938 69.601562 54.96875 69.140625 55.253906 68.859375 C 56.625 67.527344 58.5 66.878906 60.398438 67.085938 C 62.347656 67.292969 64.066406 68.363281 65.117188 70.019531 C 65.332031 70.359375 65.234375 70.8125 64.890625 71.023438 C 64.773438 71.101562 64.636719 71.136719 64.503906 71.136719 Z M 64.503906 71.136719 "></path><path style=" stroke:none;fill-rule:nonzero;fill:#000000;fill-opacity:1;" d="M 60.246094 71.386719 C 60.175781 71.386719 60.105469 71.382812 60.027344 71.375 C 58.933594 71.253906 58.136719 70.269531 58.257812 69.175781 C 58.375 68.078125 59.363281 67.285156 60.457031 67.402344 C 60.988281 67.457031 61.464844 67.71875 61.796875 68.136719 C 62.132812 68.546875 62.289062 69.070312 62.230469 69.601562 C 62.171875 70.128906 61.910156 70.609375 61.496094 70.941406 C 61.140625 71.230469 60.703125 71.386719 60.246094 71.386719 Z M 59.703125 69.328125 C 59.671875 69.625 59.890625 69.890625 60.1875 69.925781 C 60.332031 69.9375 60.46875 69.898438 60.585938 69.808594 C 60.695312 69.71875 60.765625 69.589844 60.78125 69.445312 C 60.796875 69.300781 60.753906 69.160156 60.664062 69.046875 C 60.570312 68.9375 60.445312 68.863281 60.300781 68.847656 C 60.003906 68.816406 59.734375 69.035156 59.703125 69.328125 Z M 59.703125 69.328125 "></path><path style=" stroke:none;fill-rule:nonzero;fill:#000000;fill-opacity:1;" d="M 75.609375 64.695312 C 75.363281 64.695312 75.121094 64.566406 74.988281 64.34375 C 74.777344 63.996094 74.890625 63.550781 75.234375 63.34375 C 75.347656 63.273438 78.078125 61.660156 82.449219 62.066406 C 82.847656 62.105469 83.140625 62.460938 83.105469 62.859375 C 83.066406 63.261719 82.710938 63.554688 82.3125 63.519531 C 78.417969 63.152344 76.011719 64.574219 75.988281 64.589844 C 75.867188 64.660156 75.738281 64.695312 75.609375 64.695312 Z M 75.609375 64.695312 "></path><path style=" stroke:none;fill-rule:nonzero;fill:#000000;fill-opacity:1;" d="M 64.378906 64.695312 C 64.25 64.695312 64.121094 64.664062 64.003906 64.59375 C 63.960938 64.5625 61.523438 63.15625 57.675781 63.519531 C 57.273438 63.554688 56.921875 63.261719 56.882812 62.859375 C 56.847656 62.460938 57.140625 62.101562 57.539062 62.066406 C 61.902344 61.660156 64.644531 63.273438 64.753906 63.34375 C 65.097656 63.550781 65.210938 63.996094 65.003906 64.34375 C 64.863281 64.566406 64.621094 64.695312 64.378906 64.695312 Z M 64.378906 64.695312 "></path><path style=" stroke:none;fill-rule:nonzero;fill:#000000;fill-opacity:1;" d="M 46.574219 65.945312 C 46.441406 65.945312 46.3125 65.90625 46.191406 65.832031 C 45.847656 65.617188 45.742188 65.171875 45.957031 64.828125 C 46.269531 64.324219 53.792969 52.441406 64.601562 53.964844 C 68.023438 54.445312 71.125 54.441406 73.816406 53.945312 C 77.296875 53.308594 79.953125 50.761719 80.742188 47.300781 C 81.527344 43.871094 80.253906 40.457031 77.425781 38.390625 C 77.308594 38.300781 77.234375 38.253906 77.226562 38.25 C 76.890625 38.027344 76.800781 37.574219 77.019531 37.242188 C 77.242188 36.90625 77.695312 36.8125 78.027344 37.03125 C 78.027344 37.03125 78.125 37.097656 78.285156 37.214844 C 81.59375 39.628906 83.082031 43.621094 82.164062 47.625 C 81.242188 51.664062 78.144531 54.636719 74.078125 55.378906 C 71.230469 55.898438 67.976562 55.910156 64.402344 55.40625 C 54.535156 54.019531 47.265625 65.484375 47.191406 65.597656 C 47.054688 65.820312 46.816406 65.945312 46.574219 65.945312 Z M 46.574219 65.945312 "></path><path style=" stroke:none;fill-rule:nonzero;fill:#000000;fill-opacity:1;" d="M 54.855469 53.832031 C 54.589844 53.832031 54.332031 53.679688 54.207031 53.425781 C 54.027344 53.066406 54.175781 52.628906 54.535156 52.445312 C 56.515625 51.464844 58.535156 50.886719 60.535156 50.738281 C 60.941406 50.707031 61.285156 51.007812 61.316406 51.414062 C 61.34375 51.8125 61.042969 52.160156 60.644531 52.191406 C 58.832031 52.324219 56.996094 52.851562 55.179688 53.75 C 55.078125 53.808594 54.96875 53.832031 54.855469 53.832031 Z M 54.855469 53.832031 "></path><path style=" stroke:none;fill-rule:nonzero;fill:#000000;fill-opacity:1;" d="M 68.46875 52.417969 C 68.433594 52.417969 68.394531 52.417969 68.359375 52.417969 C 67.113281 52.414062 65.78125 52.3125 64.402344 52.117188 C 64.003906 52.0625 63.726562 51.695312 63.78125 51.296875 C 63.839844 50.898438 64.203125 50.621094 64.601562 50.675781 C 65.917969 50.863281 67.183594 50.957031 68.367188 50.964844 C 68.839844 50.96875 69.296875 50.953125 69.734375 50.925781 C 70.511719 50.882812 71.265625 50.792969 71.976562 50.664062 C 73.941406 50.304688 75.585938 49.183594 76.601562 47.507812 C 77.628906 45.816406 77.898438 43.695312 77.324219 41.835938 C 77.203125 41.453125 77.417969 41.042969 77.800781 40.925781 C 78.1875 40.804688 78.59375 41.019531 78.714844 41.402344 C 79.417969 43.6875 79.101562 46.1875 77.847656 48.261719 C 76.613281 50.296875 74.621094 51.660156 72.238281 52.09375 C 71.472656 52.238281 70.65625 52.332031 69.824219 52.378906 C 69.382812 52.40625 68.929688 52.417969 68.46875 52.417969 Z M 68.46875 52.417969 "></path><path style=" stroke:none;fill-rule:nonzero;fill:#000000;fill-opacity:1;" d="M 69.292969 97.4375 C 66.460938 97.4375 63.632812 96.492188 61.277344 94.601562 L 57.175781 91.566406 C 50.59375 86.699219 46.488281 79.316406 45.90625 71.320312 C 45.867188 70.773438 45.847656 70.257812 45.847656 69.785156 C 45.847656 69.578125 45.847656 69.367188 45.851562 69.15625 L 45.847656 65.214844 C 45.847656 64.8125 46.171875 64.484375 46.578125 64.484375 C 46.976562 64.484375 47.300781 64.808594 47.304688 65.214844 L 47.308594 69.164062 C 47.304688 69.378906 47.304688 69.582031 47.304688 69.785156 C 47.304688 70.21875 47.320312 70.703125 47.359375 71.21875 C 47.910156 78.789062 51.804688 85.777344 58.039062 90.394531 L 62.164062 93.453125 C 66.328125 96.792969 72.132812 96.816406 76.304688 93.53125 L 80.160156 90.738281 C 82.402344 89.109375 84.371094 87.164062 86.007812 84.945312 C 86.246094 84.621094 86.699219 84.554688 87.027344 84.789062 C 87.351562 85.027344 87.417969 85.484375 87.179688 85.808594 C 85.453125 88.148438 83.378906 90.207031 81.015625 91.917969 L 77.183594 94.695312 C 74.859375 96.523438 72.078125 97.4375 69.292969 97.4375 Z M 69.292969 97.4375 "></path><path style=" stroke:none;fill-rule:nonzero;fill:#000000;fill-opacity:1;" d="M 88.230469 83.609375 C 88.105469 83.609375 87.980469 83.578125 87.867188 83.511719 C 87.515625 83.3125 87.398438 82.863281 87.601562 82.515625 C 89.332031 79.53125 90.4375 76.300781 90.894531 72.90625 C 91.050781 71.726562 91.128906 70.675781 91.128906 69.785156 C 91.128906 69.082031 91.113281 68.375 91.082031 67.671875 L 90.816406 63.691406 C 90.789062 63.292969 91.09375 62.941406 91.492188 62.914062 C 91.898438 62.886719 92.242188 63.191406 92.265625 63.59375 L 92.535156 67.589844 C 92.570312 68.328125 92.585938 69.0625 92.585938 69.785156 C 92.585938 70.738281 92.503906 71.855469 92.335938 73.101562 C 91.859375 76.679688 90.6875 80.097656 88.859375 83.25 C 88.726562 83.484375 88.480469 83.609375 88.230469 83.609375 Z M 88.230469 83.609375 "></path><path style=" stroke:none;fill-rule:nonzero;fill:#000000;fill-opacity:1;" d="M 46.578125 66.558594 C 46.328125 66.558594 46.09375 66.429688 45.957031 66.21875 C 45.886719 66.101562 38.703125 54.417969 46.410156 43.308594 C 46.554688 43.09375 46.710938 42.878906 46.871094 42.667969 C 47.113281 42.34375 47.566406 42.28125 47.886719 42.519531 C 48.214844 42.761719 48.277344 43.214844 48.035156 43.539062 C 47.886719 43.738281 47.746094 43.9375 47.605469 44.140625 C 41.675781 52.6875 45.234375 61.609375 46.671875 64.488281 C 46.761719 64.480469 46.855469 64.488281 46.949219 64.515625 C 47.332031 64.628906 47.554688 65.03125 47.441406 65.421875 C 47.335938 65.777344 47.285156 65.984375 47.285156 65.996094 C 47.21875 66.28125 46.984375 66.503906 46.695312 66.550781 C 46.65625 66.554688 46.617188 66.558594 46.578125 66.558594 Z M 46.578125 66.558594 "></path><path style=" stroke:none;fill-rule:nonzero;fill:#000000;fill-opacity:1;" d="M 49.476562 41.464844 C 49.296875 41.464844 49.113281 41.394531 48.96875 41.261719 C 48.679688 40.984375 48.671875 40.519531 48.949219 40.230469 C 49.183594 39.988281 49.414062 39.753906 49.648438 39.53125 C 62.617188 26.949219 77.882812 36.933594 78.035156 37.035156 C 78.367188 37.261719 78.457031 37.714844 78.234375 38.046875 C 78.011719 38.378906 77.554688 38.472656 77.222656 38.246094 C 76.640625 37.855469 62.773438 28.828125 50.664062 40.574219 C 50.441406 40.789062 50.222656 41.011719 50 41.242188 C 49.859375 41.386719 49.667969 41.464844 49.476562 41.464844 Z M 49.476562 41.464844 "></path><path style=" stroke:none;fill-rule:nonzero;fill:#000000;fill-opacity:1;" d="M 80.484375 37.78125 C 80.347656 37.78125 80.207031 37.742188 80.082031 37.660156 C 79.75 37.4375 79.65625 36.984375 79.878906 36.652344 C 80.777344 35.300781 81.253906 33.71875 81.253906 32.089844 C 81.253906 31.390625 81.167969 30.699219 80.992188 30.027344 C 80.894531 29.636719 81.128906 29.238281 81.519531 29.140625 C 81.910156 29.042969 82.304688 29.273438 82.402344 29.664062 C 82.605469 30.453125 82.710938 31.269531 82.710938 32.089844 C 82.710938 34.007812 82.152344 35.867188 81.09375 37.457031 C 80.953125 37.667969 80.71875 37.78125 80.484375 37.78125 Z M 80.484375 37.78125 "></path><path style=" stroke:none;fill-rule:nonzero;fill:#000000;fill-opacity:1;" d="M 64.191406 34.472656 C 63.847656 34.472656 63.539062 34.230469 63.472656 33.878906 C 63.367188 33.289062 63.3125 32.6875 63.3125 32.089844 C 63.3125 26.738281 67.664062 22.386719 73.011719 22.386719 C 75.964844 22.386719 78.722656 23.710938 80.574219 26.011719 C 80.828125 26.332031 80.773438 26.785156 80.460938 27.039062 C 80.148438 27.289062 79.691406 27.242188 79.4375 26.929688 C 77.867188 24.96875 75.523438 23.84375 73.011719 23.84375 C 68.464844 23.84375 64.765625 27.542969 64.765625 32.089844 C 64.765625 32.601562 64.8125 33.113281 64.910156 33.613281 C 64.980469 34.007812 64.71875 34.386719 64.324219 34.460938 C 64.277344 34.46875 64.234375 34.472656 64.191406 34.472656 Z M 64.191406 34.472656 "></path><path style=" stroke:none;fill-rule:nonzero;fill:#000000;fill-opacity:1;" d="M 82.378906 106.386719 C 82.140625 106.386719 81.910156 106.269531 81.769531 106.054688 C 81.203125 105.179688 80.761719 104.226562 80.464844 103.21875 C 78.597656 96.890625 79.613281 91.640625 79.660156 91.417969 C 79.738281 91.027344 80.121094 90.769531 80.515625 90.847656 C 80.910156 90.925781 81.167969 91.3125 81.089844 91.703125 C 81.078125 91.753906 80.101562 96.839844 81.863281 102.804688 C 82.121094 103.683594 82.5 104.507812 82.992188 105.261719 C 83.207031 105.601562 83.113281 106.050781 82.777344 106.269531 C 82.652344 106.347656 82.515625 106.386719 82.378906 106.386719 Z M 82.378906 106.386719 "></path><path style=" stroke:none;fill-rule:nonzero;fill:#000000;fill-opacity:1;" d="M 56.34375 106.386719 C 56.207031 106.386719 56.074219 106.347656 55.949219 106.269531 C 55.609375 106.046875 55.515625 105.601562 55.734375 105.261719 C 56.222656 104.507812 56.605469 103.683594 56.863281 102.804688 C 58.628906 96.820312 57.648438 91.753906 57.640625 91.703125 C 57.558594 91.3125 57.8125 90.925781 58.210938 90.847656 C 58.601562 90.769531 58.988281 91.027344 59.066406 91.417969 C 59.109375 91.640625 60.125 96.890625 58.257812 103.21875 C 57.960938 104.230469 57.523438 105.179688 56.957031 106.054688 C 56.820312 106.269531 56.585938 106.386719 56.34375 106.386719 Z M 56.34375 106.386719 "></path><path style=" stroke:none;fill-rule:nonzero;fill:#000000;fill-opacity:1;" d="M 91.648438 64.402344 C 91.46875 64.402344 91.296875 64.339844 91.164062 64.21875 C 89.949219 63.144531 88.792969 62.011719 87.71875 60.847656 C 87.445312 60.550781 87.464844 60.089844 87.761719 59.816406 C 88.054688 59.546875 88.519531 59.5625 88.789062 59.859375 C 89.605469 60.742188 90.472656 61.609375 91.375 62.445312 C 92.359375 59.90625 94.675781 52.460938 91.203125 45.464844 C 86.902344 36.789062 78.109375 37.921875 77.730469 37.976562 C 77.335938 38.03125 76.964844 37.753906 76.910156 37.355469 C 76.851562 36.957031 77.128906 36.589844 77.523438 36.53125 C 77.628906 36.515625 87.730469 35.179688 92.511719 44.816406 C 97.078125 54.03125 92.496094 63.589844 92.300781 63.992188 C 92.199219 64.195312 92.011719 64.34375 91.785156 64.386719 C 91.738281 64.398438 91.691406 64.402344 91.648438 64.402344 Z M 91.648438 64.402344 "></path><path style=" stroke:none;fill-rule:nonzero;fill:#000000;fill-opacity:1;" d="M 86.292969 58.792969 C 86.078125 58.792969 85.863281 58.703125 85.722656 58.519531 C 81.628906 53.402344 80.320312 49.40625 80.265625 49.242188 C 80.140625 48.855469 80.355469 48.449219 80.734375 48.324219 C 81.121094 48.203125 81.527344 48.410156 81.652344 48.796875 C 81.664062 48.835938 82.945312 52.71875 86.859375 57.613281 C 87.109375 57.925781 87.058594 58.382812 86.746094 58.632812 C 86.609375 58.742188 86.449219 58.792969 86.292969 58.792969 Z M 86.292969 58.792969 "></path><path style=" stroke:none;fill-rule:nonzero;fill:#000000;fill-opacity:1;" d="M 78.914062 77.21875 C 78.832031 77.21875 78.753906 77.207031 78.679688 77.179688 C 78.296875 77.054688 78.089844 76.636719 78.222656 76.257812 L 78.492188 75.453125 C 78.621094 75.070312 79.035156 74.867188 79.414062 74.992188 C 79.796875 75.125 80.003906 75.535156 79.875 75.917969 L 79.601562 76.726562 C 79.5 77.027344 79.214844 77.21875 78.914062 77.21875 Z M 78.914062 77.21875 "></path><path style=" stroke:none;fill-rule:nonzero;fill:#000000;fill-opacity:1;" d="M 86.6875 76.566406 C 86.597656 76.566406 86.511719 76.550781 86.421875 76.519531 L 85.625 76.207031 C 85.253906 76.058594 85.066406 75.640625 85.214844 75.261719 C 85.359375 74.890625 85.785156 74.703125 86.15625 74.851562 L 86.953125 75.160156 C 87.328125 75.304688 87.511719 75.730469 87.367188 76.101562 C 87.25 76.390625 86.976562 76.566406 86.6875 76.566406 Z M 86.6875 76.566406 "></path><path style=" stroke:none;fill-rule:nonzero;fill:#000000;fill-opacity:1;" d="M 87.953125 72.730469 C 87.820312 72.730469 87.683594 72.695312 87.566406 72.617188 C 87.222656 72.40625 87.121094 71.953125 87.335938 71.617188 L 87.789062 70.894531 C 88.003906 70.554688 88.453125 70.449219 88.792969 70.664062 C 89.132812 70.878906 89.238281 71.332031 89.023438 71.671875 L 88.566406 72.386719 C 88.429688 72.609375 88.195312 72.730469 87.953125 72.730469 Z M 87.953125 72.730469 "></path><path style=" stroke:none;fill-rule:nonzero;fill:#000000;fill-opacity:1;" d="M 83.441406 74.523438 C 83.332031 74.523438 83.214844 74.496094 83.109375 74.441406 L 82.351562 74.050781 C 81.996094 73.863281 81.855469 73.421875 82.042969 73.066406 C 82.230469 72.710938 82.664062 72.570312 83.023438 72.757812 L 83.78125 73.148438 C 84.136719 73.335938 84.273438 73.777344 84.089844 74.132812 C 83.960938 74.382812 83.703125 74.523438 83.441406 74.523438 Z M 83.441406 74.523438 "></path><path style=" stroke:none;fill-rule:nonzero;fill:#000000;fill-opacity:1;" d="M 79.132812 83.175781 C 79.046875 83.175781 78.957031 83.160156 78.871094 83.128906 L 78.074219 82.816406 C 77.703125 82.671875 77.515625 82.25 77.664062 81.875 C 77.808594 81.5 78.234375 81.316406 78.605469 81.460938 L 79.398438 81.769531 C 79.777344 81.917969 79.960938 82.339844 79.816406 82.714844 C 79.699219 83.003906 79.425781 83.175781 79.132812 83.175781 Z M 79.132812 83.175781 "></path><path style=" stroke:none;fill-rule:nonzero;fill:#000000;fill-opacity:1;" d="M 58.363281 80.398438 C 58.304688 80.398438 58.242188 80.390625 58.183594 80.375 C 57.789062 80.277344 57.558594 79.878906 57.660156 79.488281 L 57.867188 78.683594 C 57.972656 78.289062 58.367188 78.058594 58.757812 78.160156 C 59.144531 78.261719 59.378906 78.660156 59.28125 79.046875 L 59.070312 79.855469 C 58.984375 80.179688 58.6875 80.398438 58.363281 80.398438 Z M 58.363281 80.398438 "></path><path style=" stroke:none;fill-rule:nonzero;fill:#000000;fill-opacity:1;" d="M 57.023438 76.257812 C 56.945312 76.257812 56.863281 76.242188 56.777344 76.214844 L 55.972656 75.925781 C 55.59375 75.789062 55.394531 75.375 55.53125 74.992188 C 55.667969 74.617188 56.085938 74.417969 56.460938 74.550781 L 57.269531 74.84375 C 57.652344 74.976562 57.84375 75.394531 57.710938 75.773438 C 57.601562 76.070312 57.324219 76.257812 57.023438 76.257812 Z M 57.023438 76.257812 "></path><path style=" stroke:none;fill-rule:nonzero;fill:#000000;fill-opacity:1;" d="M 53.75 80.71875 C 53.550781 80.71875 53.351562 80.636719 53.207031 80.472656 L 52.640625 79.832031 C 52.375 79.53125 52.40625 79.070312 52.707031 78.804688 C 53.007812 78.539062 53.46875 78.566406 53.734375 78.867188 L 54.296875 79.511719 C 54.5625 79.8125 54.535156 80.273438 54.234375 80.539062 C 54.09375 80.660156 53.925781 80.71875 53.75 80.71875 Z M 53.75 80.71875 "></path><path style=" stroke:none;fill-rule:nonzero;fill:#000000;fill-opacity:1;" d="M 65.746094 91.488281 C 65.679688 91.488281 65.621094 91.480469 65.558594 91.464844 C 65.171875 91.363281 64.9375 90.964844 65.039062 90.578125 L 65.25 89.769531 C 65.347656 89.378906 65.746094 89.148438 66.136719 89.246094 C 66.527344 89.347656 66.757812 89.746094 66.65625 90.132812 L 66.445312 90.941406 C 66.363281 91.273438 66.066406 91.488281 65.746094 91.488281 Z M 65.746094 91.488281 "></path><path style=" stroke:none;fill-rule:nonzero;fill:#000000;fill-opacity:1;" d="M 72.371094 90.9375 C 72.214844 90.9375 72.050781 90.886719 71.921875 90.78125 L 71.265625 90.265625 C 70.949219 90.015625 70.898438 89.554688 71.148438 89.242188 C 71.398438 88.925781 71.855469 88.875 72.167969 89.125 L 72.824219 89.640625 C 73.140625 89.890625 73.191406 90.347656 72.941406 90.664062 C 72.800781 90.84375 72.585938 90.9375 72.371094 90.9375 Z M 72.371094 90.9375 "></path><path style=" stroke:none;fill-rule:nonzero;fill:#000000;fill-opacity:1;" d="M 67.808594 60.554688 C 67.652344 60.554688 67.488281 60.5 67.359375 60.394531 L 66.703125 59.875 C 66.386719 59.625 66.335938 59.167969 66.585938 58.851562 C 66.835938 58.539062 67.289062 58.484375 67.609375 58.734375 L 68.261719 59.253906 C 68.574219 59.503906 68.628906 59.960938 68.378906 60.277344 C 68.234375 60.457031 68.023438 60.554688 67.808594 60.554688 Z M 67.808594 60.554688 "></path><path style=" stroke:none;fill-rule:nonzero;fill:#000000;fill-opacity:1;" d="M 69.675781 64.34375 C 69.464844 64.34375 69.261719 64.253906 69.117188 64.085938 C 68.855469 63.773438 68.898438 63.316406 69.203125 63.058594 L 69.847656 62.523438 C 70.152344 62.261719 70.613281 62.304688 70.875 62.613281 C 71.132812 62.917969 71.085938 63.378906 70.78125 63.636719 L 70.140625 64.175781 C 70.003906 64.285156 69.839844 64.34375 69.675781 64.34375 Z M 69.675781 64.34375 "></path><path style=" stroke:none;fill-rule:nonzero;fill:#000000;fill-opacity:1;" d="M 73.53125 61.0625 C 73.140625 61.0625 72.816406 60.753906 72.800781 60.363281 L 72.761719 59.34375 C 72.746094 58.941406 73.058594 58.601562 73.457031 58.585938 C 73.863281 58.570312 74.199219 58.882812 74.214844 59.285156 L 74.257812 60.308594 C 74.273438 60.707031 73.960938 61.042969 73.558594 61.0625 C 73.550781 61.0625 73.539062 61.0625 73.53125 61.0625 Z M 73.53125 61.0625 "></path><path style=" stroke:none;fill-rule:nonzero;fill:#000000;fill-opacity:1;" d="M 96.085938 95.59375 C 95.894531 95.59375 95.707031 95.511719 95.570312 95.378906 L 83.953125 83.761719 C 83.671875 83.476562 83.671875 83.015625 83.953125 82.730469 L 86.015625 80.667969 C 86.300781 80.382812 86.761719 80.382812 87.046875 80.667969 L 98.664062 92.285156 C 98.796875 92.421875 98.878906 92.605469 98.878906 92.800781 C 98.878906 92.996094 98.796875 93.179688 98.664062 93.316406 L 96.601562 95.378906 C 96.464844 95.511719 96.28125 95.59375 96.085938 95.59375 Z M 85.5 83.246094 L 96.085938 93.832031 L 97.117188 92.800781 L 86.53125 82.214844 Z M 85.5 83.246094 "></path><path style=" stroke:none;fill-rule:nonzero;fill:#000000;fill-opacity:1;" d="M 99.226562 99.34375 C 98.542969 99.34375 97.828125 99.109375 97.164062 98.535156 C 97.085938 98.46875 97.011719 98.398438 96.933594 98.324219 C 96.117188 97.507812 95.617188 96.34375 95.445312 94.863281 C 95.402344 94.460938 95.6875 94.101562 96.085938 94.054688 C 96.484375 94.015625 96.847656 94.296875 96.894531 94.695312 C 96.988281 95.480469 97.246094 96.574219 97.964844 97.296875 C 98.011719 97.34375 98.066406 97.390625 98.117188 97.433594 C 98.972656 98.171875 99.96875 97.894531 100.574219 97.289062 C 101.179688 96.683594 101.457031 95.6875 100.71875 94.832031 C 100.675781 94.78125 100.628906 94.726562 100.582031 94.679688 C 99.859375 93.957031 98.765625 93.703125 97.980469 93.609375 C 97.582031 93.5625 97.296875 93.203125 97.339844 92.800781 C 97.386719 92.402344 97.742188 92.117188 98.148438 92.160156 C 99.628906 92.332031 100.792969 92.832031 101.609375 93.648438 C 101.683594 93.726562 101.753906 93.800781 101.824219 93.878906 C 103.164062 95.4375 102.652344 97.273438 101.605469 98.320312 C 101 98.917969 100.140625 99.34375 99.226562 99.34375 Z M 99.226562 99.34375 "></path><path style=" stroke:none;fill-rule:nonzero;fill:#000000;fill-opacity:1;" d="M 84.691406 83.753906 C 84.671875 83.753906 84.65625 83.753906 84.636719 83.753906 L 84.503906 83.742188 C 82.949219 83.59375 81.683594 83.070312 80.84375 82.230469 C 80.765625 82.15625 80.695312 82.078125 80.628906 82 C 79.285156 80.441406 79.800781 78.609375 80.847656 77.5625 C 81.894531 76.515625 83.726562 76 85.285156 77.34375 C 85.363281 77.410156 85.441406 77.480469 85.515625 77.558594 C 86.613281 78.652344 86.945312 80.226562 87.039062 81.351562 C 87.070312 81.75 86.769531 82.097656 86.367188 82.132812 C 85.964844 82.164062 85.613281 81.867188 85.582031 81.464844 C 85.515625 80.582031 85.265625 79.367188 84.484375 78.582031 C 84.4375 78.535156 84.386719 78.492188 84.335938 78.449219 C 83.472656 77.707031 82.484375 77.984375 81.878906 78.589844 C 81.269531 79.199219 80.992188 80.191406 81.730469 81.050781 C 81.773438 81.101562 81.820312 81.152344 81.867188 81.199219 C 82.628906 81.957031 83.796875 82.210938 84.640625 82.289062 L 84.746094 82.296875 C 85.148438 82.328125 85.449219 82.683594 85.417969 83.082031 C 85.390625 83.464844 85.066406 83.753906 84.691406 83.753906 Z M 84.691406 83.753906 "></path><path style=" stroke:none;fill-rule:nonzero;fill:#000000;fill-opacity:1;" d="M 58.304688 84.445312 C 58.222656 84.445312 58.136719 84.433594 58.058594 84.402344 L 57.25 84.113281 C 56.875 83.976562 56.675781 83.5625 56.8125 83.1875 C 56.945312 82.804688 57.363281 82.605469 57.742188 82.742188 L 58.550781 83.03125 C 58.925781 83.164062 59.125 83.585938 58.992188 83.960938 C 58.882812 84.257812 58.601562 84.445312 58.304688 84.445312 Z M 58.304688 84.445312 "></path><path style=" stroke:none;fill-rule:nonzero;fill:#000000;fill-opacity:1;" d="M 61.003906 78.992188 C 60.613281 78.992188 60.285156 78.675781 60.273438 78.28125 L 60.253906 77.421875 C 60.242188 77.023438 60.558594 76.6875 60.964844 76.675781 C 61.359375 76.65625 61.699219 76.980469 61.710938 77.386719 L 61.734375 78.242188 C 61.746094 78.644531 61.425781 78.980469 61.023438 78.988281 C 61.015625 78.992188 61.011719 78.992188 61.003906 78.992188 Z M 61.003906 78.992188 "></path></g></svg>
