<svg xmlns="http://www.w3.org/2000/svg" xmlns:xlink="http://www.w3.org/1999/xlink" width="180" zoomAndPan="magnify" viewBox="0 0 135 135.000003" height="180" preserveAspectRatio="xMidYMid meet"><defs><clipPath id="65e77bbfeb"><path d="M 0.496094 0 L 134.503906 0 L 134.503906 134.007812 L 0.496094 134.007812 Z M 0.496094 0 "></path></clipPath><clipPath id="3f160f21e0"><path d="M 0.496094 0 L 134.503906 0 L 134.503906 134.007812 L 0.496094 134.007812 Z M 0.496094 0 "></path></clipPath><clipPath id="3f1fa90fa3"><path d="M 67.5 0 C 30.496094 0 0.496094 30 0.496094 67.003906 C 0.496094 104.007812 30.496094 134.007812 67.5 134.007812 C 104.503906 134.007812 134.503906 104.007812 134.503906 67.003906 C 134.503906 30 104.503906 0 67.5 0 Z M 67.5 0 "></path></clipPath><clipPath id="0777caf25c"><path d="M 26.199219 25.703125 L 108.839844 25.703125 L 108.839844 108.34375 L 26.199219 108.34375 Z M 26.199219 25.703125 "></path></clipPath><clipPath id="3d409043df"><path d="M 66.464844 2.316406 C 31.570312 2.316406 3.28125 30.605469 3.28125 65.503906 C 3.28125 100.398438 31.570312 128.6875 66.464844 128.6875 C 101.363281 128.6875 129.652344 100.398438 129.652344 65.503906 C 129.652344 30.605469 101.363281 2.316406 66.464844 2.316406 Z M 66.464844 2.316406 "></path></clipPath><clipPath id="95ae00e297"><path d="M 26.199219 67 L 37 67 L 37 80 L 26.199219 80 Z M 26.199219 67 "></path></clipPath><clipPath id="a923dbca96"><path d="M 44 25.703125 L 68 25.703125 L 68 43 L 44 43 Z M 44 25.703125 "></path></clipPath><clipPath id="b81da35fbe"><path d="M 53 25.703125 L 68 25.703125 L 68 43 L 53 43 Z M 53 25.703125 "></path></clipPath><clipPath id="9057621bf3"><path d="M 40.535156 94 L 45 94 L 45 107.429688 L 40.535156 107.429688 Z M 40.535156 94 "></path></clipPath><clipPath id="e432788c48"><path d="M 66 94 L 70 94 L 70 107.429688 L 66 107.429688 Z M 66 94 "></path></clipPath><clipPath id="1bf31a8335"><path d="M 26.199219 65 L 37 65 L 37 82 L 26.199219 82 Z M 26.199219 65 "></path></clipPath><clipPath id="9699ff2e50"><path d="M 26.199219 33 L 85 33 L 85 69 L 26.199219 69 Z M 26.199219 33 "></path></clipPath><clipPath id="b38fcdc911"><path d="M 42.417969 25.703125 L 68.824219 25.703125 L 68.824219 38 L 42.417969 38 Z M 42.417969 25.703125 "></path></clipPath><clipPath id="b69dcf3e18"><path d="M 78.253906 93 L 107.488281 93 L 107.488281 107.429688 L 78.253906 107.429688 Z M 78.253906 93 "></path></clipPath></defs><g id="a8313f8482"><g clip-rule="nonzero" clip-path="url(#65e77bbfeb)"><path style=" stroke:none;fill-rule:nonzero;fill:#ffffff;fill-opacity:1;" d="M 0.496094 0 L 134.503906 0 L 134.503906 134.007812 L 0.496094 134.007812 Z M 0.496094 0 "></path><path style=" stroke:none;fill-rule:nonzero;fill:#ffffff;fill-opacity:1;" d="M 0.496094 0 L 134.503906 0 L 134.503906 134.007812 L 0.496094 134.007812 Z M 0.496094 0 "></path></g><g clip-rule="nonzero" clip-path="url(#3f160f21e0)"><g clip-rule="nonzero" clip-path="url(#3f1fa90fa3)"><path style=" stroke:none;fill-rule:nonzero;fill:#f4e0e0;fill-opacity:1;" d="M 0.496094 0 L 134.503906 0 L 134.503906 134.007812 L 0.496094 134.007812 Z M 0.496094 0 "></path><path style="fill:none;stroke-width:14;stroke-linecap:butt;stroke-linejoin:miter;stroke:#7b2e07;stroke-opacity:1;stroke-miterlimit:4;" d="M 90.000004 -0.00000933333 C 40.29599 -0.00000933333 -0.000306642 40.296288 -0.000306642 90.000301 C -0.000306642 139.704314 40.29599 180.000611 90.000004 180.000611 C 139.704017 180.000611 180.000314 139.704314 180.000314 90.000301 C 180.000314 40.296288 139.704017 -0.00000933333 90.000004 -0.00000933333 Z M 90.000004 -0.00000933333 " transform="matrix(0.744485,0,0,0.744485,0.496322,0.00000694853)"></path></g></g><g clip-rule="nonzero" clip-path="url(#0777caf25c)"><g clip-rule="nonzero" clip-path="url(#3d409043df)"><path style=" stroke:none;fill-rule:nonzero;fill:#ffdfdf;fill-opacity:1;" d="M 3.28125 2.316406 L 129.652344 2.316406 L 129.652344 128.6875 L 3.28125 128.6875 Z M 3.28125 2.316406 "></path><path style="fill:none;stroke-width:8;stroke-linecap:butt;stroke-linejoin:miter;stroke:#f80303;stroke-opacity:1;stroke-miterlimit:4;" d="M 89.997346 -0.000732374 C 40.294315 -0.000732374 -0.0000255548 40.293609 -0.0000255548 90.002203 C -0.0000255548 139.705234 40.294315 179.999575 89.997346 179.999575 C 139.705941 179.999575 180.000281 139.705234 180.000281 90.002203 C 180.000281 40.293609 139.705941 -0.000732374 89.997346 -0.000732374 Z M 89.997346 -0.000732374 " transform="matrix(0.70206,0,0,0.70206,3.281268,2.31692)"></path></g></g><g clip-rule="nonzero" clip-path="url(#95ae00e297)"><path style=" stroke:none;fill-rule:nonzero;fill:#ffcebf;fill-opacity:1;" d="M 33.433594 68.292969 C 33.433594 68.292969 29.164062 65.5 27.011719 68.292969 C 25.289062 70.535156 26.378906 81.441406 34.816406 79.582031 L 36.359375 70.9375 Z M 33.433594 68.292969 "></path></g><g clip-rule="nonzero" clip-path="url(#a923dbca96)"><path style=" stroke:none;fill-rule:nonzero;fill:#dd7f66;fill-opacity:1;" d="M 67.195312 33.671875 C 67.195312 34.28125 67.121094 34.878906 66.976562 35.476562 C 66.828125 36.074219 66.605469 36.652344 66.316406 37.214844 C 66.023438 37.777344 65.667969 38.308594 65.242188 38.816406 C 64.824219 39.320312 64.339844 39.785156 63.804688 40.21875 C 63.265625 40.644531 62.683594 41.027344 62.050781 41.367188 C 61.417969 41.707031 60.75 41.988281 60.046875 42.222656 C 59.347656 42.453125 58.621094 42.628906 57.871094 42.75 C 57.128906 42.867188 56.375 42.929688 55.613281 42.929688 C 54.851562 42.929688 54.101562 42.867188 53.355469 42.75 C 52.609375 42.628906 51.882812 42.453125 51.183594 42.222656 C 50.480469 41.988281 49.8125 41.707031 49.179688 41.367188 C 48.546875 41.027344 47.960938 40.644531 47.421875 40.21875 C 46.886719 39.785156 46.40625 39.320312 45.980469 38.816406 C 45.5625 38.308594 45.203125 37.777344 44.914062 37.214844 C 44.621094 36.652344 44.402344 36.074219 44.253906 35.476562 C 44.105469 34.878906 44.035156 34.28125 44.035156 33.671875 C 44.035156 33.0625 44.105469 32.464844 44.253906 31.867188 C 44.402344 31.269531 44.621094 30.691406 44.914062 30.132812 C 45.203125 29.570312 45.5625 29.035156 45.980469 28.53125 C 46.40625 28.023438 46.886719 27.558594 47.421875 27.125 C 47.960938 26.699219 48.546875 26.316406 49.179688 25.976562 C 49.8125 25.636719 50.480469 25.355469 51.183594 25.121094 C 51.882812 24.890625 52.609375 24.714844 53.355469 24.59375 C 54.101562 24.476562 54.851562 24.414062 55.613281 24.414062 C 56.375 24.414062 57.128906 24.476562 57.871094 24.59375 C 58.621094 24.714844 59.347656 24.890625 60.046875 25.121094 C 60.75 25.355469 61.417969 25.636719 62.050781 25.976562 C 62.683594 26.316406 63.265625 26.699219 63.804688 27.125 C 64.339844 27.558594 64.824219 28.023438 65.242188 28.53125 C 65.667969 29.035156 66.023438 29.570312 66.316406 30.132812 C 66.605469 30.691406 66.828125 31.269531 66.976562 31.867188 C 67.121094 32.464844 67.195312 33.0625 67.195312 33.671875 Z M 67.195312 33.671875 "></path></g><g clip-rule="nonzero" clip-path="url(#b81da35fbe)"><path style=" stroke:none;fill-rule:nonzero;fill:#d6694b;fill-opacity:1;" d="M 55.613281 24.414062 C 54.765625 24.414062 53.9375 24.492188 53.144531 24.628906 C 58.351562 25.535156 62.253906 29.242188 62.253906 33.671875 C 62.253906 38.105469 58.351562 41.808594 53.144531 42.714844 C 53.9375 42.851562 54.765625 42.929688 55.613281 42.929688 C 62.011719 42.929688 67.195312 38.785156 67.195312 33.671875 C 67.195312 28.558594 62.011719 24.414062 55.613281 24.414062 Z M 55.613281 24.414062 "></path></g><path style=" stroke:none;fill-rule:nonzero;fill:#ffdfcf;fill-opacity:1;" d="M 68.710938 106.195312 L 42.183594 106.195312 L 43.890625 92.855469 L 67.003906 92.855469 Z M 68.710938 106.195312 "></path><path style=" stroke:none;fill-rule:nonzero;fill:#ffcebf;fill-opacity:1;" d="M 67.003906 92.855469 L 62.0625 92.855469 L 63.761719 106.195312 L 68.710938 106.195312 Z M 67.003906 92.855469 "></path><path style=" stroke:none;fill-rule:nonzero;fill:#ffcebf;fill-opacity:1;" d="M 77.460938 68.292969 C 77.460938 68.292969 81.734375 65.5 83.882812 68.292969 C 85.605469 70.535156 84.515625 81.441406 76.078125 79.582031 L 74.535156 70.9375 Z M 77.460938 68.292969 "></path><path style=" stroke:none;fill-rule:nonzero;fill:#dff6fd;fill-opacity:1;" d="M 79.351562 44.113281 C 70.621094 34.117188 55.777344 34.738281 55.777344 34.738281 C 55.777344 34.738281 40.933594 34.117188 32.203125 44.113281 C 25.773438 51.46875 28.722656 67.160156 28.722656 67.160156 L 55.777344 78.75 L 82.171875 67.160156 C 82.171875 67.160156 85.78125 51.46875 79.351562 44.113281 Z M 79.351562 44.113281 "></path><path style=" stroke:none;fill-rule:nonzero;fill:#c8effe;fill-opacity:1;" d="M 79.351562 44.113281 C 70.621094 34.117188 55.777344 34.738281 55.777344 34.738281 C 55.777344 34.738281 54.839844 34.695312 53.304688 34.796875 C 57.894531 35.09375 67.867188 36.621094 74.410156 44.113281 C 79.910156 50.40625 77.492188 65.382812 76.679688 69.570312 L 82.171875 67.160156 C 82.171875 67.160156 85.78125 51.46875 79.351562 44.113281 Z M 79.351562 44.113281 "></path><path style=" stroke:none;fill-rule:nonzero;fill:#dff6fd;fill-opacity:1;" d="M 53.679688 77.851562 L 55.777344 78.75 L 68.351562 73.226562 Z M 53.679688 77.851562 "></path><path style=" stroke:none;fill-rule:nonzero;fill:#918291;fill-opacity:1;" d="M 76.355469 72.019531 C 77.359375 69.480469 77.90625 66.71875 77.914062 63.824219 C 77.9375 51.582031 68.015625 46.703125 55.777344 46.53125 C 43.214844 46.351562 32.980469 51.261719 32.980469 63.777344 C 32.980469 66.6875 33.53125 69.464844 34.535156 72.019531 C 33.171875 87.519531 43.570312 96.140625 48.316406 99.234375 C 49.660156 100.105469 51.226562 100.5625 52.828125 100.5625 L 58.0625 100.5625 C 59.667969 100.5625 61.234375 100.105469 62.578125 99.234375 C 67.324219 96.140625 77.722656 87.519531 76.355469 72.019531 Z M 76.355469 72.019531 "></path><path style=" stroke:none;fill-rule:nonzero;fill:#7a6d79;fill-opacity:1;" d="M 77.914062 63.828125 C 77.9375 51.582031 68.015625 46.703125 55.777344 46.53125 C 54.726562 46.515625 53.691406 46.535156 52.679688 46.59375 C 64.054688 47.21875 72.996094 52.203125 72.972656 63.828125 C 72.964844 66.71875 72.414062 69.480469 71.410156 72.019531 C 72.78125 87.523438 62.382812 96.140625 57.632812 99.234375 C 56.292969 100.105469 54.71875 100.5625 53.121094 100.5625 L 58.0625 100.5625 C 59.667969 100.5625 61.234375 100.105469 62.578125 99.234375 C 67.324219 96.140625 77.722656 87.523438 76.355469 72.019531 C 77.359375 69.480469 77.90625 66.71875 77.914062 63.828125 Z M 77.914062 63.828125 "></path><path style=" stroke:none;fill-rule:nonzero;fill:#ffdfcf;fill-opacity:1;" d="M 52.050781 70.675781 C 52.050781 71.253906 51.992188 71.824219 51.882812 72.390625 C 51.769531 72.960938 51.601562 73.511719 51.382812 74.046875 C 51.15625 74.578125 50.886719 75.085938 50.5625 75.570312 C 50.242188 76.050781 49.878906 76.496094 49.46875 76.90625 C 49.0625 77.316406 48.617188 77.679688 48.132812 78 C 47.65625 78.320312 47.144531 78.59375 46.613281 78.816406 C 46.078125 79.035156 45.523438 79.207031 44.957031 79.316406 C 44.390625 79.429688 43.816406 79.484375 43.238281 79.484375 C 42.660156 79.484375 42.085938 79.429688 41.515625 79.316406 C 40.949219 79.207031 40.402344 79.035156 39.863281 78.816406 C 39.328125 78.59375 38.820312 78.320312 38.34375 78 C 37.859375 77.679688 37.414062 77.316406 37.003906 76.90625 C 36.597656 76.496094 36.230469 76.050781 35.910156 75.570312 C 35.585938 75.085938 35.316406 74.578125 35.09375 74.046875 C 34.871094 73.511719 34.707031 72.960938 34.59375 72.390625 C 34.480469 71.824219 34.421875 71.253906 34.421875 70.675781 C 34.421875 70.097656 34.480469 69.519531 34.59375 68.953125 C 34.707031 68.386719 34.871094 67.835938 35.09375 67.300781 C 35.316406 66.765625 35.585938 66.257812 35.910156 65.773438 C 36.230469 65.296875 36.597656 64.851562 37.003906 64.441406 C 37.414062 64.03125 37.859375 63.667969 38.34375 63.34375 C 38.820312 63.023438 39.328125 62.75 39.863281 62.53125 C 40.402344 62.308594 40.949219 62.144531 41.515625 62.027344 C 42.085938 61.914062 42.660156 61.859375 43.238281 61.859375 C 43.816406 61.859375 44.390625 61.914062 44.957031 62.027344 C 45.523438 62.144531 46.078125 62.308594 46.613281 62.53125 C 47.144531 62.75 47.65625 63.023438 48.132812 63.34375 C 48.617188 63.667969 49.0625 64.03125 49.46875 64.441406 C 49.878906 64.851562 50.242188 65.296875 50.5625 65.773438 C 50.886719 66.257812 51.15625 66.765625 51.382812 67.300781 C 51.601562 67.835938 51.769531 68.386719 51.882812 68.953125 C 51.992188 69.519531 52.050781 70.097656 52.050781 70.675781 Z M 52.050781 70.675781 "></path><path style=" stroke:none;fill-rule:nonzero;fill:#ffcebf;fill-opacity:1;" d="M 43.238281 61.859375 C 42.378906 61.859375 41.550781 61.984375 40.765625 62.214844 C 44.425781 63.28125 46.777344 66.664062 46.777344 70.675781 C 46.777344 74.683594 44.425781 78.0625 40.765625 79.132812 C 41.550781 79.359375 42.378906 79.484375 43.238281 79.484375 C 48.105469 79.484375 52.050781 75.539062 52.050781 70.675781 C 52.050781 65.804688 48.105469 61.859375 43.238281 61.859375 Z M 43.238281 61.859375 "></path><path style=" stroke:none;fill-rule:nonzero;fill:#ffdfcf;fill-opacity:1;" d="M 76.453125 70.675781 C 76.453125 71.253906 76.398438 71.824219 76.285156 72.390625 C 76.171875 72.960938 76.003906 73.511719 75.78125 74.046875 C 75.5625 74.578125 75.292969 75.085938 74.96875 75.570312 C 74.648438 76.050781 74.285156 76.496094 73.875 76.90625 C 73.464844 77.316406 73.019531 77.679688 72.539062 78 C 72.054688 78.320312 71.550781 78.59375 71.011719 78.816406 C 70.476562 79.035156 69.929688 79.207031 69.363281 79.316406 C 68.792969 79.429688 68.21875 79.484375 67.640625 79.484375 C 67.0625 79.484375 66.488281 79.429688 65.921875 79.316406 C 65.355469 79.207031 64.800781 79.035156 64.269531 78.816406 C 63.734375 78.59375 63.226562 78.320312 62.742188 78 C 62.265625 77.679688 61.816406 77.316406 61.410156 76.90625 C 61 76.496094 60.636719 76.050781 60.3125 75.570312 C 59.992188 75.085938 59.71875 74.578125 59.496094 74.046875 C 59.277344 73.511719 59.109375 72.960938 58.996094 72.390625 C 58.882812 71.824219 58.828125 71.253906 58.828125 70.675781 C 58.828125 70.097656 58.882812 69.519531 58.996094 68.953125 C 59.109375 68.386719 59.277344 67.835938 59.496094 67.300781 C 59.71875 66.765625 59.992188 66.257812 60.3125 65.773438 C 60.636719 65.296875 61 64.851562 61.410156 64.441406 C 61.816406 64.03125 62.265625 63.667969 62.742188 63.34375 C 63.226562 63.023438 63.734375 62.75 64.269531 62.53125 C 64.800781 62.308594 65.355469 62.144531 65.921875 62.027344 C 66.488281 61.914062 67.0625 61.859375 67.640625 61.859375 C 68.21875 61.859375 68.792969 61.914062 69.363281 62.027344 C 69.929688 62.144531 70.476562 62.308594 71.011719 62.53125 C 71.550781 62.75 72.054688 63.023438 72.539062 63.34375 C 73.019531 63.667969 73.464844 64.03125 73.875 64.441406 C 74.285156 64.851562 74.648438 65.296875 74.96875 65.773438 C 75.292969 66.257812 75.5625 66.765625 75.78125 67.300781 C 76.003906 67.835938 76.171875 68.386719 76.285156 68.953125 C 76.398438 69.519531 76.453125 70.097656 76.453125 70.675781 Z M 76.453125 70.675781 "></path><path style=" stroke:none;fill-rule:nonzero;fill:#ffcebf;fill-opacity:1;" d="M 67.640625 61.859375 C 66.785156 61.859375 65.953125 61.984375 65.171875 62.214844 C 68.832031 63.28125 71.183594 66.664062 71.183594 70.675781 C 71.183594 74.683594 68.832031 78.0625 65.171875 79.132812 C 65.953125 79.359375 66.785156 79.484375 67.640625 79.484375 C 72.507812 79.484375 76.453125 75.539062 76.453125 70.675781 C 76.453125 65.804688 72.507812 61.859375 67.640625 61.859375 Z M 67.640625 61.859375 "></path><path style=" stroke:none;fill-rule:nonzero;fill:#ffdfcf;fill-opacity:1;" d="M 65.132812 87.601562 C 65.132812 88.007812 65.070312 88.402344 64.945312 88.796875 C 64.824219 89.191406 64.640625 89.574219 64.398438 89.949219 C 64.152344 90.320312 63.855469 90.671875 63.5 91.007812 C 63.148438 91.34375 62.746094 91.652344 62.296875 91.9375 C 61.847656 92.21875 61.359375 92.472656 60.828125 92.699219 C 60.300781 92.921875 59.742188 93.113281 59.15625 93.261719 C 58.566406 93.417969 57.960938 93.535156 57.335938 93.613281 C 56.710938 93.691406 56.082031 93.730469 55.449219 93.730469 C 54.8125 93.730469 54.183594 93.691406 53.558594 93.613281 C 52.933594 93.535156 52.328125 93.417969 51.738281 93.261719 C 51.152344 93.113281 50.59375 92.921875 50.066406 92.699219 C 49.535156 92.472656 49.046875 92.21875 48.597656 91.9375 C 48.148438 91.652344 47.746094 91.34375 47.394531 91.007812 C 47.039062 90.671875 46.742188 90.320312 46.496094 89.949219 C 46.253906 89.574219 46.070312 89.191406 45.949219 88.796875 C 45.824219 88.402344 45.761719 88.007812 45.761719 87.601562 C 45.761719 87.199219 45.824219 86.800781 45.949219 86.40625 C 46.070312 86.011719 46.253906 85.628906 46.496094 85.257812 C 46.742188 84.886719 47.039062 84.53125 47.394531 84.195312 C 47.746094 83.863281 48.148438 83.550781 48.597656 83.269531 C 49.046875 82.984375 49.535156 82.730469 50.066406 82.507812 C 50.59375 82.285156 51.152344 82.09375 51.738281 81.9375 C 52.328125 81.789062 52.933594 81.671875 53.558594 81.59375 C 54.183594 81.515625 54.8125 81.476562 55.449219 81.476562 C 56.082031 81.476562 56.710938 81.515625 57.335938 81.59375 C 57.960938 81.671875 58.566406 81.789062 59.15625 81.9375 C 59.742188 82.09375 60.300781 82.285156 60.828125 82.507812 C 61.359375 82.730469 61.847656 82.984375 62.296875 83.269531 C 62.746094 83.550781 63.148438 83.863281 63.5 84.195312 C 63.855469 84.53125 64.152344 84.886719 64.398438 85.257812 C 64.640625 85.628906 64.824219 86.011719 64.945312 86.40625 C 65.070312 86.800781 65.132812 87.199219 65.132812 87.601562 Z M 65.132812 87.601562 "></path><path style=" stroke:none;fill-rule:nonzero;fill:#ffcebf;fill-opacity:1;" d="M 55.449219 81.476562 C 54.589844 81.476562 53.765625 81.542969 52.972656 81.675781 C 57.125 82.367188 59.859375 84.757812 59.859375 87.601562 C 59.859375 90.445312 57.125 92.835938 52.972656 93.527344 C 53.765625 93.660156 54.589844 93.730469 55.449219 93.730469 C 60.796875 93.730469 65.132812 90.984375 65.132812 87.601562 C 65.132812 84.21875 60.796875 81.476562 55.449219 81.476562 Z M 55.449219 81.476562 "></path><path style=" stroke:none;fill-rule:nonzero;fill:#62dbfb;fill-opacity:1;" d="M 104.785156 106.195312 L 80.996094 106.195312 C 80.199219 106.195312 79.554688 105.550781 79.554688 104.753906 L 79.554688 96.246094 C 79.554688 95.453125 80.199219 94.808594 80.996094 94.808594 L 104.785156 94.808594 C 105.578125 94.808594 106.222656 95.453125 106.222656 96.246094 L 106.222656 104.753906 C 106.222656 105.550781 105.578125 106.195312 104.785156 106.195312 Z M 104.785156 106.195312 "></path><path style=" stroke:none;fill-rule:nonzero;fill:#01d0fb;fill-opacity:1;" d="M 104.785156 94.808594 L 99.839844 94.808594 C 100.632812 94.808594 101.277344 95.453125 101.277344 96.246094 L 101.277344 104.753906 C 101.277344 105.550781 100.632812 106.195312 99.839844 106.195312 L 104.785156 106.195312 C 105.578125 106.195312 106.222656 105.550781 106.222656 104.753906 L 106.222656 96.246094 C 106.222656 95.453125 105.578125 94.808594 104.785156 94.808594 Z M 104.785156 94.808594 "></path><path style=" stroke:none;fill-rule:nonzero;fill:#f2fbff;fill-opacity:1;" d="M 81.15625 94.808594 C 81.15625 94.808594 79.976562 88.863281 85.535156 89.367188 C 85.535156 89.367188 85.628906 84.746094 90.226562 84.839844 C 94.824219 84.9375 97.695312 83.882812 99.894531 80.820312 C 99.894531 80.820312 101.332031 84.648438 100.660156 86.46875 C 100.660156 86.46875 107.140625 88.015625 104.621094 94.808594 Z M 81.15625 94.808594 "></path><path style=" stroke:none;fill-rule:nonzero;fill:#dff6fd;fill-opacity:1;" d="M 104.621094 94.808594 L 99.675781 94.808594 C 101.179688 90.761719 99.484375 88.578125 97.871094 87.472656 C 96.734375 86.695312 96.003906 85.46875 95.808594 84.105469 L 95.804688 84.078125 C 97.441406 83.449219 98.761719 82.402344 99.894531 80.820312 C 99.894531 80.820312 101.332031 84.648438 100.664062 86.46875 C 100.664062 86.46875 107.144531 88.015625 104.621094 94.808594 Z M 104.621094 94.808594 "></path><path style=" stroke:none;fill-rule:nonzero;fill:#918291;fill-opacity:1;" d="M 98.066406 62.011719 L 91.113281 62.011719 L 91.113281 31.101562 C 91.113281 30.203125 91.84375 29.476562 92.742188 29.476562 L 96.4375 29.476562 C 97.335938 29.476562 98.066406 30.203125 98.066406 31.101562 Z M 98.066406 62.011719 "></path><path style=" stroke:none;fill-rule:nonzero;fill:#7a6d79;fill-opacity:1;" d="M 96.4375 29.476562 L 92.742188 29.476562 C 92.695312 29.476562 92.644531 29.476562 92.601562 29.480469 C 93.433594 29.554688 94.085938 30.25 94.085938 31.101562 L 94.085938 62.011719 L 98.066406 62.011719 L 98.066406 31.101562 C 98.066406 30.203125 97.335938 29.476562 96.4375 29.476562 Z M 96.4375 29.476562 "></path><path style=" stroke:none;fill-rule:nonzero;fill:#fff9df;fill-opacity:1;" d="M 91.113281 62.011719 L 98.066406 62.011719 L 99.785156 74.757812 C 100.039062 76.636719 98.578125 78.3125 96.683594 78.3125 L 92.5 78.3125 C 90.601562 78.3125 89.140625 76.636719 89.394531 74.757812 Z M 91.113281 62.011719 "></path><path style=" stroke:none;fill-rule:nonzero;fill:#fcefb9;fill-opacity:1;" d="M 96.683594 78.3125 L 92.703125 78.3125 C 94.597656 78.3125 96.0625 76.636719 95.808594 74.757812 L 94.085938 62.011719 L 98.066406 62.011719 L 99.785156 74.757812 C 100.039062 76.636719 98.578125 78.3125 96.683594 78.3125 Z M 96.683594 78.3125 "></path><path style="fill:none;stroke-width:15;stroke-linecap:round;stroke-linejoin:round;stroke:#000000;stroke-opacity:1;stroke-miterlimit:10;" d="M 74.478869 376.704703 C 92.805841 421.928643 127.536877 449.609017 146.884651 462.191005 C 155.051074 467.484936 164.570654 470.262469 174.30389 470.262469 L 206.114955 470.262469 C 215.871931 470.262469 225.39151 467.484936 233.557933 462.191005 C 262.401548 443.389242 325.596364 390.995943 317.287504 296.797208 C 323.388582 281.366468 326.735865 264.58257 326.759605 246.991526 C 326.902042 172.591618 266.627197 142.940857 192.227288 141.896314 C 115.880733 140.804292 53.682979 170.64497 53.682979 246.706651 C 53.682979 264.392653 57.030263 281.271509 63.13134 296.797208 C 61.683225 313.414928 62.419152 328.703231 64.840592 342.757075 " transform="matrix(0.164546,0,0,0.164546,24.147164,23.182817)"></path><g clip-rule="nonzero" clip-path="url(#9057621bf3)"><path style="fill:none;stroke-width:15;stroke-linecap:round;stroke-linejoin:round;stroke:#000000;stroke-opacity:1;stroke-miterlimit:10;" d="M 109.613478 504.494973 L 117.946078 439.30603 " transform="matrix(0.164546,0,0,0.164546,24.147164,23.182817)"></path></g><g clip-rule="nonzero" clip-path="url(#e432788c48)"><path style="fill:none;stroke-width:15;stroke-linecap:round;stroke-linejoin:round;stroke:#000000;stroke-opacity:1;stroke-miterlimit:10;" d="M 262.496506 439.30603 L 270.829106 504.494973 " transform="matrix(0.164546,0,0,0.164546,24.147164,23.182817)"></path></g><g clip-rule="nonzero" clip-path="url(#1bf31a8335)"><path style="fill:none;stroke-width:15;stroke-linecap:round;stroke-linejoin:round;stroke:#000000;stroke-opacity:1;stroke-miterlimit:10;" d="M 56.436773 274.149629 C 56.436773 274.149629 30.48939 257.175815 17.40887 274.149629 C 6.939706 287.77616 13.563054 354.057125 64.840592 342.757075 " transform="matrix(0.164546,0,0,0.164546,24.147164,23.182817)"></path></g><path style="fill:none;stroke-width:15;stroke-linecap:round;stroke-linejoin:round;stroke:#000000;stroke-opacity:1;stroke-miterlimit:10;" d="M 323.982072 274.149629 L 324.005811 274.149629 C 324.005811 274.149629 349.953195 257.175815 363.033715 274.149629 C 373.502878 287.77616 366.903269 354.057125 315.601993 342.757075 " transform="matrix(0.164546,0,0,0.164546,24.147164,23.182817)"></path><path style="fill:none;stroke-width:15;stroke-linecap:round;stroke-linejoin:round;stroke:#000000;stroke-opacity:1;stroke-miterlimit:10;" d="M 169.579709 288.630785 C 169.579709 292.144246 169.223615 295.610228 168.558907 299.05247 C 167.870458 302.518452 166.849655 305.865735 165.520238 309.118061 C 164.143341 312.346646 162.505308 315.432794 160.534922 318.376505 C 158.588274 321.296476 156.380491 324.00279 153.887833 326.495448 C 151.418915 328.988106 148.7126 331.195889 145.76889 333.142536 C 142.872659 335.089184 139.762771 336.750956 136.534185 338.104113 C 133.28186 339.433531 129.910837 340.478073 126.468595 341.142782 C 123.026353 341.83123 119.536631 342.163585 116.02317 342.163585 C 112.50971 342.163585 109.019988 341.83123 105.554007 341.142782 C 102.111765 340.478073 98.78822 339.433531 95.512156 338.104113 C 92.25983 336.750956 89.173682 335.089184 86.277451 333.142536 C 83.33374 331.195889 80.627426 328.988106 78.134768 326.495448 C 75.665849 324.00279 73.434327 321.296476 71.48768 318.376505 C 69.517293 315.432794 67.87926 312.346646 66.526103 309.118061 C 65.172946 305.865735 64.175883 302.518452 63.487434 299.05247 C 62.798986 295.610228 62.442892 292.144246 62.442892 288.630785 C 62.442892 285.117324 62.798986 281.627603 63.487434 278.161621 C 64.175883 274.719379 65.172946 271.372096 66.526103 268.11977 C 67.87926 264.867445 69.517293 261.781297 71.48768 258.837587 C 73.434327 255.941355 75.665849 253.235041 78.134768 250.742383 C 80.627426 248.249725 83.33374 246.041942 86.277451 244.071555 C 89.173682 242.124908 92.25983 240.463136 95.512156 239.133718 C 98.78822 237.780561 102.111765 236.783498 105.554007 236.07131 C 109.019988 235.382861 112.50971 235.050507 116.02317 235.050507 C 119.536631 235.050507 123.026353 235.382861 126.468595 236.07131 C 129.910837 236.783498 133.28186 237.780561 136.534185 239.133718 C 139.762771 240.463136 142.872659 242.124908 145.76889 244.071555 C 148.7126 246.041942 151.418915 248.249725 153.887833 250.742383 C 156.380491 253.235041 158.588274 255.941355 160.534922 258.837587 C 162.505308 261.781297 164.143341 264.867445 165.520238 268.11977 C 166.849655 271.372096 167.870458 274.719379 168.558907 278.161621 C 169.223615 281.627603 169.579709 285.117324 169.579709 288.630785 Z M 169.579709 288.630785 " transform="matrix(0.164546,0,0,0.164546,24.147164,23.182817)"></path><path style="fill:none;stroke-width:15;stroke-linecap:round;stroke-linejoin:round;stroke:#000000;stroke-opacity:1;stroke-miterlimit:10;" d="M 102.016806 286.874055 C 102.016806 286.874055 115.643337 294.660644 130.029535 286.874055 " transform="matrix(0.164546,0,0,0.164546,24.147164,23.182817)"></path><path style="fill:none;stroke-width:15;stroke-linecap:round;stroke-linejoin:round;stroke:#000000;stroke-opacity:1;stroke-miterlimit:10;" d="M 317.880994 288.630785 C 317.880994 292.144246 317.54864 295.610228 316.860191 299.05247 C 316.171743 302.518452 315.15094 305.865735 313.797783 309.118061 C 312.468365 312.346646 310.830333 315.432794 308.859946 318.376505 C 306.913299 321.296476 304.705516 324.00279 302.212858 326.495448 C 299.7202 328.988106 297.013885 331.195889 294.093914 333.142536 C 291.150204 335.089184 288.087795 336.750956 284.811731 338.104113 C 281.559405 339.433531 278.235861 340.478073 274.793619 341.142782 C 271.327637 341.83123 267.837916 342.163585 264.324455 342.163585 C 260.810994 342.163585 257.321273 341.83123 253.879031 341.142782 C 250.436789 340.478073 247.065766 339.433531 243.83718 338.104113 C 240.584855 336.750956 237.498707 335.089184 234.554996 333.142536 C 231.658765 331.195889 228.928711 328.988106 226.459792 326.495448 C 223.967134 324.00279 221.759351 321.296476 219.788965 318.376505 C 217.842317 315.432794 216.180545 312.346646 214.827388 309.118061 C 213.49797 305.865735 212.477168 302.518452 211.788719 299.05247 C 211.100271 295.610228 210.767916 292.144246 210.767916 288.630785 C 210.767916 285.117324 211.100271 281.627603 211.788719 278.161621 C 212.477168 274.719379 213.49797 271.372096 214.827388 268.11977 C 216.180545 264.867445 217.842317 261.781297 219.788965 258.837587 C 221.759351 255.941355 223.967134 253.235041 226.459792 250.742383 C 228.928711 248.249725 231.658765 246.041942 234.554996 244.071555 C 237.498707 242.124908 240.584855 240.463136 243.83718 239.133718 C 247.065766 237.780561 250.436789 236.783498 253.879031 236.07131 C 257.321273 235.382861 260.810994 235.050507 264.324455 235.050507 C 267.837916 235.050507 271.327637 235.382861 274.793619 236.07131 C 278.235861 236.783498 281.559405 237.780561 284.811731 239.133718 C 288.087795 240.463136 291.150204 242.124908 294.093914 244.071555 C 297.013885 246.041942 299.7202 248.249725 302.212858 250.742383 C 304.705516 253.235041 306.913299 255.941355 308.859946 258.837587 C 310.830333 261.781297 312.468365 264.867445 313.797783 268.11977 C 315.15094 271.372096 316.171743 274.719379 316.860191 278.161621 C 317.54864 281.627603 317.880994 285.117324 317.880994 288.630785 Z M 317.880994 288.630785 " transform="matrix(0.164546,0,0,0.164546,24.147164,23.182817)"></path><path style="fill:none;stroke-width:15;stroke-linecap:round;stroke-linejoin:round;stroke:#000000;stroke-opacity:1;stroke-miterlimit:10;" d="M 250.318091 286.874055 C 250.318091 286.874055 263.920882 294.660644 278.354559 286.874055 " transform="matrix(0.164546,0,0,0.164546,24.147164,23.182817)"></path><path style="fill:none;stroke-width:15;stroke-linecap:round;stroke-linejoin:round;stroke:#000000;stroke-opacity:1;stroke-miterlimit:10;" d="M 249.083632 391.494475 C 249.083632 393.963393 248.703798 396.361093 247.944131 398.758792 C 247.208203 401.156492 246.092442 403.482973 244.620587 405.761975 C 243.124992 408.017237 241.320782 410.153801 239.160479 412.195406 C 237.023915 414.237012 234.578736 416.11244 231.848682 417.845431 C 229.118628 419.554683 226.151178 421.097757 222.922592 422.474653 C 219.717746 423.827811 216.322983 424.991051 212.762043 425.893156 C 209.177363 426.84274 205.497725 427.554928 201.699389 428.02972 C 197.901053 428.504512 194.078977 428.741908 190.233162 428.741908 C 186.363607 428.741908 182.541531 428.504512 178.743195 428.02972 C 174.944859 427.554928 171.265221 426.84274 167.680541 425.893156 C 164.119601 424.991051 160.724838 423.827811 157.519992 422.474653 C 154.291407 421.097757 151.323957 419.554683 148.593902 417.845431 C 145.863848 416.11244 143.41867 414.237012 141.282105 412.195406 C 139.121802 410.153801 137.317592 408.017237 135.821997 405.761975 C 134.350142 403.482973 133.234381 401.156492 132.498453 398.758792 C 131.738786 396.361093 131.358952 393.963393 131.358952 391.494475 C 131.358952 389.049296 131.738786 386.627857 132.498453 384.230157 C 133.234381 381.832457 134.350142 379.505976 135.821997 377.250714 C 137.317592 374.995452 139.121802 372.835149 141.282105 370.793543 C 143.41867 368.775677 145.863848 366.876509 148.593902 365.167258 C 151.323957 363.434267 154.291407 361.891193 157.519992 360.538035 C 160.724838 359.184878 164.119601 358.021638 167.680541 357.072054 C 171.265221 356.169949 174.944859 355.457761 178.743195 354.982969 C 182.541531 354.508177 186.363607 354.270781 190.233162 354.270781 C 194.078977 354.270781 197.901053 354.508177 201.699389 354.982969 C 205.497725 355.457761 209.177363 356.169949 212.762043 357.072054 C 216.322983 358.021638 219.717746 359.184878 222.922592 360.538035 C 226.151178 361.891193 229.118628 363.434267 231.848682 365.167258 C 234.578736 366.876509 237.023915 368.775677 239.160479 370.793543 C 241.320782 372.835149 243.124992 374.995452 244.620587 377.250714 C 246.092442 379.505976 247.208203 381.832457 247.944131 384.230157 C 248.703798 386.627857 249.083632 389.049296 249.083632 391.494475 Z M 249.083632 391.494475 " transform="matrix(0.164546,0,0,0.164546,24.147164,23.182817)"></path><path style="fill:none;stroke-width:15;stroke-linecap:round;stroke-linejoin:round;stroke:#000000;stroke-opacity:1;stroke-miterlimit:10;" d="M 171.170263 391.375777 C 171.170263 391.375777 189.687151 401.963638 209.272322 391.375777 " transform="matrix(0.164546,0,0,0.164546,24.147164,23.182817)"></path><g clip-rule="nonzero" clip-path="url(#9699ff2e50)"><path style="fill:none;stroke-width:15;stroke-linecap:round;stroke-linejoin:round;stroke:#000000;stroke-opacity:1;stroke-miterlimit:10;" d="M 352.635769 267.265145 C 352.635769 267.265145 374.57116 171.903169 335.495778 127.201501 C 282.437771 66.428124 192.227288 70.22646 192.227288 70.22646 C 192.227288 70.22646 102.016806 66.451863 48.958799 127.201501 C 9.883416 171.903169 27.806815 267.265145 27.806815 267.265145 " transform="matrix(0.164546,0,0,0.164546,24.147164,23.182817)"></path></g><g clip-rule="nonzero" clip-path="url(#b38fcdc911)"><path style="fill:none;stroke-width:15;stroke-linecap:round;stroke-linejoin:round;stroke:#000000;stroke-opacity:1;stroke-miterlimit:10;" d="M 258.72191 79.817259 C 260.621078 74.736984 261.618141 69.324355 261.618141 63.745549 C 261.618141 32.670412 230.115691 7.482696 191.230225 7.482696 C 152.344759 7.482696 120.842309 32.670412 120.842309 63.745549 C 120.842309 69.514272 121.934331 75.116818 123.975937 80.363269 " transform="matrix(0.164546,0,0,0.164546,24.147164,23.182817)"></path></g><g clip-rule="nonzero" clip-path="url(#b69dcf3e18)"><path style="fill:none;stroke-width:15;stroke-linecap:round;stroke-linejoin:round;stroke:#000000;stroke-opacity:1;stroke-miterlimit:10;" d="M 490.064317 504.494973 L 345.49015 504.494973 C 340.647271 504.494973 336.730237 500.577939 336.730237 495.735061 L 336.730237 444.030211 C 336.730237 439.211072 340.647271 435.294038 345.49015 435.294038 L 490.064317 435.294038 C 494.883456 435.294038 498.80049 439.211072 498.80049 444.030211 L 498.80049 495.735061 C 498.80049 500.577939 494.883456 504.494973 490.064317 504.494973 Z M 490.064317 504.494973 " transform="matrix(0.164546,0,0,0.164546,24.147164,23.182817)"></path></g><path style="fill:none;stroke-width:15;stroke-linecap:round;stroke-linejoin:round;stroke:#000000;stroke-opacity:1;stroke-miterlimit:10;" d="M 346.463473 435.294038 C 346.463473 435.294038 339.294114 399.162366 373.075566 402.224774 C 373.075566 402.224774 373.645316 374.140827 401.586826 374.734317 C 429.528336 375.304067 446.976942 368.894375 460.342337 350.282528 C 460.342337 350.282528 469.07851 373.547337 465.019039 384.60999 C 465.019039 384.60999 504.379296 394.010872 489.067254 435.294038 Z M 346.463473 435.294038 " transform="matrix(0.164546,0,0,0.164546,24.147164,23.182817)"></path><path style="fill:none;stroke-width:15;stroke-linecap:round;stroke-linejoin:round;stroke:#000000;stroke-opacity:1;stroke-miterlimit:10;" d="M 449.232204 107.758768 L 449.232204 235.976351 L 406.975715 235.976351 L 406.975715 48.124892 C 406.975715 42.664784 411.415021 38.249218 416.875129 38.249218 L 439.332791 38.249218 C 444.792899 38.249218 449.232204 42.664784 449.232204 48.124892 L 449.232204 72.695378 " transform="matrix(0.164546,0,0,0.164546,24.147164,23.182817)"></path><path style="fill:none;stroke-width:15;stroke-linecap:round;stroke-linejoin:round;stroke:#000000;stroke-opacity:1;stroke-miterlimit:10;" d="M 406.975715 235.976351 L 449.232204 235.976351 L 459.677628 313.438668 C 461.220703 324.857416 452.342092 335.041704 440.828386 335.041704 L 415.403273 335.041704 C 403.865828 335.041704 394.987217 324.857416 396.530291 313.438668 Z M 406.975715 235.976351 " transform="matrix(0.164546,0,0,0.164546,24.147164,23.182817)"></path><path style="fill:none;stroke-width:15;stroke-linecap:round;stroke-linejoin:round;stroke:#000000;stroke-opacity:1;stroke-miterlimit:10;" d="M 406.975715 204.663818 L 449.232204 204.663818 " transform="matrix(0.164546,0,0,0.164546,24.147164,23.182817)"></path><path style="fill:none;stroke-width:15;stroke-linecap:round;stroke-linejoin:round;stroke:#000000;stroke-opacity:1;stroke-miterlimit:10;" d="M 336.730237 469.882636 L 498.80049 469.882636 " transform="matrix(0.164546,0,0,0.164546,24.147164,23.182817)"></path></g></svg>
