<svg xmlns="http://www.w3.org/2000/svg" xmlns:xlink="http://www.w3.org/1999/xlink" width="180" zoomAndPan="magnify" viewBox="0 0 135 135.000003" height="180" preserveAspectRatio="xMidYMid meet"><defs><clipPath id="e56616d0f2"><path d="M 0.496094 0 L 134.503906 0 L 134.503906 134.007812 L 0.496094 134.007812 Z M 0.496094 0 "></path></clipPath><clipPath id="8d89f2a6e1"><path d="M 0.496094 0 L 134.503906 0 L 134.503906 134.007812 L 0.496094 134.007812 Z M 0.496094 0 "></path></clipPath><clipPath id="1a5f42f495"><path d="M 67.5 0 C 30.496094 0 0.496094 30 0.496094 67.003906 C 0.496094 104.007812 30.496094 134.007812 67.5 134.007812 C 104.503906 134.007812 134.503906 104.007812 134.503906 67.003906 C 134.503906 30 104.503906 0 67.5 0 Z M 67.5 0 "></path></clipPath><clipPath id="b5971061cf"><path d="M 23.527344 28.550781 L 114.355469 28.550781 L 114.355469 111.191406 L 23.527344 111.191406 Z M 23.527344 28.550781 "></path></clipPath><clipPath id="77c7efb7fc"><path d="M 69.574219 5.839844 C 33.453125 5.839844 4.171875 35.125 4.171875 71.246094 C 4.171875 107.363281 33.453125 136.648438 69.574219 136.648438 C 105.691406 136.648438 134.976562 107.363281 134.976562 71.246094 C 134.976562 35.125 105.691406 5.839844 69.574219 5.839844 Z M 69.574219 5.839844 "></path></clipPath><clipPath id="47e0253ee4"><path d="M 36 85 L 95 85 L 95 111.191406 L 36 111.191406 Z M 36 85 "></path></clipPath><clipPath id="f8c98c4182"><path d="M 46 103 L 84 103 L 84 111.191406 L 46 111.191406 Z M 46 103 "></path></clipPath><clipPath id="19ad318ae4"><path d="M 82 86 L 108 86 L 108 111.191406 L 82 111.191406 Z M 82 86 "></path></clipPath><clipPath id="5cbc067e51"><path d="M 45 102 L 85 102 L 85 111.191406 L 45 111.191406 Z M 45 102 "></path></clipPath><clipPath id="126b22e6d8"><path d="M 35 29 L 109 29 L 109 111.191406 L 35 111.191406 Z M 35 29 "></path></clipPath></defs><g id="aed0c5eb5f"><g clip-rule="nonzero" clip-path="url(#e56616d0f2)"><path style=" stroke:none;fill-rule:nonzero;fill:#ffffff;fill-opacity:1;" d="M 0.496094 0 L 134.503906 0 L 134.503906 134.007812 L 0.496094 134.007812 Z M 0.496094 0 "></path><path style=" stroke:none;fill-rule:nonzero;fill:#ffffff;fill-opacity:1;" d="M 0.496094 0 L 134.503906 0 L 134.503906 134.007812 L 0.496094 134.007812 Z M 0.496094 0 "></path></g><g clip-rule="nonzero" clip-path="url(#8d89f2a6e1)"><g clip-rule="nonzero" clip-path="url(#1a5f42f495)"><path style=" stroke:none;fill-rule:nonzero;fill:#f4dddd;fill-opacity:1;" d="M 0.496094 0 L 134.503906 0 L 134.503906 134.007812 L 0.496094 134.007812 Z M 0.496094 0 "></path><path style="fill:none;stroke-width:12;stroke-linecap:butt;stroke-linejoin:miter;stroke:#7b2e07;stroke-opacity:1;stroke-miterlimit:4;" d="M 90.000004 -0.00000933333 C 40.29599 -0.00000933333 -0.000306642 40.296288 -0.000306642 90.000301 C -0.000306642 139.704314 40.29599 180.000611 90.000004 180.000611 C 139.704017 180.000611 180.000314 139.704314 180.000314 90.000301 C 180.000314 40.296288 139.704017 -0.00000933333 90.000004 -0.00000933333 Z M 90.000004 -0.00000933333 " transform="matrix(0.744485,0,0,0.744485,0.496322,0.00000694853)"></path></g></g><g clip-rule="nonzero" clip-path="url(#b5971061cf)"><g clip-rule="nonzero" clip-path="url(#77c7efb7fc)"><path style=" stroke:none;fill-rule:nonzero;fill:#ffdfdf;fill-opacity:1;" d="M 4.171875 5.839844 L 134.976562 5.839844 L 134.976562 136.648438 L 4.171875 136.648438 Z M 4.171875 5.839844 "></path><path style="fill:none;stroke-width:8;stroke-linecap:butt;stroke-linejoin:miter;stroke:#f80303;stroke-opacity:1;stroke-miterlimit:4;" d="M 90.002229 -0.00253131 C 40.296161 -0.00253131 0.00236981 40.296626 0.00236981 90.002683 C 0.00236981 139.703364 40.296161 180.002521 90.002229 180.002521 C 139.702922 180.002521 180.002088 139.703364 180.002088 90.002683 C 180.002088 40.296626 139.702922 -0.00253131 90.002229 -0.00253131 Z M 90.002229 -0.00253131 " transform="matrix(0.726694,0,0,0.726694,4.170153,5.841683)"></path></g></g><g clip-rule="nonzero" clip-path="url(#47e0253ee4)"><path style=" stroke:none;fill-rule:nonzero;fill:#f7bfa9;fill-opacity:1;" d="M 85.097656 97.402344 C 82.660156 96.480469 80.683594 96.402344 80.683594 96.402344 C 80.683594 96.402344 76.777344 95.917969 73.03125 94.234375 C 73.023438 94.230469 73.015625 94.230469 73.007812 94.226562 C 71.703125 93.640625 70.863281 92.339844 70.863281 90.90625 L 70.863281 85.367188 L 70.007812 85.886719 C 67.089844 87.652344 63.433594 87.652344 60.511719 85.886719 L 59.660156 85.367188 L 59.660156 90.90625 C 59.660156 92.339844 58.820312 93.640625 57.511719 94.226562 C 57.503906 94.230469 57.496094 94.230469 57.488281 94.234375 C 53.746094 95.917969 49.839844 96.402344 49.839844 96.402344 C 49.839844 96.402344 36.304688 97.082031 36.304688 111.679688 L 94.214844 111.679688 C 94.214844 109.546875 93.929688 107.707031 93.441406 106.125 C 89.800781 102.796875 87.511719 100.316406 85.097656 97.402344 Z M 85.097656 97.402344 "></path></g><path style=" stroke:none;fill-rule:nonzero;fill:#ffd5ae;fill-opacity:1;" d="M 74.953125 82.675781 C 74.957031 81.707031 76.871094 80.3125 77.417969 79.640625 C 77.625 79.425781 77.882812 79.273438 78.15625 79.183594 C 79.445312 77.128906 80.203125 74.746094 80.308594 72.246094 L 80.667969 63.753906 C 80.730469 62.304688 80.589844 60.890625 80.269531 59.546875 L 65.261719 54.925781 L 50.253906 59.546875 C 49.9375 60.890625 49.796875 62.304688 49.855469 63.753906 L 50.214844 72.246094 C 50.414062 76.996094 52.976562 81.320312 57.035156 83.78125 L 60.511719 85.886719 C 63.433594 87.652344 67.089844 87.652344 70.007812 85.886719 L 73.484375 83.78125 C 73.996094 83.472656 74.484375 83.132812 74.945312 82.765625 C 74.949219 82.738281 74.949219 82.707031 74.953125 82.675781 Z M 74.953125 82.675781 "></path><path style=" stroke:none;fill-rule:nonzero;fill:#fcdc45;fill-opacity:1;" d="M 38.972656 89.761719 C 38.972656 85.257812 35.988281 82.269531 31.484375 82.269531 C 35.988281 82.269531 38.972656 79.285156 38.972656 74.777344 C 38.972656 79.285156 41.960938 82.269531 46.464844 82.269531 C 41.960938 82.269531 38.972656 85.257812 38.972656 89.761719 Z M 38.972656 89.761719 "></path><path style=" stroke:none;fill-rule:nonzero;fill:#fcdc45;fill-opacity:1;" d="M 96.09375 83.597656 C 96.09375 80.246094 93.875 78.023438 90.519531 78.023438 C 93.875 78.023438 96.09375 75.800781 96.09375 72.449219 C 96.09375 75.800781 98.316406 78.023438 101.671875 78.023438 C 98.316406 78.023438 96.09375 80.246094 96.09375 83.597656 Z M 96.09375 83.597656 "></path><path style=" stroke:none;fill-rule:nonzero;fill:#fcdc45;fill-opacity:1;" d="M 100.679688 42.582031 C 100.679688 39.230469 98.457031 37.007812 95.105469 37.007812 C 98.457031 37.007812 100.679688 34.789062 100.679688 31.433594 C 100.679688 34.789062 102.902344 37.007812 106.253906 37.007812 C 102.902344 37.007812 100.679688 39.230469 100.679688 42.582031 Z M 100.679688 42.582031 "></path><g clip-rule="nonzero" clip-path="url(#f8c98c4182)"><path style=" stroke:none;fill-rule:nonzero;fill:#ff86ae;fill-opacity:1;" d="M 76.457031 103.410156 L 54.0625 103.410156 C 50.496094 103.410156 47.492188 106.0625 47.050781 109.597656 L 46.785156 111.679688 L 83.738281 111.679688 L 83.472656 109.597656 C 83.03125 106.0625 80.023438 103.410156 76.457031 103.410156 Z M 76.457031 103.410156 "></path></g><path style=" stroke:none;fill-rule:nonzero;fill:#da387d;fill-opacity:1;" d="M 69.480469 77.371094 C 69.480469 79.707031 67.59375 81.59375 65.261719 81.59375 C 62.929688 81.59375 61.039062 79.707031 61.039062 77.371094 Z M 69.480469 77.371094 "></path><path style=" stroke:none;fill-rule:nonzero;fill:#f7bfa9;fill-opacity:1;" d="M 50.214844 72.246094 L 49.894531 64.726562 C 49.125 64.3125 48.242188 64.074219 47.300781 64.074219 C 45.632812 64.074219 44.351562 65.558594 44.597656 67.210938 L 44.855469 68.964844 C 45.171875 71.058594 46.960938 72.601562 49.074219 72.601562 L 49.878906 72.601562 C 50 72.601562 50.117188 72.59375 50.234375 72.578125 C 50.226562 72.46875 50.21875 72.359375 50.214844 72.246094 Z M 50.214844 72.246094 "></path><path style=" stroke:none;fill-rule:nonzero;fill:#f7bfa9;fill-opacity:1;" d="M 80.308594 72.246094 L 80.625 64.726562 C 81.398438 64.3125 82.28125 64.074219 83.222656 64.074219 C 84.894531 64.074219 86.171875 65.558594 85.925781 67.210938 L 85.664062 68.964844 C 85.355469 71.058594 83.5625 72.601562 81.445312 72.601562 L 80.640625 72.601562 C 80.523438 72.601562 80.40625 72.59375 80.289062 72.578125 C 80.296875 72.46875 80.304688 72.359375 80.308594 72.246094 Z M 80.308594 72.246094 "></path><path style=" stroke:none;fill-rule:nonzero;fill:#b4d9fb;fill-opacity:1;" d="M 83.191406 49.402344 L 47.585938 60.367188 C 46.519531 60.695312 45.394531 60.078125 45.101562 59 L 43.875 54.53125 C 43.277344 52.371094 44.589844 50.148438 46.769531 49.621094 L 80.984375 41.355469 C 83.175781 40.824219 85.390625 42.132812 85.992188 44.308594 C 86.589844 46.484375 85.351562 48.742188 83.191406 49.402344 Z M 83.191406 49.402344 "></path><path style=" stroke:none;fill-rule:nonzero;fill:#8896db;fill-opacity:1;" d="M 81.097656 41.328125 L 46.582031 49.675781 L 46.175781 47.664062 C 45.234375 43 48.359375 38.484375 53.054688 37.714844 L 71.507812 34.703125 C 75.96875 33.96875 80.207031 36.902344 81.097656 41.328125 Z M 81.097656 41.328125 "></path><path style=" stroke:none;fill-rule:nonzero;fill:#3451c6;fill-opacity:1;" d="M 51.65625 38.070312 C 52.101562 37.914062 52.570312 37.792969 53.054688 37.714844 L 71.507812 34.703125 C 72.074219 34.605469 72.632812 34.574219 73.183594 34.59375 C 73.121094 32.421875 71.339844 30.679688 69.152344 30.6875 C 69.152344 30.6875 60.941406 30.699219 58.203125 30.683594 C 54.238281 30.660156 51.214844 34.164062 51.644531 38.070312 Z M 51.65625 38.070312 "></path><path style=" stroke:none;fill-rule:nonzero;fill:#8896db;fill-opacity:1;" d="M 83.753906 49.621094 L 83.039062 49.449219 L 65.261719 54.925781 L 82.9375 60.367188 C 84 60.695312 85.128906 60.078125 85.421875 59 L 86.652344 54.53125 C 87.242188 52.371094 85.929688 50.148438 83.753906 49.621094 Z M 83.753906 49.621094 "></path><path style=" stroke:none;fill-rule:nonzero;fill:#000000;fill-opacity:1;" d="M 49.894531 64.726562 L 49.855469 63.753906 C 49.796875 62.304688 49.9375 60.890625 50.253906 59.546875 L 47.585938 60.367188 C 47.035156 60.539062 46.46875 60.449219 46.007812 60.183594 L 46.007812 64.398438 C 46.007812 64.398438 46.007812 64.398438 46.007812 64.402344 C 46.394531 64.199219 46.832031 64.074219 47.300781 64.074219 C 48.242188 64.074219 49.125 64.3125 49.894531 64.726562 Z M 49.894531 64.726562 "></path><path style=" stroke:none;fill-rule:nonzero;fill:#000000;fill-opacity:1;" d="M 80.625 64.726562 L 80.667969 63.753906 C 80.730469 62.304688 80.589844 60.890625 80.269531 59.546875 L 82.9375 60.367188 C 83.484375 60.539062 84.054688 60.449219 84.515625 60.183594 L 84.515625 64.398438 C 84.515625 64.398438 84.511719 64.398438 84.511719 64.402344 C 84.128906 64.199219 83.691406 64.074219 83.21875 64.074219 C 82.28125 64.074219 81.394531 64.3125 80.625 64.726562 Z M 80.625 64.726562 "></path><path style=" stroke:none;fill-rule:nonzero;fill:#417195;fill-opacity:1;" d="M 49.855469 63.753906 L 49.933594 65.621094 L 49.988281 65.625 L 53.128906 68.589844 C 53.878906 70.984375 56.117188 72.722656 58.757812 72.722656 L 60.707031 72.722656 C 62.886719 72.722656 64.65625 70.953125 64.65625 68.769531 L 64.65625 68.414062 L 65.863281 68.414062 L 65.863281 68.769531 C 65.863281 70.953125 67.632812 72.722656 69.816406 72.722656 L 71.765625 72.722656 C 74.40625 72.722656 76.644531 70.984375 77.394531 68.589844 L 80.535156 65.625 L 80.589844 65.625 L 80.667969 63.753906 C 80.695312 63.109375 80.679688 62.46875 80.628906 61.835938 L 49.894531 61.835938 C 49.839844 62.46875 49.824219 63.109375 49.855469 63.753906 Z M 49.855469 63.753906 "></path><g clip-rule="nonzero" clip-path="url(#19ad318ae4)"><path style=" stroke:none;fill-rule:nonzero;fill:#b4d9fb;fill-opacity:1;" d="M 106.984375 106.15625 C 107.675781 105.464844 107.730469 104.371094 107.125 103.609375 C 105.730469 101.855469 104.222656 100.070312 102.605469 98.273438 C 97.976562 93.136719 95.042969 90.632812 90.644531 87.125 C 89.878906 86.519531 88.785156 86.578125 88.09375 87.269531 L 83.125 92.238281 C 82.4375 92.929688 82.375 94.023438 82.984375 94.785156 C 86.488281 99.183594 88.996094 102.121094 94.128906 106.746094 C 95.925781 108.371094 97.710938 109.871094 99.460938 111.269531 C 100.222656 111.875 101.324219 111.816406 102.011719 111.128906 Z M 106.984375 106.15625 "></path></g><path style=" stroke:none;fill-rule:nonzero;fill:#fcdc45;fill-opacity:1;" d="M 75.496094 81.5625 C 74.792969 82.265625 74.746094 83.386719 75.386719 84.148438 L 76.492188 85.457031 L 81.316406 80.636719 L 80.003906 79.53125 C 79.242188 78.890625 78.121094 78.9375 77.417969 79.640625 Z M 75.496094 81.5625 "></path><path style=" stroke:none;fill-rule:nonzero;fill:#8896db;fill-opacity:1;" d="M 89.960938 94.117188 C 90.179688 93.894531 90.4375 93.722656 90.730469 93.601562 C 91.019531 93.480469 91.324219 93.421875 91.636719 93.421875 C 91.953125 93.421875 92.253906 93.480469 92.550781 93.601562 C 92.839844 93.722656 93.09375 93.894531 93.320312 94.117188 L 97.621094 98.417969 C 97.84375 98.644531 98.015625 98.898438 98.136719 99.1875 C 98.257812 99.484375 98.316406 99.785156 98.316406 100.101562 C 98.316406 100.417969 98.257812 100.71875 98.136719 101.007812 C 98.015625 101.300781 97.84375 101.558594 97.621094 101.777344 L 97.621094 101.78125 C 97.398438 102.003906 97.140625 102.175781 96.851562 102.296875 C 96.558594 102.414062 96.253906 102.476562 95.941406 102.476562 C 95.625 102.476562 95.324219 102.414062 95.03125 102.296875 C 94.742188 102.175781 94.484375 102.003906 94.261719 101.78125 L 89.960938 97.476562 C 89.734375 97.257812 89.5625 96.996094 89.441406 96.707031 C 89.324219 96.414062 89.261719 96.113281 89.261719 95.796875 C 89.261719 95.484375 89.324219 95.179688 89.441406 94.886719 C 89.5625 94.597656 89.734375 94.339844 89.960938 94.117188 Z M 89.960938 94.117188 "></path><path style=" stroke:none;fill-rule:nonzero;fill:#ff7d6a;fill-opacity:1;" d="M 83.125 92.238281 L 88.09375 87.269531 C 88.203125 87.160156 88.324219 87.066406 88.449219 86.992188 L 86.289062 84.828125 L 80.683594 90.433594 L 82.84375 92.597656 C 82.925781 92.46875 83.015625 92.347656 83.125 92.238281 Z M 83.125 92.238281 "></path><path style=" stroke:none;fill-rule:nonzero;fill:#000000;fill-opacity:1;" d="M 37.988281 89.757812 C 38.03125 91.058594 39.914062 91.066406 39.960938 89.757812 C 39.960938 85.804688 42.515625 83.253906 46.464844 83.253906 C 47.011719 83.253906 47.453125 82.8125 47.453125 82.265625 C 47.453125 81.722656 47.011719 81.28125 46.464844 81.28125 C 42.515625 81.28125 39.960938 78.726562 39.960938 74.773438 C 39.960938 74.230469 39.519531 73.789062 38.972656 73.789062 C 38.429688 73.789062 37.988281 74.230469 37.988281 74.773438 C 37.988281 78.726562 35.4375 81.28125 31.484375 81.28125 C 30.941406 81.28125 30.496094 81.722656 30.496094 82.265625 C 30.496094 82.8125 30.941406 83.253906 31.484375 83.253906 C 35.4375 83.253906 37.988281 85.804688 37.988281 89.757812 Z M 38.972656 79.074219 C 39.699219 80.453125 40.789062 81.542969 42.167969 82.265625 C 40.789062 82.988281 39.695312 84.078125 38.972656 85.457031 C 38.253906 84.078125 37.164062 82.988281 35.78125 82.265625 C 37.164062 81.542969 38.253906 80.453125 38.972656 79.074219 Z M 38.972656 79.074219 "></path><path style=" stroke:none;fill-rule:nonzero;fill:#000000;fill-opacity:1;" d="M 90.519531 79.007812 C 93.308594 79.007812 95.109375 80.808594 95.109375 83.59375 C 95.152344 84.898438 97.035156 84.90625 97.085938 83.59375 C 97.085938 80.808594 98.886719 79.007812 101.667969 79.007812 C 102.21875 79.007812 102.660156 78.566406 102.660156 78.019531 C 102.660156 77.476562 102.21875 77.03125 101.667969 77.03125 C 98.886719 77.03125 97.085938 75.234375 97.085938 72.445312 C 97.085938 71.898438 96.640625 71.457031 96.09375 71.457031 C 95.550781 71.457031 95.109375 71.898438 95.109375 72.445312 C 95.109375 75.234375 93.308594 77.03125 90.519531 77.03125 C 89.214844 77.078125 89.210938 78.960938 90.519531 79.007812 Z M 96.09375 76.164062 C 96.566406 76.921875 97.195312 77.546875 97.957031 78.019531 C 97.195312 78.492188 96.566406 79.121094 96.09375 79.875 C 95.625 79.121094 94.996094 78.492188 94.238281 78.019531 C 94.996094 77.546875 95.625 76.921875 96.09375 76.164062 Z M 96.09375 76.164062 "></path><path style=" stroke:none;fill-rule:nonzero;fill:#000000;fill-opacity:1;" d="M 95.105469 37.992188 C 97.890625 37.992188 99.691406 39.796875 99.691406 42.578125 C 99.734375 43.882812 101.621094 43.890625 101.664062 42.578125 C 101.664062 39.796875 103.464844 37.992188 106.253906 37.992188 C 106.796875 37.992188 107.242188 37.550781 107.242188 37.003906 C 107.242188 36.460938 106.796875 36.015625 106.253906 36.015625 C 103.464844 36.015625 101.664062 34.21875 101.664062 31.429688 C 101.664062 30.886719 101.222656 30.441406 100.679688 30.441406 C 100.132812 30.441406 99.691406 30.886719 99.691406 31.429688 C 99.691406 34.21875 97.890625 36.015625 95.105469 36.015625 C 93.800781 36.0625 93.792969 37.945312 95.105469 37.992188 Z M 100.679688 35.148438 C 101.152344 35.90625 101.777344 36.535156 102.535156 37.003906 C 101.777344 37.476562 101.152344 38.105469 100.679688 38.863281 C 100.207031 38.105469 99.578125 37.476562 98.820312 37.003906 C 99.578125 36.535156 100.207031 35.90625 100.679688 35.148438 Z M 100.679688 35.148438 "></path><g clip-rule="nonzero" clip-path="url(#5cbc067e51)"><path style=" stroke:none;fill-rule:nonzero;fill:#000000;fill-opacity:1;" d="M 84.535156 112.257812 C 84.683594 112.058594 84.746094 111.796875 84.71875 111.554688 C 84.679688 111.28125 83.828125 104.699219 83.828125 104.699219 C 83.683594 103.644531 82.210938 103.535156 81.902344 104.542969 C 80.460938 103.21875 78.542969 102.417969 76.457031 102.417969 L 54.0625 102.417969 C 51.980469 102.417969 50.0625 103.21875 48.617188 104.542969 C 48.320312 103.542969 46.835938 103.640625 46.691406 104.699219 C 46.691406 104.699219 45.808594 111.554688 45.808594 111.554688 C 45.789062 111.703125 45.804688 111.859375 45.855469 112.003906 C 46.042969 112.582031 46.785156 112.851562 47.296875 112.519531 C 47.558594 112.367188 47.730469 112.09375 47.765625 111.789062 C 47.765625 111.789062 48.074219 109.402344 48.074219 109.402344 C 48.589844 106.523438 51.109375 104.394531 54.0625 104.394531 L 76.457031 104.394531 C 79.414062 104.394531 81.933594 106.523438 82.445312 109.402344 L 82.753906 111.789062 C 82.78125 111.972656 82.851562 112.144531 82.964844 112.292969 C 83.351562 112.792969 84.171875 112.78125 84.535156 112.257812 Z M 84.535156 112.257812 "></path></g><path style=" stroke:none;fill-rule:nonzero;fill:#000000;fill-opacity:1;" d="M 61.609375 99.640625 C 62.875 99.933594 63.371094 98.113281 62.113281 97.730469 C 62.113281 97.730469 58.625 96.800781 58.625 96.800781 C 57.351562 96.507812 56.863281 98.332031 58.117188 98.707031 C 58.117188 98.707031 61.609375 99.640625 61.609375 99.640625 Z M 61.609375 99.640625 "></path><path style=" stroke:none;fill-rule:nonzero;fill:#000000;fill-opacity:1;" d="M 68.660156 99.671875 C 68.746094 99.671875 68.832031 99.660156 68.917969 99.640625 L 72.40625 98.707031 C 73.65625 98.332031 73.171875 96.507812 71.898438 96.800781 C 71.898438 96.800781 68.410156 97.730469 68.410156 97.730469 C 67.296875 98.046875 67.519531 99.65625 68.660156 99.671875 Z M 68.660156 99.671875 "></path><path style=" stroke:none;fill-rule:nonzero;fill:#000000;fill-opacity:1;" d="M 65.261719 82.578125 C 68.132812 82.578125 70.46875 80.238281 70.46875 77.367188 C 70.46875 76.824219 70.027344 76.378906 69.480469 76.378906 L 61.039062 76.378906 C 60.492188 76.378906 60.050781 76.824219 60.050781 77.367188 C 60.050781 80.238281 62.390625 82.578125 65.261719 82.578125 Z M 68.339844 78.355469 C 67.367188 81.328125 63.152344 81.328125 62.183594 78.355469 Z M 68.339844 78.355469 "></path><path style=" stroke:none;fill-rule:nonzero;fill:#000000;fill-opacity:1;" d="M 73.183594 78.71875 C 74.132812 79.613281 75.476562 78.273438 74.578125 77.320312 C 74.578125 77.320312 73.949219 76.691406 73.949219 76.691406 C 72.992188 75.800781 71.660156 77.136719 72.554688 78.09375 C 72.554688 78.09375 73.183594 78.71875 73.183594 78.71875 Z M 73.183594 78.71875 "></path><path style=" stroke:none;fill-rule:nonzero;fill:#000000;fill-opacity:1;" d="M 75.394531 76.894531 C 75.667969 78.179688 77.527344 77.84375 77.339844 76.550781 C 77.339844 76.550781 77.1875 75.679688 77.1875 75.679688 C 77.089844 75.140625 76.582031 74.78125 76.042969 74.878906 C 75.503906 74.972656 75.148438 75.484375 75.242188 76.023438 Z M 75.394531 76.894531 "></path><path style=" stroke:none;fill-rule:nonzero;fill:#000000;fill-opacity:1;" d="M 71.539062 81.324219 C 71.664062 81.34375 72.472656 81.503906 72.585938 81.496094 C 73.777344 81.472656 73.9375 79.769531 72.757812 79.539062 C 72.757812 79.539062 71.882812 79.382812 71.882812 79.382812 C 70.585938 79.199219 70.257812 81.054688 71.539062 81.324219 Z M 71.539062 81.324219 "></path><path style=" stroke:none;fill-rule:nonzero;fill:#000000;fill-opacity:1;" d="M 94.03125 93.414062 C 93.394531 92.78125 92.554688 92.429688 91.652344 92.429688 C 88.679688 92.417969 87.164062 96.074219 89.273438 98.171875 C 89.273438 98.171875 93.578125 102.476562 93.578125 102.476562 C 94.828125 103.78125 97.082031 103.78125 98.332031 102.476562 C 99.644531 101.164062 99.644531 99.027344 98.332031 97.71875 Z M 96.9375 101.078125 C 96.417969 101.617188 95.492188 101.617188 94.972656 101.078125 C 94.972656 101.078125 90.667969 96.777344 90.667969 96.777344 C 90.128906 96.234375 90.128906 95.351562 90.667969 94.8125 C 91.1875 94.273438 92.117188 94.269531 92.632812 94.8125 C 92.632812 94.8125 96.9375 99.117188 96.9375 99.117188 C 97.476562 99.632812 97.476562 100.5625 96.9375 101.078125 Z M 96.9375 101.078125 "></path><path style=" stroke:none;fill-rule:nonzero;fill:#000000;fill-opacity:1;" d="M 102.023438 96.640625 C 101.480469 96.640625 101.035156 97.085938 101.035156 97.628906 C 101.082031 98.9375 102.964844 98.9375 103.011719 97.628906 C 103.011719 97.085938 102.570312 96.640625 102.023438 96.640625 Z M 102.023438 96.640625 "></path><g clip-rule="nonzero" clip-path="url(#126b22e6d8)"><path style=" stroke:none;fill-rule:nonzero;fill:#000000;fill-opacity:1;" d="M 107.894531 102.988281 C 107.089844 101.976562 106.25 100.953125 105.390625 99.949219 C 104.5 98.984375 103.078125 100.210938 103.890625 101.234375 C 104.730469 102.21875 105.558594 103.222656 106.351562 104.21875 C 106.644531 104.589844 106.617188 105.121094 106.285156 105.453125 L 101.316406 110.425781 C 100.980469 110.757812 100.449219 110.789062 100.078125 110.492188 C 94.945312 106.371094 90.027344 101.867188 85.863281 96.769531 C 85.164062 95.933594 84.480469 95.074219 83.757812 94.167969 C 83.457031 93.792969 83.5 93.261719 83.820312 92.933594 C 83.820312 92.933594 88.792969 87.964844 88.792969 87.964844 C 89.121094 87.640625 89.65625 87.597656 90.023438 87.894531 C 93.429688 90.605469 95.804688 92.617188 98.605469 95.453125 C 98.988281 95.839844 99.613281 95.84375 100 95.464844 C 100.386719 95.082031 100.394531 94.457031 100.011719 94.070312 C 97.140625 91.15625 94.71875 89.109375 91.257812 86.351562 C 90.507812 85.753906 89.546875 85.585938 88.683594 85.820312 L 86.984375 84.128906 C 86.96875 84.109375 86.949219 84.085938 86.925781 84.070312 C 86.925781 84.070312 80.640625 78.769531 80.640625 78.769531 C 80.378906 78.550781 80.085938 78.386719 79.785156 78.273438 C 80.5 76.796875 80.972656 75.214844 81.183594 73.585938 C 83.851562 73.707031 86.253906 71.757812 86.644531 69.105469 C 86.644531 69.105469 86.902344 67.351562 86.902344 67.351562 C 87.105469 66.039062 86.554688 64.675781 85.503906 63.867188 L 85.503906 60.675781 C 85.917969 60.296875 86.222656 59.8125 86.375 59.261719 L 87.601562 54.792969 C 88.207031 52.722656 87.261719 50.351562 85.417969 49.25 C 88.960938 46.09375 86.609375 40.113281 81.847656 40.246094 C 80.757812 36.652344 77.675781 34.121094 74.058594 33.667969 C 73.578125 31.402344 71.53125 29.6875 69.148438 29.695312 C 69.070312 29.695312 60.914062 29.707031 58.210938 29.691406 C 54.070312 29.59375 50.496094 33.289062 50.613281 37.410156 C 46.679688 39.074219 44.277344 43.652344 45.207031 47.855469 C 45.207031 47.855469 45.449219 49.0625 45.449219 49.0625 C 43.402344 50.058594 42.273438 52.585938 42.921875 54.792969 C 42.921875 54.792969 44.148438 59.261719 44.148438 59.261719 C 44.300781 59.8125 44.601562 60.296875 45.019531 60.675781 L 45.019531 63.867188 C 43.964844 64.675781 43.417969 66.039062 43.617188 67.355469 C 43.617188 67.355469 43.882812 69.109375 43.882812 69.109375 C 44.265625 71.757812 46.667969 73.707031 49.335938 73.585938 C 49.925781 78.152344 52.542969 82.210938 56.523438 84.621094 L 58.671875 85.921875 L 58.671875 90.902344 C 58.671875 91.949219 58.058594 92.894531 57.101562 93.324219 C 53.71875 94.847656 50.09375 95.367188 49.746094 95.414062 C 43.378906 95.898438 35.140625 100.667969 35.316406 111.675781 C 35.316406 112.222656 35.761719 112.664062 36.304688 112.664062 C 36.851562 112.664062 37.292969 112.222656 37.292969 111.675781 C 37.292969 106.027344 39.386719 101.910156 43.511719 99.449219 C 46.648438 97.578125 49.859375 97.386719 49.890625 97.382812 C 50.132812 97.359375 54.023438 96.863281 57.917969 95.125 C 59.574219 94.382812 60.648438 92.722656 60.648438 90.902344 L 60.648438 87.082031 C 63.496094 88.5625 67.03125 88.5625 69.878906 87.082031 L 69.878906 90.902344 C 69.878906 92.722656 70.945312 94.382812 72.605469 95.125 C 76.417969 96.839844 80.40625 97.363281 80.558594 97.378906 C 80.644531 97.386719 82.308594 97.449219 84.507812 98.230469 C 86.941406 101.195312 89.714844 104.058594 92.570312 106.667969 C 93.007812 108.171875 93.226562 109.859375 93.226562 111.675781 C 93.226562 112.222656 93.671875 112.664062 94.214844 112.664062 C 94.761719 112.664062 95.203125 112.222656 95.203125 111.675781 C 95.203125 110.699219 95.140625 109.761719 95.027344 108.855469 C 96.277344 109.945312 97.554688 111.007812 98.847656 112.039062 C 99.382812 112.460938 100.023438 112.671875 100.660156 112.671875 C 101.40625 112.671875 102.144531 112.386719 102.710938 111.820312 L 107.683594 106.847656 C 108.726562 105.804688 108.820312 104.144531 107.894531 102.988281 Z M 76.296875 82.152344 L 77.40625 81.046875 C 77.691406 80.777344 77.941406 80.539062 78.128906 80.324219 C 78.199219 80.261719 78.269531 80.203125 78.355469 80.167969 C 78.679688 79.996094 79.078125 80.035156 79.367188 80.28125 C 79.367188 80.28125 79.523438 80.414062 79.523438 80.414062 L 79.855469 80.695312 L 76.554688 83.996094 L 76.140625 83.507812 C 75.78125 83.0625 75.894531 82.550781 76.296875 82.152344 Z M 81.375 81.972656 L 84.832031 84.886719 C 83.8125 85.90625 81.765625 87.953125 80.75 88.96875 L 77.832031 85.511719 Z M 84.1875 88.328125 L 86.289062 86.222656 L 87.015625 86.945312 L 82.808594 91.15625 L 82.082031 90.429688 Z M 66.851562 68.765625 L 66.851562 68.410156 C 66.851562 67.867188 66.40625 67.425781 65.863281 67.425781 L 64.65625 67.425781 C 64.113281 67.425781 63.671875 67.867188 63.671875 68.410156 C 63.832031 70.160156 62.492188 71.738281 60.707031 71.734375 L 58.757812 71.734375 C 56.601562 71.734375 54.714844 70.347656 54.070312 68.289062 C 54.019531 68.128906 53.929688 67.980469 53.804688 67.867188 L 50.902344 65.125 C 50.878906 64.53125 50.8125 63.402344 50.832031 62.816406 L 79.6875 62.816406 C 79.707031 63.394531 79.640625 64.535156 79.621094 65.125 L 76.71875 67.867188 C 76.59375 67.980469 76.503906 68.128906 76.449219 68.289062 C 75.808594 70.347656 73.921875 71.734375 71.765625 71.734375 L 69.816406 71.734375 C 68.179688 71.734375 66.855469 70.402344 66.855469 68.765625 Z M 66.433594 72.363281 C 65.710938 72.777344 64.8125 72.777344 64.085938 72.363281 C 64.585938 71.894531 64.988281 71.320312 65.261719 70.679688 C 65.53125 71.320312 65.933594 71.894531 66.433594 72.363281 Z M 51.015625 60.78125 C 51.039062 60.625 51.070312 60.46875 51.097656 60.316406 C 54.539062 59.257812 61.78125 57.027344 65.261719 55.953125 L 79.425781 60.316406 C 79.460938 60.492188 79.488281 60.667969 79.515625 60.84375 L 51.003906 60.84375 C 51.007812 60.824219 51.011719 60.800781 51.015625 60.78125 Z M 84.949219 67.0625 L 84.6875 68.816406 C 84.445312 70.457031 82.976562 71.667969 81.324219 71.609375 C 81.324219 71.609375 81.574219 65.664062 81.574219 65.664062 C 81.574219 65.664062 81.585938 65.363281 81.585938 65.363281 C 82.296875 65.113281 83.109375 64.925781 83.839844 65.175781 C 84.589844 65.449219 85.078125 66.269531 84.945312 67.0625 Z M 83.222656 63.085938 C 82.695312 63.085938 82.179688 63.152344 81.667969 63.273438 C 81.675781 62.5 81.628906 61.726562 81.53125 60.964844 C 82.070312 61.117188 82.964844 61.46875 83.527344 61.441406 L 83.527344 63.097656 C 83.425781 63.09375 83.320312 63.085938 83.21875 63.085938 Z M 85.699219 54.265625 L 84.46875 58.734375 C 84.402344 58.988281 84.238281 59.195312 84.011719 59.324219 C 83.773438 59.464844 83.488281 59.5 83.226562 59.417969 C 81.554688 58.90625 70.542969 55.511719 68.621094 54.921875 C 71.886719 53.914062 79.722656 51.5 83.070312 50.472656 L 83.519531 50.578125 C 85.121094 50.929688 86.167969 52.699219 85.699219 54.265625 Z M 52.617188 36.789062 C 52.835938 33.984375 55.363281 31.582031 58.199219 31.667969 C 60.910156 31.683594 69.074219 31.671875 69.15625 31.671875 C 70.441406 31.667969 71.5625 32.488281 72 33.636719 C 71.785156 33.660156 71.566406 33.683594 71.347656 33.722656 C 71.347656 33.722656 52.898438 36.734375 52.898438 36.734375 C 52.804688 36.75 52.710938 36.769531 52.617188 36.789062 Z M 48.3125 41.785156 C 49.339844 40.296875 50.851562 39.257812 52.578125 38.820312 C 52.789062 38.765625 52.996094 38.71875 53.214844 38.6875 L 71.667969 35.671875 C 75.183594 35.0625 78.761719 37.171875 79.882812 40.601562 L 47.34375 48.460938 L 47.144531 47.46875 C 46.742188 45.472656 47.15625 43.457031 48.3125 41.785156 Z M 44.828125 54.265625 C 44.371094 52.734375 45.355469 50.996094 46.90625 50.605469 C 46.90625 50.605469 81.289062 42.296875 81.289062 42.296875 C 85.246094 41.542969 86.773438 47.128906 82.902344 48.453125 C 73.523438 51.34375 47.292969 59.417969 47.292969 59.417969 C 47.230469 59.441406 47.160156 59.449219 47.089844 59.457031 C 46.632812 59.503906 46.164062 59.183594 46.050781 58.734375 C 46.050781 58.734375 44.828125 54.265625 44.828125 54.265625 Z M 46.996094 63.097656 L 46.996094 61.441406 C 47.554688 61.472656 48.453125 61.113281 48.992188 60.964844 C 48.890625 61.730469 48.847656 62.5 48.851562 63.273438 C 48.246094 63.128906 47.617188 63.054688 46.996094 63.097656 Z M 45.832031 68.816406 L 45.574219 67.0625 C 45.445312 66.269531 45.929688 65.449219 46.683594 65.175781 C 47.410156 64.925781 48.226562 65.113281 48.933594 65.363281 L 49.195312 71.609375 C 47.546875 71.667969 46.074219 70.457031 45.832031 68.816406 Z M 51.199219 72.203125 L 51.019531 67.953125 L 52.269531 69.132812 C 53.246094 71.882812 55.820312 73.707031 58.757812 73.707031 C 59.722656 73.683594 61.363281 73.8125 62.261719 73.453125 C 63.941406 75.050781 66.582031 75.050781 68.257812 73.453125 C 69.148438 73.8125 70.800781 73.6875 71.765625 73.707031 C 74.699219 73.707031 77.273438 71.882812 78.25 69.132812 L 79.5 67.953125 C 79.320312 71.722656 79.558594 75.011719 77.476562 78.390625 C 76.964844 78.617188 76.429688 79.234375 76.035156 79.625 C 75.632812 80.003906 75.203125 80.394531 74.84375 80.816406 C 74.433594 81.203125 74.160156 81.691406 74.019531 82.226562 C 73.359375 82.75 70.265625 84.550781 69.496094 85.035156 C 67.25 86.398438 64.457031 86.59375 62.058594 85.566406 C 61.292969 85.277344 58.300781 83.363281 57.546875 82.929688 C 53.761719 80.640625 51.386719 76.628906 51.199219 72.203125 Z M 80.785156 95.414062 C 80.53125 95.382812 76.828125 94.863281 73.414062 93.320312 C 72.460938 92.894531 71.851562 91.945312 71.851562 90.902344 L 71.851562 85.921875 C 72.113281 85.757812 74.15625 84.53125 74.359375 84.394531 C 74.4375 84.527344 74.527344 84.65625 74.632812 84.78125 L 79.929688 91.066406 C 79.949219 91.085938 79.964844 91.105469 79.984375 91.128906 C 79.984375 91.128906 81.683594 92.820312 81.683594 92.820312 C 81.402344 93.78125 81.6875 94.859375 82.390625 95.625 C 81.59375 95.476562 81.015625 95.429688 80.785156 95.414062 Z M 80.785156 95.414062 "></path></g></g></svg>
