<svg xmlns="http://www.w3.org/2000/svg" xmlns:xlink="http://www.w3.org/1999/xlink" width="180" zoomAndPan="magnify" viewBox="0 0 135 135.000003" height="180" preserveAspectRatio="xMidYMid meet"><defs><clipPath id="e851f6f0de"><path d="M 0.496094 0 L 134.503906 0 L 134.503906 134.007812 L 0.496094 134.007812 Z M 0.496094 0 "></path></clipPath><clipPath id="f5d98c96a1"><path d="M 0.496094 0 L 134.503906 0 L 134.503906 134.007812 L 0.496094 134.007812 Z M 0.496094 0 "></path></clipPath><clipPath id="3db434f6c2"><path d="M 67.5 0 C 30.496094 0 0.496094 30 0.496094 67.003906 C 0.496094 104.007812 30.496094 134.007812 67.5 134.007812 C 104.503906 134.007812 134.503906 104.007812 134.503906 67.003906 C 134.503906 30 104.503906 0 67.5 0 Z M 67.5 0 "></path></clipPath><clipPath id="49387d6082"><path d="M 39.257812 25.695312 L 95.839844 25.695312 L 95.839844 108.332031 L 39.257812 108.332031 Z M 39.257812 25.695312 "></path></clipPath><clipPath id="082b655f52"><path d="M 68.941406 8.449219 C 36.496094 8.449219 10.191406 34.753906 10.191406 67.199219 C 10.191406 99.644531 36.496094 125.953125 68.941406 125.953125 C 101.386719 125.953125 127.691406 99.644531 127.691406 67.199219 C 127.691406 34.753906 101.386719 8.449219 68.941406 8.449219 Z M 68.941406 8.449219 "></path></clipPath><clipPath id="2b410a6834"><path d="M 43 67 L 95.839844 67 L 95.839844 106 L 43 106 Z M 43 67 "></path></clipPath><clipPath id="9d59e4bead"><path d="M 41.320312 66 L 95.839844 66 L 95.839844 107.351562 L 41.320312 107.351562 Z M 41.320312 66 "></path></clipPath><clipPath id="87fe1a312f"><path d="M 43 57 L 95.839844 57 L 95.839844 84 L 43 84 Z M 43 57 "></path></clipPath><clipPath id="4ae3ebc67d"><path d="M 41 56 L 95.839844 56 L 95.839844 86 L 41 86 Z M 41 56 "></path></clipPath><clipPath id="ead0358672"><path d="M 65 27.714844 L 94.808594 27.714844 L 94.808594 60 L 65 60 Z M 65 27.714844 "></path></clipPath><clipPath id="299d6b753b"><path d="M 44 27.714844 L 55 27.714844 L 55 60 L 44 60 Z M 44 27.714844 "></path></clipPath><clipPath id="ef42f143c7"><path d="M 58 27.714844 L 62 27.714844 L 62 31 L 58 31 Z M 58 27.714844 "></path></clipPath></defs><g id="99993d214b"><g clip-rule="nonzero" clip-path="url(#e851f6f0de)"><path style=" stroke:none;fill-rule:nonzero;fill:#ffffff;fill-opacity:1;" d="M 0.496094 0 L 134.503906 0 L 134.503906 134.007812 L 0.496094 134.007812 Z M 0.496094 0 "></path><path style=" stroke:none;fill-rule:nonzero;fill:#ffffff;fill-opacity:1;" d="M 0.496094 0 L 134.503906 0 L 134.503906 134.007812 L 0.496094 134.007812 Z M 0.496094 0 "></path></g><g clip-rule="nonzero" clip-path="url(#f5d98c96a1)"><g clip-rule="nonzero" clip-path="url(#3db434f6c2)"><path style=" stroke:none;fill-rule:nonzero;fill:#f4dddd;fill-opacity:1;" d="M 0.496094 0 L 134.503906 0 L 134.503906 134.007812 L 0.496094 134.007812 Z M 0.496094 0 "></path><path style="fill:none;stroke-width:12;stroke-linecap:butt;stroke-linejoin:miter;stroke:#7b2e07;stroke-opacity:1;stroke-miterlimit:4;" d="M 90.000004 -0.00000933333 C 40.29599 -0.00000933333 -0.000306642 40.296288 -0.000306642 90.000301 C -0.000306642 139.704314 40.29599 180.000611 90.000004 180.000611 C 139.704017 180.000611 180.000314 139.704314 180.000314 90.000301 C 180.000314 40.296288 139.704017 -0.00000933333 90.000004 -0.00000933333 Z M 90.000004 -0.00000933333 " transform="matrix(0.744485,0,0,0.744485,0.496322,0.00000694853)"></path></g></g><g clip-rule="nonzero" clip-path="url(#49387d6082)"><g clip-rule="nonzero" clip-path="url(#082b655f52)"><path style=" stroke:none;fill-rule:nonzero;fill:#ffdfdf;fill-opacity:1;" d="M 10.191406 8.449219 L 127.691406 8.449219 L 127.691406 125.953125 L 10.191406 125.953125 Z M 10.191406 8.449219 "></path><path style="fill:none;stroke-width:8;stroke-linecap:butt;stroke-linejoin:miter;stroke:#f80303;stroke-opacity:1;stroke-miterlimit:4;" d="M 89.999718 0.00118462 C 40.297413 0.00118462 0.00180576 40.296795 0.00180576 89.999103 C 0.00180576 139.701411 40.297413 180.003005 89.999718 180.003005 C 139.702022 180.003005 179.997629 139.701411 179.997629 89.999103 C 179.997629 40.296795 139.702022 0.00118462 89.999718 0.00118462 Z M 89.999718 0.00118462 " transform="matrix(0.652793,0,0,0.652793,10.190227,8.448445)"></path></g></g><path style=" stroke:none;fill-rule:nonzero;fill:#ffd0c7;fill-opacity:1;" d="M 92.902344 57.871094 C 90.902344 52.855469 90.21875 34.328125 89.230469 29.269531 L 49.304688 29.269531 C 48.320312 34.328125 47.644531 52.851562 45.632812 57.871094 L 68.269531 65.851562 Z M 92.902344 57.871094 "></path><g clip-rule="nonzero" clip-path="url(#2b410a6834)"><path style=" stroke:none;fill-rule:nonzero;fill:#ffd0c7;fill-opacity:1;" d="M 43.355469 67.832031 C 43.355469 82.667969 53.910156 105.796875 53.910156 105.796875 L 84.625 105.796875 C 84.625 105.796875 95.195312 83.273438 95.195312 67.921875 "></path></g><g clip-rule="nonzero" clip-path="url(#9d59e4bead)"><path style="fill:none;stroke-width:20;stroke-linecap:round;stroke-linejoin:round;stroke:#000000;stroke-opacity:1;stroke-miterlimit:10;" d="M 0.00354504 0.0197251 C 0.00354504 -95.358493 67.858191 -244.051075 67.858191 -244.051075 L 265.31973 -244.051075 C 265.31973 -244.051075 333.274826 -99.250969 333.274826 -0.557868 " transform="matrix(0.155548,0,0,-0.155548,43.354917,67.835099)"></path></g><g clip-rule="nonzero" clip-path="url(#87fe1a312f)"><path style=" stroke:none;fill-rule:nonzero;fill:#ff7d97;fill-opacity:1;" d="M 71.96875 83.730469 C 77.183594 76.523438 86 69.878906 95.167969 67.921875 C 94.773438 65.179688 94.070312 60.78125 92.902344 57.871094 L 74.9375 61.746094 C 70.058594 62.636719 68.484375 62.636719 63.597656 61.746094 L 45.632812 57.871094 C 44.46875 60.78125 43.761719 65.179688 43.371094 67.921875 C 52.539062 69.878906 61.355469 76.523438 66.566406 83.730469 C 66.609375 83.789062 71.929688 83.789062 71.96875 83.730469 "></path></g><g clip-rule="nonzero" clip-path="url(#4ae3ebc67d)"><path style="fill:none;stroke-width:20;stroke-linecap:round;stroke-linejoin:round;stroke:#000000;stroke-opacity:1;stroke-miterlimit:10;" d="M -0.0130366 0.000192184 C 33.512482 46.333213 90.191955 89.049997 149.131575 101.631484 C 146.595187 119.260633 142.074893 147.537588 134.566181 166.246585 L 19.072652 141.334739 C -12.29317 135.609032 -22.413608 135.609032 -53.829656 141.334739 L -169.323185 166.246585 C -176.806784 147.537588 -181.352191 119.260633 -183.863466 101.631484 C -124.923846 89.049997 -68.244373 46.333213 -34.743967 0.000192184 C -34.467727 -0.376499 -0.264164 -0.376499 -0.0130366 0.000192184 Z M -0.0130366 0.000192184 " transform="matrix(0.155548,0,0,-0.155548,71.970778,83.730499)"></path></g><path style="fill:none;stroke-width:20;stroke-linecap:round;stroke-linejoin:round;stroke:#000000;stroke-opacity:1;stroke-miterlimit:10;" d="M 0.0031304 0.0030822 L 0.0031304 -129.7796 " transform="matrix(0.155548,0,0,-0.155548,69.269044,84.809073)"></path><g clip-rule="nonzero" clip-path="url(#ead0358672)"><path style="fill:none;stroke-width:20;stroke-linecap:round;stroke-linejoin:round;stroke:#000000;stroke-opacity:1;stroke-miterlimit:10;" d="M -0.0127187 -0.00569399 C -12.870446 32.239075 -23.618702 183.869848 -23.618702 183.869848 L -167.188283 183.869848 " transform="matrix(0.155548,0,0,-0.155548,92.904322,57.870208)"></path></g><g clip-rule="nonzero" clip-path="url(#299d6b753b)"><path style="fill:none;stroke-width:20;stroke-linecap:round;stroke-linejoin:round;stroke:#000000;stroke-opacity:1;stroke-miterlimit:10;" d="M -0.0124664 -0.00389179 L -24.823862 -0.00389179 C -24.823862 -0.00389179 -35.49678 -151.609553 -48.429845 -183.879434 " transform="matrix(0.155548,0,0,-0.155548,53.166002,29.268926)"></path></g><g clip-rule="nonzero" clip-path="url(#ef42f143c7)"><path style="fill:none;stroke-width:20;stroke-linecap:round;stroke-linejoin:round;stroke:#000000;stroke-opacity:1;stroke-miterlimit:10;" d="M -0.00834222 -0.00389179 L -0.00834222 -0.00389179 " transform="matrix(0.155548,0,0,-0.155548,59.985673,29.268926)"></path></g><path style="fill:none;stroke-width:20;stroke-linecap:round;stroke-linejoin:round;stroke:#000000;stroke-opacity:1;stroke-miterlimit:10;" d="M 0.00936886 -0.0119723 L 0.00936886 -7.244444 " transform="matrix(0.155548,0,0,-0.155548,69.275886,53.888763)"></path><path style="fill:none;stroke-width:20;stroke-linecap:round;stroke-linejoin:round;stroke:#000000;stroke-opacity:1;stroke-miterlimit:10;" d="M -0.00284667 -0.010385 L -74.587709 -74.595247 " transform="matrix(0.155548,0,0,-0.155548,83.426224,35.615572)"></path><path style="fill:none;stroke-width:20;stroke-linecap:round;stroke-linejoin:round;stroke:#000000;stroke-opacity:1;stroke-miterlimit:10;" d="M -0.0133875 0.00798633 L 25.476052 -25.45634 " transform="matrix(0.155548,0,0,-0.155548,79.759895,35.321555)"></path><path style="fill:none;stroke-width:20;stroke-linecap:round;stroke-linejoin:round;stroke:#000000;stroke-opacity:1;stroke-miterlimit:10;" d="M 0.00763687 -0.0216467 L 25.471964 -25.460861 " transform="matrix(0.155548,0,0,-0.155548,75.479281,39.602102)"></path><path style="fill:none;stroke-width:20;stroke-linecap:round;stroke-linejoin:round;stroke:#000000;stroke-opacity:1;stroke-miterlimit:10;" d="M 0.00253767 -0.001094 L 25.466864 -25.465421 " transform="matrix(0.155548,0,0,-0.155548,71.198824,43.882642)"></path></g></svg>
