<svg xmlns="http://www.w3.org/2000/svg" xmlns:xlink="http://www.w3.org/1999/xlink" width="180" zoomAndPan="magnify" viewBox="0 0 135 135.000003" height="180" preserveAspectRatio="xMidYMid meet"><defs><clipPath id="3164d13a1d"><path d="M 0.496094 0 L 134.503906 0 L 134.503906 134.007812 L 0.496094 134.007812 Z M 0.496094 0 "></path></clipPath><clipPath id="ce1c4adb1f"><path d="M 0.496094 0 L 134.503906 0 L 134.503906 134.007812 L 0.496094 134.007812 Z M 0.496094 0 "></path></clipPath><clipPath id="d7a72e83c9"><path d="M 67.5 0 C 30.496094 0 0.496094 30 0.496094 67.003906 C 0.496094 104.007812 30.496094 134.007812 67.5 134.007812 C 104.503906 134.007812 134.503906 104.007812 134.503906 67.003906 C 134.503906 30 104.503906 0 67.5 0 Z M 67.5 0 "></path></clipPath><clipPath id="3a21d5f009"><path d="M 29.738281 26.445312 L 104.933594 26.445312 L 104.933594 107.59375 L 29.738281 107.59375 Z M 29.738281 26.445312 "></path></clipPath><clipPath id="9e872c86f7"><path d="M 67.324219 2.722656 C 31.410156 2.722656 2.292969 31.839844 2.292969 67.753906 C 2.292969 103.671875 31.410156 132.789062 67.324219 132.789062 C 103.242188 132.789062 132.359375 103.671875 132.359375 67.753906 C 132.359375 31.839844 103.242188 2.722656 67.324219 2.722656 Z M 67.324219 2.722656 "></path></clipPath><clipPath id="1d98e46053"><path d="M 29.738281 90 L 41 90 L 41 105 L 29.738281 105 Z M 29.738281 90 "></path></clipPath><clipPath id="1e7cbfbd73"><path d="M 93 47 L 104.933594 47 L 104.933594 59 L 93 59 Z M 93 47 "></path></clipPath><clipPath id="536eb69b2f"><path d="M 29.738281 27 L 104.933594 27 L 104.933594 107 L 29.738281 107 Z M 29.738281 27 "></path></clipPath></defs><g id="b8c95f7ed1"><g clip-rule="nonzero" clip-path="url(#3164d13a1d)"><path style=" stroke:none;fill-rule:nonzero;fill:#ffffff;fill-opacity:1;" d="M 0.496094 0 L 134.503906 0 L 134.503906 134.007812 L 0.496094 134.007812 Z M 0.496094 0 "></path><path style=" stroke:none;fill-rule:nonzero;fill:#ffffff;fill-opacity:1;" d="M 0.496094 0 L 134.503906 0 L 134.503906 134.007812 L 0.496094 134.007812 Z M 0.496094 0 "></path></g><g clip-rule="nonzero" clip-path="url(#ce1c4adb1f)"><g clip-rule="nonzero" clip-path="url(#d7a72e83c9)"><path style=" stroke:none;fill-rule:nonzero;fill:#f4dddd;fill-opacity:1;" d="M 0.496094 0 L 134.503906 0 L 134.503906 134.007812 L 0.496094 134.007812 Z M 0.496094 0 "></path><path style="fill:none;stroke-width:12;stroke-linecap:butt;stroke-linejoin:miter;stroke:#7b2e07;stroke-opacity:1;stroke-miterlimit:4;" d="M 90.000004 -0.00000933333 C 40.29599 -0.00000933333 -0.000306642 40.296288 -0.000306642 90.000301 C -0.000306642 139.704314 40.29599 180.000611 90.000004 180.000611 C 139.704017 180.000611 180.000314 139.704314 180.000314 90.000301 C 180.000314 40.296288 139.704017 -0.00000933333 90.000004 -0.00000933333 Z M 90.000004 -0.00000933333 " transform="matrix(0.744485,0,0,0.744485,0.496322,0.00000694853)"></path></g></g><g clip-rule="nonzero" clip-path="url(#3a21d5f009)"><g clip-rule="nonzero" clip-path="url(#9e872c86f7)"><path style=" stroke:none;fill-rule:nonzero;fill:#ffdfdf;fill-opacity:1;" d="M 2.292969 2.722656 L 132.359375 2.722656 L 132.359375 132.789062 L 2.292969 132.789062 Z M 2.292969 2.722656 "></path><path style="fill:none;stroke-width:8;stroke-linecap:butt;stroke-linejoin:miter;stroke:#f80303;stroke-opacity:1;stroke-miterlimit:4;" d="M 89.99846 0.00200472 C 40.296499 0.00200472 0.000825252 40.297682 0.000825252 89.999649 C 0.000825252 139.701615 40.296499 180.002699 89.99846 180.002699 C 139.705828 180.002699 180.001502 139.701615 180.001502 89.999649 C 180.001502 40.297682 139.705828 0.00200472 89.99846 0.00200472 Z M 89.99846 0.00200472 " transform="matrix(0.722588,0,0,0.722588,2.292372,2.721208)"></path></g></g><path style=" stroke:none;fill-rule:evenodd;fill:#f0b16e;fill-opacity:1;" d="M 62.601562 50.054688 C 45.304688 50.054688 40.347656 55.96875 40.742188 66.121094 L 41.867188 78.925781 L 46.296875 90.667969 C 47.039062 92.636719 49.609375 93.960938 53.296875 96.21875 C 55.800781 97.746094 58.273438 99.320312 60.757812 100.882812 C 61.929688 101.621094 63.273438 101.621094 64.449219 100.882812 C 66.925781 99.320312 69.40625 97.746094 71.90625 96.21875 C 75.59375 93.960938 78.246094 92.664062 78.902344 90.667969 L 82.855469 78.761719 L 84.003906 72.101562 L 82.355469 65.863281 C 82.746094 55.710938 79.898438 50.054688 62.601562 50.054688 Z M 62.601562 50.054688 "></path><g clip-rule="nonzero" clip-path="url(#1d98e46053)"><path style=" stroke:none;fill-rule:evenodd;fill:#ffbf31;fill-opacity:1;" d="M 28.175781 97.507812 C 31.332031 98.304688 33.78125 101.238281 34.28125 104.90625 C 34.78125 101.238281 37.230469 98.304688 40.382812 97.507812 C 37.230469 96.714844 34.78125 93.78125 34.28125 90.117188 C 33.78125 93.78125 31.332031 96.714844 28.175781 97.507812 Z M 28.175781 97.507812 "></path></g><path style=" stroke:none;fill-rule:evenodd;fill:#847784;fill-opacity:1;" d="M 58.421875 29.535156 L 66.183594 29.535156 C 69.277344 29.535156 71.839844 32.066406 72.125 35.402344 L 73.175781 47.804688 L 51.433594 47.804688 L 52.480469 35.402344 C 52.765625 32.066406 55.328125 29.535156 58.421875 29.535156 Z M 58.421875 29.535156 "></path><path style=" stroke:none;fill-rule:evenodd;fill:#847784;fill-opacity:1;" d="M 62.308594 47.3125 C 67.832031 40.816406 70.777344 37.742188 70.777344 37.742188 C 77.953125 40.871094 83.558594 47.15625 86.199219 55.035156 C 88.839844 62.914062 88.261719 71.636719 84.609375 79.027344 C 76.007812 50.605469 76.714844 64.738281 62.308594 47.3125 Z M 62.308594 47.3125 "></path><path style=" stroke:none;fill-rule:evenodd;fill:#847784;fill-opacity:1;" d="M 40.882812 79.109375 C 35.511719 69.105469 36.308594 56.558594 42.894531 47.445312 C 49.484375 38.328125 60.527344 34.484375 70.777344 37.742188 C 70.804688 46.992188 65.984375 53.714844 56.308594 57.910156 C 47.875 61.070312 42.734375 68.136719 40.882812 79.109375 Z M 40.882812 79.109375 "></path><path style=" stroke:none;fill-rule:evenodd;fill:#f0b16e;fill-opacity:1;" d="M 41.644531 74.152344 L 43.886719 84.441406 C 40.863281 85.8125 36.851562 80.699219 36.851562 77.671875 C 36.851562 74.519531 39.046875 74.496094 41.644531 74.152344 Z M 41.644531 74.152344 "></path><path style=" stroke:none;fill-rule:evenodd;fill:#f0b16e;fill-opacity:1;" d="M 83.335938 74.152344 L 81.09375 84.441406 C 84.121094 85.8125 88.132812 80.699219 88.132812 77.671875 C 88.132812 74.519531 85.9375 74.496094 83.335938 74.152344 Z M 83.335938 74.152344 "></path><path style=" stroke:none;fill-rule:evenodd;fill:#19cfba;fill-opacity:1;" d="M 70.988281 88.511719 C 70.382812 85.847656 72.75 84.351562 73.351562 82.402344 C 73.949219 84.351562 76.316406 85.847656 75.707031 88.511719 C 75.125 91.085938 71.570312 91.085938 70.988281 88.511719 Z M 70.988281 88.511719 "></path><path style=" stroke:none;fill-rule:evenodd;fill:#ffbf31;fill-opacity:1;" d="M 83.175781 96.90625 C 86.332031 97.703125 88.78125 100.636719 89.28125 104.304688 C 89.78125 100.636719 92.226562 97.703125 95.386719 96.90625 C 92.226562 96.109375 89.78125 93.179688 89.28125 89.511719 C 88.78125 93.179688 86.332031 96.109375 83.175781 96.90625 Z M 83.175781 96.90625 "></path><path style=" stroke:none;fill-rule:evenodd;fill:#ffbf31;fill-opacity:1;" d="M 83.386719 38.398438 C 86.539062 39.195312 88.984375 42.125 89.488281 45.792969 C 89.988281 42.125 92.433594 39.195312 95.589844 38.398438 C 92.433594 37.601562 89.988281 34.667969 89.488281 31 C 88.984375 34.667969 86.539062 37.601562 83.386719 38.398438 Z M 83.386719 38.398438 "></path><g clip-rule="nonzero" clip-path="url(#1e7cbfbd73)"><path style=" stroke:none;fill-rule:evenodd;fill:#19cfba;fill-opacity:1;" d="M 101.824219 47.121094 L 104.792969 50.089844 L 97.429688 58.667969 L 93.242188 54.484375 Z M 101.824219 47.121094 "></path></g><path style=" stroke:none;fill-rule:evenodd;fill:#19cfba;fill-opacity:1;" d="M 96.230469 58.785156 L 76.355469 78.65625 C 75.402344 79.609375 73.921875 79.695312 73.070312 78.839844 C 72.214844 77.988281 72.300781 76.507812 73.253906 75.554688 L 93.128906 55.683594 Z M 96.230469 58.785156 "></path><path style=" stroke:none;fill-rule:evenodd;fill:#fa6e85;fill-opacity:1;" d="M 98.273438 53.640625 C 99.996094 55.359375 99.996094 58.175781 98.273438 59.902344 L 94.472656 63.703125 L 88.210938 57.4375 L 92.011719 53.640625 C 93.730469 51.917969 96.550781 51.917969 98.273438 53.640625 Z M 98.273438 53.640625 "></path><g clip-rule="nonzero" clip-path="url(#536eb69b2f)"><path style=" stroke:none;fill-rule:evenodd;fill:#1e2f3f;fill-opacity:1;" d="M 66.699219 71.222656 C 66.183594 71.648438 65.433594 71.570312 65.015625 71.054688 C 64.601562 70.539062 64.683594 69.78125 65.199219 69.371094 C 66.347656 68.441406 67.683594 67.886719 69.050781 67.695312 C 69.511719 67.050781 69.75 66.3125 69.777344 65.464844 C 69.796875 64.800781 70.355469 64.273438 71.015625 64.304688 C 71.675781 64.328125 72.195312 64.878906 72.171875 65.535156 C 72.144531 66.34375 71.992188 67.089844 71.707031 67.785156 C 71.902344 67.828125 72.09375 67.875 72.289062 67.9375 C 72.589844 67.390625 72.753906 66.777344 72.777344 66.089844 C 72.796875 65.425781 73.351562 64.910156 74.007812 64.929688 C 74.671875 64.953125 75.1875 65.507812 75.167969 66.160156 C 75.140625 67.183594 74.898438 68.117188 74.457031 68.964844 C 74.644531 69.085938 74.824219 69.21875 75.003906 69.371094 C 75.519531 69.78125 75.597656 70.539062 75.179688 71.054688 C 74.769531 71.570312 74.011719 71.648438 73.496094 71.222656 C 71.53125 69.632812 68.78125 69.550781 66.699219 71.222656 Z M 74.539062 88.21875 C 74.238281 89.5625 72.457031 89.5625 72.152344 88.21875 C 71.894531 87.070312 72.398438 86.265625 73.238281 85.035156 C 73.273438 84.980469 73.3125 84.933594 73.347656 84.882812 C 74.222656 86.097656 74.808594 87.042969 74.539062 88.21875 Z M 74.492188 82.027344 C 74.140625 80.910156 72.546875 80.921875 72.199219 82.027344 C 71.6875 83.691406 69.082031 85.507812 69.820312 88.753906 C 70.679688 92.566406 76.011719 92.566406 76.875 88.753906 C 77.613281 85.503906 74.992188 83.671875 74.492188 82.027344 Z M 59.699219 71.054688 C 59.289062 71.566406 58.539062 71.648438 58.015625 71.222656 C 55.957031 69.546875 53.179688 69.640625 51.21875 71.222656 C 50.703125 71.648438 49.949219 71.570312 49.53125 71.054688 C 49.121094 70.539062 49.199219 69.78125 49.714844 69.371094 C 49.894531 69.21875 50.074219 69.085938 50.261719 68.964844 C 49.820312 68.117188 49.578125 67.183594 49.546875 66.160156 C 49.527344 65.507812 50.042969 64.953125 50.707031 64.929688 C 51.359375 64.910156 51.921875 65.425781 51.941406 66.089844 C 51.960938 66.777344 52.125 67.390625 52.433594 67.9375 C 52.621094 67.875 52.816406 67.828125 53.007812 67.785156 C 52.726562 67.089844 52.574219 66.34375 52.546875 65.535156 C 52.527344 64.878906 53.042969 64.328125 53.707031 64.304688 C 54.363281 64.273438 54.921875 64.800781 54.9375 65.464844 C 54.964844 66.3125 55.203125 67.050781 55.667969 67.695312 C 57.039062 67.886719 58.371094 68.441406 59.523438 69.371094 C 60.035156 69.78125 60.113281 70.539062 59.699219 71.054688 Z M 99.960938 53.855469 C 99.492188 53.050781 98.832031 52.40625 98.035156 51.929688 L 101.757812 48.730469 L 103.15625 50.132812 Z M 97.425781 59.03125 C 98.144531 58.3125 98.449219 57.347656 98.351562 56.394531 C 98.0625 53.691406 94.746094 52.570312 92.855469 54.460938 L 89.902344 57.414062 L 94.472656 61.984375 Z M 75.511719 77.789062 L 91.199219 62.097656 L 89.789062 60.683594 L 81.75 68.734375 L 74.101562 76.378906 C 73.851562 76.628906 73.695312 76.957031 73.679688 77.277344 C 73.621094 78.28125 74.769531 78.507812 75.511719 77.789062 Z M 83.714844 72.972656 L 86.144531 70.539062 C 85.980469 71.445312 85.773438 72.347656 85.53125 73.234375 Z M 83.636719 82.925781 C 83.324219 83.128906 82.941406 83.316406 82.539062 83.410156 L 84.273438 75.449219 C 85.03125 75.5625 85.585938 75.664062 85.984375 75.816406 C 86.742188 76.117188 86.933594 76.601562 86.933594 77.648438 C 86.933594 79.101562 85.492188 81.726562 83.636719 82.925781 Z M 80.179688 82.996094 L 81.988281 74.695312 L 77.203125 79.476562 C 76.488281 80.195312 75.527344 80.605469 74.546875 80.605469 C 71.484375 80.605469 70.160156 76.941406 72.410156 74.683594 L 79.523438 67.574219 C 77.023438 61.230469 75.480469 60.230469 72.761719 58.484375 C 71.019531 57.367188 68.882812 55.992188 65.898438 53.039062 C 63.539062 55.386719 60.5 57.378906 56.78125 58.988281 C 56.761719 58.988281 56.742188 59 56.726562 59.007812 C 49.824219 61.59375 45.347656 66.796875 43.042969 74.917969 L 44.957031 83.710938 L 47.417969 90.230469 C 47.917969 91.550781 49.859375 92.71875 52.550781 94.34375 C 55.535156 96.136719 58.472656 98.011719 61.394531 99.851562 C 62.171875 100.335938 63.03125 100.335938 63.808594 99.851562 C 66.808594 97.96875 69.832031 96.03125 72.894531 94.203125 C 75.480469 92.648438 77.351562 91.542969 77.769531 90.265625 Z M 41.125 72.992188 C 43.734375 64.921875 48.6875 59.472656 55.855469 56.78125 C 59.671875 55.125 62.671875 53.089844 64.886719 50.660156 L 65.121094 50.394531 C 67.945312 47.167969 69.414062 43.261719 69.566406 38.613281 C 63.863281 37.027344 58 37.695312 52.890625 40.296875 C 52.777344 40.386719 52.644531 40.460938 52.5 40.5 C 49.210938 42.265625 46.246094 44.828125 43.863281 48.125 C 38.769531 55.179688 37.230469 64.679688 39.742188 73.183594 Z M 41.347656 82.925781 C 39.488281 81.726562 38.042969 79.101562 38.042969 77.648438 C 38.042969 76.058594 38.5 75.753906 40.710938 75.449219 L 42.4375 83.410156 C 42.039062 83.316406 41.652344 83.128906 41.347656 82.925781 Z M 53.734375 34.921875 C 53.960938 32.199219 56 30.152344 58.476562 30.152344 L 66.242188 30.152344 C 68.714844 30.152344 70.757812 32.199219 70.988281 34.921875 L 71.128906 36.578125 C 65.261719 34.714844 59.191406 35.035156 53.519531 37.394531 Z M 86.328125 60.761719 C 85.019531 51.546875 79.59375 43.617188 71.914062 39.59375 C 71.605469 44.070312 70.128906 47.964844 67.5 51.253906 C 70.355469 54.085938 72.390625 55.398438 74.054688 56.46875 C 76.953125 58.324219 78.785156 59.503906 81.359375 65.726562 Z M 105.632812 49.226562 L 102.667969 46.25 C 102.226562 45.804688 101.515625 45.789062 101.039062 46.1875 L 95.285156 51.132812 C 93.796875 51.089844 92.300781 51.636719 91.160156 52.765625 L 87.792969 56.132812 C 85.570312 48.253906 80.460938 41.609375 73.632812 37.804688 L 73.371094 34.71875 C 73.035156 30.746094 69.96875 27.75 66.242188 27.75 L 58.476562 27.75 C 54.75 27.75 51.683594 30.746094 51.347656 34.71875 L 51.015625 38.601562 C 43.039062 43.007812 37.773438 51.246094 36.46875 60.351562 C 35.816406 64.890625 36.160156 69.550781 37.464844 73.917969 C 36.410156 74.535156 35.652344 75.625 35.652344 77.648438 C 35.652344 80.882812 39.289062 86.140625 43.191406 85.820312 L 45.175781 91.066406 C 45.96875 93.175781 48.214844 94.523438 51.3125 96.390625 C 54.242188 98.15625 57.238281 100.050781 60.117188 101.867188 C 61.675781 102.855469 63.523438 102.851562 65.082031 101.867188 L 74.125 96.25 C 77.152344 94.445312 79.339844 93.132812 80.042969 91.027344 L 81.765625 85.820312 C 82.859375 85.90625 83.855469 85.632812 84.929688 84.945312 C 87.355469 83.378906 89.332031 80.109375 89.332031 77.648438 C 89.332031 75.796875 88.695312 74.726562 87.78125 74.089844 C 88.363281 72.03125 88.742188 69.914062 88.917969 67.765625 L 92.890625 63.792969 L 93.625 64.527344 C 94.097656 65 94.847656 65 95.316406 64.527344 L 99.121094 60.726562 C 100.253906 59.59375 100.800781 58.09375 100.757812 56.601562 L 105.699219 50.847656 C 106.105469 50.375 106.082031 49.667969 105.632812 49.226562 Z M 89.28125 100.449219 C 88.492188 98.996094 87.390625 97.753906 86.074219 96.886719 C 87.390625 96.007812 88.492188 94.777344 89.28125 93.316406 C 90.0625 94.777344 91.167969 96.007812 92.484375 96.886719 C 91.167969 97.753906 90.0625 98.996094 89.28125 100.449219 Z M 95.675781 95.726562 C 96.871094 96.023438 96.878906 97.746094 95.675781 98.046875 C 92.988281 98.722656 90.894531 101.292969 90.464844 104.441406 C 90.277344 105.816406 88.28125 105.816406 88.09375 104.441406 C 87.664062 101.292969 85.570312 98.722656 82.882812 98.046875 C 81.6875 97.746094 81.6875 96.023438 82.882812 95.726562 C 85.570312 95.050781 87.664062 92.476562 88.09375 89.332031 C 88.28125 87.957031 90.277344 87.953125 90.464844 89.332031 C 90.894531 92.476562 92.988281 95.050781 95.675781 95.726562 Z M 34.28125 101.054688 C 33.496094 99.589844 32.386719 98.359375 31.074219 97.488281 C 32.386719 96.613281 33.496094 95.382812 34.28125 93.921875 C 35.066406 95.382812 36.167969 96.613281 37.484375 97.488281 C 36.167969 98.359375 35.066406 99.589844 34.28125 101.054688 Z M 40.675781 96.328125 C 41.875 96.625 41.875 98.34375 40.675781 98.648438 C 37.988281 99.328125 35.894531 101.898438 35.464844 105.046875 C 35.277344 106.421875 33.28125 106.421875 33.09375 105.046875 C 32.664062 101.898438 30.570312 99.328125 27.882812 98.648438 C 26.6875 98.34375 26.679688 96.632812 27.882812 96.328125 C 30.566406 95.648438 32.664062 93.085938 33.09375 89.9375 C 33.28125 88.5625 35.277344 88.5625 35.464844 89.9375 C 35.894531 93.085938 37.988281 95.648438 40.675781 96.328125 Z M 89.484375 34.8125 C 90.269531 36.273438 91.375 37.503906 92.691406 38.371094 C 91.375 39.25 90.269531 40.480469 89.484375 41.941406 C 88.699219 40.480469 87.597656 39.25 86.28125 38.371094 C 87.597656 37.503906 88.699219 36.273438 89.484375 34.8125 Z M 83.089844 39.53125 C 81.886719 39.234375 81.894531 37.511719 83.089844 37.210938 C 85.773438 36.535156 87.871094 33.960938 88.300781 30.816406 C 88.484375 29.457031 90.488281 29.453125 90.671875 30.816406 C 91.101562 33.960938 93.199219 36.535156 95.882812 37.210938 C 97.074219 37.511719 97.089844 39.230469 95.882812 39.53125 C 93.199219 40.207031 91.101562 42.78125 90.671875 45.925781 C 90.484375 47.300781 88.488281 47.300781 88.304688 45.925781 C 87.871094 42.78125 85.773438 40.207031 83.089844 39.53125 Z M 83.089844 39.53125 "></path></g></g></svg>
