<svg xmlns="http://www.w3.org/2000/svg" xmlns:xlink="http://www.w3.org/1999/xlink" width="180" zoomAndPan="magnify" viewBox="0 0 135 135.000003" height="180" preserveAspectRatio="xMidYMid meet"><defs><clipPath id="38fa82888e"><path d="M 0.496094 0 L 134.503906 0 L 134.503906 134.007812 L 0.496094 134.007812 Z M 0.496094 0 "></path></clipPath><clipPath id="ac0138305b"><path d="M 0.496094 0 L 134.503906 0 L 134.503906 134.007812 L 0.496094 134.007812 Z M 0.496094 0 "></path></clipPath><clipPath id="a81ebacccd"><path d="M 67.5 0 C 30.496094 0 0.496094 30 0.496094 67.003906 C 0.496094 104.007812 30.496094 134.007812 67.5 134.007812 C 104.503906 134.007812 134.503906 104.007812 134.503906 67.003906 C 134.503906 30 104.503906 0 67.5 0 Z M 67.5 0 "></path></clipPath><clipPath id="24f18114ca"><path d="M 27.984375 32.488281 L 99.453125 32.488281 L 99.453125 101.726562 L 27.984375 101.726562 Z M 27.984375 32.488281 "></path></clipPath><clipPath id="f36104be71"><path d="M 63.789062 14.683594 C 34.605469 14.683594 10.949219 38.34375 10.949219 67.523438 C 10.949219 96.703125 34.605469 120.363281 63.789062 120.363281 C 92.96875 120.363281 116.628906 96.703125 116.628906 67.523438 C 116.628906 38.34375 92.96875 14.683594 63.789062 14.683594 Z M 63.789062 14.683594 "></path></clipPath><clipPath id="c34cfda0b6"><path d="M 30 70 L 98 70 L 98 101.726562 L 30 101.726562 Z M 30 70 "></path></clipPath><clipPath id="630a5d399c"><path d="M 33 70 L 98 70 L 98 101.726562 L 33 101.726562 Z M 33 70 "></path></clipPath><clipPath id="3a054836f0"><path d="M 30 79 L 98 79 L 98 101.726562 L 30 101.726562 Z M 30 79 "></path></clipPath><clipPath id="d83d82cb4b"><path d="M 33 79 L 98 79 L 98 101.726562 L 33 101.726562 Z M 33 79 "></path></clipPath><clipPath id="c69da8dedb"><path d="M 29.136719 33 L 98.414062 33 L 98.414062 101.726562 L 29.136719 101.726562 Z M 29.136719 33 "></path></clipPath></defs><g id="4053eac7e6"><g clip-rule="nonzero" clip-path="url(#38fa82888e)"><path style=" stroke:none;fill-rule:nonzero;fill:#ffffff;fill-opacity:1;" d="M 0.496094 0 L 134.503906 0 L 134.503906 134.007812 L 0.496094 134.007812 Z M 0.496094 0 "></path><path style=" stroke:none;fill-rule:nonzero;fill:#ffffff;fill-opacity:1;" d="M 0.496094 0 L 134.503906 0 L 134.503906 134.007812 L 0.496094 134.007812 Z M 0.496094 0 "></path></g><g clip-rule="nonzero" clip-path="url(#ac0138305b)"><g clip-rule="nonzero" clip-path="url(#a81ebacccd)"><path style=" stroke:none;fill-rule:nonzero;fill:#f4dddd;fill-opacity:1;" d="M 0.496094 0 L 134.503906 0 L 134.503906 134.007812 L 0.496094 134.007812 Z M 0.496094 0 "></path><path style="fill:none;stroke-width:12;stroke-linecap:butt;stroke-linejoin:miter;stroke:#7b2e07;stroke-opacity:1;stroke-miterlimit:4;" d="M 90.000004 -0.00000933333 C 40.29599 -0.00000933333 -0.000306642 40.296288 -0.000306642 90.000301 C -0.000306642 139.704314 40.29599 180.000611 90.000004 180.000611 C 139.704017 180.000611 180.000314 139.704314 180.000314 90.000301 C 180.000314 40.296288 139.704017 -0.00000933333 90.000004 -0.00000933333 Z M 90.000004 -0.00000933333 " transform="matrix(0.744485,0,0,0.744485,0.496322,0.00000694853)"></path></g></g><g clip-rule="nonzero" clip-path="url(#24f18114ca)"><g clip-rule="nonzero" clip-path="url(#f36104be71)"><path style=" stroke:none;fill-rule:nonzero;fill:#ffdfdf;fill-opacity:1;" d="M 10.949219 14.683594 L 116.628906 14.683594 L 116.628906 120.363281 L 10.949219 120.363281 Z M 10.949219 14.683594 "></path><path style="fill:none;stroke-width:8;stroke-linecap:butt;stroke-linejoin:miter;stroke:#f80303;stroke-opacity:1;stroke-miterlimit:4;" d="M 90.001436 -0.000574994 C 40.293652 -0.000574994 0.000473308 40.299257 0.000473308 90.000388 C 0.000473308 139.701519 40.293652 180.001351 90.001436 180.001351 C 139.702567 180.001351 180.002399 139.701519 180.002399 90.000388 C 180.002399 40.299257 139.702567 -0.000574994 90.001436 -0.000574994 Z M 90.001436 -0.000574994 " transform="matrix(0.587103,0,0,0.587103,10.948941,14.683931)"></path></g></g><path style=" stroke:none;fill-rule:nonzero;fill:#ffdcc4;fill-opacity:1;" d="M 30.21875 66.425781 L 97.332031 66.425781 L 97.332031 70.757812 L 30.21875 70.757812 Z M 30.21875 66.425781 "></path><path style=" stroke:none;fill-rule:nonzero;fill:#ffd1b8;fill-opacity:1;" d="M 33.464844 66.425781 L 97.332031 66.425781 L 97.332031 70.757812 L 33.464844 70.757812 Z M 33.464844 66.425781 "></path><g clip-rule="nonzero" clip-path="url(#c34cfda0b6)"><path style=" stroke:none;fill-rule:nonzero;fill:#f17583;fill-opacity:1;" d="M 30.21875 70.757812 L 97.332031 70.757812 L 97.332031 101.066406 L 30.21875 101.066406 Z M 30.21875 70.757812 "></path></g><g clip-rule="nonzero" clip-path="url(#630a5d399c)"><path style=" stroke:none;fill-rule:nonzero;fill:#e25f70;fill-opacity:1;" d="M 33.464844 70.757812 L 97.332031 70.757812 L 97.332031 101.066406 L 33.464844 101.066406 Z M 33.464844 70.757812 "></path></g><g clip-rule="nonzero" clip-path="url(#3a054836f0)"><path style=" stroke:none;fill-rule:nonzero;fill:#ffa1aa;fill-opacity:1;" d="M 30.21875 79.417969 L 30.21875 101.066406 L 97.332031 101.066406 L 97.332031 79.417969 C 93.976562 79.417969 93.976562 81.582031 90.613281 81.582031 C 87.25 81.582031 87.253906 79.417969 83.894531 79.417969 C 80.53125 79.417969 80.535156 81.582031 77.183594 81.582031 C 73.828125 81.582031 73.828125 79.417969 70.46875 79.417969 C 67.113281 79.417969 67.113281 81.582031 63.761719 81.582031 C 60.402344 81.582031 60.402344 79.417969 57.046875 79.417969 C 53.695312 79.417969 53.695312 81.582031 50.335938 81.582031 C 46.980469 81.582031 46.980469 79.417969 43.625 79.417969 C 40.269531 79.417969 40.269531 81.582031 36.914062 81.582031 C 33.558594 81.582031 33.574219 79.417969 30.21875 79.417969 Z M 30.21875 79.417969 "></path></g><g clip-rule="nonzero" clip-path="url(#d83d82cb4b)"><path style=" stroke:none;fill-rule:nonzero;fill:#ff8a95;fill-opacity:1;" d="M 90.613281 81.582031 C 87.253906 81.582031 87.253906 79.417969 83.894531 79.417969 C 80.53125 79.417969 80.535156 81.582031 77.183594 81.582031 C 73.828125 81.582031 73.828125 79.417969 70.46875 79.417969 C 67.113281 79.417969 67.113281 81.582031 63.761719 81.582031 C 60.402344 81.582031 60.402344 79.417969 57.046875 79.417969 C 53.695312 79.417969 53.695312 81.582031 50.335938 81.582031 C 46.980469 81.582031 46.980469 79.417969 43.625 79.417969 C 40.269531 79.417969 40.269531 81.582031 36.914062 81.582031 C 35.632812 81.597656 34.480469 81.214844 33.464844 80.429688 L 33.464844 101.066406 L 97.332031 101.066406 L 97.332031 79.417969 C 93.976562 79.417969 93.976562 81.582031 90.613281 81.582031 Z M 90.613281 81.582031 "></path></g><path style=" stroke:none;fill-rule:nonzero;fill:#e25f70;fill-opacity:1;" d="M 41.042969 93.488281 C 41.042969 93.703125 41.019531 93.914062 40.980469 94.125 C 40.9375 94.332031 40.875 94.535156 40.796875 94.730469 C 40.710938 94.925781 40.613281 95.117188 40.496094 95.292969 C 40.375 95.46875 40.242188 95.636719 40.089844 95.785156 C 39.941406 95.933594 39.777344 96.070312 39.601562 96.191406 C 39.421875 96.308594 39.234375 96.40625 39.035156 96.488281 C 38.84375 96.570312 38.640625 96.632812 38.429688 96.675781 C 38.21875 96.714844 38.007812 96.734375 37.796875 96.734375 C 37.582031 96.734375 37.371094 96.714844 37.160156 96.675781 C 36.949219 96.632812 36.75 96.570312 36.554688 96.488281 C 36.355469 96.40625 36.167969 96.308594 35.988281 96.191406 C 35.8125 96.070312 35.652344 95.933594 35.5 95.785156 C 35.347656 95.636719 35.214844 95.46875 35.097656 95.292969 C 34.976562 95.117188 34.878906 94.925781 34.792969 94.730469 C 34.714844 94.535156 34.652344 94.332031 34.609375 94.125 C 34.570312 93.914062 34.546875 93.703125 34.546875 93.488281 C 34.546875 93.277344 34.570312 93.0625 34.609375 92.855469 C 34.652344 92.644531 34.714844 92.445312 34.792969 92.246094 C 34.878906 92.050781 34.976562 91.863281 35.097656 91.683594 C 35.214844 91.507812 35.347656 91.34375 35.5 91.195312 C 35.652344 91.042969 35.8125 90.90625 35.988281 90.789062 C 36.167969 90.671875 36.355469 90.570312 36.554688 90.488281 C 36.75 90.410156 36.949219 90.347656 37.160156 90.304688 C 37.371094 90.261719 37.582031 90.242188 37.796875 90.242188 C 38.007812 90.242188 38.21875 90.261719 38.429688 90.304688 C 38.640625 90.347656 38.84375 90.410156 39.035156 90.488281 C 39.234375 90.570312 39.421875 90.671875 39.601562 90.789062 C 39.777344 90.90625 39.941406 91.042969 40.089844 91.195312 C 40.242188 91.34375 40.375 91.507812 40.496094 91.683594 C 40.613281 91.863281 40.710938 92.050781 40.796875 92.246094 C 40.875 92.445312 40.9375 92.644531 40.980469 92.855469 C 41.019531 93.0625 41.042969 93.277344 41.042969 93.488281 Z M 41.042969 93.488281 "></path><path style=" stroke:none;fill-rule:nonzero;fill:#e25f70;fill-opacity:1;" d="M 72.433594 86.996094 C 72.433594 87.207031 72.414062 87.417969 72.371094 87.625 C 72.332031 87.835938 72.269531 88.039062 72.1875 88.238281 C 72.105469 88.433594 72.007812 88.621094 71.886719 88.796875 C 71.769531 88.976562 71.632812 89.140625 71.484375 89.289062 C 71.332031 89.441406 71.167969 89.578125 70.992188 89.695312 C 70.816406 89.8125 70.625 89.914062 70.429688 89.996094 C 70.234375 90.074219 70.027344 90.136719 69.820312 90.179688 C 69.609375 90.21875 69.402344 90.242188 69.1875 90.242188 C 68.972656 90.242188 68.761719 90.21875 68.554688 90.179688 C 68.34375 90.136719 68.140625 90.074219 67.945312 89.996094 C 67.746094 89.914062 67.558594 89.8125 67.382812 89.695312 C 67.203125 89.578125 67.042969 89.441406 66.890625 89.289062 C 66.738281 89.140625 66.605469 88.976562 66.488281 88.796875 C 66.371094 88.621094 66.269531 88.433594 66.1875 88.238281 C 66.105469 88.039062 66.042969 87.835938 66.003906 87.625 C 65.960938 87.417969 65.9375 87.207031 65.9375 86.996094 C 65.9375 86.78125 65.960938 86.570312 66.003906 86.359375 C 66.042969 86.152344 66.105469 85.949219 66.1875 85.75 C 66.269531 85.554688 66.371094 85.367188 66.488281 85.191406 C 66.605469 85.011719 66.738281 84.847656 66.890625 84.695312 C 67.042969 84.546875 67.203125 84.414062 67.382812 84.292969 C 67.558594 84.175781 67.746094 84.074219 67.945312 83.996094 C 68.140625 83.910156 68.34375 83.851562 68.554688 83.808594 C 68.761719 83.765625 68.972656 83.746094 69.1875 83.746094 C 69.402344 83.746094 69.609375 83.765625 69.820312 83.808594 C 70.027344 83.851562 70.234375 83.910156 70.429688 83.996094 C 70.625 84.074219 70.816406 84.175781 70.992188 84.292969 C 71.167969 84.414062 71.332031 84.546875 71.484375 84.695312 C 71.632812 84.847656 71.769531 85.011719 71.886719 85.191406 C 72.007812 85.367188 72.105469 85.554688 72.1875 85.75 C 72.269531 85.949219 72.332031 86.152344 72.371094 86.359375 C 72.414062 86.570312 72.433594 86.78125 72.433594 86.996094 Z M 72.433594 86.996094 "></path><path style=" stroke:none;fill-rule:nonzero;fill:#e25f70;fill-opacity:1;" d="M 83.261719 94.570312 C 83.261719 94.859375 83.203125 95.132812 83.09375 95.398438 C 82.984375 95.664062 82.828125 95.898438 82.625 96.101562 C 82.421875 96.304688 82.1875 96.460938 81.921875 96.574219 C 81.65625 96.679688 81.382812 96.734375 81.09375 96.734375 C 80.808594 96.734375 80.53125 96.679688 80.265625 96.574219 C 80 96.460938 79.765625 96.304688 79.5625 96.101562 C 79.359375 95.898438 79.203125 95.664062 79.09375 95.398438 C 78.984375 95.132812 78.929688 94.859375 78.929688 94.570312 C 78.929688 94.285156 78.984375 94.007812 79.09375 93.742188 C 79.203125 93.476562 79.359375 93.242188 79.5625 93.039062 C 79.765625 92.839844 80 92.683594 80.265625 92.570312 C 80.53125 92.460938 80.808594 92.40625 81.09375 92.40625 C 81.382812 92.40625 81.65625 92.460938 81.921875 92.570312 C 82.1875 92.683594 82.421875 92.839844 82.625 93.039062 C 82.828125 93.242188 82.984375 93.476562 83.09375 93.742188 C 83.203125 94.007812 83.261719 94.285156 83.261719 94.570312 Z M 83.261719 94.570312 "></path><path style=" stroke:none;fill-rule:nonzero;fill:#e25f70;fill-opacity:1;" d="M 50.785156 87.535156 C 50.785156 87.75 50.742188 87.957031 50.664062 88.15625 C 50.578125 88.355469 50.460938 88.53125 50.308594 88.683594 C 50.15625 88.835938 49.980469 88.953125 49.78125 89.035156 C 49.585938 89.117188 49.378906 89.15625 49.164062 89.15625 C 48.945312 89.15625 48.738281 89.117188 48.539062 89.035156 C 48.339844 88.953125 48.164062 88.835938 48.011719 88.683594 C 47.863281 88.53125 47.742188 88.355469 47.660156 88.15625 C 47.578125 87.957031 47.539062 87.75 47.539062 87.535156 C 47.539062 87.320312 47.578125 87.113281 47.660156 86.914062 C 47.742188 86.714844 47.863281 86.539062 48.011719 86.386719 C 48.164062 86.234375 48.339844 86.117188 48.539062 86.035156 C 48.738281 85.953125 48.945312 85.910156 49.164062 85.910156 C 49.378906 85.910156 49.585938 85.953125 49.78125 86.035156 C 49.980469 86.117188 50.15625 86.234375 50.308594 86.386719 C 50.460938 86.539062 50.578125 86.714844 50.664062 86.914062 C 50.742188 87.113281 50.785156 87.320312 50.785156 87.535156 Z M 50.785156 87.535156 "></path><path style=" stroke:none;fill-rule:nonzero;fill:#e25f70;fill-opacity:1;" d="M 59.445312 95.113281 C 59.445312 95.328125 59.40625 95.535156 59.320312 95.734375 C 59.238281 95.929688 59.121094 96.105469 58.96875 96.261719 C 58.816406 96.414062 58.640625 96.527344 58.445312 96.613281 C 58.242188 96.695312 58.035156 96.734375 57.820312 96.734375 C 57.605469 96.734375 57.398438 96.695312 57.199219 96.613281 C 57 96.527344 56.828125 96.414062 56.671875 96.261719 C 56.519531 96.105469 56.40625 95.929688 56.320312 95.734375 C 56.238281 95.535156 56.199219 95.328125 56.199219 95.113281 C 56.199219 94.898438 56.238281 94.691406 56.320312 94.488281 C 56.40625 94.292969 56.519531 94.117188 56.671875 93.964844 C 56.828125 93.8125 57 93.695312 57.199219 93.613281 C 57.398438 93.527344 57.605469 93.488281 57.820312 93.488281 C 58.035156 93.488281 58.242188 93.527344 58.445312 93.613281 C 58.640625 93.695312 58.816406 93.8125 58.96875 93.964844 C 59.121094 94.117188 59.238281 94.292969 59.320312 94.488281 C 59.40625 94.691406 59.445312 94.898438 59.445312 95.113281 Z M 59.445312 95.113281 "></path><path style=" stroke:none;fill-rule:nonzero;fill:#e25f70;fill-opacity:1;" d="M 93 88.617188 C 93 88.835938 92.960938 89.039062 92.878906 89.238281 C 92.792969 89.4375 92.675781 89.613281 92.527344 89.765625 C 92.371094 89.917969 92.195312 90.035156 92 90.117188 C 91.800781 90.199219 91.59375 90.242188 91.378906 90.242188 C 91.160156 90.242188 90.953125 90.199219 90.753906 90.117188 C 90.558594 90.035156 90.382812 89.917969 90.226562 89.765625 C 90.078125 89.613281 89.960938 89.4375 89.875 89.238281 C 89.792969 89.039062 89.753906 88.835938 89.753906 88.617188 C 89.753906 88.402344 89.792969 88.195312 89.875 87.996094 C 89.960938 87.796875 90.078125 87.621094 90.226562 87.46875 C 90.382812 87.320312 90.558594 87.203125 90.753906 87.117188 C 90.953125 87.035156 91.160156 86.996094 91.378906 86.996094 C 91.59375 86.996094 91.800781 87.035156 92 87.117188 C 92.195312 87.203125 92.371094 87.320312 92.527344 87.46875 C 92.675781 87.621094 92.792969 87.796875 92.878906 87.996094 C 92.960938 88.195312 93 88.402344 93 88.617188 Z M 93 88.617188 "></path><path style=" stroke:none;fill-rule:nonzero;fill:#a0e2ff;fill-opacity:1;" d="M 74.601562 51.273438 C 74.601562 51.980469 74.53125 52.6875 74.390625 53.382812 C 74.253906 54.082031 74.046875 54.757812 73.773438 55.414062 C 73.503906 56.070312 73.171875 56.695312 72.773438 57.285156 C 72.378906 57.878906 71.929688 58.421875 71.429688 58.925781 C 70.925781 59.429688 70.378906 59.878906 69.789062 60.273438 C 69.199219 60.667969 68.570312 61.003906 67.917969 61.273438 C 67.261719 61.542969 66.582031 61.75 65.886719 61.890625 C 65.191406 62.027344 64.484375 62.097656 63.777344 62.097656 C 63.0625 62.097656 62.359375 62.027344 61.664062 61.890625 C 60.964844 61.75 60.289062 61.542969 59.632812 61.273438 C 58.976562 61.003906 58.351562 60.667969 57.757812 60.273438 C 57.167969 59.878906 56.621094 59.429688 56.121094 58.925781 C 55.617188 58.421875 55.167969 57.878906 54.773438 57.285156 C 54.378906 56.695312 54.042969 56.070312 53.773438 55.414062 C 53.503906 54.757812 53.296875 54.082031 53.15625 53.382812 C 53.019531 52.6875 52.949219 51.980469 52.949219 51.273438 C 52.949219 50.5625 53.019531 49.855469 53.15625 49.160156 C 53.296875 48.464844 53.503906 47.785156 53.773438 47.128906 C 54.042969 46.472656 54.378906 45.847656 54.773438 45.257812 C 55.167969 44.667969 55.617188 44.121094 56.121094 43.617188 C 56.621094 43.117188 57.167969 42.667969 57.757812 42.273438 C 58.351562 41.878906 58.976562 41.542969 59.632812 41.273438 C 60.289062 41 60.964844 40.792969 61.664062 40.65625 C 62.359375 40.515625 63.0625 40.449219 63.777344 40.449219 C 64.484375 40.449219 65.191406 40.515625 65.886719 40.65625 C 66.582031 40.792969 67.261719 41 67.917969 41.273438 C 68.570312 41.542969 69.199219 41.878906 69.789062 42.273438 C 70.378906 42.667969 70.925781 43.117188 71.429688 43.617188 C 71.929688 44.121094 72.378906 44.667969 72.773438 45.257812 C 73.171875 45.847656 73.503906 46.472656 73.773438 47.128906 C 74.046875 47.785156 74.253906 48.464844 74.390625 49.160156 C 74.53125 49.855469 74.601562 50.5625 74.601562 51.273438 Z M 74.601562 51.273438 "></path><path style=" stroke:none;fill-rule:nonzero;fill:#92d2ff;fill-opacity:1;" d="M 65.398438 42.074219 C 64.375 42.074219 63.375 42.210938 62.394531 42.496094 C 61.414062 42.777344 60.488281 43.195312 59.625 43.734375 C 58.761719 44.28125 57.992188 44.933594 57.308594 45.699219 C 56.632812 46.460938 56.070312 47.304688 55.632812 48.226562 C 55.191406 49.148438 54.886719 50.113281 54.71875 51.121094 C 54.554688 52.128906 54.527344 53.140625 54.648438 54.152344 C 54.769531 55.167969 55.023438 56.148438 55.421875 57.085938 C 55.816406 58.03125 56.335938 58.898438 56.976562 59.691406 C 57.496094 60.109375 58.042969 60.476562 58.625 60.789062 C 59.207031 61.105469 59.8125 61.367188 60.441406 61.570312 C 61.074219 61.773438 61.71875 61.917969 62.375 62.003906 C 63.03125 62.089844 63.691406 62.113281 64.351562 62.082031 C 65.011719 62.046875 65.664062 61.949219 66.308594 61.796875 C 66.953125 61.640625 67.578125 61.425781 68.179688 61.160156 C 68.789062 60.886719 69.359375 60.566406 69.910156 60.191406 C 70.453125 59.816406 70.960938 59.394531 71.429688 58.925781 C 71.894531 58.457031 72.316406 57.953125 72.695312 57.40625 C 73.070312 56.859375 73.390625 56.285156 73.660156 55.679688 C 73.929688 55.074219 74.140625 54.449219 74.300781 53.804688 C 74.453125 53.164062 74.546875 52.507812 74.582031 51.851562 C 74.617188 51.1875 74.589844 50.527344 74.503906 49.871094 C 74.417969 49.214844 74.273438 48.574219 74.070312 47.941406 C 73.867188 47.3125 73.605469 46.707031 73.292969 46.125 C 72.976562 45.542969 72.609375 44.992188 72.195312 44.476562 C 71.234375 43.695312 70.171875 43.101562 69.003906 42.6875 C 67.835938 42.277344 66.632812 42.070312 65.398438 42.074219 Z M 65.398438 42.074219 "></path><path style=" stroke:none;fill-rule:nonzero;fill:#ff8a95;fill-opacity:1;" d="M 89.753906 39.363281 C 89.753906 39.722656 89.71875 40.074219 89.648438 40.421875 C 89.582031 40.769531 89.480469 41.109375 89.339844 41.4375 C 89.207031 41.765625 89.039062 42.074219 88.839844 42.371094 C 88.644531 42.667969 88.417969 42.941406 88.167969 43.195312 C 87.917969 43.441406 87.644531 43.667969 87.347656 43.867188 C 87.050781 44.0625 86.742188 44.230469 86.410156 44.363281 C 86.085938 44.503906 85.746094 44.605469 85.398438 44.671875 C 85.050781 44.742188 84.695312 44.777344 84.339844 44.777344 C 83.988281 44.777344 83.632812 44.742188 83.285156 44.671875 C 82.9375 44.605469 82.597656 44.503906 82.269531 44.363281 C 81.941406 44.230469 81.628906 44.0625 81.335938 43.867188 C 81.039062 43.667969 80.765625 43.441406 80.515625 43.195312 C 80.261719 42.941406 80.039062 42.667969 79.839844 42.371094 C 79.644531 42.074219 79.476562 41.765625 79.339844 41.4375 C 79.207031 41.109375 79.101562 40.769531 79.035156 40.421875 C 78.960938 40.074219 78.929688 39.722656 78.929688 39.363281 C 78.929688 39.011719 78.960938 38.660156 79.035156 38.308594 C 79.101562 37.960938 79.207031 37.621094 79.339844 37.292969 C 79.476562 36.964844 79.644531 36.652344 79.839844 36.359375 C 80.039062 36.0625 80.261719 35.789062 80.515625 35.539062 C 80.765625 35.285156 81.039062 35.0625 81.335938 34.863281 C 81.628906 34.667969 81.941406 34.5 82.269531 34.363281 C 82.597656 34.230469 82.9375 34.125 83.285156 34.058594 C 83.632812 33.984375 83.988281 33.953125 84.339844 33.953125 C 84.695312 33.953125 85.050781 33.984375 85.398438 34.058594 C 85.746094 34.125 86.085938 34.230469 86.410156 34.363281 C 86.742188 34.5 87.050781 34.667969 87.347656 34.863281 C 87.644531 35.0625 87.917969 35.285156 88.167969 35.539062 C 88.417969 35.789062 88.644531 36.0625 88.839844 36.359375 C 89.039062 36.652344 89.207031 36.964844 89.339844 37.292969 C 89.480469 37.621094 89.582031 37.960938 89.648438 38.308594 C 89.71875 38.660156 89.753906 39.011719 89.753906 39.363281 Z M 89.753906 39.363281 "></path><path style=" stroke:none;fill-rule:nonzero;fill:#e25f70;fill-opacity:1;" d="M 81.09375 41.53125 C 81.101562 42.445312 81.324219 43.300781 81.773438 44.101562 C 82.570312 44.546875 83.425781 44.769531 84.339844 44.777344 C 84.695312 44.777344 85.050781 44.742188 85.398438 44.671875 C 85.746094 44.605469 86.085938 44.503906 86.410156 44.363281 C 86.742188 44.230469 87.050781 44.0625 87.347656 43.867188 C 87.644531 43.667969 87.917969 43.441406 88.167969 43.195312 C 88.417969 42.941406 88.644531 42.667969 88.839844 42.371094 C 89.039062 42.074219 89.207031 41.765625 89.339844 41.4375 C 89.480469 41.109375 89.582031 40.769531 89.648438 40.421875 C 89.71875 40.074219 89.753906 39.722656 89.753906 39.363281 C 89.746094 38.449219 89.523438 37.59375 89.074219 36.796875 C 88.277344 36.347656 87.421875 36.125 86.507812 36.117188 C 86.152344 36.117188 85.796875 36.152344 85.449219 36.222656 C 85.101562 36.289062 84.761719 36.394531 84.4375 36.53125 C 84.105469 36.667969 83.796875 36.832031 83.5 37.03125 C 83.203125 37.226562 82.929688 37.453125 82.679688 37.703125 C 82.429688 37.953125 82.203125 38.226562 82.007812 38.523438 C 81.808594 38.820312 81.644531 39.128906 81.507812 39.460938 C 81.371094 39.785156 81.265625 40.125 81.199219 40.472656 C 81.128906 40.820312 81.09375 41.175781 81.09375 41.53125 Z M 81.09375 41.53125 "></path><path style=" stroke:none;fill-rule:nonzero;fill:#ffe882;fill-opacity:1;" d="M 82.175781 67.511719 C 82.175781 67.722656 82.15625 67.933594 82.113281 68.144531 C 82.074219 68.351562 82.011719 68.554688 81.929688 68.753906 C 81.847656 68.949219 81.746094 69.136719 81.628906 69.3125 C 81.511719 69.492188 81.375 69.65625 81.226562 69.804688 C 81.074219 69.957031 80.910156 70.09375 80.734375 70.210938 C 80.554688 70.328125 80.367188 70.429688 80.171875 70.507812 C 79.976562 70.589844 79.773438 70.652344 79.5625 70.691406 C 79.355469 70.738281 79.140625 70.757812 78.929688 70.757812 C 78.714844 70.757812 78.503906 70.738281 78.292969 70.691406 C 78.085938 70.652344 77.882812 70.589844 77.6875 70.507812 C 77.488281 70.429688 77.300781 70.328125 77.125 70.210938 C 76.949219 70.09375 76.785156 69.957031 76.632812 69.804688 C 76.484375 69.65625 76.347656 69.492188 76.230469 69.3125 C 76.109375 69.136719 76.011719 68.949219 75.929688 68.753906 C 75.847656 68.554688 75.785156 68.351562 75.742188 68.144531 C 75.703125 67.933594 75.683594 67.722656 75.683594 67.511719 C 75.683594 67.296875 75.703125 67.085938 75.742188 66.875 C 75.785156 66.667969 75.847656 66.464844 75.929688 66.265625 C 76.011719 66.070312 76.109375 65.882812 76.230469 65.707031 C 76.347656 65.527344 76.484375 65.363281 76.632812 65.214844 C 76.785156 65.0625 76.949219 64.925781 77.125 64.808594 C 77.300781 64.691406 77.488281 64.589844 77.6875 64.511719 C 77.882812 64.425781 78.085938 64.367188 78.292969 64.324219 C 78.503906 64.28125 78.714844 64.261719 78.929688 64.261719 C 79.140625 64.261719 79.355469 64.28125 79.5625 64.324219 C 79.773438 64.367188 79.976562 64.425781 80.171875 64.511719 C 80.367188 64.589844 80.554688 64.691406 80.734375 64.808594 C 80.910156 64.925781 81.074219 65.0625 81.226562 65.214844 C 81.375 65.363281 81.511719 65.527344 81.628906 65.707031 C 81.746094 65.882812 81.847656 66.070312 81.929688 66.265625 C 82.011719 66.464844 82.074219 66.667969 82.113281 66.875 C 82.15625 67.085938 82.175781 67.296875 82.175781 67.511719 Z M 82.175781 67.511719 "></path><path style=" stroke:none;fill-rule:nonzero;fill:#ffd866;fill-opacity:1;" d="M 77.304688 69.132812 C 77.304688 69.601562 77.402344 70.042969 77.597656 70.464844 C 77.898438 70.601562 78.210938 70.691406 78.539062 70.730469 C 78.863281 70.773438 79.191406 70.765625 79.515625 70.707031 C 79.839844 70.648438 80.148438 70.542969 80.441406 70.386719 C 80.734375 70.234375 80.996094 70.042969 81.230469 69.808594 C 81.460938 69.574219 81.65625 69.3125 81.804688 69.019531 C 81.960938 68.726562 82.066406 68.417969 82.125 68.097656 C 82.183594 67.773438 82.191406 67.445312 82.152344 67.121094 C 82.109375 66.789062 82.023438 66.480469 81.882812 66.175781 C 81.636719 66.066406 81.382812 65.984375 81.113281 65.9375 C 80.84375 65.886719 80.578125 65.875 80.304688 65.894531 C 80.035156 65.914062 79.773438 65.96875 79.515625 66.054688 C 79.257812 66.140625 79.015625 66.257812 78.785156 66.402344 C 78.558594 66.550781 78.351562 66.722656 78.167969 66.921875 C 77.984375 67.121094 77.824219 67.339844 77.695312 67.578125 C 77.566406 67.816406 77.46875 68.070312 77.402344 68.332031 C 77.335938 68.59375 77.304688 68.863281 77.304688 69.132812 Z M 77.304688 69.132812 "></path><path style=" stroke:none;fill-rule:nonzero;fill:#c5e362;fill-opacity:1;" d="M 48.621094 41.53125 C 48.621094 41.8125 48.59375 42.097656 48.535156 42.375 C 48.480469 42.65625 48.398438 42.925781 48.289062 43.1875 C 48.183594 43.449219 48.046875 43.699219 47.890625 43.9375 C 47.734375 44.171875 47.554688 44.390625 47.351562 44.59375 C 47.152344 44.792969 46.933594 44.972656 46.695312 45.132812 C 46.460938 45.289062 46.210938 45.421875 45.945312 45.53125 C 45.683594 45.640625 45.414062 45.722656 45.136719 45.777344 C 44.855469 45.832031 44.574219 45.863281 44.289062 45.863281 C 44.003906 45.863281 43.726562 45.832031 43.445312 45.777344 C 43.167969 45.722656 42.894531 45.640625 42.632812 45.53125 C 42.371094 45.421875 42.121094 45.289062 41.886719 45.132812 C 41.648438 44.972656 41.429688 44.792969 41.230469 44.59375 C 41.027344 44.390625 40.847656 44.171875 40.691406 43.9375 C 40.53125 43.699219 40.398438 43.449219 40.289062 43.1875 C 40.183594 42.925781 40.097656 42.65625 40.042969 42.375 C 39.988281 42.097656 39.960938 41.8125 39.960938 41.53125 C 39.960938 41.246094 39.988281 40.964844 40.042969 40.6875 C 40.097656 40.40625 40.183594 40.136719 40.289062 39.871094 C 40.398438 39.609375 40.53125 39.363281 40.691406 39.125 C 40.847656 38.886719 41.027344 38.667969 41.230469 38.46875 C 41.429688 38.269531 41.648438 38.089844 41.886719 37.929688 C 42.121094 37.773438 42.371094 37.640625 42.632812 37.527344 C 42.894531 37.421875 43.167969 37.335938 43.445312 37.28125 C 43.726562 37.226562 44.003906 37.199219 44.289062 37.199219 C 44.574219 37.199219 44.855469 37.226562 45.136719 37.28125 C 45.414062 37.335938 45.683594 37.421875 45.945312 37.527344 C 46.210938 37.640625 46.460938 37.773438 46.695312 37.929688 C 46.933594 38.089844 47.152344 38.269531 47.351562 38.46875 C 47.554688 38.667969 47.734375 38.886719 47.890625 39.125 C 48.046875 39.363281 48.183594 39.609375 48.289062 39.871094 C 48.398438 40.136719 48.480469 40.40625 48.535156 40.6875 C 48.59375 40.964844 48.621094 41.246094 48.621094 41.53125 Z M 48.621094 41.53125 "></path><path style=" stroke:none;fill-rule:nonzero;fill:#b6d657;fill-opacity:1;" d="M 41.585938 43.152344 C 41.585938 43.914062 41.78125 44.625 42.164062 45.277344 C 42.820312 45.660156 43.53125 45.855469 44.289062 45.863281 C 44.574219 45.863281 44.855469 45.832031 45.136719 45.777344 C 45.414062 45.722656 45.683594 45.640625 45.945312 45.53125 C 46.210938 45.421875 46.460938 45.289062 46.695312 45.132812 C 46.933594 44.972656 47.152344 44.792969 47.351562 44.59375 C 47.554688 44.390625 47.734375 44.171875 47.890625 43.9375 C 48.046875 43.699219 48.183594 43.449219 48.289062 43.1875 C 48.398438 42.925781 48.480469 42.65625 48.535156 42.375 C 48.59375 42.097656 48.621094 41.8125 48.621094 41.53125 C 48.617188 40.769531 48.421875 40.0625 48.039062 39.40625 C 47.382812 39.023438 46.671875 38.828125 45.914062 38.824219 C 45.628906 38.824219 45.347656 38.851562 45.066406 38.90625 C 44.789062 38.964844 44.519531 39.042969 44.257812 39.152344 C 43.992188 39.261719 43.742188 39.394531 43.507812 39.550781 C 43.273438 39.710938 43.054688 39.890625 42.851562 40.089844 C 42.648438 40.292969 42.472656 40.511719 42.3125 40.746094 C 42.15625 40.984375 42.023438 41.234375 41.914062 41.496094 C 41.804688 41.757812 41.722656 42.03125 41.667969 42.308594 C 41.613281 42.585938 41.585938 42.871094 41.585938 43.152344 Z M 41.585938 43.152344 "></path><path style=" stroke:none;fill-rule:nonzero;fill:#f9fafe;fill-opacity:1;" d="M 63.777344 58.847656 C 63.472656 58.847656 63.167969 58.832031 62.871094 58.796875 C 62.570312 58.757812 62.273438 58.703125 61.976562 58.632812 C 61.683594 58.5625 61.394531 58.472656 61.109375 58.363281 C 60.828125 58.261719 60.550781 58.136719 60.28125 57.996094 C 60.015625 57.855469 59.757812 57.703125 59.507812 57.53125 C 59.253906 57.359375 59.015625 57.175781 58.789062 56.976562 C 58.5625 56.777344 58.34375 56.566406 58.140625 56.339844 C 57.9375 56.117188 57.75 55.878906 57.578125 55.628906 C 57.402344 55.382812 57.246094 55.128906 57.101562 54.859375 C 56.957031 54.589844 56.828125 54.316406 56.722656 54.035156 C 56.609375 53.753906 56.515625 53.46875 56.441406 53.175781 C 56.363281 52.882812 56.304688 52.585938 56.265625 52.285156 C 56.226562 51.984375 56.203125 51.683594 56.199219 51.382812 C 56.195312 51.078125 56.207031 50.773438 56.242188 50.476562 C 56.273438 50.175781 56.320312 49.875 56.390625 49.578125 C 56.457031 49.285156 56.542969 48.996094 56.644531 48.710938 C 56.746094 48.425781 56.867188 48.148438 57 47.875 C 57.136719 47.605469 57.289062 47.347656 57.453125 47.09375 C 57.621094 46.839844 57.804688 46.597656 58 46.367188 C 58.195312 46.136719 58.402344 45.917969 58.628906 45.714844 C 58.851562 45.507812 59.085938 45.316406 59.328125 45.136719 C 59.574219 44.957031 59.828125 44.796875 60.089844 44.652344 C 60.355469 44.503906 60.628906 44.375 60.910156 44.257812 C 61.191406 44.140625 61.476562 44.046875 61.765625 43.96875 C 62.058594 43.886719 62.355469 43.820312 62.65625 43.777344 C 62.953125 43.734375 63.253906 43.707031 63.558594 43.699219 C 63.863281 43.691406 64.164062 43.699219 64.464844 43.726562 C 64.765625 43.753906 65.0625 43.800781 65.363281 43.863281 C 65.65625 43.925781 65.949219 44.007812 66.234375 44.105469 C 66.519531 44.203125 66.800781 44.316406 67.070312 44.449219 C 67.347656 44.582031 67.609375 44.730469 67.863281 44.894531 C 68.121094 45.058594 68.363281 45.234375 68.597656 45.425781 C 68.761719 45.566406 68.894531 45.730469 68.996094 45.917969 C 69.097656 46.109375 69.160156 46.3125 69.179688 46.523438 C 69.199219 46.738281 69.179688 46.949219 69.113281 47.15625 C 69.054688 47.363281 68.953125 47.546875 68.816406 47.710938 C 68.679688 47.878906 68.515625 48.011719 68.324219 48.113281 C 68.136719 48.214844 67.929688 48.277344 67.71875 48.296875 C 67.503906 48.316406 67.292969 48.296875 67.085938 48.234375 C 66.882812 48.167969 66.695312 48.070312 66.53125 47.929688 C 65.730469 47.269531 64.8125 46.9375 63.777344 46.941406 C 63.488281 46.941406 63.210938 46.96875 62.929688 47.027344 C 62.652344 47.082031 62.378906 47.164062 62.117188 47.273438 C 61.855469 47.378906 61.605469 47.515625 61.371094 47.671875 C 61.132812 47.828125 60.914062 48.007812 60.714844 48.210938 C 60.511719 48.410156 60.332031 48.628906 60.175781 48.867188 C 60.019531 49.101562 59.882812 49.351562 59.773438 49.617188 C 59.667969 49.878906 59.582031 50.148438 59.527344 50.425781 C 59.472656 50.707031 59.445312 50.988281 59.445312 51.273438 C 59.445312 51.558594 59.472656 51.835938 59.527344 52.117188 C 59.582031 52.394531 59.667969 52.667969 59.773438 52.929688 C 59.882812 53.191406 60.019531 53.441406 60.175781 53.675781 C 60.332031 53.914062 60.511719 54.132812 60.714844 54.332031 C 60.914062 54.535156 61.132812 54.714844 61.371094 54.871094 C 61.605469 55.03125 61.855469 55.164062 62.117188 55.273438 C 62.378906 55.378906 62.652344 55.464844 62.929688 55.519531 C 63.210938 55.574219 63.488281 55.601562 63.777344 55.601562 C 64.8125 55.609375 65.730469 55.277344 66.53125 54.613281 C 66.695312 54.472656 66.882812 54.375 67.085938 54.3125 C 67.292969 54.25 67.503906 54.226562 67.71875 54.25 C 67.929688 54.269531 68.136719 54.328125 68.324219 54.429688 C 68.515625 54.53125 68.679688 54.664062 68.816406 54.832031 C 68.953125 55 69.054688 55.183594 69.113281 55.390625 C 69.179688 55.597656 69.199219 55.804688 69.179688 56.019531 C 69.160156 56.234375 69.097656 56.4375 68.996094 56.628906 C 68.894531 56.816406 68.761719 56.980469 68.597656 57.117188 C 67.917969 57.679688 67.164062 58.105469 66.335938 58.402344 C 65.507812 58.699219 64.652344 58.847656 63.777344 58.847656 Z M 63.777344 58.847656 "></path><path style=" stroke:none;fill-rule:nonzero;fill:#a0e2ff;fill-opacity:1;" d="M 41.042969 62.097656 L 46.453125 53.4375 L 43.207031 53.4375 L 43.207031 49.109375 L 38.875 49.109375 L 38.875 53.4375 L 35.628906 53.4375 Z M 41.042969 62.097656 "></path><path style=" stroke:none;fill-rule:nonzero;fill:#92d2ff;fill-opacity:1;" d="M 46.453125 53.4375 L 43.207031 53.4375 L 43.207031 51.273438 L 41.042969 51.273438 L 41.042969 55.601562 L 39.148438 55.601562 L 42.125 60.363281 Z M 46.453125 53.4375 "></path><path style=" stroke:none;fill-rule:nonzero;fill:#a0e2ff;fill-opacity:1;" d="M 86.507812 62.097656 L 91.917969 53.4375 L 88.671875 53.4375 L 88.671875 49.109375 L 84.339844 49.109375 L 84.339844 53.4375 L 81.09375 53.4375 Z M 86.507812 62.097656 "></path><path style=" stroke:none;fill-rule:nonzero;fill:#92d2ff;fill-opacity:1;" d="M 91.917969 53.4375 L 88.671875 53.4375 L 88.671875 51.273438 L 86.507812 51.273438 L 86.507812 55.601562 L 84.613281 55.601562 L 87.589844 60.363281 Z M 91.917969 53.4375 "></path><path style=" stroke:none;fill-rule:nonzero;fill:#000000;fill-opacity:1;" d="M 63.777344 47.757812 C 64.621094 47.75 65.367188 48.019531 66.011719 48.558594 C 66.261719 48.765625 66.542969 48.914062 66.851562 49.007812 C 67.160156 49.105469 67.472656 49.136719 67.792969 49.105469 C 68.117188 49.074219 68.417969 48.984375 68.703125 48.835938 C 68.988281 48.683594 69.234375 48.484375 69.441406 48.238281 C 69.648438 47.988281 69.796875 47.707031 69.890625 47.398438 C 69.984375 47.089844 70.015625 46.773438 69.984375 46.453125 C 69.957031 46.132812 69.867188 45.828125 69.714844 45.542969 C 69.5625 45.257812 69.363281 45.011719 69.113281 44.804688 C 68.707031 44.46875 68.273438 44.171875 67.808594 43.921875 C 67.347656 43.667969 66.863281 43.457031 66.359375 43.296875 C 65.859375 43.132812 65.34375 43.019531 64.820312 42.953125 C 64.296875 42.890625 63.769531 42.875 63.242188 42.90625 C 62.714844 42.9375 62.195312 43.019531 61.683594 43.152344 C 61.171875 43.285156 60.675781 43.464844 60.199219 43.691406 C 59.722656 43.914062 59.269531 44.183594 58.84375 44.492188 C 58.414062 44.804688 58.023438 45.152344 57.65625 45.539062 C 57.296875 45.921875 56.976562 46.339844 56.695312 46.785156 C 56.410156 47.230469 56.171875 47.699219 55.976562 48.191406 C 55.78125 48.683594 55.636719 49.1875 55.535156 49.707031 C 55.4375 50.226562 55.386719 50.75 55.386719 51.277344 C 55.386719 51.808594 55.4375 52.332031 55.535156 52.847656 C 55.636719 53.367188 55.78125 53.875 55.976562 54.363281 C 56.171875 54.855469 56.410156 55.324219 56.695312 55.769531 C 56.976562 56.21875 57.296875 56.628906 57.65625 57.019531 C 58.023438 57.402344 58.414062 57.753906 58.84375 58.0625 C 59.269531 58.371094 59.722656 58.640625 60.199219 58.867188 C 60.675781 59.09375 61.171875 59.269531 61.683594 59.398438 C 62.195312 59.53125 62.714844 59.617188 63.242188 59.648438 C 63.769531 59.683594 64.296875 59.667969 64.820312 59.601562 C 65.34375 59.535156 65.859375 59.421875 66.359375 59.257812 C 66.863281 59.097656 67.347656 58.890625 67.808594 58.636719 C 68.273438 58.378906 68.707031 58.085938 69.113281 57.75 C 69.363281 57.546875 69.5625 57.300781 69.714844 57.011719 C 69.867188 56.730469 69.957031 56.425781 69.988281 56.105469 C 70.019531 55.78125 69.984375 55.464844 69.890625 55.160156 C 69.796875 54.851562 69.648438 54.570312 69.441406 54.320312 C 69.238281 54.070312 68.992188 53.871094 68.703125 53.71875 C 68.421875 53.570312 68.117188 53.476562 67.796875 53.445312 C 67.476562 53.414062 67.160156 53.449219 66.851562 53.542969 C 66.542969 53.636719 66.261719 53.789062 66.011719 53.992188 C 65.367188 54.53125 64.617188 54.792969 63.777344 54.792969 C 63.542969 54.792969 63.3125 54.765625 63.089844 54.722656 C 62.859375 54.679688 62.640625 54.609375 62.429688 54.523438 C 62.214844 54.433594 62.011719 54.328125 61.820312 54.195312 C 61.628906 54.066406 61.449219 53.921875 61.285156 53.761719 C 61.125 53.597656 60.980469 53.417969 60.847656 53.226562 C 60.71875 53.035156 60.613281 52.832031 60.523438 52.621094 C 60.4375 52.40625 60.367188 52.1875 60.324219 51.957031 C 60.28125 51.734375 60.257812 51.503906 60.257812 51.273438 C 60.257812 51.042969 60.28125 50.8125 60.324219 50.585938 C 60.367188 50.359375 60.4375 50.140625 60.523438 49.925781 C 60.613281 49.710938 60.71875 49.507812 60.847656 49.316406 C 60.980469 49.125 61.125 48.949219 61.285156 48.785156 C 61.449219 48.621094 61.628906 48.476562 61.820312 48.347656 C 62.011719 48.21875 62.214844 48.109375 62.429688 48.019531 C 62.640625 47.933594 62.859375 47.867188 63.089844 47.820312 C 63.3125 47.777344 63.542969 47.757812 63.777344 47.757812 Z M 63.777344 56.414062 C 65.007812 56.417969 66.097656 56.027344 67.042969 55.238281 C 67.128906 55.171875 67.222656 55.121094 67.324219 55.089844 C 67.425781 55.058594 67.535156 55.046875 67.640625 55.058594 C 67.746094 55.070312 67.847656 55.101562 67.945312 55.148438 C 68.039062 55.199219 68.121094 55.265625 68.191406 55.347656 C 68.257812 55.433594 68.308594 55.523438 68.339844 55.625 C 68.367188 55.730469 68.382812 55.835938 68.371094 55.941406 C 68.359375 56.046875 68.328125 56.148438 68.28125 56.246094 C 68.230469 56.339844 68.164062 56.421875 68.078125 56.492188 C 67.753906 56.761719 67.402344 57 67.027344 57.203125 C 66.652344 57.410156 66.265625 57.578125 65.859375 57.710938 C 65.453125 57.839844 65.039062 57.929688 64.617188 57.984375 C 64.195312 58.039062 63.769531 58.050781 63.34375 58.023438 C 62.917969 57.996094 62.5 57.925781 62.085938 57.824219 C 61.675781 57.714844 61.277344 57.574219 60.890625 57.390625 C 60.503906 57.210938 60.140625 56.996094 59.796875 56.742188 C 59.449219 56.492188 59.132812 56.210938 58.839844 55.902344 C 58.550781 55.589844 58.289062 55.253906 58.0625 54.894531 C 57.832031 54.53125 57.644531 54.15625 57.484375 53.761719 C 57.328125 53.367188 57.210938 52.957031 57.132812 52.535156 C 57.050781 52.121094 57.011719 51.699219 57.011719 51.269531 C 57.011719 50.84375 57.050781 50.421875 57.132812 50.003906 C 57.210938 49.585938 57.328125 49.179688 57.484375 48.78125 C 57.644531 48.386719 57.832031 48.007812 58.0625 47.648438 C 58.289062 47.289062 58.550781 46.953125 58.839844 46.644531 C 59.132812 46.332031 59.449219 46.050781 59.796875 45.800781 C 60.140625 45.550781 60.503906 45.335938 60.890625 45.152344 C 61.277344 44.972656 61.675781 44.828125 62.085938 44.71875 C 62.5 44.613281 62.917969 44.546875 63.34375 44.519531 C 63.769531 44.492188 64.195312 44.507812 64.617188 44.558594 C 65.039062 44.609375 65.453125 44.703125 65.859375 44.835938 C 66.265625 44.964844 66.652344 45.132812 67.027344 45.335938 C 67.402344 45.542969 67.753906 45.78125 68.078125 46.050781 C 68.164062 46.121094 68.230469 46.203125 68.28125 46.300781 C 68.332031 46.394531 68.363281 46.492188 68.371094 46.601562 C 68.382812 46.707031 68.371094 46.8125 68.339844 46.917969 C 68.308594 47.019531 68.257812 47.113281 68.191406 47.195312 C 68.121094 47.277344 68.039062 47.347656 67.945312 47.394531 C 67.847656 47.445312 67.746094 47.476562 67.640625 47.484375 C 67.535156 47.496094 67.429688 47.484375 67.324219 47.453125 C 67.222656 47.421875 67.128906 47.375 67.046875 47.304688 C 66.097656 46.519531 65.007812 46.125 63.777344 46.128906 C 63.4375 46.128906 63.101562 46.164062 62.773438 46.226562 C 62.4375 46.296875 62.117188 46.394531 61.808594 46.519531 C 61.496094 46.648438 61.199219 46.808594 60.917969 47 C 60.636719 47.1875 60.378906 47.398438 60.136719 47.636719 C 59.902344 47.875 59.6875 48.136719 59.5 48.414062 C 59.3125 48.695312 59.152344 48.996094 59.023438 49.304688 C 58.894531 49.617188 58.796875 49.9375 58.734375 50.269531 C 58.664062 50.597656 58.632812 50.933594 58.632812 51.273438 C 58.632812 51.609375 58.664062 51.945312 58.734375 52.273438 C 58.796875 52.609375 58.894531 52.929688 59.023438 53.238281 C 59.152344 53.554688 59.3125 53.847656 59.5 54.128906 C 59.6875 54.410156 59.902344 54.667969 60.136719 54.910156 C 60.378906 55.144531 60.636719 55.363281 60.917969 55.546875 C 61.199219 55.734375 61.496094 55.894531 61.808594 56.023438 C 62.117188 56.152344 62.4375 56.25 62.773438 56.316406 C 63.101562 56.382812 63.4375 56.414062 63.777344 56.414062 Z M 63.777344 56.414062 "></path><path style=" stroke:none;fill-rule:nonzero;fill:#000000;fill-opacity:1;" d="M 40.355469 62.53125 C 40.429688 62.648438 40.527344 62.742188 40.652344 62.808594 C 40.769531 62.878906 40.902344 62.910156 41.042969 62.910156 C 41.183594 62.910156 41.3125 62.878906 41.4375 62.808594 C 41.558594 62.742188 41.65625 62.648438 41.730469 62.53125 L 47.144531 53.871094 C 47.3125 53.601562 47.324219 53.324219 47.164062 53.046875 C 47.011719 52.765625 46.773438 52.625 46.453125 52.625 L 44.019531 52.625 L 44.019531 49.109375 C 44.019531 49 44 48.894531 43.960938 48.796875 C 43.917969 48.699219 43.859375 48.609375 43.78125 48.53125 C 43.707031 48.457031 43.617188 48.398438 43.519531 48.355469 C 43.421875 48.316406 43.316406 48.296875 43.207031 48.296875 L 38.875 48.296875 C 38.769531 48.296875 38.667969 48.316406 38.566406 48.355469 C 38.464844 48.398438 38.378906 48.457031 38.304688 48.53125 C 38.226562 48.609375 38.167969 48.699219 38.128906 48.796875 C 38.085938 48.894531 38.066406 49 38.066406 49.109375 L 38.066406 52.625 L 35.628906 52.625 C 35.308594 52.625 35.070312 52.765625 34.917969 53.046875 C 34.765625 53.324219 34.769531 53.601562 34.941406 53.871094 Z M 38.875 54.25 C 38.984375 54.25 39.089844 54.226562 39.1875 54.1875 C 39.289062 54.144531 39.375 54.085938 39.453125 54.011719 C 39.53125 53.933594 39.589844 53.847656 39.628906 53.746094 C 39.667969 53.648438 39.691406 53.542969 39.691406 53.4375 L 39.691406 49.917969 L 42.394531 49.917969 L 42.394531 53.4375 C 42.394531 53.542969 42.414062 53.648438 42.460938 53.746094 C 42.5 53.847656 42.558594 53.933594 42.632812 54.011719 C 42.707031 54.085938 42.796875 54.144531 42.894531 54.1875 C 42.996094 54.226562 43.101562 54.25 43.207031 54.25 L 44.988281 54.25 L 41.042969 60.566406 L 37.097656 54.25 Z M 38.875 54.25 "></path><path style=" stroke:none;fill-rule:nonzero;fill:#000000;fill-opacity:1;" d="M 89.484375 49.109375 C 89.484375 49 89.464844 48.894531 89.421875 48.796875 C 89.382812 48.699219 89.324219 48.609375 89.246094 48.53125 C 89.167969 48.457031 89.082031 48.398438 88.984375 48.355469 C 88.882812 48.316406 88.78125 48.296875 88.671875 48.296875 L 84.339844 48.296875 C 84.234375 48.296875 84.132812 48.316406 84.03125 48.355469 C 83.929688 48.398438 83.84375 48.457031 83.769531 48.53125 C 83.691406 48.609375 83.632812 48.699219 83.59375 48.796875 C 83.550781 48.894531 83.53125 49 83.53125 49.109375 L 83.53125 52.625 L 81.09375 52.625 C 80.773438 52.625 80.535156 52.765625 80.382812 53.046875 C 80.230469 53.324219 80.234375 53.597656 80.40625 53.867188 L 85.816406 62.527344 C 85.894531 62.648438 85.988281 62.738281 86.113281 62.808594 C 86.234375 62.875 86.367188 62.910156 86.507812 62.910156 C 86.644531 62.910156 86.777344 62.875 86.902344 62.808594 C 87.019531 62.738281 87.121094 62.648438 87.195312 62.527344 L 92.605469 53.867188 C 92.777344 53.597656 92.785156 53.324219 92.628906 53.046875 C 92.472656 52.765625 92.238281 52.625 91.917969 52.625 L 89.484375 52.625 Z M 90.460938 54.25 L 86.507812 60.566406 L 82.5625 54.25 L 84.339844 54.25 C 84.449219 54.25 84.554688 54.226562 84.652344 54.1875 C 84.75 54.144531 84.839844 54.085938 84.914062 54.011719 C 84.992188 53.933594 85.050781 53.847656 85.09375 53.746094 C 85.132812 53.648438 85.15625 53.542969 85.15625 53.4375 L 85.15625 49.917969 L 87.859375 49.917969 L 87.859375 53.4375 C 87.859375 53.542969 87.878906 53.648438 87.921875 53.746094 C 87.964844 53.847656 88.023438 53.933594 88.097656 54.011719 C 88.171875 54.085938 88.261719 54.144531 88.359375 54.1875 C 88.460938 54.226562 88.566406 54.25 88.671875 54.25 Z M 90.460938 54.25 "></path><g clip-rule="nonzero" clip-path="url(#c69da8dedb)"><path style=" stroke:none;fill-rule:nonzero;fill:#000000;fill-opacity:1;" d="M 97.332031 65.617188 L 82.515625 65.617188 C 82.386719 65.371094 82.238281 65.140625 82.0625 64.925781 C 81.882812 64.710938 81.6875 64.515625 81.46875 64.34375 C 81.253906 64.167969 81.023438 64.019531 80.777344 63.890625 C 80.53125 63.765625 80.273438 63.667969 80.003906 63.59375 C 79.734375 63.519531 79.464844 63.472656 79.1875 63.457031 C 78.910156 63.4375 78.636719 63.449219 78.359375 63.488281 C 78.085938 63.527344 77.816406 63.59375 77.554688 63.6875 C 77.296875 63.78125 77.046875 63.902344 76.808594 64.046875 L 72.285156 59.195312 C 72.683594 58.769531 73.046875 58.3125 73.378906 57.832031 C 73.710938 57.347656 74.003906 56.84375 74.257812 56.316406 C 74.511719 55.789062 74.722656 55.246094 74.894531 54.6875 C 75.070312 54.125 75.199219 53.554688 75.285156 52.980469 C 75.371094 52.402344 75.414062 51.820312 75.410156 51.234375 C 75.40625 50.648438 75.363281 50.066406 75.273438 49.488281 C 75.183594 48.90625 75.050781 48.339844 74.875 47.785156 C 74.699219 47.222656 74.484375 46.679688 74.226562 46.15625 L 79.410156 43.152344 C 79.570312 43.359375 79.738281 43.554688 79.921875 43.738281 C 80.105469 43.925781 80.300781 44.097656 80.503906 44.257812 C 80.710938 44.417969 80.921875 44.5625 81.144531 44.695312 C 81.367188 44.828125 81.597656 44.945312 81.835938 45.050781 C 82.074219 45.15625 82.316406 45.246094 82.566406 45.316406 C 82.816406 45.390625 83.070312 45.449219 83.324219 45.492188 C 83.582031 45.53125 83.839844 45.558594 84.097656 45.570312 C 84.359375 45.578125 84.617188 45.570312 84.878906 45.546875 C 85.136719 45.527344 85.390625 45.484375 85.644531 45.429688 C 85.898438 45.375 86.148438 45.304688 86.394531 45.21875 C 86.640625 45.132812 86.875 45.03125 87.109375 44.914062 C 87.339844 44.796875 87.566406 44.667969 87.78125 44.519531 C 87.996094 44.375 88.199219 44.21875 88.398438 44.046875 C 88.59375 43.878906 88.78125 43.695312 88.953125 43.5 C 89.125 43.308594 89.285156 43.105469 89.433594 42.890625 C 89.582031 42.675781 89.714844 42.453125 89.832031 42.222656 C 89.953125 41.992188 90.058594 41.753906 90.148438 41.511719 C 90.238281 41.269531 90.3125 41.019531 90.371094 40.765625 C 90.429688 40.515625 90.472656 40.257812 90.496094 40 C 90.523438 39.742188 90.53125 39.480469 90.527344 39.222656 C 90.519531 38.964844 90.5 38.707031 90.460938 38.445312 C 90.421875 38.191406 90.371094 37.9375 90.300781 37.6875 C 90.226562 37.4375 90.140625 37.191406 90.039062 36.953125 C 89.9375 36.714844 89.824219 36.480469 89.695312 36.257812 C 89.5625 36.03125 89.421875 35.816406 89.265625 35.609375 C 89.105469 35.402344 88.9375 35.207031 88.753906 35.019531 C 88.570312 34.835938 88.378906 34.664062 88.175781 34.5 C 87.972656 34.339844 87.761719 34.191406 87.535156 34.058594 C 87.3125 33.925781 87.085938 33.804688 86.847656 33.699219 C 86.613281 33.59375 86.367188 33.503906 86.117188 33.429688 C 85.867188 33.351562 85.617188 33.292969 85.359375 33.25 C 85.105469 33.207031 84.847656 33.179688 84.585938 33.167969 C 84.328125 33.15625 84.070312 33.164062 83.8125 33.183594 C 83.550781 33.207031 83.292969 33.242188 83.042969 33.296875 C 82.785156 33.351562 82.535156 33.417969 82.292969 33.503906 C 82.046875 33.589844 81.804688 33.691406 81.574219 33.804688 C 81.339844 33.921875 81.117188 34.050781 80.898438 34.191406 C 80.683594 34.335938 80.476562 34.496094 80.28125 34.664062 C 80.082031 34.832031 79.894531 35.011719 79.722656 35.207031 C 79.546875 35.398438 79.386719 35.601562 79.238281 35.8125 C 79.089844 36.027344 78.957031 36.246094 78.832031 36.476562 C 78.714844 36.707031 78.609375 36.945312 78.515625 37.1875 C 78.421875 37.429688 78.351562 37.679688 78.289062 37.933594 C 78.230469 38.183594 78.183594 38.441406 78.15625 38.695312 C 78.128906 38.953125 78.117188 39.214844 78.121094 39.476562 C 78.125 39.734375 78.144531 39.992188 78.183594 40.25 C 78.21875 40.507812 78.273438 40.761719 78.34375 41.007812 C 78.410156 41.261719 78.496094 41.503906 78.597656 41.746094 L 73.410156 44.753906 C 73.132812 44.351562 72.835938 43.964844 72.515625 43.597656 C 72.191406 43.230469 71.851562 42.882812 71.484375 42.558594 C 71.117188 42.234375 70.730469 41.9375 70.328125 41.660156 C 69.925781 41.386719 69.503906 41.136719 69.070312 40.914062 C 68.636719 40.6875 68.1875 40.496094 67.726562 40.328125 C 67.269531 40.164062 66.800781 40.027344 66.324219 39.917969 C 65.847656 39.8125 65.367188 39.734375 64.878906 39.6875 C 64.390625 39.640625 63.90625 39.625 63.414062 39.640625 C 62.929688 39.65625 62.441406 39.699219 61.957031 39.777344 C 61.476562 39.855469 61 39.960938 60.53125 40.097656 C 60.0625 40.234375 59.601562 40.398438 59.15625 40.589844 C 58.707031 40.785156 58.269531 41.007812 57.847656 41.257812 C 57.429688 41.503906 57.027344 41.78125 56.640625 42.078125 C 56.253906 42.378906 55.890625 42.699219 55.542969 43.046875 C 55.195312 43.394531 54.875 43.761719 54.578125 44.144531 C 54.277344 44.53125 54.003906 44.9375 53.753906 45.355469 L 49.195312 43.074219 C 49.261719 42.871094 49.308594 42.664062 49.351562 42.453125 C 49.390625 42.242188 49.414062 42.03125 49.425781 41.816406 C 49.4375 41.605469 49.4375 41.386719 49.425781 41.175781 C 49.410156 40.964844 49.382812 40.75 49.34375 40.542969 C 49.304688 40.332031 49.25 40.121094 49.183594 39.917969 C 49.117188 39.714844 49.039062 39.519531 48.949219 39.324219 C 48.855469 39.128906 48.753906 38.941406 48.640625 38.761719 C 48.527344 38.582031 48.402344 38.40625 48.265625 38.242188 C 48.128906 38.078125 47.984375 37.921875 47.828125 37.773438 C 47.675781 37.628906 47.511719 37.488281 47.339844 37.363281 C 47.164062 37.234375 46.988281 37.117188 46.800781 37.015625 C 46.613281 36.910156 46.421875 36.816406 46.222656 36.738281 C 46.023438 36.65625 45.824219 36.589844 45.617188 36.535156 C 45.40625 36.476562 45.199219 36.433594 44.988281 36.40625 C 44.777344 36.375 44.5625 36.359375 44.347656 36.355469 C 44.136719 36.355469 43.921875 36.363281 43.710938 36.390625 C 43.492188 36.410156 43.285156 36.449219 43.078125 36.496094 C 42.867188 36.550781 42.664062 36.609375 42.464844 36.683594 C 42.265625 36.761719 42.066406 36.847656 41.878906 36.945312 C 41.6875 37.046875 41.507812 37.160156 41.332031 37.277344 C 41.15625 37.402344 40.988281 37.535156 40.828125 37.679688 C 40.667969 37.820312 40.519531 37.976562 40.378906 38.136719 C 40.242188 38.300781 40.113281 38.46875 39.992188 38.644531 C 39.871094 38.824219 39.765625 39.007812 39.667969 39.199219 C 39.574219 39.390625 39.488281 39.585938 39.417969 39.789062 C 39.347656 39.988281 39.285156 40.195312 39.238281 40.40625 C 39.195312 40.613281 39.164062 40.824219 39.140625 41.039062 C 39.121094 41.25 39.117188 41.464844 39.121094 41.679688 C 39.128906 41.890625 39.152344 42.101562 39.183594 42.316406 C 39.214844 42.527344 39.261719 42.734375 39.324219 42.941406 C 39.382812 43.148438 39.453125 43.347656 39.539062 43.546875 C 39.621094 43.742188 39.71875 43.933594 39.824219 44.117188 C 39.933594 44.304688 40.054688 44.476562 40.183594 44.652344 C 40.3125 44.820312 40.453125 44.980469 40.605469 45.132812 C 40.753906 45.285156 40.914062 45.425781 41.082031 45.558594 C 41.25 45.695312 41.425781 45.816406 41.605469 45.925781 C 41.789062 46.035156 41.976562 46.136719 42.175781 46.226562 C 42.371094 46.3125 42.570312 46.386719 42.777344 46.445312 C 42.980469 46.511719 43.1875 46.5625 43.398438 46.597656 C 43.609375 46.632812 43.820312 46.65625 44.035156 46.664062 C 44.25 46.679688 44.460938 46.675781 44.675781 46.65625 C 44.890625 46.640625 45.101562 46.609375 45.3125 46.566406 C 45.519531 46.523438 45.726562 46.46875 45.929688 46.402344 C 46.132812 46.332031 46.332031 46.253906 46.523438 46.15625 C 46.714844 46.066406 46.902344 45.960938 47.078125 45.84375 C 47.261719 45.730469 47.433594 45.601562 47.597656 45.464844 C 47.761719 45.324219 47.914062 45.175781 48.058594 45.019531 C 48.207031 44.863281 48.34375 44.699219 48.464844 44.523438 L 53.027344 46.808594 C 52.78125 47.402344 52.585938 48.011719 52.441406 48.636719 C 52.296875 49.261719 52.199219 49.898438 52.160156 50.539062 C 52.121094 51.179688 52.132812 51.820312 52.195312 52.460938 C 52.261719 53.101562 52.382812 53.730469 52.550781 54.347656 C 52.71875 54.96875 52.9375 55.570312 53.210938 56.15625 C 53.476562 56.738281 53.796875 57.296875 54.15625 57.824219 C 54.519531 58.359375 54.921875 58.855469 55.367188 59.320312 C 55.8125 59.785156 56.289062 60.210938 56.808594 60.59375 C 57.324219 60.980469 57.863281 61.320312 58.4375 61.613281 C 59.007812 61.90625 59.597656 62.152344 60.210938 62.351562 C 60.820312 62.546875 61.445312 62.691406 62.085938 62.785156 C 62.71875 62.878906 63.359375 62.917969 64 62.90625 C 64.644531 62.894531 65.28125 62.824219 65.914062 62.707031 C 66.546875 62.589844 67.164062 62.417969 67.769531 62.199219 C 68.371094 61.980469 68.949219 61.707031 69.511719 61.390625 C 70.070312 61.074219 70.597656 60.710938 71.097656 60.308594 L 75.625 65.15625 C 75.519531 65.300781 75.421875 65.457031 75.339844 65.617188 L 30.21875 65.617188 C 30.109375 65.617188 30.007812 65.636719 29.90625 65.679688 C 29.808594 65.71875 29.722656 65.777344 29.644531 65.855469 C 29.566406 65.925781 29.507812 66.015625 29.46875 66.117188 C 29.425781 66.21875 29.40625 66.320312 29.40625 66.425781 L 29.40625 101.066406 C 29.40625 101.175781 29.425781 101.277344 29.46875 101.378906 C 29.507812 101.476562 29.566406 101.5625 29.644531 101.640625 C 29.722656 101.714844 29.808594 101.773438 29.90625 101.816406 C 30.007812 101.859375 30.109375 101.875 30.21875 101.875 L 97.332031 101.875 C 97.4375 101.875 97.542969 101.859375 97.644531 101.816406 C 97.742188 101.773438 97.832031 101.714844 97.90625 101.640625 C 97.980469 101.5625 98.039062 101.476562 98.082031 101.378906 C 98.125 101.277344 98.140625 101.175781 98.140625 101.066406 L 98.140625 66.425781 C 98.140625 66.320312 98.125 66.21875 98.082031 66.117188 C 98.039062 66.015625 97.980469 65.925781 97.90625 65.855469 C 97.832031 65.777344 97.742188 65.71875 97.644531 65.679688 C 97.542969 65.636719 97.4375 65.617188 97.332031 65.617188 Z M 84.339844 34.765625 C 84.644531 34.765625 84.941406 34.792969 85.238281 34.851562 C 85.535156 34.914062 85.824219 35 86.101562 35.113281 C 86.378906 35.230469 86.644531 35.371094 86.898438 35.539062 C 87.148438 35.707031 87.382812 35.898438 87.59375 36.113281 C 87.808594 36.328125 87.996094 36.558594 88.167969 36.808594 C 88.332031 37.058594 88.476562 37.324219 88.59375 37.605469 C 88.707031 37.882812 88.796875 38.171875 88.855469 38.46875 C 88.914062 38.765625 88.945312 39.0625 88.945312 39.363281 C 88.945312 39.667969 88.914062 39.964844 88.855469 40.265625 C 88.796875 40.558594 88.707031 40.847656 88.59375 41.125 C 88.476562 41.402344 88.332031 41.667969 88.167969 41.921875 C 87.996094 42.171875 87.808594 42.40625 87.59375 42.617188 C 87.382812 42.832031 87.148438 43.019531 86.898438 43.191406 C 86.644531 43.355469 86.378906 43.5 86.101562 43.617188 C 85.824219 43.730469 85.535156 43.820312 85.238281 43.878906 C 84.941406 43.9375 84.644531 43.96875 84.339844 43.96875 C 84.039062 43.96875 83.742188 43.9375 83.445312 43.878906 C 83.148438 43.820312 82.859375 43.730469 82.582031 43.617188 C 82.300781 43.5 82.035156 43.355469 81.785156 43.191406 C 81.535156 43.019531 81.300781 42.832031 81.089844 42.617188 C 80.875 42.40625 80.683594 42.171875 80.515625 41.921875 C 80.347656 41.667969 80.207031 41.402344 80.089844 41.125 C 79.976562 40.847656 79.886719 40.558594 79.828125 40.265625 C 79.769531 39.964844 79.742188 39.667969 79.742188 39.363281 C 79.742188 39.0625 79.769531 38.765625 79.832031 38.46875 C 79.890625 38.171875 79.976562 37.882812 80.09375 37.605469 C 80.207031 37.324219 80.347656 37.058594 80.519531 36.8125 C 80.683594 36.558594 80.875 36.328125 81.089844 36.113281 C 81.304688 35.898438 81.535156 35.707031 81.789062 35.542969 C 82.035156 35.371094 82.300781 35.230469 82.582031 35.117188 C 82.859375 35 83.148438 34.914062 83.445312 34.855469 C 83.742188 34.796875 84.039062 34.765625 84.339844 34.765625 Z M 44.289062 45.046875 C 44.058594 45.046875 43.828125 45.027344 43.605469 44.980469 C 43.378906 44.933594 43.160156 44.871094 42.941406 44.78125 C 42.730469 44.691406 42.527344 44.582031 42.335938 44.457031 C 42.144531 44.328125 41.964844 44.183594 41.804688 44.019531 C 41.640625 43.855469 41.496094 43.675781 41.367188 43.484375 C 41.234375 43.292969 41.128906 43.089844 41.039062 42.875 C 40.953125 42.664062 40.886719 42.441406 40.839844 42.21875 C 40.796875 41.988281 40.769531 41.761719 40.769531 41.53125 C 40.769531 41.300781 40.796875 41.070312 40.839844 40.84375 C 40.886719 40.617188 40.953125 40.398438 41.039062 40.183594 C 41.128906 39.972656 41.234375 39.769531 41.367188 39.574219 C 41.496094 39.382812 41.640625 39.203125 41.804688 39.042969 C 41.964844 38.878906 42.144531 38.734375 42.335938 38.605469 C 42.527344 38.476562 42.730469 38.371094 42.941406 38.28125 C 43.160156 38.191406 43.378906 38.125 43.605469 38.082031 C 43.828125 38.035156 44.058594 38.011719 44.289062 38.011719 C 44.519531 38.011719 44.75 38.035156 44.976562 38.082031 C 45.203125 38.125 45.421875 38.191406 45.636719 38.28125 C 45.851562 38.371094 46.054688 38.476562 46.246094 38.605469 C 46.4375 38.734375 46.613281 38.878906 46.777344 39.042969 C 46.941406 39.203125 47.085938 39.382812 47.214844 39.574219 C 47.34375 39.769531 47.453125 39.972656 47.542969 40.183594 C 47.628906 40.398438 47.695312 40.617188 47.742188 40.84375 C 47.785156 41.070312 47.808594 41.300781 47.808594 41.53125 C 47.808594 41.761719 47.785156 41.988281 47.738281 42.21875 C 47.695312 42.441406 47.628906 42.664062 47.539062 42.875 C 47.449219 43.089844 47.339844 43.292969 47.214844 43.484375 C 47.085938 43.675781 46.941406 43.851562 46.777344 44.015625 C 46.613281 44.179688 46.4375 44.324219 46.246094 44.453125 C 46.050781 44.582031 45.847656 44.691406 45.636719 44.78125 C 45.421875 44.867188 45.203125 44.933594 44.976562 44.980469 C 44.75 45.027344 44.519531 45.046875 44.289062 45.046875 Z M 63.777344 61.285156 C 63.117188 61.285156 62.464844 61.222656 61.820312 61.09375 C 61.175781 60.964844 60.550781 60.773438 59.945312 60.523438 C 59.335938 60.273438 58.757812 59.964844 58.210938 59.597656 C 57.664062 59.234375 57.160156 58.816406 56.695312 58.351562 C 56.230469 57.886719 55.816406 57.382812 55.449219 56.835938 C 55.082031 56.289062 54.773438 55.710938 54.523438 55.101562 C 54.273438 54.496094 54.082031 53.871094 53.957031 53.226562 C 53.824219 52.578125 53.761719 51.929688 53.761719 51.273438 C 53.761719 50.613281 53.824219 49.964844 53.957031 49.316406 C 54.082031 48.675781 54.273438 48.046875 54.523438 47.441406 C 54.773438 46.832031 55.082031 46.253906 55.449219 45.710938 C 55.816406 45.164062 56.230469 44.65625 56.695312 44.191406 C 57.160156 43.726562 57.664062 43.3125 58.210938 42.949219 C 58.757812 42.582031 59.335938 42.273438 59.945312 42.023438 C 60.550781 41.769531 61.175781 41.578125 61.820312 41.453125 C 62.464844 41.324219 63.117188 41.257812 63.777344 41.257812 C 64.433594 41.257812 65.082031 41.324219 65.730469 41.453125 C 66.371094 41.578125 67 41.769531 67.605469 42.023438 C 68.214844 42.273438 68.789062 42.582031 69.335938 42.949219 C 69.882812 43.3125 70.390625 43.726562 70.855469 44.191406 C 71.320312 44.65625 71.734375 45.164062 72.097656 45.710938 C 72.464844 46.253906 72.773438 46.832031 73.027344 47.441406 C 73.277344 48.046875 73.46875 48.675781 73.597656 49.316406 C 73.722656 49.964844 73.789062 50.613281 73.789062 51.273438 C 73.789062 51.929688 73.722656 52.578125 73.59375 53.222656 C 73.464844 53.871094 73.273438 54.496094 73.023438 55.101562 C 72.769531 55.710938 72.460938 56.285156 72.097656 56.835938 C 71.734375 57.378906 71.316406 57.882812 70.851562 58.351562 C 70.386719 58.816406 69.882812 59.230469 69.335938 59.59375 C 68.789062 59.960938 68.210938 60.269531 67.605469 60.519531 C 67 60.769531 66.371094 60.960938 65.726562 61.089844 C 65.082031 61.222656 64.433594 61.285156 63.777344 61.285156 Z M 78.929688 65.074219 C 79.253906 65.074219 79.5625 65.136719 79.863281 65.257812 C 80.160156 65.382812 80.421875 65.558594 80.652344 65.785156 C 80.878906 66.015625 81.054688 66.277344 81.179688 66.578125 C 81.304688 66.875 81.367188 67.1875 81.367188 67.511719 C 81.367188 67.832031 81.304688 68.144531 81.179688 68.441406 C 81.054688 68.738281 80.878906 69.003906 80.652344 69.234375 C 80.421875 69.460938 80.160156 69.636719 79.863281 69.761719 C 79.5625 69.882812 79.253906 69.945312 78.929688 69.945312 C 78.605469 69.945312 78.292969 69.882812 78 69.761719 C 77.699219 69.636719 77.433594 69.460938 77.207031 69.234375 C 76.980469 69.003906 76.804688 68.738281 76.679688 68.441406 C 76.558594 68.144531 76.492188 67.832031 76.492188 67.511719 C 76.496094 67.1875 76.558594 66.875 76.679688 66.578125 C 76.804688 66.277344 76.980469 66.015625 77.207031 65.789062 C 77.433594 65.5625 77.699219 65.386719 78 65.257812 C 78.296875 65.136719 78.605469 65.074219 78.929688 65.074219 Z M 31.03125 67.238281 L 74.882812 67.238281 C 74.871094 67.328125 74.867188 67.417969 74.867188 67.511719 C 74.867188 68.414062 75.140625 69.222656 75.683594 69.945312 L 31.03125 69.945312 Z M 96.519531 100.253906 L 31.03125 100.253906 L 31.03125 80.28125 C 31.804688 80.414062 32.503906 80.710938 33.128906 81.179688 C 34.253906 82.011719 35.519531 82.417969 36.917969 82.394531 C 38.320312 82.417969 39.578125 82.015625 40.707031 81.179688 C 41.566406 80.523438 42.539062 80.207031 43.621094 80.226562 C 44.703125 80.207031 45.675781 80.523438 46.535156 81.179688 C 47.660156 82.015625 48.929688 82.417969 50.328125 82.394531 C 51.730469 82.417969 52.996094 82.015625 54.125 81.179688 C 54.550781 80.871094 55.007812 80.632812 55.507812 80.46875 C 56.003906 80.308594 56.515625 80.226562 57.042969 80.226562 C 57.566406 80.226562 58.078125 80.308594 58.574219 80.46875 C 59.070312 80.632812 59.535156 80.871094 59.957031 81.179688 C 60.511719 81.574219 61.109375 81.875 61.757812 82.082031 C 62.40625 82.289062 63.070312 82.394531 63.75 82.394531 C 64.433594 82.394531 65.09375 82.289062 65.742188 82.082031 C 66.390625 81.875 66.992188 81.574219 67.546875 81.179688 C 67.96875 80.871094 68.429688 80.632812 68.925781 80.46875 C 69.425781 80.308594 69.9375 80.226562 70.460938 80.226562 C 70.984375 80.226562 71.496094 80.308594 71.996094 80.46875 C 72.492188 80.632812 72.953125 80.871094 73.378906 81.179688 C 73.933594 81.574219 74.53125 81.875 75.179688 82.082031 C 75.828125 82.289062 76.492188 82.394531 77.171875 82.394531 C 77.855469 82.394531 78.515625 82.289062 79.164062 82.082031 C 79.8125 81.875 80.414062 81.574219 80.96875 81.179688 C 81.394531 80.871094 81.851562 80.632812 82.351562 80.46875 C 82.851562 80.308594 83.363281 80.226562 83.886719 80.226562 C 84.410156 80.226562 84.921875 80.308594 85.421875 80.46875 C 85.917969 80.632812 86.378906 80.871094 86.804688 81.179688 C 87.359375 81.574219 87.960938 81.875 88.609375 82.082031 C 89.257812 82.289062 89.921875 82.394531 90.605469 82.394531 C 91.285156 82.394531 91.949219 82.289062 92.597656 82.082031 C 93.246094 81.875 93.847656 81.574219 94.402344 81.179688 C 95.035156 80.710938 95.734375 80.414062 96.511719 80.28125 Z M 96.519531 78.648438 C 95.421875 78.773438 94.421875 79.164062 93.53125 79.816406 C 93.109375 80.125 92.644531 80.363281 92.148438 80.527344 C 91.648438 80.6875 91.136719 80.769531 90.613281 80.769531 C 90.085938 80.769531 89.574219 80.6875 89.074219 80.527344 C 88.578125 80.363281 88.117188 80.125 87.691406 79.816406 C 87.136719 79.421875 86.539062 79.121094 85.886719 78.914062 C 85.242188 78.707031 84.574219 78.605469 83.894531 78.605469 C 83.214844 78.605469 82.550781 78.707031 81.902344 78.914062 C 81.253906 79.121094 80.652344 79.421875 80.097656 79.816406 C 79.675781 80.125 79.210938 80.363281 78.714844 80.527344 C 78.21875 80.6875 77.707031 80.769531 77.183594 80.769531 C 76.65625 80.769531 76.144531 80.6875 75.648438 80.527344 C 75.148438 80.363281 74.6875 80.125 74.265625 79.816406 C 73.710938 79.421875 73.109375 79.121094 72.460938 78.914062 C 71.8125 78.707031 71.152344 78.605469 70.46875 78.605469 C 69.789062 78.605469 69.125 78.707031 68.480469 78.914062 C 67.828125 79.121094 67.230469 79.421875 66.675781 79.816406 C 66.253906 80.125 65.789062 80.363281 65.292969 80.527344 C 64.796875 80.6875 64.285156 80.769531 63.761719 80.769531 C 63.238281 80.769531 62.726562 80.6875 62.226562 80.527344 C 61.726562 80.363281 61.269531 80.125 60.84375 79.816406 C 60.289062 79.421875 59.6875 79.121094 59.042969 78.914062 C 58.394531 78.707031 57.730469 78.605469 57.046875 78.605469 C 56.371094 78.605469 55.703125 78.707031 55.058594 78.914062 C 54.40625 79.121094 53.808594 79.421875 53.253906 79.816406 C 52.832031 80.125 52.371094 80.363281 51.871094 80.527344 C 51.375 80.6875 50.863281 80.769531 50.339844 80.769531 C 49.816406 80.769531 49.304688 80.6875 48.804688 80.527344 C 48.308594 80.363281 47.847656 80.125 47.425781 79.816406 C 46.296875 78.984375 45.035156 78.582031 43.636719 78.605469 C 42.234375 78.578125 40.96875 78.984375 39.839844 79.816406 C 38.980469 80.472656 38.007812 80.792969 36.925781 80.769531 C 35.84375 80.792969 34.867188 80.476562 34.007812 79.816406 C 33.117188 79.164062 32.125 78.777344 31.03125 78.648438 L 31.03125 71.566406 L 96.519531 71.566406 Z M 96.519531 69.945312 L 82.175781 69.945312 C 82.722656 69.222656 82.988281 68.414062 82.988281 67.511719 C 82.988281 67.417969 82.988281 67.328125 82.980469 67.238281 L 96.519531 67.238281 Z M 96.519531 69.945312 "></path></g><path style=" stroke:none;fill-rule:nonzero;fill:#000000;fill-opacity:1;" d="M 37.796875 89.429688 C 37.53125 89.429688 37.265625 89.457031 37.003906 89.507812 C 36.742188 89.558594 36.488281 89.636719 36.242188 89.738281 C 35.996094 89.839844 35.761719 89.964844 35.539062 90.113281 C 35.320312 90.261719 35.113281 90.429688 34.925781 90.617188 C 34.734375 90.804688 34.566406 91.011719 34.417969 91.234375 C 34.269531 91.457031 34.148438 91.691406 34.046875 91.9375 C 33.941406 92.183594 33.863281 92.433594 33.816406 92.695312 C 33.761719 92.957031 33.734375 93.222656 33.734375 93.488281 C 33.734375 93.757812 33.761719 94.019531 33.816406 94.28125 C 33.863281 94.542969 33.941406 94.792969 34.046875 95.042969 C 34.148438 95.289062 34.269531 95.523438 34.417969 95.742188 C 34.566406 95.964844 34.734375 96.171875 34.925781 96.359375 C 35.113281 96.546875 35.320312 96.71875 35.539062 96.863281 C 35.761719 97.011719 35.996094 97.136719 36.242188 97.238281 C 36.488281 97.34375 36.742188 97.417969 37.003906 97.46875 C 37.265625 97.519531 37.53125 97.550781 37.796875 97.550781 C 38.0625 97.550781 38.324219 97.519531 38.585938 97.46875 C 38.847656 97.417969 39.101562 97.34375 39.347656 97.238281 C 39.59375 97.136719 39.828125 97.011719 40.050781 96.863281 C 40.273438 96.71875 40.476562 96.546875 40.667969 96.359375 C 40.855469 96.171875 41.023438 95.964844 41.171875 95.742188 C 41.320312 95.523438 41.441406 95.289062 41.542969 95.042969 C 41.648438 94.792969 41.726562 94.542969 41.773438 94.28125 C 41.828125 94.019531 41.855469 93.757812 41.855469 93.488281 C 41.855469 93.222656 41.828125 92.957031 41.773438 92.695312 C 41.722656 92.433594 41.644531 92.183594 41.542969 91.9375 C 41.441406 91.691406 41.316406 91.457031 41.167969 91.234375 C 41.019531 91.011719 40.851562 90.808594 40.664062 90.621094 C 40.476562 90.433594 40.273438 90.261719 40.050781 90.117188 C 39.828125 89.96875 39.59375 89.839844 39.347656 89.738281 C 39.101562 89.636719 38.847656 89.5625 38.585938 89.507812 C 38.324219 89.457031 38.0625 89.429688 37.796875 89.429688 Z M 37.796875 95.925781 C 37.472656 95.925781 37.160156 95.863281 36.863281 95.738281 C 36.566406 95.613281 36.300781 95.4375 36.074219 95.210938 C 35.84375 94.984375 35.667969 94.71875 35.546875 94.421875 C 35.421875 94.125 35.359375 93.8125 35.359375 93.488281 C 35.359375 93.164062 35.421875 92.855469 35.546875 92.554688 C 35.667969 92.257812 35.84375 91.996094 36.074219 91.765625 C 36.300781 91.539062 36.566406 91.363281 36.863281 91.238281 C 37.160156 91.113281 37.472656 91.050781 37.796875 91.050781 C 38.117188 91.050781 38.429688 91.113281 38.730469 91.238281 C 39.023438 91.363281 39.289062 91.539062 39.515625 91.765625 C 39.746094 91.996094 39.921875 92.257812 40.042969 92.554688 C 40.171875 92.855469 40.230469 93.164062 40.230469 93.488281 C 40.230469 93.8125 40.167969 94.125 40.042969 94.417969 C 39.921875 94.71875 39.746094 94.984375 39.515625 95.210938 C 39.289062 95.4375 39.023438 95.613281 38.726562 95.738281 C 38.429688 95.859375 38.117188 95.925781 37.796875 95.925781 Z M 37.796875 95.925781 "></path><path style=" stroke:none;fill-rule:nonzero;fill:#000000;fill-opacity:1;" d="M 69.1875 82.933594 C 68.921875 82.933594 68.65625 82.960938 68.394531 83.011719 C 68.136719 83.0625 67.878906 83.140625 67.632812 83.242188 C 67.386719 83.34375 67.152344 83.472656 66.929688 83.617188 C 66.710938 83.765625 66.503906 83.9375 66.316406 84.125 C 66.128906 84.3125 65.960938 84.519531 65.8125 84.738281 C 65.664062 84.960938 65.539062 85.191406 65.4375 85.441406 C 65.335938 85.6875 65.257812 85.941406 65.207031 86.203125 C 65.152344 86.460938 65.128906 86.726562 65.128906 86.996094 C 65.128906 87.261719 65.152344 87.523438 65.207031 87.785156 C 65.257812 88.046875 65.335938 88.300781 65.4375 88.546875 C 65.539062 88.792969 65.664062 89.027344 65.8125 89.25 C 65.960938 89.472656 66.128906 89.675781 66.316406 89.863281 C 66.503906 90.054688 66.710938 90.21875 66.929688 90.367188 C 67.152344 90.515625 67.386719 90.640625 67.632812 90.742188 C 67.878906 90.847656 68.136719 90.921875 68.394531 90.976562 C 68.65625 91.027344 68.921875 91.050781 69.1875 91.050781 C 69.453125 91.050781 69.71875 91.027344 69.980469 90.976562 C 70.238281 90.921875 70.496094 90.847656 70.742188 90.742188 C 70.988281 90.640625 71.222656 90.515625 71.441406 90.367188 C 71.664062 90.21875 71.867188 90.054688 72.054688 89.863281 C 72.246094 89.675781 72.414062 89.472656 72.5625 89.25 C 72.710938 89.027344 72.835938 88.792969 72.9375 88.546875 C 73.039062 88.300781 73.117188 88.046875 73.167969 87.785156 C 73.21875 87.523438 73.246094 87.261719 73.246094 86.996094 C 73.246094 86.726562 73.21875 86.464844 73.167969 86.203125 C 73.117188 85.941406 73.039062 85.6875 72.9375 85.441406 C 72.832031 85.195312 72.710938 84.960938 72.5625 84.738281 C 72.414062 84.519531 72.246094 84.316406 72.054688 84.125 C 71.867188 83.9375 71.660156 83.769531 71.441406 83.621094 C 71.21875 83.472656 70.984375 83.347656 70.742188 83.246094 C 70.496094 83.144531 70.238281 83.0625 69.980469 83.015625 C 69.71875 82.960938 69.453125 82.933594 69.1875 82.933594 Z M 69.1875 89.429688 C 68.863281 89.429688 68.554688 89.367188 68.253906 89.242188 C 67.957031 89.121094 67.695312 88.945312 67.464844 88.71875 C 67.234375 88.488281 67.058594 88.222656 66.9375 87.925781 C 66.8125 87.625 66.75 87.320312 66.75 86.996094 C 66.75 86.671875 66.8125 86.359375 66.9375 86.0625 C 67.058594 85.761719 67.234375 85.5 67.464844 85.273438 C 67.695312 85.042969 67.957031 84.867188 68.253906 84.742188 C 68.554688 84.621094 68.863281 84.558594 69.1875 84.558594 C 69.507812 84.558594 69.820312 84.621094 70.117188 84.742188 C 70.417969 84.867188 70.679688 85.042969 70.910156 85.273438 C 71.136719 85.5 71.3125 85.761719 71.4375 86.0625 C 71.558594 86.359375 71.621094 86.671875 71.621094 86.996094 C 71.621094 87.316406 71.558594 87.625 71.4375 87.925781 C 71.3125 88.222656 71.136719 88.484375 70.90625 88.714844 C 70.679688 88.945312 70.417969 89.121094 70.117188 89.242188 C 69.820312 89.367188 69.507812 89.429688 69.1875 89.429688 Z M 69.1875 89.429688 "></path><path style=" stroke:none;fill-rule:nonzero;fill:#000000;fill-opacity:1;" d="M 81.09375 91.59375 C 80.699219 91.59375 80.320312 91.671875 79.953125 91.820312 C 79.589844 91.972656 79.269531 92.1875 78.992188 92.464844 C 78.710938 92.746094 78.496094 93.066406 78.34375 93.433594 C 78.191406 93.796875 78.117188 94.175781 78.117188 94.570312 C 78.117188 94.96875 78.191406 95.347656 78.34375 95.710938 C 78.496094 96.078125 78.710938 96.398438 78.992188 96.675781 C 79.269531 96.953125 79.589844 97.171875 79.953125 97.320312 C 80.320312 97.472656 80.699219 97.550781 81.09375 97.550781 C 81.488281 97.550781 81.867188 97.472656 82.234375 97.320312 C 82.597656 97.171875 82.921875 96.953125 83.199219 96.675781 C 83.480469 96.398438 83.695312 96.078125 83.84375 95.710938 C 83.996094 95.347656 84.070312 94.96875 84.070312 94.570312 C 84.070312 94.175781 83.996094 93.796875 83.84375 93.433594 C 83.691406 93.066406 83.480469 92.746094 83.199219 92.464844 C 82.917969 92.1875 82.597656 91.972656 82.234375 91.820312 C 81.867188 91.671875 81.488281 91.59375 81.09375 91.59375 Z M 81.09375 95.925781 C 80.914062 95.925781 80.742188 95.890625 80.578125 95.820312 C 80.410156 95.753906 80.265625 95.65625 80.136719 95.527344 C 80.011719 95.402344 79.910156 95.253906 79.84375 95.089844 C 79.777344 94.925781 79.742188 94.75 79.742188 94.570312 C 79.742188 94.390625 79.777344 94.21875 79.84375 94.050781 C 79.910156 93.890625 80.011719 93.742188 80.136719 93.613281 C 80.265625 93.488281 80.410156 93.390625 80.578125 93.324219 C 80.742188 93.25 80.914062 93.21875 81.09375 93.21875 C 81.273438 93.21875 81.445312 93.25 81.613281 93.324219 C 81.777344 93.390625 81.921875 93.488281 82.050781 93.613281 C 82.179688 93.742188 82.273438 93.890625 82.34375 94.050781 C 82.414062 94.21875 82.445312 94.390625 82.445312 94.570312 C 82.445312 94.75 82.414062 94.925781 82.34375 95.085938 C 82.273438 95.253906 82.175781 95.402344 82.050781 95.527344 C 81.921875 95.65625 81.777344 95.753906 81.613281 95.820312 C 81.445312 95.886719 81.273438 95.925781 81.09375 95.925781 Z M 81.09375 95.925781 "></path><path style=" stroke:none;fill-rule:nonzero;fill:#000000;fill-opacity:1;" d="M 49.164062 85.101562 C 48.839844 85.101562 48.527344 85.164062 48.230469 85.285156 C 47.929688 85.410156 47.667969 85.585938 47.441406 85.8125 C 47.210938 86.039062 47.035156 86.304688 46.910156 86.605469 C 46.785156 86.902344 46.726562 87.214844 46.726562 87.535156 C 46.726562 87.859375 46.785156 88.167969 46.910156 88.46875 C 47.035156 88.765625 47.210938 89.027344 47.441406 89.257812 C 47.667969 89.488281 47.929688 89.664062 48.230469 89.785156 C 48.527344 89.910156 48.839844 89.972656 49.164062 89.972656 C 49.484375 89.972656 49.792969 89.910156 50.09375 89.785156 C 50.390625 89.664062 50.65625 89.488281 50.882812 89.257812 C 51.113281 89.027344 51.289062 88.765625 51.410156 88.46875 C 51.535156 88.167969 51.59375 87.859375 51.59375 87.535156 C 51.59375 87.214844 51.535156 86.902344 51.410156 86.605469 C 51.289062 86.304688 51.113281 86.042969 50.882812 85.816406 C 50.652344 85.585938 50.390625 85.410156 50.09375 85.285156 C 49.792969 85.164062 49.484375 85.101562 49.164062 85.101562 Z M 49.164062 88.347656 C 49.054688 88.347656 48.949219 88.324219 48.851562 88.285156 C 48.753906 88.242188 48.664062 88.183594 48.585938 88.109375 C 48.511719 88.035156 48.453125 87.945312 48.410156 87.84375 C 48.371094 87.746094 48.347656 87.640625 48.347656 87.535156 C 48.347656 87.425781 48.371094 87.324219 48.410156 87.222656 C 48.453125 87.125 48.511719 87.039062 48.585938 86.960938 C 48.664062 86.882812 48.753906 86.824219 48.851562 86.785156 C 48.949219 86.742188 49.054688 86.722656 49.164062 86.722656 C 49.269531 86.722656 49.371094 86.742188 49.472656 86.785156 C 49.570312 86.824219 49.65625 86.882812 49.734375 86.960938 C 49.8125 87.039062 49.871094 87.125 49.910156 87.222656 C 49.953125 87.324219 49.972656 87.425781 49.972656 87.535156 C 49.972656 87.640625 49.949219 87.746094 49.910156 87.84375 C 49.871094 87.945312 49.8125 88.035156 49.734375 88.109375 C 49.65625 88.183594 49.570312 88.242188 49.472656 88.285156 C 49.371094 88.324219 49.269531 88.347656 49.164062 88.347656 Z M 49.164062 88.347656 "></path><path style=" stroke:none;fill-rule:nonzero;fill:#000000;fill-opacity:1;" d="M 57.820312 92.675781 C 57.496094 92.675781 57.1875 92.738281 56.886719 92.863281 C 56.589844 92.988281 56.328125 93.164062 56.097656 93.390625 C 55.871094 93.617188 55.695312 93.882812 55.570312 94.183594 C 55.445312 94.476562 55.382812 94.789062 55.382812 95.113281 C 55.382812 95.4375 55.445312 95.746094 55.570312 96.046875 C 55.695312 96.34375 55.871094 96.605469 56.097656 96.835938 C 56.328125 97.0625 56.589844 97.238281 56.886719 97.363281 C 57.1875 97.488281 57.496094 97.550781 57.820312 97.550781 C 58.144531 97.550781 58.457031 97.488281 58.75 97.363281 C 59.050781 97.238281 59.316406 97.0625 59.542969 96.835938 C 59.769531 96.605469 59.945312 96.34375 60.070312 96.046875 C 60.191406 95.746094 60.257812 95.4375 60.257812 95.113281 C 60.253906 94.789062 60.191406 94.480469 60.070312 94.183594 C 59.945312 93.882812 59.769531 93.617188 59.542969 93.390625 C 59.316406 93.164062 59.050781 92.988281 58.75 92.863281 C 58.453125 92.738281 58.144531 92.679688 57.820312 92.675781 Z M 57.820312 95.925781 C 57.714844 95.925781 57.609375 95.902344 57.511719 95.863281 C 57.410156 95.820312 57.324219 95.761719 57.25 95.683594 C 57.171875 95.609375 57.113281 95.523438 57.070312 95.421875 C 57.03125 95.324219 57.007812 95.21875 57.007812 95.113281 C 57.007812 95.003906 57.03125 94.902344 57.070312 94.800781 C 57.113281 94.703125 57.171875 94.613281 57.25 94.539062 C 57.324219 94.460938 57.410156 94.402344 57.511719 94.363281 C 57.609375 94.320312 57.714844 94.300781 57.820312 94.300781 C 57.929688 94.300781 58.03125 94.320312 58.132812 94.363281 C 58.230469 94.402344 58.320312 94.460938 58.394531 94.539062 C 58.472656 94.613281 58.53125 94.703125 58.570312 94.800781 C 58.613281 94.902344 58.632812 95.003906 58.632812 95.113281 C 58.632812 95.21875 58.613281 95.324219 58.570312 95.421875 C 58.53125 95.523438 58.472656 95.609375 58.394531 95.683594 C 58.316406 95.761719 58.230469 95.820312 58.132812 95.863281 C 58.03125 95.902344 57.929688 95.925781 57.820312 95.925781 Z M 57.820312 95.925781 "></path><path style=" stroke:none;fill-rule:nonzero;fill:#000000;fill-opacity:1;" d="M 91.378906 86.183594 C 91.054688 86.183594 90.742188 86.242188 90.445312 86.367188 C 90.148438 86.488281 89.882812 86.667969 89.65625 86.898438 C 89.425781 87.125 89.25 87.386719 89.128906 87.683594 C 89.003906 87.984375 88.945312 88.296875 88.945312 88.617188 C 88.945312 88.941406 89.003906 89.25 89.128906 89.550781 C 89.25 89.847656 89.425781 90.113281 89.65625 90.339844 C 89.882812 90.570312 90.148438 90.742188 90.445312 90.867188 C 90.742188 90.992188 91.054688 91.050781 91.378906 91.050781 C 91.699219 91.050781 92.011719 90.992188 92.308594 90.867188 C 92.609375 90.742188 92.871094 90.570312 93.097656 90.339844 C 93.328125 90.113281 93.503906 89.847656 93.628906 89.550781 C 93.753906 89.25 93.8125 88.941406 93.8125 88.617188 C 93.8125 88.296875 93.753906 87.984375 93.625 87.683594 C 93.503906 87.390625 93.328125 87.125 93.097656 86.898438 C 92.871094 86.667969 92.605469 86.492188 92.308594 86.371094 C 92.011719 86.242188 91.699219 86.183594 91.378906 86.183594 Z M 91.378906 89.429688 C 91.269531 89.429688 91.167969 89.410156 91.066406 89.367188 C 90.96875 89.328125 90.882812 89.269531 90.804688 89.191406 C 90.726562 89.113281 90.667969 89.027344 90.628906 88.929688 C 90.585938 88.828125 90.566406 88.726562 90.566406 88.617188 C 90.566406 88.511719 90.585938 88.40625 90.628906 88.308594 C 90.667969 88.207031 90.726562 88.121094 90.804688 88.042969 C 90.882812 87.96875 90.96875 87.910156 91.066406 87.867188 C 91.167969 87.828125 91.269531 87.804688 91.378906 87.804688 C 91.484375 87.804688 91.589844 87.828125 91.6875 87.867188 C 91.785156 87.910156 91.875 87.96875 91.953125 88.042969 C 92.027344 88.121094 92.085938 88.207031 92.128906 88.308594 C 92.167969 88.40625 92.191406 88.511719 92.191406 88.617188 C 92.191406 88.726562 92.167969 88.828125 92.128906 88.929688 C 92.085938 89.027344 92.027344 89.113281 91.949219 89.191406 C 91.875 89.269531 91.785156 89.328125 91.6875 89.367188 C 91.589844 89.410156 91.484375 89.429688 91.378906 89.429688 Z M 91.378906 89.429688 "></path><path style=" stroke:none;fill-rule:nonzero;fill:#000000;fill-opacity:1;" d="M 37.546875 85.910156 C 37.546875 86.019531 37.523438 86.125 37.480469 86.222656 C 37.441406 86.320312 37.382812 86.410156 37.304688 86.488281 C 37.230469 86.5625 37.140625 86.621094 37.042969 86.664062 C 36.945312 86.703125 36.839844 86.722656 36.730469 86.722656 C 36.625 86.722656 36.519531 86.703125 36.421875 86.664062 C 36.324219 86.621094 36.234375 86.5625 36.160156 86.488281 C 36.082031 86.410156 36.023438 86.320312 35.980469 86.222656 C 35.941406 86.125 35.917969 86.019531 35.917969 85.910156 C 35.917969 85.804688 35.941406 85.703125 35.980469 85.601562 C 36.023438 85.5 36.082031 85.414062 36.160156 85.335938 C 36.234375 85.261719 36.324219 85.203125 36.421875 85.164062 C 36.519531 85.117188 36.625 85.101562 36.730469 85.101562 C 36.839844 85.101562 36.945312 85.117188 37.042969 85.164062 C 37.140625 85.203125 37.230469 85.261719 37.304688 85.335938 C 37.382812 85.414062 37.441406 85.5 37.480469 85.601562 C 37.523438 85.703125 37.546875 85.804688 37.546875 85.910156 Z M 37.546875 85.910156 "></path><path style=" stroke:none;fill-rule:nonzero;fill:#000000;fill-opacity:1;" d="M 60.277344 88.078125 C 60.277344 88.183594 60.253906 88.289062 60.214844 88.386719 C 60.171875 88.484375 60.113281 88.574219 60.039062 88.648438 C 59.960938 88.726562 59.871094 88.785156 59.773438 88.828125 C 59.675781 88.867188 59.570312 88.890625 59.464844 88.890625 C 59.355469 88.890625 59.253906 88.867188 59.152344 88.828125 C 59.054688 88.785156 58.96875 88.726562 58.890625 88.648438 C 58.8125 88.574219 58.753906 88.484375 58.714844 88.386719 C 58.671875 88.289062 58.652344 88.183594 58.652344 88.078125 C 58.652344 87.96875 58.671875 87.863281 58.714844 87.765625 C 58.753906 87.667969 58.8125 87.578125 58.890625 87.503906 C 58.96875 87.425781 59.054688 87.367188 59.152344 87.328125 C 59.253906 87.285156 59.355469 87.265625 59.464844 87.265625 C 59.570312 87.265625 59.675781 87.285156 59.773438 87.328125 C 59.871094 87.367188 59.960938 87.425781 60.039062 87.503906 C 60.113281 87.578125 60.171875 87.667969 60.214844 87.765625 C 60.253906 87.863281 60.277344 87.96875 60.277344 88.078125 Z M 60.277344 88.078125 "></path><path style=" stroke:none;fill-rule:nonzero;fill:#000000;fill-opacity:1;" d="M 48.367188 95.65625 C 48.367188 95.761719 48.347656 95.863281 48.304688 95.964844 C 48.265625 96.0625 48.207031 96.148438 48.128906 96.226562 C 48.054688 96.304688 47.96875 96.363281 47.867188 96.402344 C 47.769531 96.445312 47.664062 96.464844 47.558594 96.464844 C 47.449219 96.464844 47.34375 96.445312 47.246094 96.402344 C 47.148438 96.363281 47.058594 96.304688 46.984375 96.226562 C 46.90625 96.148438 46.847656 96.0625 46.804688 95.964844 C 46.765625 95.863281 46.742188 95.761719 46.742188 95.65625 C 46.742188 95.546875 46.765625 95.441406 46.804688 95.34375 C 46.847656 95.246094 46.90625 95.15625 46.984375 95.078125 C 47.058594 95.003906 47.148438 94.945312 47.246094 94.902344 C 47.34375 94.863281 47.449219 94.839844 47.558594 94.839844 C 47.664062 94.839844 47.769531 94.863281 47.867188 94.902344 C 47.96875 94.945312 48.054688 95.003906 48.128906 95.078125 C 48.207031 95.15625 48.265625 95.246094 48.304688 95.34375 C 48.347656 95.441406 48.367188 95.546875 48.367188 95.65625 Z M 48.367188 95.65625 "></path><path style=" stroke:none;fill-rule:nonzero;fill:#000000;fill-opacity:1;" d="M 70.015625 96.734375 C 70.015625 96.84375 70 96.949219 69.957031 97.046875 C 69.914062 97.144531 69.855469 97.234375 69.78125 97.3125 C 69.707031 97.386719 69.617188 97.445312 69.519531 97.488281 C 69.417969 97.527344 69.316406 97.550781 69.207031 97.550781 C 69.097656 97.550781 68.996094 97.527344 68.894531 97.488281 C 68.796875 97.445312 68.707031 97.386719 68.632812 97.3125 C 68.558594 97.234375 68.5 97.144531 68.457031 97.046875 C 68.414062 96.949219 68.394531 96.84375 68.394531 96.734375 C 68.394531 96.628906 68.414062 96.527344 68.457031 96.425781 C 68.5 96.324219 68.558594 96.238281 68.632812 96.164062 C 68.707031 96.085938 68.796875 96.027344 68.894531 95.988281 C 68.996094 95.945312 69.097656 95.925781 69.207031 95.925781 C 69.316406 95.925781 69.417969 95.945312 69.519531 95.988281 C 69.617188 96.027344 69.707031 96.085938 69.78125 96.164062 C 69.855469 96.238281 69.914062 96.324219 69.957031 96.425781 C 70 96.527344 70.015625 96.628906 70.015625 96.734375 Z M 70.015625 96.734375 "></path><path style=" stroke:none;fill-rule:nonzero;fill:#000000;fill-opacity:1;" d="M 84.089844 85.910156 C 84.089844 86.019531 84.070312 86.125 84.03125 86.222656 C 83.988281 86.320312 83.929688 86.410156 83.851562 86.488281 C 83.777344 86.5625 83.6875 86.621094 83.589844 86.664062 C 83.492188 86.703125 83.386719 86.722656 83.277344 86.722656 C 83.171875 86.722656 83.066406 86.703125 82.96875 86.664062 C 82.867188 86.621094 82.78125 86.5625 82.707031 86.488281 C 82.628906 86.410156 82.570312 86.320312 82.53125 86.222656 C 82.488281 86.125 82.464844 86.019531 82.464844 85.910156 C 82.464844 85.804688 82.488281 85.703125 82.53125 85.601562 C 82.570312 85.5 82.628906 85.414062 82.707031 85.335938 C 82.78125 85.261719 82.867188 85.203125 82.96875 85.164062 C 83.066406 85.117188 83.171875 85.101562 83.277344 85.101562 C 83.386719 85.101562 83.492188 85.117188 83.589844 85.164062 C 83.6875 85.203125 83.777344 85.261719 83.851562 85.335938 C 83.929688 85.414062 83.988281 85.5 84.03125 85.601562 C 84.070312 85.703125 84.089844 85.804688 84.089844 85.910156 Z M 84.089844 85.910156 "></path><path style=" stroke:none;fill-rule:nonzero;fill:#000000;fill-opacity:1;" d="M 90.585938 96.734375 C 90.585938 96.84375 90.5625 96.949219 90.523438 97.046875 C 90.484375 97.144531 90.421875 97.234375 90.347656 97.3125 C 90.269531 97.386719 90.183594 97.445312 90.082031 97.488281 C 89.984375 97.527344 89.878906 97.550781 89.773438 97.550781 C 89.664062 97.550781 89.5625 97.527344 89.464844 97.488281 C 89.363281 97.445312 89.277344 97.386719 89.199219 97.3125 C 89.121094 97.234375 89.0625 97.144531 89.023438 97.046875 C 88.984375 96.949219 88.960938 96.84375 88.960938 96.734375 C 88.960938 96.628906 88.984375 96.527344 89.023438 96.425781 C 89.0625 96.324219 89.121094 96.238281 89.199219 96.164062 C 89.277344 96.085938 89.363281 96.027344 89.464844 95.988281 C 89.5625 95.945312 89.664062 95.925781 89.773438 95.925781 C 89.878906 95.925781 89.984375 95.945312 90.082031 95.988281 C 90.183594 96.027344 90.269531 96.085938 90.347656 96.164062 C 90.421875 96.238281 90.484375 96.324219 90.523438 96.425781 C 90.5625 96.527344 90.585938 96.628906 90.585938 96.734375 Z M 90.585938 96.734375 "></path></g></svg>
