<svg xmlns="http://www.w3.org/2000/svg" xmlns:xlink="http://www.w3.org/1999/xlink" width="180" zoomAndPan="magnify" viewBox="0 0 135 135.000003" height="180" preserveAspectRatio="xMidYMid meet"><defs><clipPath id="cfef7150d4"><path d="M 0.496094 0 L 134.503906 0 L 134.503906 134.007812 L 0.496094 134.007812 Z M 0.496094 0 "></path></clipPath><clipPath id="01a6e509d2"><path d="M 0.496094 0 L 134.503906 0 L 134.503906 134.007812 L 0.496094 134.007812 Z M 0.496094 0 "></path></clipPath><clipPath id="ffe1e6c0f9"><path d="M 67.5 0 C 30.496094 0 0.496094 30 0.496094 67.003906 C 0.496094 104.007812 30.496094 134.007812 67.5 134.007812 C 104.503906 134.007812 134.503906 104.007812 134.503906 67.003906 C 134.503906 30 104.503906 0 67.5 0 Z M 67.5 0 "></path></clipPath><clipPath id="0d18a44e97"><path d="M 20.179688 25.398438 L 112.496094 25.398438 L 112.496094 108.78125 L 20.179688 108.78125 Z M 20.179688 25.398438 "></path></clipPath><clipPath id="f6da4e70ed"><path d="M 67.804688 -5.269531 C 29.03125 -5.269531 -2.402344 26.164062 -2.402344 64.9375 C -2.402344 103.707031 29.03125 135.144531 67.804688 135.144531 C 106.578125 135.144531 138.011719 103.707031 138.011719 64.9375 C 138.011719 26.164062 106.578125 -5.269531 67.804688 -5.269531 Z M 67.804688 -5.269531 "></path></clipPath><clipPath id="00e55fe220"><path d="M 22 25.398438 L 83 25.398438 L 83 72 L 22 72 Z M 22 25.398438 "></path></clipPath><clipPath id="d9d028fd64"><path d="M 21.4375 25.398438 L 85 25.398438 L 85 104.75 L 21.4375 104.75 Z M 21.4375 25.398438 "></path></clipPath><clipPath id="9a5f2f4f1c"><path d="M 71 57.597656 L 112.496094 57.597656 L 112.496094 91 L 71 91 Z M 71 57.597656 "></path></clipPath></defs><g id="b035c017cb"><g clip-rule="nonzero" clip-path="url(#cfef7150d4)"><path style=" stroke:none;fill-rule:nonzero;fill:#ffffff;fill-opacity:1;" d="M 0.496094 0 L 134.503906 0 L 134.503906 134.007812 L 0.496094 134.007812 Z M 0.496094 0 "></path><path style=" stroke:none;fill-rule:nonzero;fill:#ffffff;fill-opacity:1;" d="M 0.496094 0 L 134.503906 0 L 134.503906 134.007812 L 0.496094 134.007812 Z M 0.496094 0 "></path></g><g clip-rule="nonzero" clip-path="url(#01a6e509d2)"><g clip-rule="nonzero" clip-path="url(#ffe1e6c0f9)"><path style=" stroke:none;fill-rule:nonzero;fill:#f4dddd;fill-opacity:1;" d="M 0.496094 0 L 134.503906 0 L 134.503906 134.007812 L 0.496094 134.007812 Z M 0.496094 0 "></path><path style="fill:none;stroke-width:12;stroke-linecap:butt;stroke-linejoin:miter;stroke:#7b2e07;stroke-opacity:1;stroke-miterlimit:4;" d="M 90.000004 -0.00000933333 C 40.29599 -0.00000933333 -0.000306642 40.296288 -0.000306642 90.000301 C -0.000306642 139.704314 40.29599 180.000611 90.000004 180.000611 C 139.704017 180.000611 180.000314 139.704314 180.000314 90.000301 C 180.000314 40.296288 139.704017 -0.00000933333 90.000004 -0.00000933333 Z M 90.000004 -0.00000933333 " transform="matrix(0.744485,0,0,0.744485,0.496322,0.00000694853)"></path></g></g><g clip-rule="nonzero" clip-path="url(#0d18a44e97)"><g clip-rule="nonzero" clip-path="url(#f6da4e70ed)"><path style=" stroke:none;fill-rule:nonzero;fill:#ffdfdf;fill-opacity:1;" d="M -2.402344 -5.269531 L 138.011719 -5.269531 L 138.011719 135.144531 L -2.402344 135.144531 Z M -2.402344 -5.269531 "></path><path style="fill:none;stroke-width:8;stroke-linecap:butt;stroke-linejoin:miter;stroke:#f80303;stroke-opacity:1;stroke-miterlimit:4;" d="M 89.999893 0.000335437 C 40.294627 0.000335437 -0.00139021 40.296353 -0.00139021 90.001618 C -0.00139021 139.701876 40.294627 180.002901 89.999893 180.002901 C 139.705158 180.002901 180.001175 139.701876 180.001175 90.001618 C 180.001175 40.296353 139.705158 0.000335437 89.999893 0.000335437 Z M 89.999893 0.000335437 " transform="matrix(0.780067,0,0,0.780067,-2.401259,-5.269793)"></path></g></g><path style=" stroke:none;fill-rule:nonzero;fill:#e1ebf4;fill-opacity:1;" d="M 74.519531 83.828125 C 74.519531 83.828125 68.507812 90.253906 66.128906 93.914062 C 63.75 97.570312 60.375 102.503906 51.289062 102.503906 C 42.199219 102.503906 37.625 90.476562 35.703125 89.160156 C 33.785156 87.84375 29.207031 82.664062 29.277344 76.585938 C 29.351562 70.519531 33.035156 68.867188 33.003906 64.351562 C 32.964844 59.832031 31.554688 53.476562 36.414062 54.289062 C 41.277344 55.109375 45.285156 57.027344 50.863281 56.707031 C 56.4375 56.386719 69.207031 54.222656 69.207031 54.222656 C 70.050781 54.785156 70.714844 55.515625 71.199219 56.402344 C 71.683594 57.296875 71.933594 58.246094 71.953125 59.257812 C 72.035156 61.355469 72.488281 63.367188 73.300781 65.300781 C 73.878906 66.410156 74.363281 67.558594 74.75 68.75 L 71.175781 70.230469 C 70.785156 70.382812 70.421875 70.597656 70.089844 70.863281 C 69.757812 71.128906 69.46875 71.441406 69.234375 71.792969 C 68.996094 72.144531 68.8125 72.519531 68.6875 72.925781 C 68.5625 73.335938 68.496094 73.75 68.496094 74.175781 C 68.496094 74.601562 68.554688 75.015625 68.675781 75.421875 C 68.800781 75.828125 68.980469 76.207031 69.21875 76.566406 C 69.453125 76.917969 69.738281 77.226562 70.0625 77.496094 C 70.394531 77.765625 70.753906 77.980469 71.148438 78.140625 L 73.984375 79.3125 L 74.339844 79.460938 L 74.855469 79.675781 C 74.613281 81.050781 74.5 82.433594 74.519531 83.828125 Z M 74.519531 83.828125 "></path><g clip-rule="nonzero" clip-path="url(#00e55fe220)"><path style=" stroke:none;fill-rule:nonzero;fill:#d68751;fill-opacity:1;" d="M 71.347656 57.789062 C 71.347656 57.789062 73.089844 65.117188 74.492188 68.859375 L 78.359375 67.261719 C 79.152344 65.21875 80.257812 63.367188 81.683594 61.707031 C 82.492188 57.050781 83.460938 49.738281 82.550781 45.433594 C 81.140625 38.75 77.753906 35.183594 73.015625 35.367188 C 73.015625 35.367188 70.355469 27.300781 57.890625 26.316406 C 45.429688 25.328125 37.335938 25.359375 30.464844 32.121094 C 23.597656 38.886719 22.640625 44.398438 22.851562 51.242188 C 23.066406 58.085938 24.207031 66.949219 27.433594 71 C 30.652344 75.046875 33.046875 62.691406 33.394531 59.492188 C 33.738281 56.300781 32.96875 52.863281 39.269531 55.445312 C 45.5625 58.03125 53.179688 57.976562 57.253906 56.886719 C 61.324219 55.792969 69.660156 52.464844 71.347656 57.789062 Z M 71.347656 57.789062 "></path></g><g clip-rule="nonzero" clip-path="url(#d9d028fd64)"><path style=" stroke:none;fill-rule:nonzero;fill:#2d4356;fill-opacity:1;" d="M 27.292969 73.75 C 27.808594 80.054688 29.328125 84.488281 32.023438 87.582031 C 34 89.847656 35.636719 91.964844 37.085938 93.835938 C 41.707031 99.8125 45.046875 104.128906 52.757812 104.128906 L 52.910156 104.128906 C 60.621094 104.128906 63.960938 99.8125 68.582031 93.835938 C 70.03125 91.964844 71.667969 89.847656 73.640625 87.582031 C 75.300781 85.5 76.421875 83.160156 77.003906 80.558594 L 74.34375 79.460938 C 73.648438 82.222656 72.691406 84.335938 71.492188 85.707031 C 69.464844 88.035156 67.800781 90.191406 66.328125 92.089844 C 61.746094 98.015625 59.222656 101.277344 52.910156 101.277344 L 52.757812 101.277344 C 46.449219 101.277344 43.921875 98.015625 39.34375 92.09375 C 37.875 90.191406 36.203125 88.035156 34.175781 85.707031 C 31.828125 83.019531 30.523438 78.957031 30.097656 73.03125 C 34.265625 68.71875 34.964844 62.328125 34.769531 57.589844 C 34.738281 56.902344 34.992188 56.34375 35.539062 55.929688 C 36.03125 55.535156 36.574219 55.4375 37.171875 55.621094 C 51.351562 59.941406 61.527344 58.105469 67.566406 55.804688 C 67.871094 55.6875 68.179688 55.644531 68.503906 55.6875 C 68.824219 55.726562 69.117188 55.847656 69.378906 56.035156 C 69.640625 56.222656 69.839844 56.460938 69.976562 56.746094 C 70.117188 57.039062 70.179688 57.339844 70.164062 57.664062 C 70.066406 59.722656 70.261719 61.761719 70.738281 63.769531 C 71.214844 65.777344 71.964844 67.679688 72.972656 69.480469 L 75.644531 68.382812 C 74.703125 66.777344 74.007812 65.074219 73.558594 63.269531 C 73.113281 61.46875 72.929688 59.640625 73.011719 57.78125 C 73.027344 57.390625 73 56.996094 72.917969 56.613281 C 72.839844 56.222656 72.710938 55.855469 72.539062 55.5 C 72.367188 55.140625 72.152344 54.816406 71.898438 54.511719 C 71.644531 54.214844 71.359375 53.945312 71.039062 53.714844 C 70.714844 53.484375 70.371094 53.296875 70.007812 53.152344 C 69.636719 53.003906 69.257812 52.910156 68.867188 52.859375 C 68.476562 52.808594 68.082031 52.808594 67.695312 52.855469 C 67.300781 52.902344 66.921875 52.996094 66.550781 53.140625 C 60.929688 55.28125 51.414062 56.980469 38.003906 52.894531 C 37.28125 52.671875 36.546875 52.625 35.804688 52.765625 C 35.0625 52.898438 34.390625 53.203125 33.796875 53.667969 C 33.175781 54.152344 32.699219 54.75 32.367188 55.460938 C 32.039062 56.171875 31.890625 56.917969 31.921875 57.703125 C 32.082031 61.6875 31.574219 66.960938 28.492188 70.5625 C 26.585938 67.550781 22.492188 59.054688 25.210938 44.734375 C 27.945312 30.3125 39.457031 27.128906 49.078125 27.128906 C 51.375 27.136719 53.660156 27.300781 55.929688 27.625 C 66.238281 29.050781 69.050781 31.460938 71.144531 35.996094 C 71.289062 36.300781 71.507812 36.53125 71.816406 36.679688 C 72.117188 36.832031 72.433594 36.863281 72.765625 36.785156 C 74.367188 36.527344 75.839844 36.84375 77.199219 37.730469 C 79.15625 39.039062 80.449219 41.539062 81.042969 45.152344 C 82.226562 52.425781 79.546875 61.980469 77.617188 67.566406 L 78.363281 67.261719 C 79.332031 64.769531 80.75 62.570312 82.632812 60.671875 C 83.855469 55.566406 84.675781 49.710938 83.851562 44.6875 C 83.128906 40.265625 81.421875 37.125 78.78125 35.359375 C 77.113281 34.253906 75.273438 33.761719 73.277344 33.867188 C 70.4375 28.410156 66.125 26.15625 56.320312 24.796875 C 37.597656 22.203125 25.238281 29.277344 22.40625 44.203125 C 18.667969 63.898438 26.902344 73.324219 27.257812 73.714844 C 27.269531 73.726562 27.285156 73.738281 27.292969 73.75 Z M 27.292969 73.75 "></path></g><g clip-rule="nonzero" clip-path="url(#9a5f2f4f1c)"><path style=" stroke:none;fill-rule:nonzero;fill:#2d4356;fill-opacity:1;" d="M 112.675781 73.265625 C 112.734375 74.242188 112.699219 75.21875 112.582031 76.191406 C 112.457031 77.167969 112.253906 78.121094 111.964844 79.058594 C 111.671875 79.996094 111.300781 80.894531 110.851562 81.765625 C 110.394531 82.632812 109.867188 83.457031 109.265625 84.234375 C 108.667969 85.007812 108 85.722656 107.273438 86.378906 C 106.542969 87.035156 105.761719 87.621094 104.929688 88.136719 C 104.09375 88.652344 103.222656 89.089844 102.308594 89.449219 C 101.394531 89.804688 100.457031 90.078125 99.496094 90.273438 C 98.535156 90.460938 97.566406 90.566406 96.582031 90.582031 C 95.605469 90.597656 94.628906 90.527344 93.660156 90.367188 C 92.695312 90.210938 91.75 89.964844 90.824219 89.636719 C 89.898438 89.304688 89.011719 88.902344 88.164062 88.414062 C 87.3125 87.921875 86.507812 87.367188 85.761719 86.730469 C 85.011719 86.101562 84.320312 85.410156 83.699219 84.652344 C 83.070312 83.898438 82.515625 83.09375 82.035156 82.238281 C 81.554688 81.386719 81.152344 80.492188 80.832031 79.570312 C 80.695312 79.164062 80.425781 78.882812 80.035156 78.71875 L 72.234375 75.503906 C 71.964844 75.394531 71.75 75.21875 71.589844 74.980469 C 71.425781 74.738281 71.347656 74.476562 71.347656 74.1875 C 71.347656 73.898438 71.425781 73.632812 71.589844 73.398438 C 71.75 73.15625 71.964844 72.980469 72.234375 72.871094 L 80.035156 69.65625 C 80.425781 69.492188 80.695312 69.210938 80.832031 68.808594 C 81.140625 67.917969 81.523438 67.0625 81.980469 66.238281 C 82.4375 65.410156 82.957031 64.632812 83.550781 63.902344 C 84.140625 63.167969 84.789062 62.488281 85.496094 61.867188 C 86.203125 61.246094 86.960938 60.6875 87.761719 60.195312 C 88.566406 59.707031 89.40625 59.289062 90.285156 58.941406 C 91.160156 58.59375 92.054688 58.324219 92.980469 58.132812 C 93.902344 57.941406 94.835938 57.828125 95.777344 57.796875 C 96.71875 57.765625 97.652344 57.816406 98.582031 57.945312 C 99.515625 58.078125 100.433594 58.285156 101.332031 58.574219 C 102.226562 58.863281 103.089844 59.226562 103.925781 59.664062 C 104.761719 60.101562 105.550781 60.605469 106.300781 61.179688 C 107.042969 61.757812 107.734375 62.386719 108.375 63.082031 C 109.011719 63.773438 109.585938 64.519531 110.097656 65.308594 C 110.605469 66.101562 111.042969 66.929688 111.410156 67.796875 C 111.773438 68.664062 112.066406 69.5625 112.277344 70.476562 C 112.492188 71.394531 112.621094 72.324219 112.675781 73.265625 Z M 106.144531 83.496094 C 107.433594 82.148438 108.394531 80.597656 109.039062 78.84375 C 109.679688 77.09375 109.941406 75.285156 109.832031 73.421875 C 109.785156 72.644531 109.675781 71.878906 109.5 71.121094 C 109.328125 70.359375 109.085938 69.621094 108.785156 68.90625 C 108.480469 68.191406 108.121094 67.507812 107.699219 66.851562 C 107.277344 66.195312 106.800781 65.582031 106.273438 65.011719 C 105.75 64.441406 105.175781 63.917969 104.558594 63.441406 C 103.945312 62.96875 103.289062 62.550781 102.601562 62.191406 C 101.910156 61.828125 101.199219 61.527344 100.457031 61.289062 C 99.71875 61.050781 98.960938 60.878906 98.191406 60.769531 C 97.421875 60.664062 96.648438 60.621094 95.871094 60.648438 C 95.09375 60.675781 94.324219 60.765625 93.5625 60.925781 C 92.796875 61.085938 92.054688 61.304688 91.332031 61.59375 C 90.609375 61.878906 89.914062 62.222656 89.25 62.632812 C 88.589844 63.039062 87.960938 63.496094 87.382812 64.011719 C 86.796875 64.523438 86.261719 65.082031 85.773438 65.691406 C 85.285156 66.296875 84.851562 66.9375 84.476562 67.617188 C 84.097656 68.300781 83.785156 69.003906 83.527344 69.742188 C 83.324219 70.320312 83.015625 70.832031 82.59375 71.277344 C 82.175781 71.71875 81.679688 72.058594 81.113281 72.296875 L 76.527344 74.183594 L 81.113281 76.082031 C 81.683594 76.316406 82.175781 76.65625 82.597656 77.097656 C 83.015625 77.542969 83.324219 78.054688 83.527344 78.632812 C 83.71875 79.179688 83.9375 79.710938 84.195312 80.230469 C 84.453125 80.746094 84.746094 81.246094 85.070312 81.730469 C 85.390625 82.207031 85.738281 82.667969 86.125 83.105469 C 86.503906 83.539062 86.910156 83.949219 87.34375 84.332031 C 87.777344 84.71875 88.234375 85.070312 88.710938 85.398438 C 89.191406 85.71875 89.691406 86.015625 90.207031 86.277344 C 90.722656 86.539062 91.253906 86.765625 91.796875 86.957031 C 92.347656 87.148438 92.902344 87.308594 93.46875 87.425781 C 94.03125 87.550781 94.605469 87.636719 95.183594 87.683594 C 95.757812 87.734375 96.335938 87.742188 96.914062 87.71875 C 97.492188 87.691406 98.066406 87.628906 98.636719 87.53125 C 99.207031 87.429688 99.765625 87.296875 100.320312 87.125 C 100.875 86.953125 101.410156 86.746094 101.941406 86.507812 C 102.46875 86.265625 102.976562 85.992188 103.464844 85.683594 C 103.957031 85.378906 104.429688 85.042969 104.875 84.675781 C 105.324219 84.308594 105.746094 83.914062 106.144531 83.496094 Z M 106.144531 83.496094 "></path></g><path style=" stroke:none;fill-rule:nonzero;fill:#fc785e;fill-opacity:1;" d="M 106.144531 83.496094 C 105.746094 83.914062 105.324219 84.308594 104.875 84.675781 C 104.429688 85.042969 103.957031 85.378906 103.464844 85.683594 C 102.976562 85.992188 102.46875 86.265625 101.941406 86.507812 C 101.410156 86.746094 100.875 86.953125 100.320312 87.125 C 99.765625 87.296875 99.207031 87.429688 98.636719 87.53125 C 98.066406 87.628906 97.492188 87.691406 96.914062 87.71875 C 96.335938 87.742188 95.757812 87.734375 95.183594 87.683594 C 94.605469 87.636719 94.03125 87.550781 93.46875 87.425781 C 92.902344 87.308594 92.347656 87.148438 91.796875 86.957031 C 91.253906 86.765625 90.722656 86.539062 90.207031 86.277344 C 89.691406 86.015625 89.191406 85.71875 88.710938 85.398438 C 88.234375 85.070312 87.777344 84.71875 87.34375 84.332031 C 86.910156 83.949219 86.503906 83.539062 86.121094 83.105469 C 85.738281 82.667969 85.390625 82.207031 85.070312 81.730469 C 84.746094 81.246094 84.453125 80.746094 84.195312 80.230469 C 83.9375 79.710938 83.71875 79.179688 83.527344 78.632812 C 83.324219 78.054688 83.015625 77.542969 82.597656 77.097656 C 82.175781 76.65625 81.683594 76.316406 81.113281 76.082031 L 76.527344 74.183594 L 81.113281 72.296875 C 81.679688 72.058594 82.175781 71.71875 82.59375 71.277344 C 83.015625 70.832031 83.324219 70.320312 83.527344 69.742188 C 83.695312 69.265625 83.882812 68.800781 84.097656 68.347656 C 84.316406 67.890625 84.558594 67.453125 84.828125 67.023438 C 85.09375 66.597656 85.378906 66.1875 85.691406 65.792969 C 86.007812 65.398438 86.335938 65.023438 86.695312 64.664062 C 87.046875 64.304688 87.417969 63.96875 87.8125 63.65625 C 88.203125 63.335938 88.609375 63.046875 89.035156 62.769531 C 89.460938 62.5 89.898438 62.253906 90.347656 62.035156 C 90.800781 61.8125 91.261719 61.617188 91.734375 61.445312 C 92.210938 61.277344 92.695312 61.132812 93.179688 61.015625 C 93.671875 60.902344 94.167969 60.8125 94.667969 60.75 C 95.167969 60.6875 95.664062 60.65625 96.167969 60.652344 C 96.671875 60.644531 97.175781 60.667969 97.675781 60.714844 C 98.175781 60.769531 98.671875 60.847656 99.164062 60.953125 C 99.65625 61.058594 100.144531 61.191406 100.617188 61.351562 C 101.097656 61.511719 101.5625 61.699219 102.019531 61.910156 C 102.476562 62.121094 102.917969 62.359375 103.347656 62.621094 C 103.777344 62.882812 104.191406 63.167969 104.59375 63.476562 C 104.988281 63.78125 105.371094 64.109375 105.730469 64.460938 C 106.09375 64.808594 106.433594 65.183594 106.753906 65.566406 C 107.074219 65.957031 107.371094 66.359375 107.644531 66.78125 C 107.925781 67.203125 108.171875 67.636719 108.398438 68.089844 C 108.628906 68.539062 108.828125 68.996094 109.003906 69.472656 C 109.179688 69.941406 109.328125 70.421875 109.449219 70.90625 C 109.574219 71.398438 109.667969 71.890625 109.734375 72.390625 C 109.796875 72.890625 109.839844 73.386719 109.847656 73.890625 C 109.859375 74.394531 109.84375 74.898438 109.796875 75.402344 C 109.753906 75.902344 109.679688 76.398438 109.578125 76.890625 C 109.480469 77.382812 109.351562 77.871094 109.195312 78.347656 C 109.042969 78.828125 108.859375 79.296875 108.652344 79.757812 C 108.449219 80.214844 108.214844 80.660156 107.957031 81.09375 C 107.703125 81.523438 107.421875 81.941406 107.117188 82.34375 C 106.816406 82.75 106.492188 83.128906 106.144531 83.496094 Z M 106.144531 83.496094 "></path><path style=" stroke:none;fill-rule:nonzero;fill:#2d4356;fill-opacity:1;" d="M 106.285156 69.910156 C 106.285156 70.097656 106.25 70.28125 106.179688 70.453125 C 106.105469 70.628906 106.003906 70.785156 105.871094 70.917969 C 105.734375 71.050781 105.582031 71.152344 105.40625 71.226562 C 105.230469 71.300781 105.050781 71.332031 104.863281 71.332031 C 104.675781 71.332031 104.488281 71.300781 104.3125 71.226562 C 104.140625 71.152344 103.988281 71.050781 103.851562 70.917969 C 103.71875 70.785156 103.617188 70.628906 103.542969 70.453125 C 103.472656 70.28125 103.433594 70.097656 103.433594 69.910156 C 103.433594 69.722656 103.472656 69.535156 103.542969 69.363281 C 103.617188 69.1875 103.71875 69.035156 103.851562 68.902344 C 103.988281 68.765625 104.140625 68.664062 104.3125 68.589844 C 104.488281 68.519531 104.675781 68.484375 104.863281 68.484375 C 105.050781 68.484375 105.230469 68.519531 105.40625 68.589844 C 105.582031 68.664062 105.734375 68.765625 105.871094 68.902344 C 106.003906 69.035156 106.105469 69.1875 106.179688 69.363281 C 106.25 69.535156 106.285156 69.722656 106.285156 69.910156 Z M 106.285156 69.910156 "></path><path style=" stroke:none;fill-rule:nonzero;fill:#2d4356;fill-opacity:1;" d="M 98.445312 71.332031 C 98.445312 71.527344 98.40625 71.707031 98.335938 71.882812 C 98.265625 72.054688 98.164062 72.210938 98.027344 72.34375 C 97.890625 72.476562 97.738281 72.582031 97.566406 72.652344 C 97.386719 72.726562 97.207031 72.761719 97.015625 72.761719 C 96.828125 72.761719 96.648438 72.726562 96.472656 72.652344 C 96.296875 72.582031 96.144531 72.476562 96.007812 72.34375 C 95.875 72.210938 95.773438 72.054688 95.703125 71.882812 C 95.628906 71.707031 95.59375 71.527344 95.59375 71.332031 C 95.59375 71.144531 95.628906 70.964844 95.703125 70.789062 C 95.773438 70.613281 95.875 70.460938 96.007812 70.328125 C 96.144531 70.191406 96.296875 70.089844 96.472656 70.019531 C 96.648438 69.945312 96.828125 69.910156 97.015625 69.910156 C 97.207031 69.910156 97.386719 69.945312 97.566406 70.019531 C 97.738281 70.089844 97.890625 70.191406 98.027344 70.328125 C 98.164062 70.460938 98.265625 70.613281 98.335938 70.789062 C 98.40625 70.964844 98.445312 71.144531 98.445312 71.332031 Z M 98.445312 71.332031 "></path><path style=" stroke:none;fill-rule:nonzero;fill:#2d4356;fill-opacity:1;" d="M 101.296875 78.464844 C 101.296875 78.65625 101.261719 78.835938 101.1875 79.011719 C 101.117188 79.183594 101.011719 79.339844 100.878906 79.476562 C 100.746094 79.605469 100.589844 79.710938 100.417969 79.78125 C 100.242188 79.855469 100.0625 79.890625 99.867188 79.890625 C 99.679688 79.890625 99.5 79.855469 99.324219 79.78125 C 99.148438 79.710938 98.996094 79.605469 98.863281 79.476562 C 98.726562 79.339844 98.625 79.183594 98.550781 79.011719 C 98.480469 78.835938 98.445312 78.65625 98.445312 78.464844 C 98.445312 78.277344 98.480469 78.09375 98.550781 77.917969 C 98.625 77.742188 98.726562 77.59375 98.863281 77.457031 C 98.996094 77.320312 99.148438 77.21875 99.324219 77.144531 C 99.5 77.078125 99.679688 77.039062 99.867188 77.039062 C 100.0625 77.039062 100.242188 77.078125 100.417969 77.144531 C 100.589844 77.21875 100.746094 77.320312 100.878906 77.457031 C 101.011719 77.59375 101.117188 77.742188 101.1875 77.917969 C 101.261719 78.09375 101.296875 78.277344 101.296875 78.464844 Z M 101.296875 78.464844 "></path><path style=" stroke:none;fill-rule:nonzero;fill:#2d4356;fill-opacity:1;" d="M 101.296875 64.203125 C 101.296875 64.394531 101.261719 64.578125 101.1875 64.753906 C 101.117188 64.925781 101.011719 65.078125 100.878906 65.214844 C 100.746094 65.351562 100.589844 65.453125 100.417969 65.523438 C 100.242188 65.59375 100.0625 65.632812 99.867188 65.632812 C 99.679688 65.632812 99.5 65.59375 99.324219 65.523438 C 99.148438 65.453125 98.996094 65.351562 98.863281 65.214844 C 98.726562 65.078125 98.625 64.925781 98.550781 64.753906 C 98.480469 64.578125 98.445312 64.394531 98.445312 64.203125 C 98.445312 64.015625 98.480469 63.835938 98.550781 63.660156 C 98.625 63.484375 98.726562 63.332031 98.863281 63.195312 C 98.996094 63.0625 99.148438 62.960938 99.324219 62.890625 C 99.5 62.816406 99.679688 62.78125 99.867188 62.78125 C 100.0625 62.78125 100.242188 62.816406 100.417969 62.890625 C 100.589844 62.960938 100.746094 63.0625 100.878906 63.195312 C 101.011719 63.332031 101.117188 63.484375 101.1875 63.660156 C 101.261719 63.835938 101.296875 64.015625 101.296875 64.203125 Z M 101.296875 64.203125 "></path><path style=" stroke:none;fill-rule:nonzero;fill:#2d4356;fill-opacity:1;" d="M 93.457031 76.328125 C 93.457031 76.515625 93.417969 76.695312 93.34375 76.871094 C 93.269531 77.046875 93.167969 77.199219 93.039062 77.335938 C 92.902344 77.46875 92.746094 77.570312 92.574219 77.644531 C 92.398438 77.714844 92.214844 77.75 92.027344 77.75 C 91.839844 77.75 91.660156 77.714844 91.484375 77.644531 C 91.304688 77.570312 91.152344 77.46875 91.019531 77.335938 C 90.886719 77.199219 90.78125 77.046875 90.707031 76.871094 C 90.640625 76.695312 90.601562 76.515625 90.601562 76.328125 C 90.601562 76.136719 90.640625 75.953125 90.707031 75.777344 C 90.78125 75.605469 90.886719 75.453125 91.019531 75.316406 C 91.152344 75.183594 91.304688 75.078125 91.484375 75.007812 C 91.660156 74.9375 91.839844 74.898438 92.027344 74.898438 C 92.214844 74.898438 92.398438 74.9375 92.574219 75.007812 C 92.746094 75.078125 92.902344 75.183594 93.039062 75.316406 C 93.167969 75.453125 93.269531 75.605469 93.34375 75.777344 C 93.417969 75.953125 93.457031 76.136719 93.457031 76.328125 Z M 93.457031 76.328125 "></path><path style=" stroke:none;fill-rule:nonzero;fill:#2d4356;fill-opacity:1;" d="M 91.316406 69.910156 C 91.316406 70.097656 91.277344 70.28125 91.203125 70.453125 C 91.132812 70.628906 91.03125 70.785156 90.898438 70.917969 C 90.761719 71.050781 90.609375 71.152344 90.433594 71.226562 C 90.257812 71.300781 90.078125 71.332031 89.890625 71.332031 C 89.699219 71.332031 89.519531 71.300781 89.34375 71.226562 C 89.171875 71.152344 89.015625 71.050781 88.878906 70.917969 C 88.75 70.785156 88.640625 70.628906 88.574219 70.453125 C 88.5 70.28125 88.460938 70.097656 88.460938 69.910156 C 88.460938 69.722656 88.5 69.535156 88.574219 69.363281 C 88.640625 69.1875 88.75 69.035156 88.878906 68.902344 C 89.015625 68.765625 89.171875 68.664062 89.34375 68.589844 C 89.519531 68.519531 89.699219 68.484375 89.890625 68.484375 C 90.078125 68.484375 90.257812 68.519531 90.433594 68.589844 C 90.609375 68.664062 90.761719 68.765625 90.898438 68.902344 C 91.03125 69.035156 91.132812 69.1875 91.203125 69.363281 C 91.277344 69.535156 91.316406 69.722656 91.316406 69.910156 Z M 91.316406 69.910156 "></path><path style=" stroke:none;fill-rule:nonzero;fill:#2d4356;fill-opacity:1;" d="M 98.445312 84.167969 C 98.445312 84.359375 98.40625 84.539062 98.335938 84.714844 C 98.265625 84.890625 98.164062 85.046875 98.027344 85.175781 C 97.890625 85.3125 97.738281 85.414062 97.566406 85.488281 C 97.386719 85.558594 97.207031 85.59375 97.015625 85.59375 C 96.828125 85.59375 96.648438 85.558594 96.472656 85.488281 C 96.296875 85.414062 96.144531 85.3125 96.007812 85.175781 C 95.875 85.046875 95.773438 84.890625 95.703125 84.714844 C 95.628906 84.539062 95.59375 84.359375 95.59375 84.167969 C 95.59375 83.980469 95.628906 83.796875 95.703125 83.621094 C 95.773438 83.449219 95.875 83.292969 96.007812 83.160156 C 96.144531 83.027344 96.296875 82.925781 96.472656 82.851562 C 96.648438 82.777344 96.828125 82.742188 97.015625 82.742188 C 97.207031 82.742188 97.386719 82.777344 97.566406 82.851562 C 97.738281 82.925781 97.890625 83.027344 98.027344 83.160156 C 98.164062 83.292969 98.265625 83.449219 98.335938 83.621094 C 98.40625 83.796875 98.445312 83.980469 98.445312 84.167969 Z M 98.445312 84.167969 "></path><path style=" stroke:none;fill-rule:nonzero;fill:#2d4356;fill-opacity:1;" d="M 107.710938 77.75 C 107.710938 77.941406 107.679688 78.125 107.605469 78.296875 C 107.53125 78.472656 107.429688 78.628906 107.292969 78.757812 C 107.164062 78.894531 107.007812 78.996094 106.832031 79.070312 C 106.660156 79.144531 106.476562 79.179688 106.285156 79.179688 C 106.097656 79.179688 105.914062 79.144531 105.742188 79.070312 C 105.566406 78.996094 105.410156 78.894531 105.28125 78.757812 C 105.144531 78.628906 105.042969 78.472656 104.96875 78.296875 C 104.894531 78.125 104.863281 77.941406 104.863281 77.75 C 104.863281 77.5625 104.894531 77.378906 104.96875 77.207031 C 105.042969 77.03125 105.144531 76.875 105.28125 76.746094 C 105.410156 76.609375 105.566406 76.507812 105.742188 76.433594 C 105.914062 76.363281 106.097656 76.328125 106.285156 76.328125 C 106.476562 76.328125 106.660156 76.363281 106.832031 76.433594 C 107.007812 76.507812 107.164062 76.609375 107.292969 76.746094 C 107.429688 76.875 107.53125 77.03125 107.605469 77.207031 C 107.679688 77.378906 107.710938 77.5625 107.710938 77.75 Z M 107.710938 77.75 "></path><path style=" stroke:none;fill-rule:nonzero;fill:#2d4356;fill-opacity:1;" d="M 85.609375 74.1875 C 85.609375 74.375 85.578125 74.558594 85.503906 74.734375 C 85.429688 74.90625 85.328125 75.0625 85.191406 75.199219 C 85.0625 75.328125 84.90625 75.429688 84.730469 75.503906 C 84.558594 75.578125 84.371094 75.613281 84.183594 75.613281 C 83.996094 75.613281 83.8125 75.578125 83.640625 75.503906 C 83.464844 75.429688 83.308594 75.328125 83.179688 75.199219 C 83.042969 75.0625 82.941406 74.90625 82.867188 74.734375 C 82.792969 74.558594 82.761719 74.375 82.761719 74.1875 C 82.761719 74 82.792969 73.816406 82.867188 73.640625 C 82.941406 73.464844 83.042969 73.316406 83.179688 73.179688 C 83.308594 73.042969 83.464844 72.941406 83.640625 72.867188 C 83.8125 72.800781 83.996094 72.761719 84.183594 72.761719 C 84.371094 72.761719 84.558594 72.800781 84.730469 72.867188 C 84.90625 72.941406 85.0625 73.042969 85.191406 73.179688 C 85.328125 73.316406 85.429688 73.464844 85.503906 73.640625 C 85.578125 73.816406 85.609375 74 85.609375 74.1875 Z M 85.609375 74.1875 "></path><path style=" stroke:none;fill-rule:nonzero;fill:#2d4356;fill-opacity:1;" d="M 70.636719 78.464844 C 70.636719 78.65625 70.601562 78.835938 70.53125 79.011719 C 70.457031 79.183594 70.355469 79.339844 70.21875 79.476562 C 70.089844 79.605469 69.933594 79.710938 69.757812 79.78125 C 69.582031 79.855469 69.402344 79.890625 69.210938 79.890625 C 69.023438 79.890625 68.839844 79.855469 68.664062 79.78125 C 68.492188 79.710938 68.335938 79.605469 68.203125 79.476562 C 68.070312 79.339844 67.96875 79.183594 67.894531 79.011719 C 67.820312 78.835938 67.785156 78.65625 67.785156 78.464844 C 67.785156 78.277344 67.820312 78.09375 67.894531 77.917969 C 67.96875 77.742188 68.070312 77.59375 68.203125 77.457031 C 68.335938 77.320312 68.492188 77.21875 68.664062 77.144531 C 68.839844 77.078125 69.023438 77.039062 69.210938 77.039062 C 69.402344 77.039062 69.582031 77.078125 69.757812 77.144531 C 69.933594 77.21875 70.089844 77.320312 70.21875 77.457031 C 70.355469 77.59375 70.457031 77.742188 70.53125 77.917969 C 70.601562 78.09375 70.636719 78.277344 70.636719 78.464844 Z M 70.636719 78.464844 "></path><path style=" stroke:none;fill-rule:nonzero;fill:#2d4356;fill-opacity:1;" d="M 65.648438 79.179688 C 65.648438 79.367188 65.609375 79.546875 65.539062 79.722656 C 65.46875 79.898438 65.367188 80.050781 65.230469 80.1875 C 65.09375 80.320312 64.945312 80.425781 64.769531 80.492188 C 64.59375 80.566406 64.410156 80.605469 64.222656 80.605469 C 64.03125 80.605469 63.851562 80.566406 63.675781 80.492188 C 63.503906 80.425781 63.347656 80.320312 63.210938 80.1875 C 63.078125 80.050781 62.976562 79.898438 62.90625 79.722656 C 62.832031 79.546875 62.796875 79.367188 62.796875 79.179688 C 62.796875 78.988281 62.832031 78.808594 62.90625 78.632812 C 62.976562 78.460938 63.078125 78.304688 63.210938 78.167969 C 63.347656 78.035156 63.503906 77.929688 63.675781 77.863281 C 63.851562 77.789062 64.03125 77.75 64.222656 77.75 C 64.410156 77.75 64.59375 77.789062 64.769531 77.863281 C 64.945312 77.929688 65.09375 78.035156 65.230469 78.167969 C 65.367188 78.304688 65.46875 78.460938 65.539062 78.632812 C 65.609375 78.808594 65.648438 78.988281 65.648438 79.179688 Z M 65.648438 79.179688 "></path><path style=" stroke:none;fill-rule:nonzero;fill:#2d4356;fill-opacity:1;" d="M 68.5 73.472656 C 68.5 73.664062 68.464844 73.847656 68.390625 74.019531 C 68.316406 74.195312 68.214844 74.351562 68.082031 74.480469 C 67.949219 74.617188 67.792969 74.71875 67.621094 74.792969 C 67.445312 74.867188 67.261719 74.898438 67.070312 74.898438 C 66.882812 74.898438 66.703125 74.867188 66.527344 74.792969 C 66.351562 74.71875 66.195312 74.617188 66.066406 74.480469 C 65.929688 74.351562 65.828125 74.195312 65.753906 74.019531 C 65.683594 73.847656 65.648438 73.664062 65.648438 73.472656 C 65.648438 73.285156 65.683594 73.101562 65.753906 72.929688 C 65.828125 72.753906 65.929688 72.597656 66.066406 72.46875 C 66.195312 72.332031 66.351562 72.230469 66.527344 72.15625 C 66.703125 72.082031 66.882812 72.050781 67.070312 72.050781 C 67.261719 72.050781 67.445312 72.082031 67.621094 72.15625 C 67.792969 72.230469 67.949219 72.332031 68.082031 72.46875 C 68.214844 72.597656 68.316406 72.753906 68.390625 72.929688 C 68.464844 73.101562 68.5 73.285156 68.5 73.472656 Z M 68.5 73.472656 "></path><path style=" stroke:none;fill-rule:nonzero;fill:#2d4356;fill-opacity:1;" d="M 37.128906 78.464844 C 37.128906 78.65625 37.089844 78.835938 37.023438 79.011719 C 36.949219 79.183594 36.847656 79.339844 36.710938 79.476562 C 36.574219 79.605469 36.425781 79.710938 36.25 79.78125 C 36.070312 79.855469 35.890625 79.890625 35.703125 79.890625 C 35.511719 79.890625 35.332031 79.855469 35.15625 79.78125 C 34.984375 79.710938 34.828125 79.605469 34.691406 79.476562 C 34.5625 79.339844 34.457031 79.183594 34.386719 79.011719 C 34.3125 78.835938 34.273438 78.65625 34.273438 78.464844 C 34.273438 78.277344 34.3125 78.09375 34.386719 77.917969 C 34.457031 77.742188 34.5625 77.59375 34.691406 77.457031 C 34.828125 77.320312 34.984375 77.21875 35.15625 77.144531 C 35.332031 77.078125 35.511719 77.039062 35.703125 77.039062 C 35.890625 77.039062 36.070312 77.078125 36.25 77.144531 C 36.425781 77.21875 36.574219 77.320312 36.710938 77.457031 C 36.847656 77.59375 36.949219 77.742188 37.023438 77.917969 C 37.089844 78.09375 37.128906 78.277344 37.128906 78.464844 Z M 37.128906 78.464844 "></path><path style=" stroke:none;fill-rule:nonzero;fill:#2d4356;fill-opacity:1;" d="M 42.117188 79.179688 C 42.117188 79.367188 42.085938 79.546875 42.011719 79.722656 C 41.9375 79.898438 41.835938 80.050781 41.699219 80.1875 C 41.570312 80.320312 41.414062 80.425781 41.238281 80.492188 C 41.066406 80.566406 40.882812 80.605469 40.691406 80.605469 C 40.503906 80.605469 40.320312 80.566406 40.148438 80.492188 C 39.972656 80.425781 39.816406 80.320312 39.6875 80.1875 C 39.550781 80.050781 39.449219 79.898438 39.375 79.722656 C 39.300781 79.546875 39.269531 79.367188 39.269531 79.179688 C 39.269531 78.988281 39.300781 78.808594 39.375 78.632812 C 39.449219 78.460938 39.550781 78.304688 39.6875 78.167969 C 39.816406 78.035156 39.972656 77.929688 40.148438 77.863281 C 40.320312 77.789062 40.503906 77.75 40.691406 77.75 C 40.882812 77.75 41.066406 77.789062 41.238281 77.863281 C 41.414062 77.929688 41.570312 78.035156 41.699219 78.167969 C 41.835938 78.304688 41.9375 78.460938 42.011719 78.632812 C 42.085938 78.808594 42.117188 78.988281 42.117188 79.179688 Z M 42.117188 79.179688 "></path><path style=" stroke:none;fill-rule:nonzero;fill:#2d4356;fill-opacity:1;" d="M 39.269531 73.472656 C 39.269531 73.664062 39.230469 73.847656 39.160156 74.019531 C 39.085938 74.195312 38.980469 74.351562 38.847656 74.480469 C 38.714844 74.617188 38.5625 74.71875 38.382812 74.792969 C 38.210938 74.867188 38.027344 74.898438 37.839844 74.898438 C 37.652344 74.898438 37.46875 74.867188 37.296875 74.792969 C 37.121094 74.71875 36.964844 74.617188 36.832031 74.480469 C 36.699219 74.351562 36.597656 74.195312 36.523438 74.019531 C 36.453125 73.847656 36.414062 73.664062 36.414062 73.472656 C 36.414062 73.285156 36.453125 73.101562 36.523438 72.929688 C 36.597656 72.753906 36.699219 72.597656 36.832031 72.46875 C 36.964844 72.332031 37.121094 72.230469 37.296875 72.15625 C 37.46875 72.082031 37.652344 72.050781 37.839844 72.050781 C 38.027344 72.050781 38.210938 72.082031 38.382812 72.15625 C 38.5625 72.230469 38.714844 72.332031 38.847656 72.46875 C 38.980469 72.597656 39.085938 72.753906 39.160156 72.929688 C 39.230469 73.101562 39.269531 73.285156 39.269531 73.472656 Z M 39.269531 73.472656 "></path><path style=" stroke:none;fill-rule:nonzero;fill:#2d4356;fill-opacity:1;" d="M 91.316406 82.027344 C 91.316406 82.222656 91.277344 82.402344 91.203125 82.578125 C 91.132812 82.75 91.03125 82.90625 90.898438 83.039062 C 90.761719 83.171875 90.609375 83.277344 90.433594 83.347656 C 90.257812 83.421875 90.078125 83.457031 89.890625 83.457031 C 89.699219 83.457031 89.519531 83.421875 89.34375 83.347656 C 89.171875 83.277344 89.015625 83.171875 88.878906 83.039062 C 88.75 82.90625 88.640625 82.75 88.574219 82.578125 C 88.5 82.402344 88.460938 82.222656 88.460938 82.027344 C 88.460938 81.839844 88.5 81.660156 88.574219 81.484375 C 88.640625 81.308594 88.75 81.15625 88.878906 81.023438 C 89.015625 80.886719 89.171875 80.785156 89.34375 80.710938 C 89.519531 80.640625 89.699219 80.605469 89.890625 80.605469 C 90.078125 80.605469 90.257812 80.640625 90.433594 80.710938 C 90.609375 80.785156 90.761719 80.886719 90.898438 81.023438 C 91.03125 81.15625 91.132812 81.308594 91.203125 81.484375 C 91.277344 81.660156 91.316406 81.839844 91.316406 82.027344 Z M 91.316406 82.027344 "></path><path style=" stroke:none;fill-rule:nonzero;fill:#2d4356;fill-opacity:1;" d="M 62.882812 88.445312 C 63.140625 88.445312 63.398438 88.425781 63.652344 88.386719 C 64.460938 88.21875 65.207031 87.898438 65.886719 87.425781 C 66.566406 86.960938 67.125 86.375 67.570312 85.679688 C 67.667969 85.519531 67.734375 85.347656 67.769531 85.160156 C 67.796875 84.976562 67.789062 84.792969 67.746094 84.605469 C 67.703125 84.421875 67.628906 84.25 67.519531 84.101562 C 67.40625 83.945312 67.273438 83.820312 67.113281 83.71875 C 66.953125 83.621094 66.777344 83.554688 66.59375 83.523438 C 66.40625 83.492188 66.222656 83.496094 66.035156 83.542969 C 65.851562 83.582031 65.683594 83.660156 65.527344 83.769531 C 65.378906 83.878906 65.25 84.015625 65.148438 84.171875 C 64.671875 84.886719 64.023438 85.351562 63.199219 85.570312 C 62.285156 85.628906 61.503906 85.335938 60.863281 84.679688 C 57.714844 82.058594 54.597656 82.578125 52.8125 83.492188 C 51.027344 82.574219 47.910156 82.058594 44.761719 84.679688 C 44.121094 85.328125 43.347656 85.625 42.441406 85.574219 C 41.609375 85.355469 40.953125 84.890625 40.476562 84.171875 C 40.378906 84.015625 40.25 83.878906 40.09375 83.769531 C 39.945312 83.660156 39.777344 83.582031 39.59375 83.542969 C 39.40625 83.496094 39.21875 83.492188 39.035156 83.523438 C 38.847656 83.554688 38.675781 83.621094 38.515625 83.71875 C 38.355469 83.820312 38.222656 83.945312 38.109375 84.101562 C 38 84.25 37.921875 84.421875 37.882812 84.605469 C 37.835938 84.792969 37.832031 84.976562 37.859375 85.160156 C 37.894531 85.347656 37.953125 85.519531 38.058594 85.679688 C 38.503906 86.375 39.0625 86.960938 39.742188 87.425781 C 40.421875 87.898438 41.167969 88.21875 41.972656 88.386719 C 42.816406 88.492188 43.644531 88.414062 44.449219 88.148438 C 45.261719 87.882812 45.972656 87.457031 46.585938 86.875 C 49.425781 84.503906 51.6875 86.105469 51.921875 86.285156 C 52.183594 86.488281 52.476562 86.59375 52.804688 86.597656 C 53.136719 86.597656 53.433594 86.5 53.695312 86.296875 C 53.941406 86.105469 56.203125 84.507812 59.039062 86.875 C 60.125 87.871094 61.40625 88.394531 62.882812 88.445312 Z M 62.882812 88.445312 "></path><path style=" stroke:none;fill-rule:nonzero;fill:#2d4356;fill-opacity:1;" d="M 49.246094 89.160156 C 49.058594 89.160156 48.878906 89.195312 48.703125 89.269531 C 48.527344 89.339844 48.371094 89.441406 48.242188 89.574219 C 48.105469 89.710938 48.003906 89.863281 47.929688 90.039062 C 47.855469 90.214844 47.820312 90.394531 47.820312 90.585938 C 47.820312 90.773438 47.855469 90.957031 47.929688 91.132812 C 48.003906 91.308594 48.105469 91.457031 48.242188 91.59375 C 48.371094 91.730469 48.527344 91.832031 48.703125 91.90625 C 48.878906 91.972656 49.058594 92.011719 49.246094 92.011719 L 56.378906 92.011719 C 56.570312 92.011719 56.75 91.972656 56.925781 91.90625 C 57.101562 91.832031 57.253906 91.730469 57.386719 91.59375 C 57.523438 91.457031 57.625 91.308594 57.699219 91.132812 C 57.773438 90.957031 57.804688 90.773438 57.804688 90.585938 C 57.804688 90.394531 57.773438 90.214844 57.699219 90.039062 C 57.625 89.863281 57.523438 89.710938 57.386719 89.574219 C 57.253906 89.441406 57.101562 89.339844 56.925781 89.269531 C 56.75 89.195312 56.570312 89.160156 56.378906 89.160156 Z M 49.246094 89.160156 "></path><path style=" stroke:none;fill-rule:nonzero;fill:#2d4356;fill-opacity:1;" d="M 59.945312 65.636719 C 59.667969 65.636719 59.390625 65.660156 59.113281 65.714844 C 58.835938 65.769531 58.570312 65.851562 58.308594 65.960938 C 58.050781 66.066406 57.804688 66.195312 57.574219 66.351562 C 57.339844 66.507812 57.121094 66.683594 56.921875 66.882812 C 56.726562 67.082031 56.550781 67.296875 56.390625 67.53125 C 56.234375 67.765625 56.101562 68.011719 55.996094 68.273438 C 55.886719 68.53125 55.808594 68.796875 55.75 69.070312 C 55.699219 69.347656 55.667969 69.628906 55.667969 69.90625 C 55.667969 70.1875 55.695312 70.464844 55.75 70.742188 C 55.804688 71.015625 55.886719 71.28125 55.992188 71.542969 C 56.097656 71.800781 56.230469 72.046875 56.386719 72.277344 C 56.539062 72.515625 56.722656 72.730469 56.917969 72.929688 C 57.117188 73.125 57.332031 73.304688 57.5625 73.460938 C 57.796875 73.617188 58.042969 73.75 58.304688 73.859375 C 58.5625 73.964844 58.828125 74.046875 59.105469 74.101562 C 59.382812 74.15625 59.660156 74.183594 59.9375 74.183594 C 60.21875 74.183594 60.5 74.15625 60.773438 74.101562 C 61.046875 74.046875 61.316406 73.964844 61.574219 73.859375 C 61.835938 73.753906 62.082031 73.621094 62.316406 73.464844 C 62.550781 73.3125 62.765625 73.132812 62.960938 72.933594 C 63.164062 72.738281 63.339844 72.519531 63.496094 72.289062 C 63.652344 72.054688 63.785156 71.808594 63.890625 71.546875 C 64 71.289062 64.082031 71.023438 64.132812 70.75 C 64.191406 70.46875 64.21875 70.191406 64.21875 69.914062 C 64.21875 69.632812 64.191406 69.351562 64.132812 69.078125 C 64.082031 68.804688 64 68.539062 63.890625 68.277344 C 63.785156 68.019531 63.65625 67.773438 63.5 67.539062 C 63.34375 67.304688 63.164062 67.089844 62.96875 66.894531 C 62.765625 66.691406 62.554688 66.515625 62.320312 66.359375 C 62.085938 66.203125 61.839844 66.070312 61.578125 65.964844 C 61.320312 65.855469 61.054688 65.777344 60.78125 65.71875 C 60.507812 65.664062 60.230469 65.636719 59.945312 65.636719 Z M 59.945312 71.335938 C 59.757812 71.335938 59.574219 71.300781 59.402344 71.230469 C 59.226562 71.15625 59.070312 71.054688 58.941406 70.921875 C 58.804688 70.789062 58.703125 70.632812 58.628906 70.457031 C 58.558594 70.28125 58.523438 70.101562 58.523438 69.914062 C 58.523438 69.726562 58.558594 69.542969 58.628906 69.371094 C 58.703125 69.191406 58.804688 69.039062 58.941406 68.902344 C 59.070312 68.773438 59.226562 68.667969 59.402344 68.59375 C 59.574219 68.523438 59.757812 68.484375 59.945312 68.484375 C 60.132812 68.484375 60.320312 68.523438 60.492188 68.59375 C 60.667969 68.667969 60.820312 68.773438 60.957031 68.902344 C 61.089844 69.039062 61.191406 69.191406 61.265625 69.371094 C 61.339844 69.542969 61.375 69.726562 61.375 69.914062 C 61.375 70.101562 61.339844 70.285156 61.265625 70.457031 C 61.191406 70.632812 61.089844 70.789062 60.957031 70.921875 C 60.820312 71.054688 60.667969 71.15625 60.492188 71.230469 C 60.320312 71.300781 60.132812 71.335938 59.945312 71.335938 Z M 59.945312 71.335938 "></path><path style=" stroke:none;fill-rule:nonzero;fill:#ffffff;fill-opacity:1;" d="M 61.375 69.914062 C 61.375 70.101562 61.339844 70.285156 61.265625 70.457031 C 61.191406 70.632812 61.089844 70.789062 60.957031 70.921875 C 60.820312 71.054688 60.667969 71.15625 60.492188 71.230469 C 60.320312 71.300781 60.132812 71.335938 59.945312 71.335938 C 59.757812 71.335938 59.574219 71.300781 59.402344 71.230469 C 59.226562 71.15625 59.070312 71.054688 58.941406 70.921875 C 58.804688 70.789062 58.703125 70.632812 58.628906 70.457031 C 58.558594 70.28125 58.523438 70.101562 58.523438 69.914062 C 58.523438 69.726562 58.558594 69.542969 58.628906 69.371094 C 58.703125 69.191406 58.804688 69.039062 58.941406 68.902344 C 59.070312 68.773438 59.226562 68.667969 59.402344 68.59375 C 59.574219 68.523438 59.757812 68.484375 59.945312 68.484375 C 60.132812 68.488281 60.320312 68.527344 60.492188 68.59375 C 60.667969 68.667969 60.820312 68.773438 60.953125 68.90625 C 61.089844 69.039062 61.191406 69.191406 61.265625 69.371094 C 61.332031 69.542969 61.371094 69.726562 61.375 69.914062 Z M 61.375 69.914062 "></path><path style=" stroke:none;fill-rule:nonzero;fill:#2d4356;fill-opacity:1;" d="M 45.6875 65.636719 C 45.402344 65.636719 45.128906 65.660156 44.851562 65.71875 C 44.578125 65.769531 44.3125 65.851562 44.050781 65.960938 C 43.792969 66.070312 43.546875 66.203125 43.3125 66.355469 C 43.078125 66.511719 42.863281 66.6875 42.664062 66.890625 C 42.464844 67.085938 42.289062 67.300781 42.132812 67.535156 C 41.976562 67.769531 41.847656 68.015625 41.742188 68.277344 C 41.632812 68.535156 41.550781 68.800781 41.496094 69.078125 C 41.441406 69.351562 41.414062 69.632812 41.414062 69.910156 C 41.414062 70.191406 41.441406 70.46875 41.5 70.746094 C 41.550781 71.019531 41.632812 71.285156 41.742188 71.546875 C 41.847656 71.804688 41.976562 72.050781 42.132812 72.285156 C 42.292969 72.515625 42.46875 72.734375 42.664062 72.929688 C 42.867188 73.128906 43.082031 73.304688 43.316406 73.460938 C 43.550781 73.617188 43.796875 73.753906 44.054688 73.859375 C 44.3125 73.964844 44.582031 74.046875 44.855469 74.101562 C 45.128906 74.15625 45.40625 74.183594 45.691406 74.183594 C 45.96875 74.183594 46.246094 74.15625 46.519531 74.101562 C 46.796875 74.046875 47.066406 73.964844 47.324219 73.859375 C 47.582031 73.753906 47.832031 73.621094 48.066406 73.464844 C 48.296875 73.3125 48.511719 73.128906 48.710938 72.933594 C 48.90625 72.734375 49.085938 72.519531 49.242188 72.289062 C 49.398438 72.054688 49.53125 71.808594 49.636719 71.546875 C 49.746094 71.289062 49.828125 71.023438 49.882812 70.75 C 49.933594 70.46875 49.964844 70.191406 49.964844 69.914062 C 49.964844 69.632812 49.933594 69.351562 49.882812 69.078125 C 49.828125 68.804688 49.746094 68.535156 49.636719 68.277344 C 49.53125 68.019531 49.398438 67.769531 49.242188 67.535156 C 49.085938 67.300781 48.90625 67.089844 48.710938 66.890625 C 48.511719 66.6875 48.296875 66.511719 48.058594 66.355469 C 47.828125 66.203125 47.582031 66.070312 47.324219 65.960938 C 47.0625 65.851562 46.796875 65.769531 46.519531 65.71875 C 46.246094 65.660156 45.96875 65.636719 45.6875 65.636719 Z M 45.6875 71.335938 C 45.5 71.335938 45.3125 71.300781 45.140625 71.230469 C 44.964844 71.15625 44.8125 71.054688 44.679688 70.921875 C 44.542969 70.789062 44.441406 70.632812 44.367188 70.457031 C 44.292969 70.28125 44.261719 70.101562 44.261719 69.914062 C 44.261719 69.726562 44.292969 69.542969 44.367188 69.371094 C 44.441406 69.191406 44.542969 69.039062 44.679688 68.902344 C 44.8125 68.773438 44.964844 68.667969 45.140625 68.59375 C 45.3125 68.523438 45.5 68.484375 45.6875 68.484375 C 45.875 68.484375 46.058594 68.523438 46.230469 68.59375 C 46.40625 68.667969 46.5625 68.773438 46.695312 68.902344 C 46.828125 69.039062 46.929688 69.191406 47.003906 69.371094 C 47.078125 69.542969 47.109375 69.726562 47.109375 69.914062 C 47.109375 70.101562 47.078125 70.285156 47.003906 70.457031 C 46.929688 70.632812 46.828125 70.789062 46.695312 70.921875 C 46.5625 71.054688 46.40625 71.15625 46.230469 71.230469 C 46.058594 71.300781 45.875 71.335938 45.6875 71.335938 Z M 45.6875 71.335938 "></path><path style=" stroke:none;fill-rule:nonzero;fill:#ffffff;fill-opacity:1;" d="M 47.109375 69.914062 C 47.109375 70.101562 47.078125 70.285156 47.003906 70.457031 C 46.929688 70.632812 46.828125 70.789062 46.695312 70.921875 C 46.5625 71.054688 46.40625 71.15625 46.230469 71.230469 C 46.058594 71.300781 45.875 71.335938 45.6875 71.335938 C 45.5 71.335938 45.3125 71.300781 45.140625 71.230469 C 44.964844 71.15625 44.8125 71.054688 44.679688 70.921875 C 44.542969 70.789062 44.441406 70.632812 44.367188 70.457031 C 44.292969 70.28125 44.261719 70.101562 44.261719 69.914062 C 44.261719 69.726562 44.292969 69.542969 44.367188 69.371094 C 44.441406 69.191406 44.542969 69.039062 44.679688 68.902344 C 44.8125 68.773438 44.964844 68.667969 45.140625 68.59375 C 45.3125 68.523438 45.5 68.484375 45.6875 68.484375 C 45.875 68.488281 46.058594 68.527344 46.230469 68.59375 C 46.40625 68.667969 46.558594 68.773438 46.695312 68.90625 C 46.828125 69.039062 46.929688 69.191406 47.003906 69.371094 C 47.074219 69.542969 47.109375 69.726562 47.109375 69.914062 Z M 47.109375 69.914062 "></path><path style=" stroke:none;fill-rule:nonzero;fill:#e5d0c3;fill-opacity:0.3;" d="M 81.324219 49.792969 C 81.304688 48.710938 81.210938 47.640625 81.039062 46.574219 C 80.449219 42.960938 79.15625 40.464844 77.195312 39.160156 C 75.84375 38.265625 74.367188 37.953125 72.765625 38.214844 C 72.4375 38.292969 72.117188 38.253906 71.8125 38.105469 C 71.503906 37.960938 71.285156 37.730469 71.140625 37.417969 C 69.046875 32.882812 66.238281 30.472656 55.929688 29.050781 C 53.660156 28.726562 51.375 28.5625 49.078125 28.558594 C 39.453125 28.558594 27.949219 31.738281 25.210938 46.164062 C 24.660156 48.996094 24.363281 51.855469 24.308594 54.742188 C 24.265625 51.371094 24.5625 48.039062 25.210938 44.738281 C 27.949219 30.308594 39.453125 27.128906 49.078125 27.128906 C 51.375 27.136719 53.660156 27.300781 55.929688 27.625 C 66.238281 29.050781 69.046875 31.460938 71.140625 35.996094 C 71.285156 36.300781 71.503906 36.53125 71.8125 36.683594 C 72.117188 36.832031 72.4375 36.863281 72.765625 36.785156 C 74.367188 36.527344 75.84375 36.84375 77.195312 37.734375 C 79.15625 39.039062 80.449219 41.53125 81.039062 45.152344 C 81.273438 46.6875 81.371094 48.234375 81.324219 49.792969 Z M 81.324219 49.792969 "></path><path style=" stroke:none;fill-rule:nonzero;fill:#9fa5aa;fill-opacity:0.5;" d="M 74.339844 79.460938 C 73.644531 82.222656 72.6875 84.335938 71.492188 85.707031 C 69.464844 88.035156 67.796875 90.191406 66.328125 92.089844 C 61.742188 98.011719 59.21875 101.277344 52.910156 101.277344 L 52.757812 101.277344 C 46.449219 101.277344 43.925781 98.011719 39.339844 92.089844 C 37.875 90.191406 36.203125 88.035156 34.175781 85.707031 C 31.824219 83.019531 30.523438 78.964844 30.101562 73.035156 C 30.132812 72.992188 30.179688 72.957031 30.207031 72.914062 C 30.71875 78.140625 32.003906 81.792969 34.175781 84.28125 C 36.203125 86.613281 37.875 88.765625 39.339844 90.660156 C 43.925781 96.585938 46.449219 99.851562 52.757812 99.851562 L 52.910156 99.851562 C 59.21875 99.851562 61.742188 96.585938 66.328125 90.660156 C 67.796875 88.765625 69.464844 86.613281 71.492188 84.28125 C 72.671875 82.796875 73.503906 81.140625 73.984375 79.3125 Z M 74.339844 79.460938 "></path><path style=" stroke:none;fill-rule:nonzero;fill:#f9dbd7;fill-opacity:0.3;" d="M 109.832031 74.84375 C 109.785156 74.070312 109.675781 73.300781 109.5 72.546875 C 109.328125 71.789062 109.085938 71.050781 108.785156 70.335938 C 108.480469 69.617188 108.121094 68.929688 107.699219 68.277344 C 107.277344 67.625 106.800781 67.011719 106.273438 66.4375 C 105.75 65.867188 105.175781 65.339844 104.558594 64.867188 C 103.945312 64.394531 103.289062 63.980469 102.601562 63.613281 C 101.910156 63.253906 101.199219 62.957031 100.457031 62.71875 C 99.71875 62.476562 98.960938 62.304688 98.191406 62.199219 C 97.421875 62.09375 96.648438 62.050781 95.871094 62.074219 C 95.09375 62.101562 94.324219 62.195312 93.5625 62.351562 C 92.796875 62.507812 92.054688 62.730469 91.332031 63.015625 C 90.609375 63.304688 89.914062 63.652344 89.25 64.054688 C 88.589844 64.460938 87.960938 64.925781 87.382812 65.4375 C 86.796875 65.949219 86.261719 66.507812 85.773438 67.113281 C 85.285156 67.71875 84.851562 68.363281 84.476562 69.046875 C 84.097656 69.726562 83.785156 70.433594 83.527344 71.164062 C 83.324219 71.746094 83.015625 72.253906 82.59375 72.699219 C 82.175781 73.148438 81.679688 73.488281 81.113281 73.71875 L 78.257812 74.898438 L 76.527344 74.183594 L 81.113281 72.296875 C 81.679688 72.058594 82.175781 71.71875 82.59375 71.277344 C 83.015625 70.832031 83.324219 70.320312 83.527344 69.742188 C 83.785156 69.003906 84.097656 68.300781 84.476562 67.617188 C 84.851562 66.9375 85.285156 66.296875 85.773438 65.691406 C 86.261719 65.082031 86.796875 64.523438 87.382812 64.011719 C 87.960938 63.496094 88.589844 63.039062 89.25 62.632812 C 89.914062 62.222656 90.609375 61.878906 91.332031 61.59375 C 92.054688 61.304688 92.796875 61.085938 93.5625 60.925781 C 94.324219 60.765625 95.09375 60.675781 95.871094 60.648438 C 96.648438 60.621094 97.421875 60.664062 98.191406 60.773438 C 98.960938 60.878906 99.71875 61.050781 100.457031 61.289062 C 101.199219 61.527344 101.910156 61.828125 102.601562 62.191406 C 103.289062 62.550781 103.945312 62.96875 104.558594 63.441406 C 105.175781 63.917969 105.75 64.441406 106.273438 65.011719 C 106.800781 65.582031 107.277344 66.195312 107.699219 66.851562 C 108.121094 67.507812 108.480469 68.191406 108.785156 68.90625 C 109.085938 69.621094 109.328125 70.359375 109.5 71.121094 C 109.675781 71.878906 109.785156 72.644531 109.832031 73.421875 C 109.859375 73.894531 109.859375 74.371094 109.832031 74.84375 Z M 109.832031 74.84375 "></path><path style=" stroke:none;fill-rule:nonzero;fill:#a54b3f;fill-opacity:0.5;" d="M 106.144531 83.496094 C 105.746094 83.914062 105.324219 84.308594 104.875 84.675781 C 104.429688 85.042969 103.957031 85.378906 103.464844 85.683594 C 102.976562 85.992188 102.46875 86.265625 101.941406 86.507812 C 101.410156 86.746094 100.875 86.953125 100.320312 87.125 C 99.765625 87.296875 99.207031 87.429688 98.636719 87.53125 C 98.066406 87.628906 97.492188 87.691406 96.914062 87.71875 C 96.335938 87.742188 95.757812 87.734375 95.183594 87.683594 C 94.605469 87.636719 94.03125 87.550781 93.46875 87.429688 C 92.902344 87.308594 92.347656 87.148438 91.796875 86.957031 C 91.253906 86.765625 90.722656 86.539062 90.207031 86.277344 C 89.691406 86.015625 89.191406 85.71875 88.710938 85.398438 C 88.234375 85.070312 87.777344 84.71875 87.34375 84.332031 C 86.910156 83.949219 86.503906 83.539062 86.121094 83.105469 C 85.738281 82.667969 85.390625 82.207031 85.070312 81.730469 C 84.746094 81.246094 84.453125 80.746094 84.195312 80.230469 C 83.9375 79.710938 83.71875 79.179688 83.527344 78.632812 C 83.324219 78.054688 83.015625 77.542969 82.597656 77.101562 C 82.175781 76.65625 81.683594 76.316406 81.113281 76.082031 L 76.527344 74.183594 L 78.257812 73.46875 L 81.113281 74.652344 C 81.683594 74.886719 82.175781 75.226562 82.597656 75.671875 C 83.015625 76.117188 83.324219 76.628906 83.527344 77.207031 C 83.71875 77.753906 83.9375 78.289062 84.195312 78.804688 C 84.453125 79.324219 84.746094 79.824219 85.070312 80.304688 C 85.390625 80.785156 85.738281 81.242188 86.125 81.675781 C 86.503906 82.113281 86.910156 82.523438 87.34375 82.910156 C 87.777344 83.292969 88.234375 83.644531 88.710938 83.96875 C 89.191406 84.296875 89.691406 84.589844 90.207031 84.847656 C 90.722656 85.109375 91.253906 85.339844 91.796875 85.53125 C 92.347656 85.722656 92.902344 85.878906 93.46875 86.003906 C 94.03125 86.125 94.605469 86.210938 95.183594 86.257812 C 95.757812 86.304688 96.335938 86.316406 96.914062 86.292969 C 97.492188 86.265625 98.066406 86.203125 98.636719 86.105469 C 99.207031 86.003906 99.765625 85.867188 100.320312 85.695312 C 100.875 85.527344 101.410156 85.320312 101.941406 85.078125 C 102.46875 84.839844 102.976562 84.566406 103.464844 84.257812 C 103.957031 83.953125 104.429688 83.617188 104.875 83.253906 C 105.324219 82.882812 105.746094 82.492188 106.144531 82.070312 C 107.253906 80.90625 108.125 79.589844 108.757812 78.117188 C 109.394531 76.640625 109.75 75.101562 109.832031 73.5 C 109.929688 75.347656 109.664062 77.140625 109.019531 78.878906 C 108.382812 80.617188 107.421875 82.15625 106.144531 83.496094 Z M 106.144531 83.496094 "></path><path style=" stroke:none;fill-rule:nonzero;fill:#2d4356;fill-opacity:1;" d="M 92.738281 64.203125 C 92.738281 64.394531 92.707031 64.578125 92.632812 64.753906 C 92.558594 64.925781 92.457031 65.078125 92.320312 65.214844 C 92.191406 65.351562 92.035156 65.453125 91.859375 65.523438 C 91.6875 65.59375 91.503906 65.632812 91.316406 65.632812 C 91.125 65.632812 90.941406 65.59375 90.769531 65.523438 C 90.59375 65.453125 90.4375 65.351562 90.308594 65.214844 C 90.171875 65.078125 90.070312 64.925781 89.996094 64.753906 C 89.921875 64.578125 89.890625 64.394531 89.890625 64.203125 C 89.890625 64.015625 89.921875 63.835938 89.996094 63.660156 C 90.070312 63.484375 90.171875 63.332031 90.308594 63.195312 C 90.4375 63.0625 90.59375 62.960938 90.769531 62.890625 C 90.941406 62.816406 91.125 62.78125 91.316406 62.78125 C 91.503906 62.78125 91.6875 62.816406 91.859375 62.890625 C 92.035156 62.960938 92.191406 63.0625 92.320312 63.195312 C 92.457031 63.332031 92.558594 63.484375 92.632812 63.660156 C 92.707031 63.835938 92.738281 64.015625 92.738281 64.203125 Z M 92.738281 64.203125 "></path></g></svg>
