<svg xmlns="http://www.w3.org/2000/svg" xmlns:xlink="http://www.w3.org/1999/xlink" width="180" zoomAndPan="magnify" viewBox="0 0 135 135.000003" height="180" preserveAspectRatio="xMidYMid meet"><defs><clipPath id="8395e1b04e"><path d="M 0.496094 0 L 134.503906 0 L 134.503906 134.007812 L 0.496094 134.007812 Z M 0.496094 0 "></path></clipPath><clipPath id="1f7d8131f8"><path d="M 0.496094 0 L 134.503906 0 L 134.503906 134.007812 L 0.496094 134.007812 Z M 0.496094 0 "></path></clipPath><clipPath id="62f8c12905"><path d="M 67.5 0 C 30.496094 0 0.496094 30 0.496094 67.003906 C 0.496094 104.007812 30.496094 134.007812 67.5 134.007812 C 104.503906 134.007812 134.503906 104.007812 134.503906 67.003906 C 134.503906 30 104.503906 0 67.5 0 Z M 67.5 0 "></path></clipPath><clipPath id="c98e779369"><path d="M 23.863281 24.347656 L 110.96875 24.347656 L 110.96875 109.964844 L 23.863281 109.964844 Z M 23.863281 24.347656 "></path></clipPath><clipPath id="390e3fd1be"><path d="M 64.324219 -2.582031 C 26.574219 -2.582031 -4.035156 28.023438 -4.035156 65.777344 C -4.035156 103.53125 26.574219 134.136719 64.324219 134.136719 C 102.078125 134.136719 132.683594 103.53125 132.683594 65.777344 C 132.683594 28.023438 102.078125 -2.582031 64.324219 -2.582031 Z M 64.324219 -2.582031 "></path></clipPath><clipPath id="4f54cab42c"><path d="M 25 24.347656 L 104 24.347656 L 104 99 L 25 99 Z M 25 24.347656 "></path></clipPath><clipPath id="05a326ba64"><path d="M 23.863281 70 L 107.75 70 L 107.75 108 L 23.863281 108 Z M 23.863281 70 "></path></clipPath><clipPath id="922895e2b2"><path d="M 37 24.347656 L 104 24.347656 L 104 99 L 37 99 Z M 37 24.347656 "></path></clipPath><clipPath id="4f9b59105d"><path d="M 70 78.015625 L 107.75 78.015625 L 107.75 108 L 70 108 Z M 70 78.015625 "></path></clipPath></defs><g id="5be1994633"><g clip-rule="nonzero" clip-path="url(#8395e1b04e)"><path style=" stroke:none;fill-rule:nonzero;fill:#ffffff;fill-opacity:1;" d="M 0.496094 0 L 134.503906 0 L 134.503906 134.007812 L 0.496094 134.007812 Z M 0.496094 0 "></path><path style=" stroke:none;fill-rule:nonzero;fill:#ffffff;fill-opacity:1;" d="M 0.496094 0 L 134.503906 0 L 134.503906 134.007812 L 0.496094 134.007812 Z M 0.496094 0 "></path></g><g clip-rule="nonzero" clip-path="url(#1f7d8131f8)"><g clip-rule="nonzero" clip-path="url(#62f8c12905)"><path style=" stroke:none;fill-rule:nonzero;fill:#f4dddd;fill-opacity:1;" d="M 0.496094 0 L 134.503906 0 L 134.503906 134.007812 L 0.496094 134.007812 Z M 0.496094 0 "></path><path style="fill:none;stroke-width:12;stroke-linecap:butt;stroke-linejoin:miter;stroke:#7b2e07;stroke-opacity:1;stroke-miterlimit:4;" d="M 90.000004 -0.00000933333 C 40.29599 -0.00000933333 -0.000306642 40.296288 -0.000306642 90.000301 C -0.000306642 139.704314 40.29599 180.000611 90.000004 180.000611 C 139.704017 180.000611 180.000314 139.704314 180.000314 90.000301 C 180.000314 40.296288 139.704017 -0.00000933333 90.000004 -0.00000933333 Z M 90.000004 -0.00000933333 " transform="matrix(0.744485,0,0,0.744485,0.496322,0.00000694853)"></path></g></g><g clip-rule="nonzero" clip-path="url(#c98e779369)"><g clip-rule="nonzero" clip-path="url(#390e3fd1be)"><path style=" stroke:none;fill-rule:nonzero;fill:#ffdfdf;fill-opacity:1;" d="M -4.035156 -2.582031 L 132.683594 -2.582031 L 132.683594 134.136719 L -4.035156 134.136719 Z M -4.035156 -2.582031 "></path><path style="fill:none;stroke-width:8;stroke-linecap:butt;stroke-linejoin:miter;stroke:#f80303;stroke-opacity:1;stroke-miterlimit:4;" d="M 89.9993 -0.00071371 C 40.298094 -0.00071371 -0.00184912 40.294086 -0.00184912 90.000435 C -0.00184912 139.706784 40.298094 180.001584 89.9993 180.001584 C 139.705649 180.001584 180.000449 139.706784 180.000449 90.000435 C 180.000449 40.294086 139.705649 -0.00071371 89.9993 -0.00071371 Z M 89.9993 -0.00071371 " transform="matrix(0.759539,0,0,0.759539,-4.033752,-2.581489)"></path></g></g><g clip-rule="nonzero" clip-path="url(#4f54cab42c)"><path style=" stroke:none;fill-rule:evenodd;fill:#685e68;fill-opacity:1;" d="M 89.765625 39.488281 C 93.179688 47.421875 89.644531 58.148438 94.316406 67.558594 C 99.710938 78.402344 107.195312 82.800781 101.253906 98.6875 L 27.660156 98.6875 C 21.71875 82.800781 29.207031 78.402344 34.589844 67.558594 C 39.269531 58.148438 35.734375 47.421875 39.144531 39.488281 C 47.996094 18.914062 80.914062 18.914062 89.765625 39.488281 Z M 89.765625 39.488281 "></path></g><path style=" stroke:none;fill-rule:evenodd;fill:#e6ab90;fill-opacity:1;" d="M 44.601562 54.378906 L 84.3125 54.378906 C 84.800781 54.382812 85.273438 54.480469 85.726562 54.667969 C 86.179688 54.855469 86.578125 55.125 86.925781 55.472656 C 87.273438 55.816406 87.542969 56.214844 87.730469 56.671875 C 87.917969 57.125 88.011719 57.59375 88.011719 58.085938 C 88.011719 58.574219 87.917969 59.050781 87.726562 59.5 C 87.539062 59.953125 87.273438 60.351562 86.925781 60.699219 C 86.578125 61.046875 86.179688 61.3125 85.726562 61.503906 C 85.273438 61.691406 84.800781 61.789062 84.3125 61.789062 L 44.601562 61.789062 C 44.113281 61.789062 43.640625 61.691406 43.1875 61.503906 C 42.738281 61.3125 42.335938 61.046875 41.988281 60.699219 C 41.640625 60.351562 41.375 59.953125 41.1875 59.5 C 41 59.050781 40.902344 58.574219 40.902344 58.085938 C 40.902344 57.59375 41 57.125 41.1875 56.671875 C 41.375 56.214844 41.640625 55.816406 41.988281 55.472656 C 42.335938 55.125 42.734375 54.855469 43.1875 54.667969 C 43.640625 54.480469 44.113281 54.382812 44.601562 54.378906 Z M 44.601562 54.378906 "></path><g clip-rule="nonzero" clip-path="url(#05a326ba64)"><path style=" stroke:none;fill-rule:evenodd;fill:#e6ab90;fill-opacity:1;" d="M 107.75 107.761719 C 104.542969 98.648438 97.132812 92.542969 82.710938 91.433594 C 71.945312 91.457031 72.550781 86.089844 73.527344 70.765625 L 55.386719 70.765625 C 56.363281 86.089844 56.96875 91.457031 46.199219 91.433594 C 31.785156 92.542969 24.371094 98.648438 21.164062 107.761719 Z M 107.75 107.761719 "></path></g><path style=" stroke:none;fill-rule:evenodd;fill:#cf9a82;fill-opacity:1;" d="M 73.039062 81.492188 C 71.746094 82.28125 70.371094 82.875 68.914062 83.285156 C 67.457031 83.691406 65.96875 83.898438 64.457031 83.898438 C 62.941406 83.898438 61.460938 83.691406 60 83.285156 C 58.542969 82.875 57.167969 82.28125 55.875 81.492188 C 55.90625 78.648438 55.664062 75.101562 55.386719 70.765625 L 73.527344 70.765625 C 73.25 75.101562 73.003906 78.648438 73.039062 81.492188 Z M 73.039062 81.492188 "></path><path style=" stroke:none;fill-rule:evenodd;fill:#ffbea0;fill-opacity:1;" d="M 65.09375 43.148438 C 69.695312 47.722656 75.742188 51.335938 82.628906 54.378906 C 82.773438 91.527344 44.167969 90.535156 46.378906 51.417969 C 46.78125 44.195312 57.324219 35.4375 65.09375 43.148438 Z M 65.09375 43.148438 "></path><path style=" stroke:none;fill-rule:nonzero;fill:#685e68;fill-opacity:1;" d="M 59.179688 74.328125 C 59.058594 74.226562 58.96875 74.097656 58.902344 73.953125 C 58.828125 73.8125 58.792969 73.660156 58.78125 73.5 C 58.773438 73.339844 58.792969 73.1875 58.847656 73.035156 C 58.902344 72.882812 58.980469 72.746094 59.085938 72.628906 C 59.191406 72.507812 59.316406 72.414062 59.457031 72.34375 C 59.601562 72.273438 59.753906 72.234375 59.914062 72.222656 C 60.074219 72.214844 60.226562 72.234375 60.378906 72.285156 C 60.53125 72.332031 60.667969 72.414062 60.785156 72.515625 C 62.039062 73.628906 63.257812 74.148438 64.441406 74.136719 C 65.636719 74.125 66.875 73.554688 68.152344 72.492188 C 68.273438 72.394531 68.414062 72.316406 68.566406 72.269531 C 68.71875 72.226562 68.875 72.210938 69.035156 72.222656 C 69.195312 72.238281 69.34375 72.28125 69.484375 72.355469 C 69.628906 72.433594 69.75 72.527344 69.851562 72.652344 C 69.957031 72.773438 70.03125 72.914062 70.078125 73.066406 C 70.128906 73.21875 70.144531 73.375 70.132812 73.53125 C 70.117188 73.691406 70.074219 73.84375 70 73.988281 C 69.929688 74.128906 69.828125 74.253906 69.707031 74.359375 C 68.003906 75.785156 66.257812 76.542969 64.46875 76.558594 C 62.671875 76.585938 60.90625 75.859375 59.179688 74.328125 Z M 75.292969 56.789062 C 75.34375 56.640625 75.421875 56.503906 75.53125 56.382812 C 75.640625 56.265625 75.765625 56.167969 75.910156 56.097656 C 76.054688 56.03125 76.207031 55.988281 76.367188 55.976562 C 76.527344 55.96875 76.683594 55.988281 76.839844 56.046875 C 76.988281 56.097656 77.125 56.175781 77.246094 56.285156 C 77.363281 56.390625 77.460938 56.515625 77.53125 56.664062 C 77.597656 56.804688 77.640625 56.957031 77.652344 57.121094 C 77.660156 57.28125 77.636719 57.4375 77.582031 57.585938 C 77.308594 58.367188 76.839844 59 76.164062 59.476562 C 75.917969 59.652344 75.660156 59.796875 75.378906 59.90625 C 75.101562 60.023438 74.808594 60.101562 74.515625 60.144531 C 74.214844 60.195312 73.917969 60.207031 73.617188 60.183594 C 73.316406 60.15625 73.023438 60.101562 72.738281 60.011719 C 72.449219 59.917969 72.175781 59.796875 71.921875 59.640625 C 71.660156 59.484375 71.421875 59.300781 71.207031 59.089844 C 70.992188 58.882812 70.804688 58.652344 70.640625 58.398438 C 70.480469 58.140625 70.351562 57.875 70.25 57.585938 C 70.199219 57.4375 70.175781 57.28125 70.1875 57.121094 C 70.195312 56.957031 70.234375 56.804688 70.300781 56.664062 C 70.375 56.515625 70.46875 56.390625 70.589844 56.285156 C 70.710938 56.175781 70.84375 56.097656 70.996094 56.046875 C 71.148438 55.988281 71.308594 55.96875 71.464844 55.976562 C 71.625 55.984375 71.78125 56.027344 71.925781 56.097656 C 72.066406 56.167969 72.195312 56.261719 72.304688 56.382812 C 72.410156 56.503906 72.492188 56.640625 72.542969 56.789062 C 72.617188 57.003906 72.738281 57.191406 72.902344 57.347656 C 73.0625 57.507812 73.253906 57.625 73.476562 57.691406 C 73.691406 57.761719 73.914062 57.777344 74.136719 57.746094 C 74.363281 57.710938 74.566406 57.632812 74.753906 57.5 C 75.007812 57.320312 75.1875 57.082031 75.292969 56.789062 Z M 56.371094 56.789062 C 56.425781 56.640625 56.503906 56.503906 56.613281 56.382812 C 56.71875 56.265625 56.84375 56.167969 56.988281 56.097656 C 57.136719 56.03125 57.285156 55.988281 57.445312 55.976562 C 57.609375 55.96875 57.765625 55.992188 57.917969 56.046875 C 58.066406 56.097656 58.203125 56.175781 58.324219 56.285156 C 58.445312 56.390625 58.539062 56.519531 58.609375 56.664062 C 58.683594 56.804688 58.722656 56.960938 58.730469 57.121094 C 58.738281 57.28125 58.71875 57.4375 58.660156 57.589844 C 58.53125 57.96875 58.34375 58.320312 58.101562 58.644531 C 57.859375 58.964844 57.574219 59.242188 57.246094 59.476562 C 56.917969 59.707031 56.5625 59.886719 56.175781 60.011719 C 55.792969 60.132812 55.398438 60.195312 54.996094 60.195312 C 54.59375 60.195312 54.203125 60.132812 53.816406 60.011719 C 53.433594 59.886719 53.078125 59.707031 52.746094 59.476562 C 52.421875 59.242188 52.132812 58.964844 51.890625 58.644531 C 51.652344 58.320312 51.464844 57.96875 51.328125 57.589844 C 51.277344 57.4375 51.253906 57.28125 51.265625 57.121094 C 51.273438 56.960938 51.3125 56.804688 51.382812 56.664062 C 51.453125 56.519531 51.546875 56.390625 51.667969 56.285156 C 51.789062 56.175781 51.921875 56.097656 52.078125 56.046875 C 52.230469 55.992188 52.386719 55.96875 52.542969 55.976562 C 52.707031 55.988281 52.859375 56.03125 53.003906 56.097656 C 53.148438 56.167969 53.273438 56.265625 53.382812 56.382812 C 53.488281 56.503906 53.570312 56.640625 53.621094 56.789062 C 53.722656 57.085938 53.902344 57.320312 54.160156 57.5 C 54.410156 57.675781 54.6875 57.761719 54.996094 57.761719 C 55.304688 57.765625 55.589844 57.679688 55.839844 57.5 C 56.09375 57.320312 56.269531 57.085938 56.371094 56.789062 Z M 56.371094 56.789062 "></path><path style=" stroke:none;fill-rule:nonzero;fill:#e94444;fill-opacity:1;" d="M 57.921875 66.8125 C 58.078125 66.8125 58.234375 66.84375 58.386719 66.910156 C 58.535156 66.96875 58.664062 67.054688 58.78125 67.171875 C 58.898438 67.289062 58.984375 67.417969 59.042969 67.566406 C 59.109375 67.714844 59.136719 67.871094 59.136719 68.03125 C 59.136719 68.191406 59.109375 68.347656 59.042969 68.5 C 58.984375 68.648438 58.898438 68.777344 58.78125 68.894531 C 58.664062 69.007812 58.535156 69.097656 58.386719 69.15625 C 58.234375 69.21875 58.078125 69.25 57.921875 69.253906 L 57.859375 69.253906 C 57.699219 69.25 57.542969 69.21875 57.394531 69.15625 C 57.246094 69.097656 57.117188 69.007812 57 68.894531 C 56.882812 68.777344 56.796875 68.648438 56.738281 68.5 C 56.671875 68.347656 56.640625 68.191406 56.640625 68.03125 C 56.640625 67.871094 56.671875 67.714844 56.738281 67.566406 C 56.796875 67.417969 56.882812 67.289062 57 67.171875 C 57.117188 67.054688 57.246094 66.96875 57.394531 66.910156 C 57.542969 66.84375 57.699219 66.8125 57.859375 66.8125 Z M 70.996094 69.253906 C 70.832031 69.25 70.675781 69.21875 70.53125 69.15625 C 70.378906 69.097656 70.246094 69.007812 70.136719 68.894531 C 70.019531 68.777344 69.933594 68.648438 69.867188 68.5 C 69.808594 68.347656 69.777344 68.191406 69.777344 68.03125 C 69.777344 67.871094 69.808594 67.714844 69.867188 67.566406 C 69.933594 67.417969 70.019531 67.289062 70.136719 67.171875 C 70.246094 67.054688 70.378906 66.96875 70.53125 66.910156 C 70.675781 66.84375 70.832031 66.8125 70.996094 66.8125 L 71.054688 66.8125 C 71.214844 66.8125 71.371094 66.84375 71.519531 66.910156 C 71.667969 66.96875 71.800781 67.054688 71.917969 67.171875 C 72.027344 67.289062 72.117188 67.417969 72.179688 67.566406 C 72.238281 67.714844 72.269531 67.871094 72.269531 68.03125 C 72.269531 68.191406 72.238281 68.347656 72.179688 68.5 C 72.117188 68.648438 72.027344 68.777344 71.917969 68.894531 C 71.800781 69.007812 71.667969 69.097656 71.519531 69.15625 C 71.371094 69.21875 71.214844 69.25 71.054688 69.253906 Z M 72.210938 65.609375 C 72.046875 65.609375 71.894531 65.582031 71.742188 65.519531 C 71.59375 65.457031 71.457031 65.371094 71.34375 65.257812 C 71.226562 65.144531 71.140625 65.011719 71.074219 64.859375 C 71.015625 64.714844 70.984375 64.558594 70.984375 64.394531 C 70.984375 64.230469 71.015625 64.074219 71.074219 63.925781 C 71.140625 63.777344 71.226562 63.644531 71.34375 63.53125 C 71.457031 63.414062 71.59375 63.328125 71.742188 63.265625 C 71.894531 63.207031 72.046875 63.175781 72.210938 63.179688 L 72.265625 63.179688 C 72.429688 63.175781 72.585938 63.207031 72.738281 63.265625 C 72.886719 63.328125 73.019531 63.414062 73.136719 63.53125 C 73.25 63.644531 73.339844 63.777344 73.402344 63.925781 C 73.464844 64.074219 73.496094 64.230469 73.496094 64.394531 C 73.496094 64.558594 73.464844 64.714844 73.402344 64.859375 C 73.339844 65.011719 73.25 65.144531 73.136719 65.257812 C 73.019531 65.371094 72.886719 65.457031 72.738281 65.519531 C 72.585938 65.582031 72.429688 65.609375 72.265625 65.609375 Z M 75.066406 68.992188 C 74.90625 68.992188 74.75 68.960938 74.597656 68.902344 C 74.453125 68.839844 74.320312 68.75 74.203125 68.636719 C 74.09375 68.523438 74 68.390625 73.941406 68.242188 C 73.878906 68.09375 73.847656 67.9375 73.847656 67.777344 C 73.847656 67.613281 73.878906 67.460938 73.941406 67.3125 C 74.003906 67.160156 74.09375 67.027344 74.203125 66.917969 C 74.320312 66.800781 74.453125 66.714844 74.597656 66.648438 C 74.75 66.589844 74.90625 66.558594 75.066406 66.558594 L 75.125 66.558594 C 75.289062 66.558594 75.445312 66.589844 75.589844 66.648438 C 75.738281 66.714844 75.871094 66.800781 75.984375 66.917969 C 76.101562 67.027344 76.1875 67.160156 76.25 67.3125 C 76.3125 67.460938 76.34375 67.613281 76.34375 67.777344 C 76.34375 67.9375 76.3125 68.09375 76.25 68.242188 C 76.1875 68.390625 76.101562 68.523438 75.984375 68.636719 C 75.871094 68.75 75.738281 68.839844 75.589844 68.902344 C 75.445312 68.960938 75.289062 68.992188 75.125 68.992188 Z M 76.253906 65.5625 C 76.09375 65.5625 75.9375 65.535156 75.785156 65.46875 C 75.640625 65.410156 75.507812 65.324219 75.390625 65.207031 C 75.28125 65.09375 75.191406 64.960938 75.128906 64.8125 C 75.070312 64.660156 75.035156 64.507812 75.035156 64.347656 C 75.035156 64.183594 75.070312 64.027344 75.128906 63.878906 C 75.191406 63.734375 75.28125 63.601562 75.390625 63.484375 C 75.507812 63.371094 75.640625 63.28125 75.785156 63.222656 C 75.9375 63.160156 76.09375 63.128906 76.253906 63.128906 L 76.308594 63.128906 C 76.46875 63.128906 76.625 63.160156 76.773438 63.222656 C 76.921875 63.28125 77.054688 63.371094 77.167969 63.484375 C 77.285156 63.601562 77.371094 63.734375 77.433594 63.878906 C 77.496094 64.027344 77.523438 64.183594 77.523438 64.347656 C 77.523438 64.507812 77.496094 64.660156 77.433594 64.8125 C 77.371094 64.960938 77.285156 65.09375 77.167969 65.207031 C 77.054688 65.324219 76.921875 65.410156 76.773438 65.46875 C 76.625 65.535156 76.46875 65.5625 76.308594 65.5625 Z M 56.699219 63.179688 C 56.863281 63.179688 57.019531 63.207031 57.171875 63.265625 C 57.324219 63.332031 57.453125 63.417969 57.570312 63.53125 C 57.683594 63.644531 57.777344 63.777344 57.835938 63.925781 C 57.902344 64.074219 57.933594 64.230469 57.933594 64.394531 C 57.933594 64.558594 57.902344 64.714844 57.835938 64.859375 C 57.777344 65.011719 57.683594 65.144531 57.570312 65.257812 C 57.453125 65.371094 57.324219 65.457031 57.171875 65.523438 C 57.019531 65.582031 56.863281 65.609375 56.699219 65.609375 L 56.644531 65.609375 C 56.480469 65.605469 56.332031 65.574219 56.183594 65.515625 C 56.035156 65.449219 55.90625 65.363281 55.792969 65.246094 C 55.679688 65.136719 55.59375 65.003906 55.535156 64.855469 C 55.472656 64.710938 55.441406 64.554688 55.441406 64.394531 C 55.441406 64.234375 55.472656 64.078125 55.535156 63.933594 C 55.59375 63.785156 55.679688 63.652344 55.792969 63.542969 C 55.90625 63.425781 56.035156 63.339844 56.183594 63.273438 C 56.332031 63.214844 56.480469 63.183594 56.644531 63.179688 Z M 53.84375 66.558594 C 54.007812 66.558594 54.164062 66.589844 54.308594 66.652344 C 54.460938 66.714844 54.59375 66.800781 54.703125 66.917969 C 54.820312 67.03125 54.90625 67.164062 54.972656 67.3125 C 55.03125 67.464844 55.0625 67.613281 55.0625 67.777344 C 55.0625 67.941406 55.03125 68.097656 54.972656 68.242188 C 54.90625 68.390625 54.820312 68.523438 54.703125 68.636719 C 54.59375 68.753906 54.460938 68.84375 54.308594 68.902344 C 54.164062 68.964844 54.007812 68.996094 53.84375 68.996094 L 53.792969 68.996094 C 53.628906 68.996094 53.472656 68.964844 53.324219 68.902344 C 53.175781 68.84375 53.042969 68.753906 52.929688 68.636719 C 52.816406 68.523438 52.726562 68.390625 52.664062 68.242188 C 52.605469 68.097656 52.574219 67.941406 52.574219 67.777344 C 52.574219 67.613281 52.605469 67.464844 52.664062 67.3125 C 52.726562 67.164062 52.816406 67.03125 52.929688 66.917969 C 53.042969 66.800781 53.175781 66.714844 53.324219 66.652344 C 53.472656 66.589844 53.628906 66.558594 53.792969 66.558594 Z M 52.660156 63.132812 C 52.824219 63.132812 52.980469 63.164062 53.125 63.222656 C 53.277344 63.285156 53.410156 63.375 53.519531 63.484375 C 53.636719 63.601562 53.722656 63.734375 53.785156 63.882812 C 53.847656 64.03125 53.875 64.1875 53.875 64.347656 C 53.875 64.511719 53.847656 64.664062 53.785156 64.8125 C 53.722656 64.960938 53.636719 65.09375 53.519531 65.207031 C 53.410156 65.324219 53.277344 65.410156 53.125 65.46875 C 52.980469 65.535156 52.824219 65.566406 52.660156 65.566406 L 52.605469 65.566406 C 52.441406 65.566406 52.285156 65.535156 52.136719 65.46875 C 51.992188 65.410156 51.859375 65.324219 51.742188 65.207031 C 51.628906 65.09375 51.539062 64.960938 51.480469 64.8125 C 51.417969 64.664062 51.390625 64.511719 51.390625 64.347656 C 51.390625 64.1875 51.417969 64.03125 51.480469 63.882812 C 51.539062 63.734375 51.628906 63.601562 51.742188 63.484375 C 51.859375 63.375 51.992188 63.285156 52.136719 63.222656 C 52.285156 63.164062 52.441406 63.132812 52.605469 63.132812 Z M 52.660156 63.132812 "></path><path style=" stroke:none;fill-rule:evenodd;fill:#e94444;fill-opacity:1;" d="M 64.976562 60.914062 L 67.003906 67.289062 C 67.03125 67.371094 67.035156 67.453125 67.019531 67.542969 C 67.007812 67.625 66.976562 67.707031 66.921875 67.777344 C 66.871094 67.84375 66.804688 67.902344 66.726562 67.941406 C 66.648438 67.980469 66.570312 67.996094 66.480469 67.996094 L 62.4375 67.996094 C 62.347656 68 62.265625 67.980469 62.183594 67.941406 C 62.109375 67.902344 62.042969 67.847656 61.988281 67.777344 C 61.9375 67.707031 61.90625 67.628906 61.894531 67.542969 C 61.878906 67.453125 61.886719 67.371094 61.914062 67.289062 L 63.9375 60.914062 C 64.019531 60.664062 64.191406 60.539062 64.457031 60.539062 C 64.722656 60.539062 64.894531 60.664062 64.976562 60.914062 Z M 64.976562 60.914062 "></path><g clip-rule="nonzero" clip-path="url(#922895e2b2)"><path style=" stroke:none;fill-rule:evenodd;fill:#5e555e;fill-opacity:1;" d="M 37.964844 43.589844 C 50.492188 30.636719 76.121094 33.050781 83.765625 50.832031 C 84.253906 51.992188 84.617188 53.1875 84.851562 54.421875 C 85.261719 54.488281 85.652344 54.609375 86.019531 54.804688 C 86.390625 54.996094 86.71875 55.246094 87 55.542969 C 87.289062 55.847656 87.515625 56.1875 87.6875 56.566406 C 87.859375 56.945312 87.960938 57.339844 87.996094 57.753906 C 88.03125 58.164062 88.003906 58.574219 87.902344 58.976562 C 87.800781 59.382812 87.636719 59.753906 87.410156 60.105469 C 87.1875 60.453125 86.910156 60.757812 86.582031 61.011719 C 86.25 61.261719 85.894531 61.457031 85.5 61.59375 C 85.660156 67.246094 85.539062 73.308594 88.320312 78.902344 C 91.5 85.300781 95.410156 89.457031 96.859375 95.046875 C 98.515625 95.902344 100.039062 96.9375 101.441406 98.164062 C 107.027344 82.707031 99.644531 78.28125 94.3125 67.558594 C 89.644531 58.148438 93.179688 47.421875 89.765625 39.488281 C 80.914062 18.914062 47.996094 18.914062 39.144531 39.488281 C 38.59375 40.808594 38.199219 42.175781 37.960938 43.589844 Z M 37.964844 43.589844 "></path></g><path style=" stroke:none;fill-rule:evenodd;fill:#e6ab90;fill-opacity:1;" d="M 80.476562 61.789062 C 79.253906 68.367188 76.5625 73.207031 73.1875 76.308594 C 68.085938 80.992188 61.417969 81.722656 55.832031 78.507812 C 55.589844 78.367188 55.355469 78.21875 55.117188 78.066406 C 55.359375 78.257812 55.59375 78.441406 55.835938 78.617188 C 61.152344 82.484375 67.761719 82.484375 73.082031 78.617188 C 77.359375 75.507812 80.808594 69.894531 82.09375 61.789062 C 82.46875 59.332031 82.648438 56.863281 82.628906 54.378906 C 82.148438 54.167969 81.667969 53.953125 81.199219 53.734375 C 81.199219 53.953125 81.191406 54.167969 81.1875 54.378906 C 81.160156 56.871094 80.917969 59.335938 80.476562 61.789062 Z M 80.476562 61.789062 "></path><g clip-rule="nonzero" clip-path="url(#4f9b59105d)"><path style=" stroke:none;fill-rule:evenodd;fill:#cf9a82;fill-opacity:1;" d="M 82.710938 91.433594 C 74.039062 91.453125 72.75 87.972656 73.082031 78.617188 C 72.207031 79.253906 71.28125 79.796875 70.296875 80.238281 C 69.894531 89.992188 71.078125 93.605469 79.910156 93.582031 C 87.066406 94.132812 92.496094 95.917969 96.546875 98.6875 C 99.988281 101.042969 102.429688 104.125 104.085938 107.761719 L 107.75 107.761719 C 106.425781 104.003906 104.386719 100.761719 101.441406 98.164062 C 100.042969 96.9375 98.515625 95.902344 96.859375 95.046875 C 93.152344 93.125 88.496094 91.875 82.714844 91.433594 Z M 82.710938 91.433594 "></path></g></g></svg>
