<svg xmlns="http://www.w3.org/2000/svg" xmlns:xlink="http://www.w3.org/1999/xlink" width="180" zoomAndPan="magnify" viewBox="0 0 135 135.000003" height="180" preserveAspectRatio="xMidYMid meet"><defs><clipPath id="edd73fa14b"><path d="M 0.496094 0 L 134.503906 0 L 134.503906 134.007812 L 0.496094 134.007812 Z M 0.496094 0 "></path></clipPath><clipPath id="ccac10e3b1"><path d="M 0.496094 0 L 134.503906 0 L 134.503906 134.007812 L 0.496094 134.007812 Z M 0.496094 0 "></path></clipPath><clipPath id="3c59b094bb"><path d="M 67.5 0 C 30.496094 0 0.496094 30 0.496094 67.003906 C 0.496094 104.007812 30.496094 134.007812 67.5 134.007812 C 104.503906 134.007812 134.503906 104.007812 134.503906 67.003906 C 134.503906 30 104.503906 0 67.5 0 Z M 67.5 0 "></path></clipPath><clipPath id="a10cd1abef"><path d="M 22.933594 25.945312 L 112.273438 25.945312 L 112.273438 107.839844 L 22.933594 107.839844 Z M 22.933594 25.945312 "></path></clipPath><clipPath id="3098ec85cc"><path d="M 68.058594 2.296875 C 32.140625 2.296875 3.023438 31.414062 3.023438 67.328125 C 3.023438 103.242188 32.140625 132.363281 68.058594 132.363281 C 103.972656 132.363281 133.089844 103.242188 133.089844 67.328125 C 133.089844 31.414062 103.972656 2.296875 68.058594 2.296875 Z M 68.058594 2.296875 "></path></clipPath><clipPath id="55f487a2ba"><path d="M 24.199219 92 L 110.90625 92 L 110.90625 107.839844 L 24.199219 107.839844 Z M 24.199219 92 "></path></clipPath><clipPath id="1440297926"><path d="M 24.199219 68.296875 L 110.90625 68.296875 L 110.90625 95.472656 L 24.199219 95.472656 Z M 24.199219 68.296875 "></path></clipPath><clipPath id="1640af7fdd"><path d="M 24.199219 59 L 110.90625 59 L 110.90625 75 L 24.199219 75 Z M 24.199219 59 "></path></clipPath><clipPath id="91208615a9"><path d="M 55 25.945312 L 80 25.945312 L 80 48 L 55 48 Z M 55 25.945312 "></path></clipPath></defs><g id="d12166ba52"><g clip-rule="nonzero" clip-path="url(#edd73fa14b)"><path style=" stroke:none;fill-rule:nonzero;fill:#ffffff;fill-opacity:1;" d="M 0.496094 0 L 134.503906 0 L 134.503906 134.007812 L 0.496094 134.007812 Z M 0.496094 0 "></path><path style=" stroke:none;fill-rule:nonzero;fill:#ffffff;fill-opacity:1;" d="M 0.496094 0 L 134.503906 0 L 134.503906 134.007812 L 0.496094 134.007812 Z M 0.496094 0 "></path></g><g clip-rule="nonzero" clip-path="url(#ccac10e3b1)"><g clip-rule="nonzero" clip-path="url(#3c59b094bb)"><path style=" stroke:none;fill-rule:nonzero;fill:#f4dddd;fill-opacity:1;" d="M 0.496094 0 L 134.503906 0 L 134.503906 134.007812 L 0.496094 134.007812 Z M 0.496094 0 "></path><path style="fill:none;stroke-width:12;stroke-linecap:butt;stroke-linejoin:miter;stroke:#7b2e07;stroke-opacity:1;stroke-miterlimit:4;" d="M 90.000004 -0.00000933333 C 40.29599 -0.00000933333 -0.000306642 40.296288 -0.000306642 90.000301 C -0.000306642 139.704314 40.29599 180.000611 90.000004 180.000611 C 139.704017 180.000611 180.000314 139.704314 180.000314 90.000301 C 180.000314 40.296288 139.704017 -0.00000933333 90.000004 -0.00000933333 Z M 90.000004 -0.00000933333 " transform="matrix(0.744485,0,0,0.744485,0.496322,0.00000694853)"></path></g></g><g clip-rule="nonzero" clip-path="url(#a10cd1abef)"><g clip-rule="nonzero" clip-path="url(#3098ec85cc)"><path style=" stroke:none;fill-rule:nonzero;fill:#ffdfdf;fill-opacity:1;" d="M 3.023438 2.296875 L 133.089844 2.296875 L 133.089844 132.363281 L 3.023438 132.363281 Z M 3.023438 2.296875 "></path><path style="fill:none;stroke-width:8;stroke-linecap:butt;stroke-linejoin:miter;stroke:#f80303;stroke-opacity:1;stroke-miterlimit:4;" d="M 90.00143 0.00254194 C 40.294058 0.00254194 -0.00161982 40.298219 -0.00161982 90.000186 C -0.00161982 139.702153 40.294058 180.003236 90.00143 180.003236 C 139.703397 180.003236 179.999074 139.702153 179.999074 90.000186 C 179.999074 40.298219 139.703397 0.00254194 90.00143 0.00254194 Z M 90.00143 0.00254194 " transform="matrix(0.722588,0,0,0.722588,3.024608,2.295038)"></path></g></g><path style=" stroke:none;fill-rule:nonzero;fill:#ffdfcf;fill-opacity:1;" d="M 109.636719 67.136719 L 109.636719 72.957031 C 109.636719 72.957031 73.40625 76.246094 67.554688 76.246094 C 61.699219 76.246094 25.46875 72.957031 25.46875 72.957031 L 25.46875 67.277344 C 25.46875 65.300781 26.816406 63.582031 28.734375 63.105469 C 32.765625 62.109375 39.628906 60.585938 44.136719 60.585938 C 49.992188 60.585938 61.699219 63.960938 67.554688 63.960938 C 73.40625 63.960938 85.113281 60.585938 90.96875 60.585938 C 96.835938 60.585938 102.929688 62 106.5 63 C 108.355469 63.515625 109.636719 65.207031 109.636719 67.136719 Z M 109.636719 67.136719 "></path><path style=" stroke:none;fill-rule:nonzero;fill:#ffcebf;fill-opacity:1;" d="M 109.636719 67.136719 L 109.636719 72.957031 C 109.636719 72.957031 107.65625 73.136719 104.539062 73.414062 L 104.539062 66.117188 C 104.539062 64.191406 103.257812 62.5 101.402344 61.980469 C 101.007812 61.867188 100.589844 61.714844 100.152344 61.519531 C 102.628906 61.980469 104.835938 62.53125 106.5 62.996094 C 108.355469 63.519531 109.636719 65.207031 109.636719 67.136719 Z M 109.636719 67.136719 "></path><path style=" stroke:none;fill-rule:nonzero;fill:#ffe177;fill-opacity:1;" d="M 105.34375 106.808594 L 29.765625 106.808594 C 27.390625 106.808594 25.46875 104.886719 25.46875 102.511719 L 25.46875 93.792969 L 109.636719 93.792969 L 109.636719 102.511719 C 109.636719 104.886719 107.714844 106.808594 105.34375 106.808594 Z M 105.34375 106.808594 "></path><path style=" stroke:none;fill-rule:nonzero;fill:#ffd15b;fill-opacity:1;" d="M 109.636719 93.792969 L 109.636719 102.511719 C 109.636719 104.886719 107.714844 106.808594 105.34375 106.808594 L 100.242188 106.808594 C 102.617188 106.808594 104.539062 104.886719 104.539062 102.511719 L 104.539062 93.792969 Z M 109.636719 93.792969 "></path><path style=" stroke:none;fill-rule:nonzero;fill:#ffc8dd;fill-opacity:1;" d="M 109.636719 72.957031 L 109.636719 93.792969 L 25.46875 93.792969 L 25.46875 72.957031 C 25.46875 72.957031 37.417969 69.585938 44.136719 69.585938 C 49.992188 69.585938 61.699219 72.957031 67.554688 72.957031 C 73.40625 72.957031 85.113281 69.585938 90.96875 69.585938 C 100.03125 69.585938 109.636719 72.957031 109.636719 72.957031 Z M 109.636719 72.957031 "></path><path style=" stroke:none;fill-rule:nonzero;fill:#fea3c6;fill-opacity:1;" d="M 109.636719 72.957031 L 109.636719 93.796875 L 104.539062 93.796875 L 104.539062 71.476562 C 107.613281 72.246094 109.636719 72.957031 109.636719 72.957031 Z M 109.636719 72.957031 "></path><path style=" stroke:none;fill-rule:nonzero;fill:#918291;fill-opacity:1;" d="M 77.828125 52.789062 L 57.277344 52.789062 C 56.257812 52.789062 55.433594 51.960938 55.433594 50.941406 L 55.433594 47.796875 C 55.433594 46.773438 56.257812 45.949219 57.277344 45.949219 L 77.828125 45.949219 C 78.847656 45.949219 79.675781 46.773438 79.675781 47.796875 L 79.675781 50.941406 C 79.675781 51.960938 78.847656 52.789062 77.828125 52.789062 Z M 77.828125 52.789062 "></path><path style=" stroke:none;fill-rule:nonzero;fill:#7a6d79;fill-opacity:1;" d="M 79.675781 47.796875 L 79.675781 50.941406 C 79.675781 51.960938 78.847656 52.789062 77.828125 52.789062 L 72.730469 52.789062 C 73.75 52.789062 74.574219 51.960938 74.574219 50.941406 L 74.574219 47.796875 C 74.574219 46.773438 73.75 45.953125 72.730469 45.953125 L 77.828125 45.953125 C 78.847656 45.953125 79.675781 46.773438 79.675781 47.796875 Z M 79.675781 47.796875 "></path><path style=" stroke:none;fill-rule:nonzero;fill:#cbc4cc;fill-opacity:1;" d="M 78.695312 26.839844 L 56.414062 26.839844 L 57.9375 45.949219 L 77.171875 45.949219 Z M 78.695312 26.839844 "></path><path style=" stroke:none;fill-rule:nonzero;fill:#b5adb6;fill-opacity:1;" d="M 73.597656 26.839844 L 72.074219 45.949219 L 77.171875 45.949219 L 78.695312 26.839844 Z M 73.597656 26.839844 "></path><path style=" stroke:none;fill-rule:nonzero;fill:#62dbfb;fill-opacity:1;" d="M 57.277344 52.789062 L 77.828125 52.789062 C 77.828125 55.472656 76.03125 57.835938 73.433594 58.511719 C 71.539062 59.011719 69.628906 59.246094 67.703125 59.230469 C 65.691406 59.21875 63.664062 58.933594 61.617188 58.394531 C 59.066406 57.722656 57.277344 55.425781 57.277344 52.789062 Z M 57.277344 52.789062 "></path><path style=" stroke:none;fill-rule:nonzero;fill:#01d0fb;fill-opacity:1;" d="M 77.828125 52.789062 C 77.828125 54.128906 77.378906 55.394531 76.601562 56.402344 C 75.828125 57.414062 74.730469 58.175781 73.433594 58.511719 C 71.542969 59.011719 69.628906 59.246094 67.703125 59.230469 C 66.898438 59.226562 66.09375 59.175781 65.28125 59.085938 C 66.304688 58.96875 67.320312 58.777344 68.335938 58.511719 C 69.636719 58.175781 70.730469 57.414062 71.507812 56.402344 C 72.277344 55.394531 72.730469 54.128906 72.730469 52.789062 Z M 77.828125 52.789062 "></path><g clip-rule="nonzero" clip-path="url(#55f487a2ba)"><path style="fill:none;stroke-width:15;stroke-linecap:round;stroke-linejoin:round;stroke:#000000;stroke-opacity:1;stroke-miterlimit:10;" d="M 394.444111 492.096796 L 32.87428 492.096796 C 18.850648 492.096796 7.502578 480.748726 7.502578 466.725094 L 7.502578 415.243602 L 504.488105 415.243602 L 504.488105 466.725094 C 504.488105 480.748726 493.140035 492.096796 479.139468 492.096796 L 429.641582 492.096796 " transform="matrix(0.169357,0,0,0.169357,24.198136,23.468566)"></path></g><g clip-rule="nonzero" clip-path="url(#1440297926)"><path style="fill:none;stroke-width:15;stroke-linecap:round;stroke-linejoin:round;stroke:#000000;stroke-opacity:1;stroke-miterlimit:10;" d="M 209.991831 286.609069 C 227.590567 289.792064 243.920717 292.213909 256.006874 292.213909 C 290.55852 292.213909 359.684878 272.308654 394.259589 272.308654 C 447.770817 272.308654 504.488105 292.213909 504.488105 292.213909 L 504.488105 415.243602 L 7.502578 415.243602 L 7.502578 292.213909 C 7.502578 292.213909 78.058977 272.308654 117.731094 272.308654 C 132.377486 272.308654 153.274543 275.883758 175.071142 279.989361 " transform="matrix(0.169357,0,0,0.169357,24.198136,23.468566)"></path></g><g clip-rule="nonzero" clip-path="url(#1640af7fdd)"><path style="fill:none;stroke-width:15;stroke-linecap:round;stroke-linejoin:round;stroke:#000000;stroke-opacity:1;stroke-miterlimit:10;" d="M 117.731094 272.308654 C 78.058977 272.308654 7.502578 292.213909 7.502578 292.213909 L 7.502578 258.67713 C 7.502578 247.006147 15.460066 236.857466 26.785072 234.043514 C 50.588342 228.161892 91.113871 219.16647 117.731094 219.16647 C 152.305805 219.16647 221.432163 239.094789 256.006874 239.094789 C 290.55852 239.094789 359.684878 219.16647 394.259589 219.16647 C 428.903496 219.16647 464.885184 227.516066 485.966762 233.420754 C 496.922725 236.465358 504.488105 246.452583 504.488105 257.846784 L 504.488105 292.213909 C 504.488105 292.213909 447.770817 272.308654 394.259589 272.308654 C 359.684878 272.308654 290.55852 292.213909 256.006874 292.213909 " transform="matrix(0.169357,0,0,0.169357,24.198136,23.468566)"></path></g><path style="fill:none;stroke-width:15;stroke-linecap:round;stroke-linejoin:round;stroke:#000000;stroke-opacity:1;stroke-miterlimit:10;" d="M 49.596525 442.137558 L 49.596525 442.137558 " transform="matrix(0.169357,0,0,0.169357,24.198138,23.468568)"></path><path style="fill:none;stroke-width:15;stroke-linecap:round;stroke-linejoin:round;stroke:#000000;stroke-opacity:1;stroke-miterlimit:10;" d="M 78.05896 457.637361 L 78.05896 457.637361 " transform="matrix(0.169357,0,0,0.169357,24.198138,23.468568)"></path><path style="fill:none;stroke-width:15;stroke-linecap:round;stroke-linejoin:round;stroke:#000000;stroke-opacity:1;stroke-miterlimit:10;" d="M 300.891688 453.67015 L 300.891688 453.67015 " transform="matrix(0.169357,0,0,0.169357,24.198138,23.468568)"></path><path style="fill:none;stroke-width:15;stroke-linecap:round;stroke-linejoin:round;stroke:#000000;stroke-opacity:1;stroke-miterlimit:10;" d="M 263.24931 453.67015 L 263.24931 453.67015 " transform="matrix(0.169357,0,0,0.169357,24.198138,23.468568)"></path><path style="fill:none;stroke-width:15;stroke-linecap:round;stroke-linejoin:round;stroke:#000000;stroke-opacity:1;stroke-miterlimit:10;" d="M 177.031658 457.637361 L 177.031658 457.637361 " transform="matrix(0.169357,0,0,0.169357,24.198138,23.468568)"></path><path style="fill:none;stroke-width:15;stroke-linecap:round;stroke-linejoin:round;stroke:#000000;stroke-opacity:1;stroke-miterlimit:10;" d="M 207.66222 442.137558 L 207.66222 442.137558 " transform="matrix(0.169357,0,0,0.169357,24.198138,23.468568)"></path><path style="fill:none;stroke-width:15;stroke-linecap:round;stroke-linejoin:round;stroke:#000000;stroke-opacity:1;stroke-miterlimit:10;" d="M 468.275717 466.909564 L 468.275717 466.909564 " transform="matrix(0.169357,0,0,0.169357,24.198138,23.468568)"></path><path style="fill:none;stroke-width:15;stroke-linecap:round;stroke-linejoin:round;stroke:#000000;stroke-opacity:1;stroke-miterlimit:10;" d="M 437.806611 453.67015 L 437.806611 453.67015 " transform="matrix(0.169357,0,0,0.169357,24.198138,23.468568)"></path><path style="fill:none;stroke-width:15;stroke-linecap:round;stroke-linejoin:round;stroke:#000000;stroke-opacity:1;stroke-miterlimit:10;" d="M 379.751546 462.61944 L 379.751546 462.61944 " transform="matrix(0.169357,0,0,0.169357,24.198138,23.468568)"></path><path style="fill:none;stroke-width:15;stroke-linecap:round;stroke-linejoin:round;stroke:#000000;stroke-opacity:1;stroke-miterlimit:10;" d="M 329.769296 442.137558 L 329.769296 442.137558 " transform="matrix(0.169357,0,0,0.169357,24.198138,23.468568)"></path><path style="fill:none;stroke-width:15;stroke-linecap:round;stroke-linejoin:round;stroke:#000000;stroke-opacity:1;stroke-miterlimit:10;" d="M 129.701904 453.67015 L 129.701904 453.67015 " transform="matrix(0.169357,0,0,0.169357,24.198138,23.468568)"></path><path style="fill:none;stroke-width:15;stroke-linecap:round;stroke-linejoin:round;stroke:#000000;stroke-opacity:1;stroke-miterlimit:10;" d="M 378.29844 415.243556 L 378.29844 342.749687 L 363.144615 319.246266 " transform="matrix(0.169357,0,0,0.169357,24.198138,23.468568)"></path><path style="fill:none;stroke-width:15;stroke-linecap:round;stroke-linejoin:round;stroke:#000000;stroke-opacity:1;stroke-miterlimit:10;" d="M 378.29844 366.668282 L 402.90899 342.749687 " transform="matrix(0.169357,0,0,0.169357,24.198138,23.468568)"></path><path style="fill:none;stroke-width:15;stroke-linecap:round;stroke-linejoin:round;stroke:#000000;stroke-opacity:1;stroke-miterlimit:10;" d="M 453.329478 415.243556 L 453.329478 342.749687 L 438.175653 319.246266 " transform="matrix(0.169357,0,0,0.169357,24.198138,23.468568)"></path><path style="fill:none;stroke-width:15;stroke-linecap:round;stroke-linejoin:round;stroke:#000000;stroke-opacity:1;stroke-miterlimit:10;" d="M 453.329478 342.749687 L 469.959475 319.246266 " transform="matrix(0.169357,0,0,0.169357,24.198138,23.468568)"></path><path style="fill:none;stroke-width:15;stroke-linecap:round;stroke-linejoin:round;stroke:#000000;stroke-opacity:1;stroke-miterlimit:10;" d="M 57.18497 415.243556 L 57.18497 342.749687 L 42.00808 319.246266 " transform="matrix(0.169357,0,0,0.169357,24.198138,23.468568)"></path><path style="fill:none;stroke-width:15;stroke-linecap:round;stroke-linejoin:round;stroke:#000000;stroke-opacity:1;stroke-miterlimit:10;" d="M 57.18497 342.749687 L 73.791901 319.246266 " transform="matrix(0.169357,0,0,0.169357,24.198138,23.468568)"></path><path style="fill:none;stroke-width:15;stroke-linecap:round;stroke-linejoin:round;stroke:#000000;stroke-opacity:1;stroke-miterlimit:10;" d="M 92.797612 358.064969 L 107.282546 372.549903 L 107.282546 415.243556 " transform="matrix(0.169357,0,0,0.169357,24.198138,23.468568)"></path><path style="fill:none;stroke-width:15;stroke-linecap:round;stroke-linejoin:round;stroke:#000000;stroke-opacity:1;stroke-miterlimit:10;" d="M 316.668272 173.128336 L 195.322348 173.128336 C 189.302335 173.128336 184.435582 168.238517 184.435582 162.218504 L 184.435582 143.651033 C 184.435582 137.607955 189.302335 132.741201 195.322348 132.741201 L 316.668272 132.741201 C 322.688285 132.741201 327.578104 137.607955 327.578104 143.651033 L 327.578104 162.218504 C 327.578104 168.238517 322.688285 173.128336 316.668272 173.128336 Z M 316.668272 173.128336 " transform="matrix(0.169357,0,0,0.169357,24.198138,23.468568)"></path><g clip-rule="nonzero" clip-path="url(#91208615a9)"><path style="fill:none;stroke-width:15;stroke-linecap:round;stroke-linejoin:round;stroke:#000000;stroke-opacity:1;stroke-miterlimit:10;" d="M 190.224942 19.906329 L 199.220364 132.741201 L 312.793322 132.741201 L 321.788743 19.906329 " transform="matrix(0.169357,0,0,0.169357,24.198138,23.468568)"></path></g><path style="fill:none;stroke-width:15;stroke-linecap:round;stroke-linejoin:round;stroke:#000000;stroke-opacity:1;stroke-miterlimit:10;" d="M 195.322348 173.128336 L 316.668272 173.128336 C 316.668272 188.974116 306.058289 202.928551 290.719942 206.918828 C 279.533329 209.871171 268.254455 211.255082 256.88332 211.162822 C 245.004751 211.093626 233.033921 209.409868 220.947765 206.226873 C 205.886201 202.259661 195.322348 188.697334 195.322348 173.128336 Z M 195.322348 173.128336 " transform="matrix(0.169357,0,0,0.169357,24.198138,23.468568)"></path><path style="fill:none;stroke-width:15;stroke-linecap:round;stroke-linejoin:round;stroke:#000000;stroke-opacity:1;stroke-miterlimit:10;" d="M 256.88332 211.162822 L 256.88332 354.697452 " transform="matrix(0.169357,0,0,0.169357,24.198138,23.468568)"></path><path style="fill:none;stroke-width:15;stroke-linecap:round;stroke-linejoin:round;stroke:#000000;stroke-opacity:1;stroke-miterlimit:10;" d="M 220.947765 206.226873 C 220.947765 206.226873 204.110182 299.387144 207.66222 354.697452 " transform="matrix(0.169357,0,0,0.169357,24.198138,23.468568)"></path><path style="fill:none;stroke-width:15;stroke-linecap:round;stroke-linejoin:round;stroke:#000000;stroke-opacity:1;stroke-miterlimit:10;" d="M 293.072591 206.226873 C 293.072591 206.226873 309.910174 299.387144 306.381201 354.697452 " transform="matrix(0.169357,0,0,0.169357,24.198138,23.468568)"></path></g></svg>
