<svg xmlns="http://www.w3.org/2000/svg" xmlns:xlink="http://www.w3.org/1999/xlink" width="180" zoomAndPan="magnify" viewBox="0 0 135 135.000003" height="180" preserveAspectRatio="xMidYMid meet"><defs><clipPath id="d445368127"><path d="M 0.496094 0 L 134.503906 0 L 134.503906 134.007812 L 0.496094 134.007812 Z M 0.496094 0 "></path></clipPath><clipPath id="b675bdc2f2"><path d="M 0.496094 0 L 134.503906 0 L 134.503906 134.007812 L 0.496094 134.007812 Z M 0.496094 0 "></path></clipPath><clipPath id="e73f6d7375"><path d="M 67.5 0 C 30.496094 0 0.496094 30 0.496094 67.003906 C 0.496094 104.007812 30.496094 134.007812 67.5 134.007812 C 104.503906 134.007812 134.503906 104.007812 134.503906 67.003906 C 134.503906 30 104.503906 0 67.5 0 Z M 67.5 0 "></path></clipPath><clipPath id="b9907eb83f"><path d="M 26.109375 28.816406 L 109.488281 28.816406 L 109.488281 105.496094 L 26.109375 105.496094 Z M 26.109375 28.816406 "></path></clipPath><clipPath id="9fd8dd71b2"><path d="M 67.042969 7.214844 C 34.390625 7.214844 7.921875 33.683594 7.921875 66.335938 C 7.921875 98.984375 34.390625 125.457031 67.042969 125.457031 C 99.691406 125.457031 126.164062 98.984375 126.164062 66.335938 C 126.164062 33.683594 99.691406 7.214844 67.042969 7.214844 Z M 67.042969 7.214844 "></path></clipPath><clipPath id="9db5e85554"><path d="M 45 28.816406 L 67 28.816406 L 67 60 L 45 60 Z M 45 28.816406 "></path></clipPath><clipPath id="c662286079"><path d="M 66 28.816406 L 89 28.816406 L 89 60 L 66 60 Z M 66 28.816406 "></path></clipPath></defs><g id="d9704136ea"><g clip-rule="nonzero" clip-path="url(#d445368127)"><path style=" stroke:none;fill-rule:nonzero;fill:#ffffff;fill-opacity:1;" d="M 0.496094 0 L 134.503906 0 L 134.503906 134.007812 L 0.496094 134.007812 Z M 0.496094 0 "></path><path style=" stroke:none;fill-rule:nonzero;fill:#ffffff;fill-opacity:1;" d="M 0.496094 0 L 134.503906 0 L 134.503906 134.007812 L 0.496094 134.007812 Z M 0.496094 0 "></path></g><g clip-rule="nonzero" clip-path="url(#b675bdc2f2)"><g clip-rule="nonzero" clip-path="url(#e73f6d7375)"><path style=" stroke:none;fill-rule:nonzero;fill:#f4dddd;fill-opacity:1;" d="M 0.496094 0 L 134.503906 0 L 134.503906 134.007812 L 0.496094 134.007812 Z M 0.496094 0 "></path><path style="fill:none;stroke-width:12;stroke-linecap:butt;stroke-linejoin:miter;stroke:#7b2e07;stroke-opacity:1;stroke-miterlimit:4;" d="M 90.000004 -0.00000933333 C 40.29599 -0.00000933333 -0.000306642 40.296288 -0.000306642 90.000301 C -0.000306642 139.704314 40.29599 180.000611 90.000004 180.000611 C 139.704017 180.000611 180.000314 139.704314 180.000314 90.000301 C 180.000314 40.296288 139.704017 -0.00000933333 90.000004 -0.00000933333 Z M 90.000004 -0.00000933333 " transform="matrix(0.744485,0,0,0.744485,0.496322,0.00000694853)"></path></g></g><g clip-rule="nonzero" clip-path="url(#b9907eb83f)"><g clip-rule="nonzero" clip-path="url(#9fd8dd71b2)"><path style=" stroke:none;fill-rule:nonzero;fill:#ffdfdf;fill-opacity:1;" d="M 7.921875 7.214844 L 126.164062 7.214844 L 126.164062 125.457031 L 7.921875 125.457031 Z M 7.921875 7.214844 "></path><path style="fill:none;stroke-width:8;stroke-linecap:butt;stroke-linejoin:miter;stroke:#f80303;stroke-opacity:1;stroke-miterlimit:4;" d="M 90.001351 0.000846371 C 40.29452 0.000846371 0.00100616 40.29436 0.00100616 90.001191 C 0.00100616 139.702075 40.29452 180.001535 90.001351 180.001535 C 139.702234 180.001535 180.001695 139.702075 180.001695 90.001191 C 180.001695 40.29436 139.702234 0.000846371 90.001351 0.000846371 Z M 90.001351 0.000846371 " transform="matrix(0.656899,0,0,0.656899,7.921214,7.214288)"></path></g></g><g clip-rule="nonzero" clip-path="url(#9db5e85554)"><path style=" stroke:none;fill-rule:nonzero;fill:#a24f00;fill-opacity:1;" d="M 64.21875 28.792969 C 63.597656 28.792969 62.980469 28.824219 62.363281 28.886719 C 61.746094 28.945312 61.132812 29.039062 60.523438 29.160156 C 59.917969 29.28125 59.316406 29.429688 58.722656 29.609375 C 58.128906 29.789062 57.546875 29.996094 56.972656 30.234375 C 56.398438 30.472656 55.839844 30.738281 55.292969 31.03125 C 54.746094 31.324219 54.214844 31.640625 53.699219 31.984375 C 53.183594 32.332031 52.6875 32.699219 52.203125 33.09375 C 51.726562 33.484375 51.265625 33.902344 50.828125 34.339844 C 50.390625 34.78125 49.972656 35.238281 49.582031 35.71875 C 49.1875 36.199219 48.820312 36.695312 48.476562 37.210938 C 48.128906 37.726562 47.808594 38.257812 47.515625 38.804688 C 47.226562 39.351562 46.960938 39.914062 46.722656 40.484375 C 46.484375 41.058594 46.277344 41.640625 46.097656 42.234375 C 45.917969 42.828125 45.765625 43.429688 45.644531 44.035156 C 45.523438 44.644531 45.433594 45.257812 45.371094 45.875 C 45.3125 46.492188 45.28125 47.109375 45.28125 47.730469 L 45.28125 59.726562 L 66.746094 59.726562 L 66.746094 31.320312 C 66.746094 30.984375 66.679688 30.664062 66.550781 30.351562 C 66.425781 30.046875 66.242188 29.769531 66.003906 29.535156 C 65.765625 29.296875 65.496094 29.113281 65.183594 28.988281 C 64.878906 28.859375 64.554688 28.792969 64.21875 28.792969 Z M 64.21875 28.792969 "></path></g><g clip-rule="nonzero" clip-path="url(#c662286079)"><path style=" stroke:none;fill-rule:nonzero;fill:#aa5e16;fill-opacity:1;" d="M 69.269531 28.792969 C 69.890625 28.792969 70.507812 28.824219 71.125 28.886719 C 71.742188 28.945312 72.355469 29.039062 72.964844 29.160156 C 73.574219 29.28125 74.171875 29.429688 74.765625 29.609375 C 75.359375 29.789062 75.941406 29.996094 76.515625 30.234375 C 77.089844 30.472656 77.648438 30.738281 78.195312 31.03125 C 78.742188 31.324219 79.273438 31.640625 79.792969 31.984375 C 80.304688 32.332031 80.804688 32.699219 81.285156 33.09375 C 81.761719 33.484375 82.222656 33.902344 82.660156 34.339844 C 83.097656 34.78125 83.515625 35.238281 83.90625 35.71875 C 84.300781 36.199219 84.671875 36.695312 85.011719 37.210938 C 85.359375 37.726562 85.679688 38.257812 85.972656 38.804688 C 86.265625 39.351562 86.527344 39.914062 86.765625 40.484375 C 87 41.058594 87.210938 41.640625 87.390625 42.234375 C 87.570312 42.828125 87.722656 43.429688 87.84375 44.035156 C 87.964844 44.644531 88.054688 45.257812 88.113281 45.875 C 88.175781 46.492188 88.203125 47.109375 88.203125 47.730469 L 88.203125 59.726562 L 66.746094 59.726562 L 66.746094 31.320312 C 66.746094 30.984375 66.808594 30.664062 66.933594 30.351562 C 67.066406 30.046875 67.246094 29.769531 67.484375 29.535156 C 67.722656 29.296875 67.992188 29.113281 68.304688 28.988281 C 68.613281 28.859375 68.933594 28.792969 69.269531 28.792969 Z M 69.269531 28.792969 "></path></g><path style=" stroke:none;fill-rule:nonzero;fill:#fae0bb;fill-opacity:1;" d="M 48.617188 55.9375 C 48.617188 55.9375 48.617188 53.414062 45.457031 53.414062 C 42.300781 53.414062 40.410156 64.144531 48.617188 68.5625 Z M 48.617188 55.9375 "></path><path style=" stroke:none;fill-rule:nonzero;fill:#fae0bb;fill-opacity:1;" d="M 84.871094 55.9375 C 84.871094 55.9375 84.871094 53.414062 88.027344 53.414062 C 91.1875 53.414062 93.078125 64.144531 84.871094 68.5625 Z M 84.871094 55.9375 "></path><path style=" stroke:none;fill-rule:nonzero;fill:#eebf90;fill-opacity:1;" d="M 48.617188 58.464844 C 48.617188 58.464844 47.351562 55.9375 46.089844 55.9375 C 44.828125 55.9375 44.828125 59.09375 44.828125 59.09375 L 48.617188 64.773438 Z M 48.617188 58.464844 "></path><path style=" stroke:none;fill-rule:nonzero;fill:#eebf90;fill-opacity:1;" d="M 84.871094 58.464844 C 84.871094 58.464844 86.136719 55.9375 87.398438 55.9375 C 88.660156 55.9375 88.660156 59.09375 88.660156 59.09375 L 84.871094 64.773438 Z M 84.871094 58.464844 "></path><path style=" stroke:none;fill-rule:nonzero;fill:#eebf90;fill-opacity:1;" d="M 56.011719 73.613281 L 56.011719 92.550781 C 56.003906 92.824219 55.957031 93.09375 55.863281 93.351562 C 55.769531 93.609375 55.636719 93.84375 55.46875 94.0625 C 55.296875 94.273438 55.097656 94.457031 54.863281 94.609375 C 54.632812 94.757812 54.386719 94.867188 54.121094 94.9375 L 29.5 101.386719 L 29.5 103.28125 L 103.988281 103.28125 L 103.988281 101.386719 L 79.367188 94.9375 C 79.101562 94.867188 78.855469 94.757812 78.621094 94.609375 C 78.390625 94.457031 78.191406 94.273438 78.023438 94.0625 C 77.851562 93.84375 77.71875 93.609375 77.625 93.351562 C 77.53125 93.09375 77.480469 92.824219 77.476562 92.550781 L 77.476562 73.613281 Z M 56.011719 73.613281 "></path><path style=" stroke:none;fill-rule:nonzero;fill:#f6d2a6;fill-opacity:1;" d="M 86.3125 61.621094 C 86.3125 70.457031 74.949219 88.132812 66.746094 88.132812 C 58.539062 88.132812 47.175781 70.457031 47.175781 61.621094 C 47.175781 48.023438 53.148438 42.679688 66.746094 42.679688 C 80.339844 42.679688 86.3125 48.023438 86.3125 61.621094 Z M 86.3125 61.621094 "></path><path style=" stroke:none;fill-rule:nonzero;fill:#7e3611;fill-opacity:1;" d="M 57.273438 65.40625 C 56.703125 65.460938 56.136719 65.410156 55.582031 65.257812 C 55.027344 65.105469 54.515625 64.855469 54.050781 64.519531 C 53.589844 64.179688 53.195312 63.769531 52.882812 63.285156 C 52.570312 62.800781 52.347656 62.28125 52.226562 61.71875 C 52.195312 61.542969 52.234375 61.386719 52.339844 61.246094 C 52.441406 61.101562 52.582031 61.015625 52.753906 60.988281 C 52.929688 60.957031 53.089844 60.996094 53.230469 61.101562 C 53.375 61.203125 53.457031 61.34375 53.488281 61.515625 C 53.488281 61.621094 53.96875 64.144531 57.273438 64.144531 C 60.582031 64.144531 61.0625 61.621094 61.0625 61.515625 C 61.089844 61.34375 61.175781 61.203125 61.320312 61.101562 C 61.460938 60.996094 61.621094 60.957031 61.796875 60.988281 C 61.96875 61.015625 62.109375 61.101562 62.214844 61.246094 C 62.316406 61.386719 62.355469 61.542969 62.328125 61.71875 C 62.203125 62.28125 61.980469 62.800781 61.667969 63.285156 C 61.351562 63.769531 60.960938 64.179688 60.496094 64.519531 C 60.03125 64.855469 59.519531 65.105469 58.964844 65.257812 C 58.410156 65.410156 57.851562 65.460938 57.273438 65.40625 Z M 57.273438 65.40625 "></path><path style=" stroke:none;fill-rule:nonzero;fill:#7e3611;fill-opacity:1;" d="M 76.214844 65.40625 C 75.636719 65.460938 75.078125 65.410156 74.519531 65.257812 C 73.964844 65.105469 73.457031 64.855469 72.992188 64.519531 C 72.527344 64.179688 72.136719 63.769531 71.820312 63.285156 C 71.503906 62.800781 71.285156 62.28125 71.164062 61.71875 C 71.136719 61.542969 71.175781 61.386719 71.277344 61.246094 C 71.382812 61.101562 71.519531 61.015625 71.691406 60.988281 C 71.867188 60.960938 72.027344 61 72.167969 61.101562 C 72.3125 61.207031 72.398438 61.34375 72.425781 61.515625 C 72.425781 61.621094 72.90625 64.144531 76.214844 64.144531 C 79.519531 64.144531 80 61.621094 80 61.515625 C 80.027344 61.34375 80.113281 61.203125 80.257812 61.101562 C 80.398438 60.996094 80.554688 60.957031 80.730469 60.984375 C 80.90625 61.015625 81.046875 61.101562 81.148438 61.246094 C 81.253906 61.386719 81.289062 61.542969 81.261719 61.71875 C 81.140625 62.28125 80.917969 62.800781 80.605469 63.285156 C 80.292969 63.769531 79.902344 64.179688 79.4375 64.519531 C 78.972656 64.855469 78.460938 65.105469 77.90625 65.257812 C 77.351562 65.410156 76.785156 65.460938 76.214844 65.40625 Z M 76.214844 65.40625 "></path><path style=" stroke:none;fill-rule:nonzero;fill:#ff6b56;fill-opacity:1;" d="M 66.746094 80.554688 C 62.550781 80.554688 61.757812 78.320312 61.691406 78.234375 C 61.636719 78.066406 61.644531 77.90625 61.722656 77.746094 C 61.800781 77.589844 61.921875 77.480469 62.085938 77.421875 C 62.25 77.367188 62.414062 77.375 62.570312 77.453125 C 62.726562 77.53125 62.835938 77.652344 62.890625 77.816406 C 62.890625 77.890625 63.527344 79.296875 66.679688 79.296875 C 69.835938 79.296875 70.46875 77.878906 70.46875 77.816406 C 70.53125 77.65625 70.640625 77.539062 70.800781 77.46875 C 70.953125 77.394531 71.117188 77.390625 71.277344 77.449219 C 71.441406 77.503906 71.558594 77.605469 71.632812 77.761719 C 71.710938 77.914062 71.722656 78.070312 71.667969 78.234375 C 71.730469 78.320312 70.9375 80.554688 66.746094 80.554688 Z M 66.746094 80.554688 "></path><path style=" stroke:none;fill-rule:nonzero;fill:#f0edfa;fill-opacity:1;" d="M 66.746094 45.839844 C 56.644531 45.839844 48.4375 54.878906 48.4375 66.039062 C 48.4375 77.195312 59.574219 88.132812 66.746094 88.132812 C 73.914062 88.132812 85.050781 77.195312 85.050781 66.039062 C 85.050781 54.878906 76.84375 45.839844 66.746094 45.839844 Z M 50.964844 62.25 C 50.964844 59.8125 53.789062 57.832031 57.273438 57.832031 C 60.757812 57.832031 63.589844 59.8125 63.589844 62.25 C 63.589844 64.6875 60.757812 66.667969 57.273438 66.667969 C 53.789062 66.667969 50.964844 64.6875 50.964844 62.25 Z M 66.746094 82.449219 C 62.566406 82.449219 59.167969 80.898438 59.167969 78.976562 C 59.167969 77.058594 62.566406 75.507812 66.746094 75.507812 C 70.921875 75.507812 74.316406 77.058594 74.316406 78.976562 C 74.316406 80.898438 70.921875 82.449219 66.746094 82.449219 Z M 76.214844 66.667969 C 72.730469 66.667969 69.898438 64.6875 69.898438 62.25 C 69.898438 59.8125 72.730469 57.832031 76.214844 57.832031 C 79.699219 57.832031 82.523438 59.8125 82.523438 62.25 C 82.523438 64.6875 79.699219 66.667969 76.214844 66.667969 Z M 76.214844 66.667969 "></path><path style=" stroke:none;fill-rule:nonzero;fill:#dfdce8;fill-opacity:1;" d="M 64.21875 69.824219 L 62.957031 72.980469 L 70.53125 72.980469 L 69.269531 69.824219 L 72.425781 74.875 L 61.0625 74.875 Z M 64.21875 69.824219 "></path><path style=" stroke:none;fill-rule:nonzero;fill:#ffff34;fill-opacity:1;" d="M 37.707031 71.089844 L 35.816406 76.136719 L 37.707031 81.1875 L 39.597656 76.136719 Z M 37.707031 71.089844 "></path><path style=" stroke:none;fill-rule:nonzero;fill:#ffff34;fill-opacity:1;" d="M 93.886719 31.953125 L 91.992188 37 L 93.886719 42.050781 L 95.78125 37 Z M 93.886719 31.953125 "></path><path style=" stroke:none;fill-rule:nonzero;fill:#ffff34;fill-opacity:1;" d="M 97.042969 56.355469 L 95.78125 59.726562 L 97.042969 63.09375 L 98.308594 59.726562 Z M 97.042969 56.355469 "></path><path style=" stroke:none;fill-rule:nonzero;fill:#ffff34;fill-opacity:1;" d="M 37.707031 48.996094 L 36.445312 52.367188 L 37.707031 55.722656 L 38.96875 52.367188 Z M 37.707031 48.996094 "></path><path style=" stroke:none;fill-rule:nonzero;fill:#ffff34;fill-opacity:1;" d="M 87.574219 79.296875 L 86.3125 82.664062 L 87.574219 86.023438 L 88.839844 82.664062 Z M 87.574219 79.296875 "></path></g></svg>
