<svg xmlns="http://www.w3.org/2000/svg" xmlns:xlink="http://www.w3.org/1999/xlink" width="180" zoomAndPan="magnify" viewBox="0 0 135 135.000003" height="180" preserveAspectRatio="xMidYMid meet"><defs><clipPath id="b49420a39a"><path d="M 0.496094 0 L 134.503906 0 L 134.503906 134.007812 L 0.496094 134.007812 Z M 0.496094 0 "></path></clipPath><clipPath id="9843974aee"><path d="M 0.496094 0 L 134.503906 0 L 134.503906 134.007812 L 0.496094 134.007812 Z M 0.496094 0 "></path></clipPath><clipPath id="fa3ab7d61e"><path d="M 67.5 0 C 30.496094 0 0.496094 30 0.496094 67.003906 C 0.496094 104.007812 30.496094 134.007812 67.5 134.007812 C 104.503906 134.007812 134.503906 104.007812 134.503906 67.003906 C 134.503906 30 104.503906 0 67.5 0 Z M 67.5 0 "></path></clipPath><clipPath id="d72ea39529"><path d="M 22.859375 22.191406 L 108.476562 22.191406 L 108.476562 110.042969 L 22.859375 110.042969 Z M 22.859375 22.191406 "></path></clipPath><clipPath id="f09bddcfba"><path d="M 67.441406 1.5625 C 31.527344 1.5625 2.410156 30.679688 2.410156 66.59375 C 2.410156 102.507812 31.527344 131.628906 67.441406 131.628906 C 103.359375 131.628906 132.476562 102.507812 132.476562 66.59375 C 132.476562 30.679688 103.359375 1.5625 67.441406 1.5625 Z M 67.441406 1.5625 "></path></clipPath><clipPath id="54db84b091"><path d="M 60.164062 92 L 76.664062 92 L 76.664062 109.410156 L 60.164062 109.410156 Z M 60.164062 92 "></path></clipPath><clipPath id="5af68b98ea"><path d="M 75 102 L 78 102 L 78 109.410156 L 75 109.410156 Z M 75 102 "></path></clipPath><clipPath id="51c5ac966a"><path d="M 59 102 L 62 102 L 62 109.410156 L 59 109.410156 Z M 59 102 "></path></clipPath><clipPath id="38fb471e8b"><path d="M 52 22.191406 L 88 22.191406 L 88 46 L 52 46 Z M 52 22.191406 "></path></clipPath><clipPath id="fd2c744173"><path d="M 90 87 L 108.476562 87 L 108.476562 106 L 90 106 Z M 90 87 "></path></clipPath></defs><g id="0fe9bdacd7"><g clip-rule="nonzero" clip-path="url(#b49420a39a)"><path style=" stroke:none;fill-rule:nonzero;fill:#ffffff;fill-opacity:1;" d="M 0.496094 0 L 134.503906 0 L 134.503906 134.007812 L 0.496094 134.007812 Z M 0.496094 0 "></path><path style=" stroke:none;fill-rule:nonzero;fill:#ffffff;fill-opacity:1;" d="M 0.496094 0 L 134.503906 0 L 134.503906 134.007812 L 0.496094 134.007812 Z M 0.496094 0 "></path></g><g clip-rule="nonzero" clip-path="url(#9843974aee)"><g clip-rule="nonzero" clip-path="url(#fa3ab7d61e)"><path style=" stroke:none;fill-rule:nonzero;fill:#f4e0e0;fill-opacity:1;" d="M 0.496094 0 L 134.503906 0 L 134.503906 134.007812 L 0.496094 134.007812 Z M 0.496094 0 "></path><path style="fill:none;stroke-width:14;stroke-linecap:butt;stroke-linejoin:miter;stroke:#7b2e07;stroke-opacity:1;stroke-miterlimit:4;" d="M 90.000004 -0.00000933333 C 40.29599 -0.00000933333 -0.000306642 40.296288 -0.000306642 90.000301 C -0.000306642 139.704314 40.29599 180.000611 90.000004 180.000611 C 139.704017 180.000611 180.000314 139.704314 180.000314 90.000301 C 180.000314 40.296288 139.704017 -0.00000933333 90.000004 -0.00000933333 Z M 90.000004 -0.00000933333 " transform="matrix(0.744485,0,0,0.744485,0.496322,0.00000694853)"></path></g></g><g clip-rule="nonzero" clip-path="url(#d72ea39529)"><g clip-rule="nonzero" clip-path="url(#f09bddcfba)"><path style=" stroke:none;fill-rule:nonzero;fill:#ffdfdf;fill-opacity:1;" d="M 2.410156 1.5625 L 132.476562 1.5625 L 132.476562 131.628906 L 2.410156 131.628906 Z M 2.410156 1.5625 "></path><path style="fill:none;stroke-width:8;stroke-linecap:butt;stroke-linejoin:miter;stroke:#f80303;stroke-opacity:1;stroke-miterlimit:4;" d="M 89.999064 0.00253083 C 40.297109 0.00253083 0.00144058 40.298208 0.00144058 90.000175 C 0.00144058 139.702142 40.297109 180.003225 89.999064 180.003225 C 139.706425 180.003225 180.002093 139.702142 180.002093 90.000175 C 180.002093 40.298208 139.706425 0.00253083 89.999064 0.00253083 Z M 89.999064 0.00253083 " transform="matrix(0.722589,0,0,0.722588,2.409115,1.560671)"></path></g></g><path style=" stroke:none;fill-rule:nonzero;fill:#f6f0f7;fill-opacity:1;" d="M 37.511719 70.871094 L 37.511719 58.625 C 37.511719 49.109375 42.144531 40.351562 49.667969 34.960938 C 49.667969 34.960938 51.867188 34.320312 53.007812 33.714844 L 55.277344 31.621094 L 72.394531 44.742188 L 55.757812 70.871094 Z M 37.511719 70.871094 "></path><g clip-rule="nonzero" clip-path="url(#54db84b091)"><path style=" stroke:none;fill-rule:nonzero;fill:#ec806b;fill-opacity:1;" d="M 60.4375 108.898438 L 60.4375 92.445312 L 76.363281 92.445312 L 76.363281 108.898438 C 76.363281 109.183594 76.136719 109.410156 75.851562 109.410156 L 60.953125 109.410156 C 60.667969 109.410156 60.4375 109.183594 60.4375 108.898438 Z M 60.4375 108.898438 "></path></g><path style=" stroke:none;fill-rule:nonzero;fill:#ece6ed;fill-opacity:1;" d="M 72.394531 44.738281 L 68.5625 50.757812 L 66.226562 47.757812 L 55.65625 43.015625 C 52.3125 41.515625 50.125 38.40625 49.667969 34.960938 C 50.707031 34.214844 51.800781 33.539062 52.941406 32.929688 L 55.277344 31.621094 Z M 72.394531 44.738281 "></path><path style=" stroke:none;fill-rule:nonzero;fill:#f6f0f7;fill-opacity:1;" d="M 68.832031 44.4375 L 57.332031 39.273438 C 54.488281 38 53.035156 34.808594 53.945312 31.828125 C 56.019531 25.003906 63.527344 21.453125 70.113281 24.179688 L 78.800781 27.773438 L 79.652344 28.304688 C 89.511719 32.878906 97.222656 44.707031 97.222656 57.671875 L 97.222656 70.871094 L 89.414062 70.871094 Z M 68.832031 44.4375 "></path><path style=" stroke:none;fill-rule:nonzero;fill:#ece6ed;fill-opacity:1;" d="M 99.289062 57.671875 L 99.289062 70.871094 L 92.113281 70.871094 L 92.113281 56.371094 C 92.113281 44.855469 87 34.253906 78.714844 27.734375 L 79.492188 28.058594 C 91.476562 33.015625 99.289062 44.707031 99.289062 57.671875 Z M 99.289062 57.671875 "></path><path style=" stroke:none;fill-rule:nonzero;fill:#ec806b;fill-opacity:1;" d="M 89.300781 83.632812 L 47.503906 83.632812 C 40.972656 83.632812 35.675781 78.335938 35.675781 71.804688 C 35.675781 69.203125 37.78125 67.09375 40.378906 67.09375 L 96.417969 67.09375 C 99.019531 67.09375 101.128906 69.203125 101.128906 71.804688 C 101.128906 78.335938 95.832031 83.632812 89.300781 83.632812 Z M 89.300781 83.632812 "></path><path style=" stroke:none;fill-rule:nonzero;fill:#f99675;fill-opacity:1;" d="M 68.402344 105.027344 C 72.140625 105.027344 75.882812 103.65625 78.808594 100.914062 L 86.804688 93.425781 C 88.171875 92.144531 89.316406 90.640625 90.1875 88.980469 C 91.449219 86.578125 92.113281 83.902344 92.113281 81.1875 L 92.113281 67.09375 C 90.816406 67.09375 89.671875 66.335938 89.316406 65.09375 C 86.917969 56.742188 80.960938 49.878906 73.039062 46.320312 L 68.832031 44.4375 C 68.558594 44.3125 68.242188 44.3125 67.964844 44.4375 L 63.765625 46.320312 C 55.835938 49.878906 49.882812 56.742188 47.488281 65.09375 C 47.128906 66.335938 45.984375 67.09375 44.691406 67.09375 L 44.691406 81.1875 C 44.691406 83.902344 45.351562 86.578125 46.613281 88.980469 C 47.484375 90.640625 48.628906 92.144531 50 93.425781 L 57.992188 100.914062 C 60.917969 103.65625 64.660156 105.027344 68.402344 105.027344 Z M 68.402344 105.027344 "></path><path style=" stroke:none;fill-rule:nonzero;fill:#ffd67b;fill-opacity:1;" d="M 37.03125 45.625 L 36.496094 47.050781 C 35.871094 48.730469 34.546875 50.050781 32.871094 50.675781 L 31.445312 51.210938 C 31.003906 51.378906 31.003906 52.003906 31.445312 52.171875 L 32.871094 52.707031 C 34.546875 53.332031 35.871094 54.65625 36.496094 56.335938 L 37.03125 57.761719 C 37.199219 58.203125 37.828125 58.203125 37.992188 57.761719 L 38.527344 56.335938 C 39.15625 54.65625 40.476562 53.332031 42.152344 52.707031 L 43.578125 52.171875 C 44.023438 52.003906 44.023438 51.378906 43.578125 51.210938 L 42.152344 50.675781 C 40.476562 50.050781 39.15625 48.730469 38.527344 47.050781 L 37.992188 45.625 C 37.828125 45.179688 37.199219 45.179688 37.03125 45.625 Z M 37.03125 45.625 "></path><path style=" stroke:none;fill-rule:nonzero;fill:#ffd67b;fill-opacity:1;" d="M 98.691406 89.964844 L 98.109375 91.515625 C 97.453125 93.265625 96.070312 94.648438 94.320312 95.304688 L 92.769531 95.886719 C 92.324219 96.050781 92.324219 96.679688 92.769531 96.84375 L 94.320312 97.425781 C 96.070312 98.082031 97.453125 99.464844 98.109375 101.214844 L 98.691406 102.765625 C 98.855469 103.210938 99.484375 103.210938 99.648438 102.765625 L 100.230469 101.214844 C 100.886719 99.464844 102.269531 98.082031 104.019531 97.425781 L 105.570312 96.84375 C 106.015625 96.679688 106.015625 96.050781 105.570312 95.886719 L 104.019531 95.304688 C 102.269531 94.648438 100.886719 93.265625 100.230469 91.515625 L 99.648438 89.964844 C 99.484375 89.519531 98.855469 89.519531 98.691406 89.964844 Z M 98.691406 89.964844 "></path><path style=" stroke:none;fill-rule:nonzero;fill:#ffd67b;fill-opacity:1;" d="M 37.804688 89.808594 L 37.414062 90.855469 C 36.859375 92.335938 35.691406 93.503906 34.210938 94.058594 L 33.164062 94.449219 C 32.722656 94.617188 32.722656 95.246094 33.164062 95.40625 L 34.210938 95.800781 C 35.691406 96.355469 36.859375 97.523438 37.414062 99.003906 L 37.804688 100.050781 C 37.972656 100.496094 38.601562 100.496094 38.765625 100.050781 L 39.164062 99 C 39.710938 97.519531 40.875 96.355469 42.355469 95.800781 L 43.410156 95.40625 C 43.851562 95.246094 43.851562 94.617188 43.410156 94.449219 L 42.359375 94.058594 C 40.878906 93.503906 39.710938 92.335938 39.160156 90.855469 L 38.765625 89.808594 C 38.601562 89.363281 37.972656 89.363281 37.804688 89.808594 Z M 37.804688 89.808594 "></path><g clip-rule="nonzero" clip-path="url(#5af68b98ea)"><path style="fill:none;stroke-width:15;stroke-linecap:round;stroke-linejoin:round;stroke:#000000;stroke-opacity:1;stroke-miterlimit:10;" d="M 301.992478 476.44611 L 301.992478 504.513214 " transform="matrix(0.170768,0,0,0.170768,24.792561,21.978)"></path></g><g clip-rule="nonzero" clip-path="url(#51c5ac966a)"><path style="fill:none;stroke-width:15;stroke-linecap:round;stroke-linejoin:round;stroke:#000000;stroke-opacity:1;stroke-miterlimit:10;" d="M 208.732851 504.513214 L 208.732851 476.44611 " transform="matrix(0.170768,0,0,0.170768,24.792561,21.978)"></path></g><path style="fill:none;stroke-width:15;stroke-linecap:round;stroke-linejoin:round;stroke:#000000;stroke-opacity:1;stroke-miterlimit:10;" d="M 436.243385 269.934469 L 436.243385 209.01947 C 436.243385 161.120106 418.035224 116.194436 386.971554 82.271439 " transform="matrix(0.170768,0,0,0.170768,24.792559,21.978)"></path><g clip-rule="nonzero" clip-path="url(#38fb471e8b)"><path style="fill:none;stroke-width:15;stroke-linecap:round;stroke-linejoin:round;stroke:#000000;stroke-opacity:1;stroke-miterlimit:10;" d="M 255.374102 130.353789 L 190.547567 101.280204 C 173.894879 93.823092 165.385538 75.157439 170.715313 57.681263 C 180.071013 26.91496 208.275359 7.494446 238.378295 7.494446 C 247.368002 7.494446 256.51783 9.232913 265.393164 12.892845 L 320.31501 35.607298 C 335.023359 41.691935 348.656603 49.51504 361.031747 58.779243 " transform="matrix(0.170768,0,0,0.170768,24.792561,21.978)"></path></g><path style="fill:none;stroke-width:15;stroke-linecap:round;stroke-linejoin:round;stroke:#000000;stroke-opacity:1;stroke-miterlimit:10;" d="M 74.482009 217.048447 L 74.482009 269.934469 " transform="matrix(0.170768,0,0,0.170768,24.792559,21.978)"></path><path style="fill:none;stroke-width:15;stroke-linecap:round;stroke-linejoin:round;stroke:#000000;stroke-opacity:1;stroke-miterlimit:10;" d="M 164.836573 64.131899 C 128.30588 83.575289 100.559023 115.416701 85.965045 153.114004 " transform="matrix(0.170768,0,0,0.170768,24.792559,21.978)"></path><path style="fill:none;stroke-width:15;stroke-linecap:round;stroke-linejoin:round;stroke:#000000;stroke-opacity:1;stroke-miterlimit:10;" d="M 394.222794 359.053821 C 409.365761 355.348139 422.56439 346.678675 431.988714 334.875393 C 441.367289 323.026362 446.994434 308.043514 446.994434 291.756815 C 446.994434 282.858605 442.762638 274.944001 436.243385 269.934469 L 436.243385 269.911594 C 431.576972 266.320286 425.76683 264.19295 419.430573 264.19295 L 394.222794 264.19295 " transform="matrix(0.170768,0,0,0.170768,24.792559,21.978)"></path><path style="fill:none;stroke-width:15;stroke-linecap:round;stroke-linejoin:round;stroke:#000000;stroke-opacity:1;stroke-miterlimit:10;" d="M 112.568174 357.978716 C 84.272327 349.240627 63.73096 322.911989 63.73096 291.77969 C 63.73096 276.545221 76.060355 264.19295 91.271946 264.19295 L 116.525475 264.19295 " transform="matrix(0.170768,0,0,0.170768,24.792559,21.978)"></path><path style="fill:none;stroke-width:15;stroke-linecap:round;stroke-linejoin:round;stroke:#000000;stroke-opacity:1;stroke-miterlimit:10;" d="M 190.547594 165.672146 C 201.939131 156.453692 214.58877 148.676336 228.222016 142.545949 L 255.374134 130.3538 L 282.526253 142.545949 C 305.72107 152.976756 326.033691 168.211225 342.320387 186.991252 C 358.584209 205.77128 370.822105 228.028244 377.844599 252.481166 C 378.873955 256.118224 381.069914 259.04617 383.95211 261.059133 C 386.857181 263.09497 390.425615 264.19295 394.222794 264.19295 L 394.222794 290.841832 " transform="matrix(0.170768,0,0,0.170768,24.792559,21.978)"></path><path style="fill:none;stroke-width:15;stroke-linecap:round;stroke-linejoin:round;stroke:#000000;stroke-opacity:1;stroke-miterlimit:10;" d="M 165.614309 190.308066 C 150.722962 208.356107 139.491546 229.469342 132.903669 252.481166 C 131.828564 256.118224 129.632605 259.04617 126.750409 261.059133 C 123.868213 263.09497 120.299779 264.19295 116.525475 264.19295 L 116.525475 346.724424 C 116.525475 362.622255 120.391278 378.29134 127.779765 392.359205 C 132.880795 402.0809 139.583045 410.887612 147.61202 418.390474 L 150.356969 420.952426 " transform="matrix(0.170768,0,0,0.170768,24.792559,21.978)"></path><path style="fill:none;stroke-width:15;stroke-linecap:round;stroke-linejoin:round;stroke:#000000;stroke-opacity:1;stroke-miterlimit:10;" d="M 394.222794 325.839935 L 394.222794 346.724424 C 394.222794 362.622255 390.334116 378.29134 382.945629 392.359205 C 377.844599 402.0809 371.142349 410.887612 363.136249 418.390474 L 316.311997 462.241038 C 299.178942 478.298991 277.287975 486.327968 255.374134 486.327968 C 233.460293 486.327968 211.546452 478.298991 194.413397 462.241038 L 175.907867 444.924983 " transform="matrix(0.170768,0,0,0.170768,24.792559,21.978)"></path><path style="fill:none;stroke-width:15;stroke-linecap:round;stroke-linejoin:round;stroke:#000000;stroke-opacity:1;stroke-miterlimit:10;" d="M 239.476306 354.158661 C 249.472494 359.236818 261.275774 359.236818 271.271963 354.158661 " transform="matrix(0.170768,0,0,0.170768,24.792559,21.978)"></path><path style="fill:none;stroke-width:15;stroke-linecap:round;stroke-linejoin:round;stroke:#000000;stroke-opacity:1;stroke-miterlimit:10;" d="M 177.897955 251.20019 C 191.371078 243.811702 207.657774 243.811702 221.108024 251.20019 " transform="matrix(0.170768,0,0,0.170768,24.792559,21.978)"></path><path style="fill:none;stroke-width:15;stroke-linecap:round;stroke-linejoin:round;stroke:#000000;stroke-opacity:1;stroke-miterlimit:10;" d="M 289.594496 251.20019 C 303.067619 243.811702 319.354316 243.811702 332.827439 251.20019 " transform="matrix(0.170768,0,0,0.170768,24.792559,21.978)"></path><path style="fill:none;stroke-width:15;stroke-linecap:round;stroke-linejoin:round;stroke:#000000;stroke-opacity:1;stroke-miterlimit:10;" d="M 300.36842 283.590591 L 323.357366 283.590591 C 329.899494 283.590591 336.190001 280.982889 340.83354 276.362225 " transform="matrix(0.170768,0,0,0.170768,24.792559,21.978)"></path><path style="fill:none;stroke-width:15;stroke-linecap:round;stroke-linejoin:round;stroke:#000000;stroke-opacity:1;stroke-miterlimit:10;" d="M 311.233842 308.638253 L 311.233842 285.260435 " transform="matrix(0.170768,0,0,0.170768,24.792559,21.978)"></path><path style="fill:none;stroke-width:15;stroke-linecap:round;stroke-linejoin:round;stroke:#000000;stroke-opacity:1;stroke-miterlimit:10;" d="M 210.3341 283.590591 L 187.390903 283.590591 C 180.8259 283.590591 174.535392 280.982889 169.891854 276.362225 " transform="matrix(0.170768,0,0,0.170768,24.792559,21.978)"></path><path style="fill:none;stroke-width:15;stroke-linecap:round;stroke-linejoin:round;stroke:#000000;stroke-opacity:1;stroke-miterlimit:10;" d="M 199.491552 308.638253 L 199.491552 285.260435 " transform="matrix(0.170768,0,0,0.170768,24.792559,21.978)"></path><path style="fill:none;stroke-width:15;stroke-linecap:round;stroke-linejoin:round;stroke:#000000;stroke-opacity:1;stroke-miterlimit:10;" d="M 242.655872 424.909728 C 251.119464 427.952047 259.60593 427.952047 268.092397 424.909728 " transform="matrix(0.170768,0,0,0.170768,24.792559,21.978)"></path><path style="fill:none;stroke-width:15;stroke-linecap:round;stroke-linejoin:round;stroke:#000000;stroke-opacity:1;stroke-miterlimit:10;" d="M 218.500322 395.653144 C 224.584959 398.695463 231.538829 399.427449 238.149581 397.734731 L 246.658922 395.538771 L 255.374134 400.365307 L 264.043597 395.538771 L 272.598688 397.734731 C 279.16369 399.427449 286.140435 398.695463 292.225072 395.653144 " transform="matrix(0.170768,0,0,0.170768,24.792559,21.978)"></path><path style="fill:none;stroke-width:15;stroke-linecap:round;stroke-linejoin:round;stroke:#000000;stroke-opacity:1;stroke-miterlimit:10;" d="M 74.482009 130.971413 L 68.53462 146.84637 C 64.874688 156.659563 57.120208 164.39117 47.307016 168.073977 L 31.432062 174.021367 L 47.307016 179.945883 C 57.120208 183.605815 64.874688 191.360297 68.53462 201.196365 L 74.482009 217.048447 L 80.429398 201.196365 C 84.112205 191.360297 91.84381 183.605815 101.657002 179.945883 L 117.509081 174.021367 L 101.657002 168.073977 C 91.84381 164.39117 84.112205 156.659563 80.429398 146.84637 Z M 74.482009 130.971413 " transform="matrix(0.170768,0,0,0.170768,24.792559,21.978)"></path><g clip-rule="nonzero" clip-path="url(#fd2c744173)"><path style="fill:none;stroke-width:15;stroke-linecap:round;stroke-linejoin:round;stroke:#000000;stroke-opacity:1;stroke-miterlimit:10;" d="M 435.557148 390.620737 L 429.335264 407.204806 C 425.492335 417.452616 417.394736 425.550216 407.146928 429.393145 L 390.562862 435.61503 L 407.146928 441.814041 C 417.394736 445.65697 425.492335 453.75457 429.335264 464.00238 L 435.557148 480.586449 L 441.756157 464.00238 C 445.599085 453.75457 453.696684 445.65697 463.967367 441.814041 L 480.551433 435.61503 L 463.967367 429.393145 C 453.696684 425.550216 445.599085 417.452616 441.756157 407.204806 Z M 435.557148 390.620737 " transform="matrix(0.170768,0,0,0.170768,24.792559,21.978)"></path></g><path style="fill:none;stroke-width:15;stroke-linecap:round;stroke-linejoin:round;stroke:#000000;stroke-opacity:1;stroke-miterlimit:10;" d="M 79.011175 389.705754 L 73.910145 403.339002 C 70.661955 411.985592 63.822458 418.847965 55.152995 422.096155 L 41.519749 427.197186 L 55.152995 432.298217 C 63.822458 435.546407 70.661955 442.385905 73.910145 451.05537 L 79.011175 464.711492 L 84.157954 451.009621 C 87.360394 442.363031 94.177017 435.546407 102.84648 432.298217 L 116.525475 427.197186 L 102.892229 422.096155 C 94.199891 418.847965 87.360394 412.008467 84.135079 403.339002 Z M 79.011175 389.705754 " transform="matrix(0.170768,0,0,0.170768,24.792559,21.978)"></path></g></svg>
