<svg xmlns="http://www.w3.org/2000/svg" xmlns:xlink="http://www.w3.org/1999/xlink" width="180" zoomAndPan="magnify" viewBox="0 0 135 135.000003" height="180" preserveAspectRatio="xMidYMid meet"><defs><clipPath id="7acf082f29"><path d="M 0.496094 0 L 134.503906 0 L 134.503906 134.007812 L 0.496094 134.007812 Z M 0.496094 0 "></path></clipPath><clipPath id="1997cbeda4"><path d="M 0.496094 0 L 134.503906 0 L 134.503906 134.007812 L 0.496094 134.007812 Z M 0.496094 0 "></path></clipPath><clipPath id="d5a45044e4"><path d="M 67.5 0 C 30.496094 0 0.496094 30 0.496094 67.003906 C 0.496094 104.007812 30.496094 134.007812 67.5 134.007812 C 104.503906 134.007812 134.503906 104.007812 134.503906 67.003906 C 134.503906 30 104.503906 0 67.5 0 Z M 67.5 0 "></path></clipPath><clipPath id="8df7447465"><path d="M 26.195312 26.417969 L 108.832031 26.417969 L 108.832031 107.566406 L 26.195312 107.566406 Z M 26.195312 26.417969 "></path></clipPath><clipPath id="e6ae732adb"><path d="M 67.9375 2.8125 C 31.613281 2.8125 2.164062 32.257812 2.164062 68.582031 C 2.164062 104.90625 31.613281 134.355469 67.9375 134.355469 C 104.261719 134.355469 133.707031 104.90625 133.707031 68.582031 C 133.707031 32.257812 104.261719 2.8125 67.9375 2.8125 Z M 67.9375 2.8125 "></path></clipPath><clipPath id="e82937b7e0"><path d="M 26.21875 28.332031 L 107.691406 28.332031 L 107.691406 107.566406 L 26.21875 107.566406 Z M 26.21875 28.332031 "></path></clipPath><clipPath id="770eb805d3"><path d="M 39 26.417969 L 94.929688 26.417969 L 94.929688 74.46875 L 39 74.46875 Z M 39 26.417969 "></path></clipPath><clipPath id="46fe91a7b2"><path d="M 39 26.417969 L 71.371094 26.417969 L 71.371094 74.46875 L 39 74.46875 Z M 39 26.417969 "></path></clipPath><clipPath id="90c6b7f828"><path d="M 41 80.359375 L 94.929688 80.359375 L 94.929688 107.566406 L 41 107.566406 Z M 41 80.359375 "></path></clipPath><clipPath id="eba6ea1441"><path d="M 36 96 L 58 96 L 58 107.566406 L 36 107.566406 Z M 36 96 "></path></clipPath></defs><g id="f5ef1ae4bf"><g clip-rule="nonzero" clip-path="url(#7acf082f29)"><path style=" stroke:none;fill-rule:nonzero;fill:#ffffff;fill-opacity:1;" d="M 0.496094 0 L 134.503906 0 L 134.503906 134.007812 L 0.496094 134.007812 Z M 0.496094 0 "></path><path style=" stroke:none;fill-rule:nonzero;fill:#ffffff;fill-opacity:1;" d="M 0.496094 0 L 134.503906 0 L 134.503906 134.007812 L 0.496094 134.007812 Z M 0.496094 0 "></path></g><g clip-rule="nonzero" clip-path="url(#1997cbeda4)"><g clip-rule="nonzero" clip-path="url(#d5a45044e4)"><path style=" stroke:none;fill-rule:nonzero;fill:#f4dddd;fill-opacity:1;" d="M 0.496094 0 L 134.503906 0 L 134.503906 134.007812 L 0.496094 134.007812 Z M 0.496094 0 "></path><path style="fill:none;stroke-width:12;stroke-linecap:butt;stroke-linejoin:miter;stroke:#7b2e07;stroke-opacity:1;stroke-miterlimit:4;" d="M 90.000004 -0.00000933333 C 40.29599 -0.00000933333 -0.000306642 40.296288 -0.000306642 90.000301 C -0.000306642 139.704314 40.29599 180.000611 90.000004 180.000611 C 139.704017 180.000611 180.000314 139.704314 180.000314 90.000301 C 180.000314 40.296288 139.704017 -0.00000933333 90.000004 -0.00000933333 Z M 90.000004 -0.00000933333 " transform="matrix(0.744485,0,0,0.744485,0.496322,0.00000694853)"></path></g></g><g clip-rule="nonzero" clip-path="url(#8df7447465)"><g clip-rule="nonzero" clip-path="url(#e6ae732adb)"><path style=" stroke:none;fill-rule:nonzero;fill:#ffdfdf;fill-opacity:1;" d="M 2.164062 2.8125 L 133.707031 2.8125 L 133.707031 134.355469 L 2.164062 134.355469 Z M 2.164062 2.8125 "></path><path style="fill:none;stroke-width:8;stroke-linecap:butt;stroke-linejoin:miter;stroke:#f80303;stroke-opacity:1;stroke-miterlimit:4;" d="M 90.001351 0.00243517 C 40.2966 0.00243517 -0.000648436 40.294348 -0.000648436 89.99911 C -0.000648436 139.703873 40.2966 180.001131 90.001351 180.001131 C 139.706102 180.001131 179.998006 139.703873 179.998006 89.99911 C 179.998006 40.294348 139.706102 0.00243517 90.001351 0.00243517 Z M 90.001351 0.00243517 " transform="matrix(0.7308,0,0,0.7308,2.164536,2.81072)"></path></g></g><g clip-rule="nonzero" clip-path="url(#e82937b7e0)"><path style=" stroke:none;fill-rule:nonzero;fill:#8bc727;fill-opacity:1;" d="M 67.035156 28.9375 C 44.628906 28.9375 26.472656 47.097656 26.472656 69.503906 C 26.472656 79.121094 29.816406 87.953125 35.414062 94.90625 L 35.578125 94.90625 L 35.578125 85.59375 L 41.855469 85.59375 L 41.855469 96.660156 L 56.933594 96.660156 C 57.300781 96.660156 57.597656 96.953125 57.597656 97.316406 L 57.597656 108.746094 L 57.765625 109 C 60.742188 109.699219 63.84375 110.066406 67.035156 110.066406 C 89.441406 110.066406 107.601562 91.90625 107.601562 69.503906 C 107.601562 47.097656 89.441406 28.9375 67.035156 28.9375 Z M 67.035156 28.9375 "></path></g><g clip-rule="nonzero" clip-path="url(#770eb805d3)"><path style=" stroke:none;fill-rule:nonzero;fill:#ca6e59;fill-opacity:1;" d="M 47.757812 54.523438 L 47.828125 54.472656 L 47.828125 52.78125 C 47.828125 42.191406 56.445312 33.574219 67.035156 33.574219 C 77.625 33.574219 86.242188 42.191406 86.242188 52.78125 L 86.242188 54.472656 L 86.3125 54.523438 C 87.613281 55.449219 88.394531 56.957031 88.394531 58.554688 L 88.394531 60.75 C 88.394531 63.476562 86.175781 65.695312 83.445312 65.695312 L 82.851562 65.695312 L 82.816406 65.816406 C 82.804688 65.867188 82.792969 65.914062 82.777344 65.96875 L 88.824219 72.015625 C 90.195312 70.59375 91.042969 68.65625 91.042969 66.523438 C 91.042969 65.558594 90.871094 64.632812 90.550781 63.777344 C 92.953125 62.585938 94.605469 60.113281 94.605469 57.253906 C 94.605469 54.195312 92.71875 51.582031 90.054688 50.5 L 90.054688 48.308594 C 90.054688 35.597656 79.746094 25.296875 67.035156 25.296875 C 54.324219 25.296875 44.019531 35.597656 44.019531 48.308594 L 44.019531 50.5 C 41.351562 51.582031 39.46875 54.195312 39.46875 57.253906 C 39.46875 60.113281 41.117188 62.585938 43.519531 63.777344 C 43.199219 64.632812 43.027344 65.558594 43.027344 66.523438 C 43.027344 70.890625 46.570312 74.433594 50.941406 74.433594 C 52.640625 74.433594 54.214844 73.898438 55.503906 72.984375 C 53.535156 71.039062 52.039062 68.59375 51.253906 65.816406 L 51.21875 65.695312 L 50.625 65.695312 C 47.898438 65.695312 45.675781 63.476562 45.675781 60.75 L 45.675781 58.554688 C 45.675781 56.957031 46.457031 55.449219 47.757812 54.523438 Z M 47.757812 54.523438 "></path></g><g clip-rule="nonzero" clip-path="url(#46fe91a7b2)"><path style=" stroke:none;fill-rule:nonzero;fill:#bb5d4c;fill-opacity:1;" d="M 51.09375 65.859375 L 50.625 65.859375 C 47.800781 65.859375 45.511719 63.570312 45.511719 60.75 L 45.511719 58.554688 C 45.511719 56.835938 46.359375 55.316406 47.664062 54.386719 L 47.664062 52.78125 C 47.664062 46.617188 50.542969 41.121094 55.035156 37.574219 C 58.269531 31.453125 64.183594 26.96875 71.214844 25.675781 C 69.863281 25.425781 68.460938 25.296875 67.035156 25.296875 C 54.324219 25.296875 44.019531 35.597656 44.019531 48.308594 L 44.019531 50.5 C 41.351562 51.582031 39.46875 54.195312 39.46875 57.253906 C 39.46875 60.113281 41.117188 62.585938 43.519531 63.777344 C 43.199219 64.632812 43.027344 65.558594 43.027344 66.523438 C 43.027344 70.890625 46.570312 74.433594 50.941406 74.433594 C 52.476562 74.433594 53.90625 73.996094 55.121094 73.242188 L 55.121094 72.847656 C 53.25 70.910156 51.847656 68.523438 51.09375 65.859375 Z M 51.09375 65.859375 "></path></g><path style=" stroke:none;fill-rule:nonzero;fill:#ffffff;fill-opacity:1;" d="M 50.625 53.609375 L 50.726562 53.609375 C 51.554688 46.257812 57.808594 40.527344 65.375 40.527344 L 68.695312 40.527344 C 76.261719 40.527344 82.515625 46.257812 83.34375 53.609375 L 83.445312 53.609375 C 84.554688 53.609375 85.582031 53.972656 86.40625 54.59375 L 86.40625 52.78125 C 86.40625 42.082031 77.734375 33.410156 67.035156 33.410156 C 56.335938 33.410156 47.664062 42.082031 47.664062 52.78125 L 47.664062 54.59375 C 48.488281 53.972656 49.515625 53.609375 50.625 53.609375 Z M 50.625 53.609375 "></path><path style=" stroke:none;fill-rule:nonzero;fill:#eaf6ff;fill-opacity:1;" d="M 50.578125 53.445312 C 51.109375 49.101562 53.511719 45.332031 56.949219 42.972656 C 59.785156 38.15625 64.640625 34.675781 70.347656 33.691406 C 69.269531 33.503906 68.167969 33.410156 67.035156 33.410156 C 56.335938 33.410156 47.664062 42.082031 47.664062 52.78125 L 47.664062 54.386719 C 48.488281 53.800781 49.492188 53.453125 50.578125 53.445312 Z M 50.578125 53.445312 "></path><g clip-rule="nonzero" clip-path="url(#90c6b7f828)"><path style=" stroke:none;fill-rule:nonzero;fill:#fe646f;fill-opacity:1;" d="M 93.921875 90.929688 C 93.800781 91.054688 93.632812 91.125 93.453125 91.125 C 93.277344 91.125 93.109375 91.054688 92.988281 90.929688 L 91.347656 89.289062 C 91.222656 89.167969 91.152344 88.996094 91.152344 88.820312 C 91.152344 88.644531 91.222656 88.480469 91.347656 88.351562 L 92.050781 87.652344 L 85.105469 80.707031 L 73.644531 80.707031 L 67.34375 96.28125 C 67.28125 96.4375 67.144531 96.488281 67.035156 96.488281 C 66.929688 96.488281 66.789062 96.4375 66.730469 96.28125 L 60.425781 80.707031 L 48.621094 80.707031 C 45.839844 80.707031 43.339844 81.925781 41.625 83.863281 L 41.570312 84.125 C 41.753906 84.527344 41.855469 84.972656 41.855469 85.425781 L 41.855469 96.660156 L 56.933594 96.660156 C 57.300781 96.660156 57.597656 96.953125 57.597656 97.316406 L 57.597656 108.746094 L 57.765625 109 C 60.742188 109.695312 63.84375 110.066406 67.035156 110.066406 C 77.777344 110.066406 87.539062 105.890625 94.796875 99.078125 L 94.796875 90.054688 Z M 93.921875 90.929688 "></path></g><path style=" stroke:none;fill-rule:nonzero;fill:#ffbd86;fill-opacity:1;" d="M 67.035156 77.738281 C 64.644531 77.738281 62.339844 77.210938 60.25 76.253906 L 60.25 80.707031 L 66.574219 96.347656 C 66.742188 96.761719 67.332031 96.761719 67.496094 96.347656 L 73.824219 80.707031 L 73.824219 76.253906 C 71.738281 77.210938 69.429688 77.738281 67.035156 77.738281 Z M 67.035156 77.738281 "></path><path style=" stroke:none;fill-rule:nonzero;fill:#f6a96c;fill-opacity:1;" d="M 65.214844 77.804688 C 63.460938 77.613281 61.789062 77.148438 60.25 76.453125 L 60.25 80.707031 L 66.574219 96.347656 C 66.742188 96.761719 67.332031 96.761719 67.496094 96.347656 L 69.519531 91.347656 L 65.515625 81.457031 C 65.316406 80.964844 65.214844 80.433594 65.214844 79.902344 Z M 65.214844 77.804688 "></path><path style=" stroke:none;fill-rule:nonzero;fill:#f6a96c;fill-opacity:1;" d="M 50.632812 61.335938 L 50.632812 55.273438 C 50.632812 54.652344 50.671875 54.042969 50.746094 53.445312 L 50.625 53.445312 C 47.800781 53.445312 45.511719 55.734375 45.511719 58.554688 L 45.511719 60.75 C 45.511719 63.570312 47.800781 65.859375 50.625 65.859375 L 51.269531 65.859375 C 50.855469 64.421875 50.632812 62.902344 50.632812 61.335938 Z M 50.632812 61.335938 "></path><path style=" stroke:none;fill-rule:nonzero;fill:#ffbd86;fill-opacity:1;" d="M 83.445312 53.445312 L 83.324219 53.445312 C 83.402344 54.042969 83.4375 54.652344 83.4375 55.273438 L 83.4375 61.335938 C 83.4375 62.902344 83.214844 64.421875 82.800781 65.859375 L 83.445312 65.859375 C 86.273438 65.859375 88.5625 63.570312 88.5625 60.75 L 88.5625 58.554688 C 88.5625 55.734375 86.273438 53.445312 83.445312 53.445312 Z M 83.445312 53.445312 "></path><path style=" stroke:none;fill-rule:nonzero;fill:#fed2a4;fill-opacity:1;" d="M 67.035156 77.90625 C 76.1875 77.90625 83.605469 70.484375 83.605469 61.335938 L 83.605469 55.273438 C 83.605469 47.039062 76.929688 40.363281 68.695312 40.363281 L 65.375 40.363281 C 57.140625 40.363281 50.46875 47.039062 50.46875 55.273438 L 50.46875 61.335938 C 50.46875 70.484375 57.886719 77.90625 67.035156 77.90625 Z M 67.035156 77.90625 "></path><path style=" stroke:none;fill-rule:nonzero;fill:#ffbd86;fill-opacity:1;" d="M 55.613281 61.335938 L 55.613281 55.273438 C 55.613281 47.34375 61.796875 40.863281 69.609375 40.390625 C 69.304688 40.371094 69.003906 40.363281 68.695312 40.363281 L 65.375 40.363281 C 57.140625 40.363281 50.46875 47.039062 50.46875 55.273438 L 50.46875 61.335938 C 50.46875 70.484375 57.886719 77.90625 67.035156 77.90625 C 67.910156 77.90625 68.769531 77.835938 69.609375 77.703125 C 61.679688 76.46875 55.613281 69.609375 55.613281 61.335938 Z M 55.613281 61.335938 "></path><path style=" stroke:none;fill-rule:nonzero;fill:#ca6e59;fill-opacity:1;" d="M 60.742188 55.925781 C 60.742188 56.253906 60.683594 56.574219 60.554688 56.875 C 60.429688 57.179688 60.25 57.453125 60.019531 57.679688 C 59.785156 57.914062 59.515625 58.097656 59.210938 58.222656 C 58.90625 58.347656 58.589844 58.410156 58.261719 58.410156 C 57.933594 58.410156 57.613281 58.347656 57.3125 58.222656 C 57.003906 58.097656 56.734375 57.914062 56.507812 57.679688 C 56.273438 57.453125 56.09375 57.179688 55.964844 56.875 C 55.839844 56.574219 55.777344 56.253906 55.777344 55.925781 C 55.777344 55.59375 55.839844 55.28125 55.964844 54.972656 C 56.09375 54.671875 56.273438 54.402344 56.507812 54.167969 C 56.734375 53.9375 57.003906 53.757812 57.3125 53.632812 C 57.613281 53.507812 57.933594 53.445312 58.261719 53.445312 C 58.589844 53.445312 58.90625 53.507812 59.210938 53.632812 C 59.515625 53.757812 59.785156 53.9375 60.019531 54.167969 C 60.25 54.402344 60.429688 54.671875 60.554688 54.972656 C 60.683594 55.28125 60.742188 55.59375 60.742188 55.925781 Z M 60.742188 55.925781 "></path><path style=" stroke:none;fill-rule:nonzero;fill:#ca6e59;fill-opacity:1;" d="M 78.292969 55.925781 C 78.292969 56.253906 78.230469 56.574219 78.105469 56.875 C 77.980469 57.179688 77.796875 57.453125 77.570312 57.679688 C 77.335938 57.914062 77.066406 58.097656 76.761719 58.222656 C 76.457031 58.347656 76.140625 58.410156 75.8125 58.410156 C 75.484375 58.410156 75.164062 58.347656 74.863281 58.222656 C 74.554688 58.097656 74.285156 57.914062 74.054688 57.679688 C 73.824219 57.453125 73.640625 57.179688 73.515625 56.875 C 73.390625 56.574219 73.328125 56.253906 73.328125 55.925781 C 73.328125 55.59375 73.390625 55.28125 73.515625 54.972656 C 73.640625 54.671875 73.824219 54.402344 74.054688 54.167969 C 74.285156 53.9375 74.554688 53.757812 74.863281 53.632812 C 75.164062 53.507812 75.484375 53.445312 75.8125 53.445312 C 76.140625 53.445312 76.457031 53.507812 76.761719 53.632812 C 77.066406 53.757812 77.335938 53.9375 77.570312 54.167969 C 77.796875 54.402344 77.980469 54.671875 78.105469 54.972656 C 78.230469 55.28125 78.292969 55.59375 78.292969 55.925781 Z M 78.292969 55.925781 "></path><path style=" stroke:none;fill-rule:nonzero;fill:#ca6e59;fill-opacity:1;" d="M 67.035156 72.402344 C 64.546875 72.402344 62.207031 71.433594 60.445312 69.667969 C 59.960938 69.183594 59.960938 68.398438 60.445312 67.910156 C 60.929688 67.429688 61.71875 67.429688 62.199219 67.910156 C 63.492188 69.203125 65.210938 69.917969 67.035156 69.917969 C 68.859375 69.917969 70.578125 69.203125 71.871094 67.910156 C 72.355469 67.429688 73.140625 67.429688 73.625 67.910156 C 74.109375 68.398438 74.109375 69.183594 73.625 69.667969 C 71.863281 71.433594 69.523438 72.402344 67.035156 72.402344 Z M 67.035156 72.402344 "></path><path style=" stroke:none;fill-rule:nonzero;fill:#ca6e59;fill-opacity:1;" d="M 67.035156 64.125 C 66.734375 64.125 66.429688 64.011719 66.1875 63.789062 L 63.703125 61.46875 C 63.304688 61.09375 63.195312 60.5 63.441406 60.003906 L 65.921875 55.039062 C 66.230469 54.425781 66.976562 54.175781 67.589844 54.484375 C 68.203125 54.789062 68.453125 55.539062 68.148438 56.152344 L 66.078125 60.289062 L 67.882812 61.972656 C 68.386719 62.441406 68.410156 63.226562 67.945312 63.730469 C 67.699219 63.988281 67.367188 64.125 67.035156 64.125 Z M 67.035156 64.125 "></path><path style=" stroke:none;fill-rule:nonzero;fill:#f6a96c;fill-opacity:1;" d="M 72.828125 46.074219 L 61.242188 46.074219 C 60.554688 46.074219 60 45.519531 60 44.832031 C 60 44.144531 60.554688 43.589844 61.242188 43.589844 L 72.828125 43.589844 C 73.515625 43.589844 74.070312 44.144531 74.070312 44.832031 C 74.070312 45.519531 73.515625 46.074219 72.828125 46.074219 Z M 72.828125 46.074219 "></path><path style=" stroke:none;fill-rule:nonzero;fill:#f6a96c;fill-opacity:1;" d="M 75.8125 50.710938 L 58.261719 50.710938 C 57.574219 50.710938 57.019531 50.15625 57.019531 49.46875 C 57.019531 48.78125 57.574219 48.226562 58.261719 48.226562 L 75.8125 48.226562 C 76.5 48.226562 77.050781 48.78125 77.050781 49.46875 C 77.050781 50.15625 76.5 50.710938 75.8125 50.710938 Z M 75.8125 50.710938 "></path><path style=" stroke:none;fill-rule:nonzero;fill:#ffffff;fill-opacity:1;" d="M 81.160156 66.460938 L 78.9375 64.234375 C 78.617188 63.914062 78.089844 63.914062 77.769531 64.234375 L 74.839844 67.164062 C 74.515625 67.484375 74.515625 68.011719 74.839844 68.332031 L 77.0625 70.558594 Z M 81.160156 66.460938 "></path><path style=" stroke:none;fill-rule:nonzero;fill:#d8ecfe;fill-opacity:1;" d="M 98.371094 81.328125 L 82.800781 65.757812 C 82.476562 65.433594 81.953125 65.433594 81.628906 65.757812 L 76.359375 71.027344 C 76.039062 71.351562 76.039062 71.871094 76.359375 72.199219 L 91.933594 87.769531 Z M 98.371094 81.328125 "></path><path style=" stroke:none;fill-rule:nonzero;fill:#c4e2ff;fill-opacity:1;" d="M 89.054688 80.6875 L 91.277344 78.464844 L 96.25 83.4375 L 94.027344 85.664062 Z M 89.054688 80.6875 "></path><path style=" stroke:none;fill-rule:nonzero;fill:#c4e2ff;fill-opacity:1;" d="M 98.839844 86.015625 L 96.613281 88.238281 L 100.628906 92.25 C 101.230469 91.359375 101.796875 90.441406 102.332031 89.503906 Z M 98.839844 86.015625 "></path><path style=" stroke:none;fill-rule:nonzero;fill:#b5adb6;fill-opacity:1;" d="M 77.296875 64.941406 L 73.121094 60.761719 C 72.632812 60.273438 71.847656 60.273438 71.363281 60.761719 C 70.878906 61.242188 70.878906 62.03125 71.363281 62.515625 L 75.539062 66.695312 Z M 77.296875 64.941406 "></path><path style=" stroke:none;fill-rule:nonzero;fill:#a79ba7;fill-opacity:1;" d="M 75.414062 66.578125 L 77.167969 64.824219 L 79.980469 67.632812 L 78.222656 69.386719 Z M 75.414062 66.578125 "></path><path style=" stroke:none;fill-rule:nonzero;fill:#fedf30;fill-opacity:1;" d="M 76.9375 70.441406 L 81.035156 66.347656 L 90.691406 76.003906 L 86.59375 80.101562 Z M 76.9375 70.441406 "></path><path style=" stroke:none;fill-rule:nonzero;fill:#fed402;fill-opacity:1;" d="M 80.867188 69.855469 L 82.710938 68.011719 L 81.046875 66.34375 L 76.949219 70.441406 L 86.605469 80.101562 L 88.273438 78.433594 L 80.867188 71.027344 C 80.542969 70.703125 80.542969 70.179688 80.867188 69.855469 Z M 80.867188 69.855469 "></path><path style=" stroke:none;fill-rule:nonzero;fill:#eaf6ff;fill-opacity:1;" d="M 101.648438 83.4375 L 94.042969 91.046875 C 93.714844 91.371094 93.195312 91.371094 92.867188 91.046875 L 91.230469 89.40625 C 90.90625 89.085938 90.90625 88.558594 91.230469 88.238281 L 98.839844 80.625 C 99.164062 80.304688 99.6875 80.304688 100.011719 80.625 L 101.648438 82.269531 C 101.976562 82.589844 101.976562 83.117188 101.648438 83.4375 Z M 101.648438 83.4375 "></path><path style=" stroke:none;fill-rule:nonzero;fill:#ffffff;fill-opacity:1;" d="M 85.304688 81.15625 L 91.746094 74.71875 L 93.5 76.472656 L 87.0625 82.914062 Z M 85.304688 81.15625 "></path><path style=" stroke:none;fill-rule:nonzero;fill:#f6a96c;fill-opacity:1;" d="M 55.035156 68.011719 C 54.714844 68.011719 54.398438 67.894531 54.15625 67.652344 C 53.667969 67.164062 53.667969 66.378906 54.15625 65.894531 L 57.714844 62.332031 C 58.195312 61.851562 58.984375 61.851562 59.46875 62.332031 C 59.953125 62.820312 59.953125 63.605469 59.46875 64.089844 L 55.910156 67.652344 C 55.667969 67.894531 55.347656 68.011719 55.035156 68.011719 Z M 55.035156 68.011719 "></path><path style=" stroke:none;fill-rule:nonzero;fill:#d8ecfe;fill-opacity:1;" d="M 44.003906 85.425781 L 44.316406 85.59375 L 50.3125 85.59375 L 50.617188 85.425781 C 50.617188 84.417969 50.164062 83.519531 49.449219 82.914062 C 49.179688 82.683594 49.097656 82.292969 49.238281 81.960938 L 49.683594 80.945312 C 49.859375 80.539062 49.925781 80.097656 49.875 79.65625 L 48.796875 70.570312 C 48.710938 69.859375 48.152344 69.277344 47.441406 69.214844 C 46.632812 69.148438 45.925781 69.734375 45.835938 70.523438 L 44.746094 79.65625 C 44.695312 80.097656 44.761719 80.539062 44.9375 80.945312 L 45.382812 81.964844 C 45.527344 82.292969 45.449219 82.683594 45.175781 82.914062 C 44.460938 83.519531 44.003906 84.417969 44.003906 85.425781 Z M 44.003906 85.425781 "></path><path style=" stroke:none;fill-rule:nonzero;fill:#c4e2ff;fill-opacity:1;" d="M 44.003906 85.425781 L 46.023438 85.425781 C 46.023438 84.417969 46.476562 83.519531 47.1875 82.914062 C 47.460938 82.683594 47.542969 82.292969 47.398438 81.960938 L 46.953125 80.945312 C 46.773438 80.539062 46.710938 80.097656 46.761719 79.65625 L 47.847656 70.523438 C 47.890625 70.160156 48.0625 69.84375 48.3125 69.609375 C 48.078125 69.390625 47.777344 69.242188 47.441406 69.214844 C 46.632812 69.148438 45.925781 69.734375 45.835938 70.523438 L 44.75 79.65625 C 44.695312 80.097656 44.761719 80.539062 44.9375 80.945312 L 45.382812 81.964844 C 45.527344 82.292969 45.449219 82.683594 45.175781 82.914062 C 44.460938 83.519531 44.003906 84.417969 44.003906 85.425781 Z M 44.003906 85.425781 "></path><path style=" stroke:none;fill-rule:nonzero;fill:#fee97d;fill-opacity:1;" d="M 44.003906 85.425781 L 44.003906 87.175781 L 44.175781 87.339844 L 45.402344 87.339844 C 45.996094 87.339844 46.476562 87.824219 46.476562 88.414062 C 46.476562 89.007812 45.996094 89.492188 45.402344 89.492188 L 44.175781 89.492188 L 44.003906 89.65625 L 44.003906 92.058594 L 44.175781 92.222656 L 45.402344 92.222656 C 45.996094 92.222656 46.476562 92.707031 46.476562 93.300781 C 46.476562 93.894531 45.996094 94.378906 45.402344 94.378906 L 44.175781 94.378906 L 44.003906 94.542969 L 44.003906 96.660156 L 50.617188 96.660156 L 50.617188 85.425781 Z M 44.003906 85.425781 "></path><path style=" stroke:none;fill-rule:nonzero;fill:#fe9901;fill-opacity:1;" d="M 44.003906 89.65625 L 45.402344 89.65625 C 46.085938 89.65625 46.644531 89.101562 46.644531 88.414062 C 46.644531 87.726562 46.085938 87.175781 45.402344 87.175781 L 44.003906 87.175781 Z M 44.003906 89.65625 "></path><path style=" stroke:none;fill-rule:nonzero;fill:#fe9901;fill-opacity:1;" d="M 44.003906 94.542969 L 45.402344 94.542969 C 46.085938 94.542969 46.644531 93.984375 46.644531 93.300781 C 46.644531 92.613281 46.085938 92.058594 45.402344 92.058594 L 44.003906 92.058594 Z M 44.003906 94.542969 "></path><path style=" stroke:none;fill-rule:nonzero;fill:#d8ecfe;fill-opacity:1;" d="M 35.414062 85.425781 L 35.71875 85.59375 L 41.714844 85.59375 L 42.019531 85.425781 C 42.019531 84.417969 41.566406 83.519531 40.855469 82.914062 C 40.582031 82.683594 40.5 82.292969 40.648438 81.960938 L 41.089844 80.945312 C 41.269531 80.539062 41.332031 80.097656 41.28125 79.65625 L 40.199219 70.570312 C 40.113281 69.859375 39.558594 69.277344 38.84375 69.214844 C 38.035156 69.148438 37.332031 69.734375 37.238281 70.523438 L 36.152344 79.65625 C 36.097656 80.097656 36.164062 80.539062 36.339844 80.945312 L 36.785156 81.964844 C 36.929688 82.292969 36.851562 82.683594 36.578125 82.914062 C 35.867188 83.519531 35.414062 84.417969 35.414062 85.425781 Z M 35.414062 85.425781 "></path><path style=" stroke:none;fill-rule:nonzero;fill:#c4e2ff;fill-opacity:1;" d="M 35.414062 85.425781 L 37.425781 85.425781 C 37.425781 84.417969 37.878906 83.519531 38.589844 82.914062 C 38.867188 82.683594 38.945312 82.292969 38.800781 81.960938 L 38.359375 80.945312 C 38.179688 80.539062 38.117188 80.097656 38.164062 79.65625 L 39.253906 70.523438 C 39.296875 70.160156 39.464844 69.84375 39.714844 69.609375 C 39.480469 69.390625 39.183594 69.242188 38.84375 69.214844 C 38.035156 69.148438 37.332031 69.734375 37.238281 70.523438 L 36.152344 79.65625 C 36.097656 80.097656 36.164062 80.539062 36.339844 80.945312 L 36.785156 81.964844 C 36.929688 82.292969 36.851562 82.683594 36.578125 82.914062 C 35.867188 83.519531 35.414062 84.417969 35.414062 85.425781 Z M 35.414062 85.425781 "></path><path style=" stroke:none;fill-rule:nonzero;fill:#fee97d;fill-opacity:1;" d="M 35.414062 87.175781 L 35.578125 87.339844 L 36.804688 87.339844 C 37.398438 87.339844 37.882812 87.824219 37.882812 88.414062 C 37.882812 89.007812 37.398438 89.492188 36.804688 89.492188 L 35.578125 89.492188 L 35.414062 89.65625 L 35.414062 92.058594 L 35.578125 92.222656 L 36.804688 92.222656 C 37.398438 92.222656 37.882812 92.707031 37.882812 93.300781 C 37.882812 93.894531 37.398438 94.378906 36.804688 94.378906 L 35.578125 94.378906 L 35.414062 94.542969 L 35.414062 94.90625 C 35.890625 95.503906 36.386719 96.085938 36.902344 96.660156 L 42.019531 96.660156 L 42.019531 85.425781 L 35.414062 85.425781 Z M 35.414062 87.175781 "></path><path style=" stroke:none;fill-rule:nonzero;fill:#fe9901;fill-opacity:1;" d="M 35.414062 89.65625 L 36.804688 89.65625 C 37.492188 89.65625 38.046875 89.101562 38.046875 88.414062 C 38.046875 87.726562 37.492188 87.175781 36.804688 87.175781 L 35.414062 87.175781 Z M 35.414062 89.65625 "></path><path style=" stroke:none;fill-rule:nonzero;fill:#fe9901;fill-opacity:1;" d="M 35.414062 94.542969 L 36.804688 94.542969 C 37.492188 94.542969 38.046875 93.984375 38.046875 93.300781 C 38.046875 92.613281 37.492188 92.058594 36.804688 92.058594 L 35.414062 92.058594 Z M 35.414062 94.542969 "></path><g clip-rule="nonzero" clip-path="url(#eba6ea1441)"><path style=" stroke:none;fill-rule:nonzero;fill:#c4e2ff;fill-opacity:1;" d="M 56.933594 96.488281 L 36.753906 96.488281 C 42.214844 102.613281 49.503906 107.070312 57.765625 109 L 57.765625 97.316406 C 57.765625 96.863281 57.390625 96.488281 56.933594 96.488281 Z M 56.933594 96.488281 "></path></g></g></svg>
