<svg xmlns="http://www.w3.org/2000/svg" xmlns:xlink="http://www.w3.org/1999/xlink" width="180" zoomAndPan="magnify" viewBox="0 0 135 135.000003" height="180" preserveAspectRatio="xMidYMid meet"><defs><clipPath id="7dc653e4c1"><path d="M 0.496094 0 L 134.503906 0 L 134.503906 134.007812 L 0.496094 134.007812 Z M 0.496094 0 "></path></clipPath><clipPath id="40c11ee9d1"><path d="M 0.496094 0 L 134.503906 0 L 134.503906 134.007812 L 0.496094 134.007812 Z M 0.496094 0 "></path></clipPath><clipPath id="3fb32d0404"><path d="M 67.5 0 C 30.496094 0 0.496094 30 0.496094 67.003906 C 0.496094 104.007812 30.496094 134.007812 67.5 134.007812 C 104.503906 134.007812 134.503906 104.007812 134.503906 67.003906 C 134.503906 30 104.503906 0 67.5 0 Z M 67.5 0 "></path></clipPath><clipPath id="27e1a6c37d"><path d="M 20.039062 25.542969 L 114.589844 25.542969 L 114.589844 108.183594 L 20.039062 108.183594 Z M 20.039062 25.542969 "></path></clipPath><clipPath id="0b961bfb8a"><path d="M 68.417969 -7.675781 C 26.382812 -7.675781 -7.699219 26.40625 -7.699219 68.441406 C -7.699219 110.480469 26.382812 144.5625 68.417969 144.5625 C 110.457031 144.5625 144.539062 110.480469 144.539062 68.441406 C 144.539062 26.40625 110.457031 -7.675781 68.417969 -7.675781 Z M 68.417969 -7.675781 "></path></clipPath><clipPath id="829bf394ba"><path d="M 22.183594 27.742188 L 112.710938 27.742188 L 112.710938 107.195312 L 22.183594 107.195312 Z M 22.183594 27.742188 "></path></clipPath><clipPath id="a11b925b0f"><path d="M 105.433594 58.210938 C 103.347656 51.992188 99.867188 47.753906 94.597656 45.046875 C 93.15625 46.492188 88.132812 51.585938 86.605469 53.136719 C 87.507812 54.082031 89.210938 55.21875 87.917969 56.628906 C 87.917969 56.628906 76.617188 68.085938 76.617188 68.085938 C 72.953125 71.933594 66.355469 71.933594 62.699219 68.085938 C 62.699219 68.085938 60.890625 66.246094 60.890625 66.246094 C 60.285156 65.640625 60.285156 64.683594 60.890625 64.085938 L 62.867188 62.085938 C 62.359375 61.839844 62.019531 61.316406 62.019531 60.710938 C 62.019531 59.859375 62.714844 59.167969 63.566406 59.167969 L 65.742188 59.167969 L 80.742188 43.96875 L 83.234375 41.449219 C 75.902344 40.410156 76.3125 29.863281 76.492188 29.449219 C 76.582031 28.578125 75.824219 27.742188 74.941406 27.761719 C 74.941406 27.761719 59.960938 27.761719 59.960938 27.761719 C 59.53125 27.761719 59.113281 27.949219 58.816406 28.273438 C 58.523438 28.582031 58.386719 29.015625 58.417969 29.449219 C 58.460938 29.867188 59.25 39.746094 52.09375 41.355469 C 43.457031 43.285156 33.8125 45.296875 29.457031 58.210938 C 26.5625 66.820312 23.71875 91.507812 22.300781 105.472656 C 22.183594 106.347656 22.941406 107.195312 23.832031 107.175781 C 23.832031 107.175781 34.125 107.175781 34.125 107.175781 C 34.835938 107.175781 35.46875 106.675781 35.625 105.984375 L 41.667969 80.660156 C 42.089844 84.214844 42.816406 88.109375 44.039062 91.421875 C 45.148438 94.433594 45.167969 99.242188 44.054688 105.351562 C 43.960938 105.796875 44.082031 106.261719 44.375 106.621094 C 44.667969 106.972656 45.105469 107.175781 45.566406 107.175781 L 89.324219 107.175781 C 90.261719 107.195312 91.046875 106.265625 90.839844 105.351562 C 89.726562 99.242188 89.742188 94.433594 90.855469 91.421875 C 92.078125 88.109375 92.804688 84.214844 93.222656 80.660156 L 99.265625 105.984375 C 99.421875 106.675781 100.054688 107.175781 100.765625 107.175781 L 111.066406 107.175781 C 111.9375 107.191406 112.710938 106.351562 112.589844 105.472656 C 111.171875 91.507812 108.328125 66.820312 105.433594 58.210938 Z M 54.167969 59.167969 L 57.105469 59.167969 C 59.132812 59.203125 59.136719 62.222656 57.105469 62.257812 L 55.710938 62.257812 L 55.710938 63.960938 C 55.710938 64.824219 55.03125 65.503906 54.167969 65.503906 C 53.3125 65.503906 52.617188 64.824219 52.617188 63.960938 L 52.617188 60.710938 C 52.617188 59.859375 53.3125 59.167969 54.167969 59.167969 Z M 55.710938 67.933594 L 55.710938 74.117188 C 55.683594 76.144531 52.65625 76.152344 52.617188 74.117188 L 52.617188 67.933594 C 52.65625 65.898438 55.683594 65.898438 55.710938 67.933594 Z M 52.617188 79.484375 C 52.648438 77.445312 55.691406 77.445312 55.710938 79.484375 C 55.710938 79.484375 55.710938 80.902344 55.710938 80.902344 L 57.378906 80.902344 C 59.410156 80.941406 59.410156 83.957031 57.378906 83.996094 L 54.167969 83.996094 C 53.3125 83.996094 52.617188 83.300781 52.617188 82.453125 Z M 77.636719 69.046875 C 77.671875 67.019531 80.691406 67.011719 80.730469 69.046875 C 80.730469 69.046875 80.730469 75.230469 80.730469 75.230469 C 80.691406 77.261719 77.671875 77.265625 77.636719 75.230469 Z M 76.242188 80.902344 L 77.636719 80.902344 L 77.636719 79.191406 C 77.636719 78.339844 78.328125 77.640625 79.179688 77.640625 C 80.03125 77.640625 80.730469 78.339844 80.730469 79.191406 L 80.730469 82.453125 C 80.730469 83.300781 80.03125 83.996094 79.179688 83.996094 L 76.242188 83.996094 C 74.214844 83.957031 74.210938 80.941406 76.242188 80.902344 Z M 63.597656 80.902344 L 69.78125 80.902344 C 71.808594 80.941406 71.816406 83.957031 69.78125 83.996094 L 63.597656 83.996094 C 61.5625 83.964844 61.558594 80.933594 63.597656 80.902344 Z M 97.394531 31.503906 C 99.53125 29.503906 102.484375 32.609375 100.484375 34.675781 C 96.234375 38.980469 87.554688 47.777344 83.339844 52.035156 C 82.050781 53.429688 83.746094 54.59375 84.640625 55.546875 C 84.640625 55.546875 74.402344 65.910156 74.40625 65.910156 C 71.527344 68.921875 66.664062 68.339844 64.152344 65.164062 L 67.429688 61.855469 C 74.714844 54.441406 90.195312 38.804688 97.394531 31.503906 Z M 97.394531 31.503906 "></path></clipPath><linearGradient x1="2.726057" gradientTransform="matrix(1.54615,0,0,1.54615,17.969287,17.991894)" y1="32" x2="61.276239" gradientUnits="userSpaceOnUse" y2="32" id="6a980b6520"><stop style="stop-color:#f3719c;stop-opacity:1;" offset="0"></stop><stop style="stop-color:#f3719c;stop-opacity:1;" offset="0.015625"></stop><stop style="stop-color:#f3719c;stop-opacity:1;" offset="0.0234375"></stop><stop style="stop-color:#f3729b;stop-opacity:1;" offset="0.03125"></stop><stop style="stop-color:#f4729b;stop-opacity:1;" offset="0.0625"></stop><stop style="stop-color:#f4739a;stop-opacity:1;" offset="0.0703125"></stop><stop style="stop-color:#f47399;stop-opacity:1;" offset="0.078125"></stop><stop style="stop-color:#f47499;stop-opacity:1;" offset="0.09375"></stop><stop style="stop-color:#f47499;stop-opacity:1;" offset="0.101562"></stop><stop style="stop-color:#f47498;stop-opacity:1;" offset="0.109375"></stop><stop style="stop-color:#f47598;stop-opacity:1;" offset="0.125"></stop><stop style="stop-color:#f57597;stop-opacity:1;" offset="0.140625"></stop><stop style="stop-color:#f57597;stop-opacity:1;" offset="0.148438"></stop><stop style="stop-color:#f57696;stop-opacity:1;" offset="0.15625"></stop><stop style="stop-color:#f57795;stop-opacity:1;" offset="0.1875"></stop><stop style="stop-color:#f57795;stop-opacity:1;" offset="0.195312"></stop><stop style="stop-color:#f57794;stop-opacity:1;" offset="0.203125"></stop><stop style="stop-color:#f67894;stop-opacity:1;" offset="0.21875"></stop><stop style="stop-color:#f67894;stop-opacity:1;" offset="0.226562"></stop><stop style="stop-color:#f67893;stop-opacity:1;" offset="0.234375"></stop><stop style="stop-color:#f67993;stop-opacity:1;" offset="0.25"></stop><stop style="stop-color:#f67993;stop-opacity:1;" offset="0.265625"></stop><stop style="stop-color:#f67992;stop-opacity:1;" offset="0.273438"></stop><stop style="stop-color:#f67a91;stop-opacity:1;" offset="0.28125"></stop><stop style="stop-color:#f67a91;stop-opacity:1;" offset="0.296875"></stop><stop style="stop-color:#f77b91;stop-opacity:1;" offset="0.3125"></stop><stop style="stop-color:#f77b90;stop-opacity:1;" offset="0.320312"></stop><stop style="stop-color:#f77c90;stop-opacity:1;" offset="0.328125"></stop><stop style="stop-color:#f77c90;stop-opacity:1;" offset="0.34375"></stop><stop style="stop-color:#f77c8f;stop-opacity:1;" offset="0.351562"></stop><stop style="stop-color:#f77d8e;stop-opacity:1;" offset="0.359375"></stop><stop style="stop-color:#f77d8e;stop-opacity:1;" offset="0.375"></stop><stop style="stop-color:#f87d8e;stop-opacity:1;" offset="0.390625"></stop><stop style="stop-color:#f87e8d;stop-opacity:1;" offset="0.40625"></stop><stop style="stop-color:#f87e8c;stop-opacity:1;" offset="0.421875"></stop><stop style="stop-color:#f87f8c;stop-opacity:1;" offset="0.4375"></stop><stop style="stop-color:#f87f8b;stop-opacity:1;" offset="0.445312"></stop><stop style="stop-color:#f8808b;stop-opacity:1;" offset="0.453125"></stop><stop style="stop-color:#f8808a;stop-opacity:1;" offset="0.46875"></stop><stop style="stop-color:#f9808a;stop-opacity:1;" offset="0.476562"></stop><stop style="stop-color:#f98189;stop-opacity:1;" offset="0.484375"></stop><stop style="stop-color:#f98189;stop-opacity:1;" offset="0.5"></stop><stop style="stop-color:#f98288;stop-opacity:1;" offset="0.515625"></stop><stop style="stop-color:#f98288;stop-opacity:1;" offset="0.53125"></stop><stop style="stop-color:#f98387;stop-opacity:1;" offset="0.546875"></stop><stop style="stop-color:#f98386;stop-opacity:1;" offset="0.5625"></stop><stop style="stop-color:#fa8386;stop-opacity:1;" offset="0.570312"></stop><stop style="stop-color:#fa8486;stop-opacity:1;" offset="0.578125"></stop><stop style="stop-color:#fa8485;stop-opacity:1;" offset="0.59375"></stop><stop style="stop-color:#fa8485;stop-opacity:1;" offset="0.601562"></stop><stop style="stop-color:#fa8585;stop-opacity:1;" offset="0.609375"></stop><stop style="stop-color:#fa8585;stop-opacity:1;" offset="0.625"></stop><stop style="stop-color:#fa8584;stop-opacity:1;" offset="0.640625"></stop><stop style="stop-color:#fb8683;stop-opacity:1;" offset="0.65625"></stop><stop style="stop-color:#fb8683;stop-opacity:1;" offset="0.671875"></stop><stop style="stop-color:#fb8782;stop-opacity:1;" offset="0.6875"></stop><stop style="stop-color:#fb8882;stop-opacity:1;" offset="0.695312"></stop><stop style="stop-color:#fb8881;stop-opacity:1;" offset="0.703125"></stop><stop style="stop-color:#fb8881;stop-opacity:1;" offset="0.71875"></stop><stop style="stop-color:#fc8980;stop-opacity:1;" offset="0.734375"></stop><stop style="stop-color:#fc897f;stop-opacity:1;" offset="0.75"></stop><stop style="stop-color:#fc8a7e;stop-opacity:1;" offset="0.765625"></stop><stop style="stop-color:#fc8a7e;stop-opacity:1;" offset="0.773437"></stop><stop style="stop-color:#fc8b7e;stop-opacity:1;" offset="0.78125"></stop><stop style="stop-color:#fc8b7d;stop-opacity:1;" offset="0.796875"></stop><stop style="stop-color:#fc8b7d;stop-opacity:1;" offset="0.8125"></stop><stop style="stop-color:#fd8c7d;stop-opacity:1;" offset="0.820312"></stop><stop style="stop-color:#fd8c7c;stop-opacity:1;" offset="0.828125"></stop><stop style="stop-color:#fd8c7b;stop-opacity:1;" offset="0.84375"></stop><stop style="stop-color:#fd8d7b;stop-opacity:1;" offset="0.859375"></stop><stop style="stop-color:#fd8e7a;stop-opacity:1;" offset="0.875"></stop><stop style="stop-color:#fd8e7a;stop-opacity:1;" offset="0.890625"></stop><stop style="stop-color:#fe8e7a;stop-opacity:1;" offset="0.898438"></stop><stop style="stop-color:#fe8f79;stop-opacity:1;" offset="0.90625"></stop><stop style="stop-color:#fe8f79;stop-opacity:1;" offset="0.921875"></stop><stop style="stop-color:#fe9078;stop-opacity:1;" offset="0.9375"></stop><stop style="stop-color:#fe9078;stop-opacity:1;" offset="0.945313"></stop><stop style="stop-color:#fe9077;stop-opacity:1;" offset="0.953125"></stop><stop style="stop-color:#fe9177;stop-opacity:1;" offset="0.96875"></stop><stop style="stop-color:#ff9177;stop-opacity:1;" offset="0.976562"></stop><stop style="stop-color:#ff9176;stop-opacity:1;" offset="0.984375"></stop><stop style="stop-color:#ff9276;stop-opacity:1;" offset="1"></stop></linearGradient></defs><g id="0113c582d7"><g clip-rule="nonzero" clip-path="url(#7dc653e4c1)"><path style=" stroke:none;fill-rule:nonzero;fill:#ffffff;fill-opacity:1;" d="M 0.496094 0 L 134.503906 0 L 134.503906 134.007812 L 0.496094 134.007812 Z M 0.496094 0 "></path><path style=" stroke:none;fill-rule:nonzero;fill:#ffffff;fill-opacity:1;" d="M 0.496094 0 L 134.503906 0 L 134.503906 134.007812 L 0.496094 134.007812 Z M 0.496094 0 "></path></g><g clip-rule="nonzero" clip-path="url(#40c11ee9d1)"><g clip-rule="nonzero" clip-path="url(#3fb32d0404)"><path style=" stroke:none;fill-rule:nonzero;fill:#f4dddd;fill-opacity:1;" d="M 0.496094 0 L 134.503906 0 L 134.503906 134.007812 L 0.496094 134.007812 Z M 0.496094 0 "></path><path style="fill:none;stroke-width:12;stroke-linecap:butt;stroke-linejoin:miter;stroke:#7b2e07;stroke-opacity:1;stroke-miterlimit:4;" d="M 90.000004 -0.00000933333 C 40.29599 -0.00000933333 -0.000306642 40.296288 -0.000306642 90.000301 C -0.000306642 139.704314 40.29599 180.000611 90.000004 180.000611 C 139.704017 180.000611 180.000314 139.704314 180.000314 90.000301 C 180.000314 40.296288 139.704017 -0.00000933333 90.000004 -0.00000933333 Z M 90.000004 -0.00000933333 " transform="matrix(0.744485,0,0,0.744485,0.496322,0.00000694853)"></path></g></g><g clip-rule="nonzero" clip-path="url(#27e1a6c37d)"><g clip-rule="nonzero" clip-path="url(#0b961bfb8a)"><rect x="0" width="135" y="0" height="135.000003" style="fill:#ffdfdf;fill-opacity:1;stroke:none;"></rect><path style="fill:none;stroke-width:8;stroke-linecap:butt;stroke-linejoin:miter;stroke:#f80303;stroke-opacity:1;stroke-miterlimit:4;" d="M 89.998002 0.0000939421 C 40.296772 0.0000939421 -0.000898593 40.297764 -0.000898593 89.998994 C -0.000898593 139.704843 40.296772 180.002513 89.998002 180.002513 C 139.70385 180.002513 180.001521 139.704843 180.001521 89.998994 C 180.001521 40.297764 139.70385 0.0000939421 89.998002 0.0000939421 Z M 89.998002 0.0000939421 " transform="matrix(0.845757,0,0,0.845757,-7.698459,-7.675861)"></path></g></g><g clip-rule="nonzero" clip-path="url(#829bf394ba)"><g clip-rule="nonzero" clip-path="url(#a11b925b0f)"><path style=" stroke:none;fill-rule:nonzero;fill:url(#6a980b6520);" d="M 22.183594 27.742188 L 22.183594 107.195312 L 112.710938 107.195312 L 112.710938 27.742188 Z M 22.183594 27.742188 "></path></g></g></g></svg>
