<svg xmlns="http://www.w3.org/2000/svg" xmlns:xlink="http://www.w3.org/1999/xlink" width="180" zoomAndPan="magnify" viewBox="0 0 135 135.000003" height="180" preserveAspectRatio="xMidYMid meet"><defs><clipPath id="420e2cc6d6"><path d="M 0.496094 0 L 134.503906 0 L 134.503906 134.007812 L 0.496094 134.007812 Z M 0.496094 0 "></path></clipPath><clipPath id="b88e4cdd25"><path d="M 0.496094 0 L 134.503906 0 L 134.503906 134.007812 L 0.496094 134.007812 Z M 0.496094 0 "></path></clipPath><clipPath id="791be91db3"><path d="M 67.5 0 C 30.496094 0 0.496094 30 0.496094 67.003906 C 0.496094 104.007812 30.496094 134.007812 67.5 134.007812 C 104.503906 134.007812 134.503906 104.007812 134.503906 67.003906 C 134.503906 30 104.503906 0 67.5 0 Z M 67.5 0 "></path></clipPath><clipPath id="c60ce2e9db"><path d="M 26.558594 28.621094 L 108.453125 28.621094 L 108.453125 105.304688 L 26.558594 105.304688 Z M 26.558594 28.621094 "></path></clipPath><clipPath id="4559a39726"><path d="M 66.917969 9.476562 C 34.066406 9.476562 7.429688 36.113281 7.429688 68.96875 C 7.429688 101.824219 34.066406 128.460938 66.917969 128.460938 C 99.773438 128.460938 126.410156 101.824219 126.410156 68.96875 C 126.410156 36.113281 99.773438 9.476562 66.917969 9.476562 Z M 66.917969 9.476562 "></path></clipPath><clipPath id="2affca05e7"><path d="M 28 30 L 72 30 L 72 105.304688 L 28 105.304688 Z M 28 30 "></path></clipPath><clipPath id="51e0460006"><path d="M 38 30 L 72 30 L 72 105.304688 L 38 105.304688 Z M 38 30 "></path></clipPath><clipPath id="a2a2d683ca"><path d="M 27 44.105469 L 73 44.105469 L 73 105.304688 L 27 105.304688 Z M 27 44.105469 "></path></clipPath><clipPath id="85caaeb848"><path d="M 27 28.847656 L 50.492188 28.847656 L 50.492188 42 L 27 42 Z M 27 28.847656 "></path></clipPath></defs><g id="4f338bd642"><g clip-rule="nonzero" clip-path="url(#420e2cc6d6)"><path style=" stroke:none;fill-rule:nonzero;fill:#ffffff;fill-opacity:1;" d="M 0.496094 0 L 134.503906 0 L 134.503906 134.007812 L 0.496094 134.007812 Z M 0.496094 0 "></path><path style=" stroke:none;fill-rule:nonzero;fill:#ffffff;fill-opacity:1;" d="M 0.496094 0 L 134.503906 0 L 134.503906 134.007812 L 0.496094 134.007812 Z M 0.496094 0 "></path></g><g clip-rule="nonzero" clip-path="url(#b88e4cdd25)"><g clip-rule="nonzero" clip-path="url(#791be91db3)"><path style=" stroke:none;fill-rule:nonzero;fill:#f4dddd;fill-opacity:1;" d="M 0.496094 0 L 134.503906 0 L 134.503906 134.007812 L 0.496094 134.007812 Z M 0.496094 0 "></path><path style="fill:none;stroke-width:12;stroke-linecap:butt;stroke-linejoin:miter;stroke:#7b2e07;stroke-opacity:1;stroke-miterlimit:4;" d="M 90.000004 -0.00000933333 C 40.29599 -0.00000933333 -0.000306642 40.296288 -0.000306642 90.000301 C -0.000306642 139.704314 40.29599 180.000611 90.000004 180.000611 C 139.704017 180.000611 180.000314 139.704314 180.000314 90.000301 C 180.000314 40.296288 139.704017 -0.00000933333 90.000004 -0.00000933333 Z M 90.000004 -0.00000933333 " transform="matrix(0.744485,0,0,0.744485,0.496322,0.00000694853)"></path></g></g><g clip-rule="nonzero" clip-path="url(#c60ce2e9db)"><g clip-rule="nonzero" clip-path="url(#4559a39726)"><path style=" stroke:none;fill-rule:nonzero;fill:#ffdfdf;fill-opacity:1;" d="M 7.429688 9.476562 L 126.410156 9.476562 L 126.410156 128.460938 L 7.429688 128.460938 Z M 7.429688 9.476562 "></path><path style="fill:none;stroke-width:8;stroke-linecap:butt;stroke-linejoin:miter;stroke:#f80303;stroke-opacity:1;stroke-miterlimit:4;" d="M 89.998334 -0.00293334 C 40.298856 -0.00293334 0.00150295 40.29442 0.00150295 89.999807 C 0.00150295 139.705194 40.298856 180.002547 89.998334 180.002547 C 139.703721 180.002547 180.001074 139.705194 180.001074 89.999807 C 180.001074 40.29442 139.703721 -0.00293334 89.998334 -0.00293334 Z M 89.998334 -0.00293334 " transform="matrix(0.661004,0,0,0.661004,7.428694,9.478501)"></path></g></g><g clip-rule="nonzero" clip-path="url(#2affca05e7)"><path style=" stroke:none;fill-rule:nonzero;fill:#f9c295;fill-opacity:1;" d="M 71.722656 104.132812 C 71.453125 105.089844 70.585938 105.703125 69.648438 105.703125 C 69.40625 105.703125 69.164062 105.664062 68.921875 105.578125 C 65.777344 104.457031 59.898438 102.402344 55.992188 101.277344 C 51.90625 100.097656 48.898438 100.378906 45.386719 99.65625 C 41.875 98.9375 41.285156 92.824219 44.660156 89.125 C 44.949219 87.28125 42.996094 75.386719 40.015625 70.042969 C 35.214844 61.445312 33.445312 55.117188 35.992188 48.539062 C 34.929688 49.3125 31.445312 51.90625 28.207031 54.320312 L 28.207031 32.476562 C 35.734375 30.132812 42.222656 28.78125 45.621094 31.519531 C 49.800781 34.886719 53.375 68.613281 53.539062 84.238281 C 53.566406 86.679688 54.699219 88.976562 56.617188 90.488281 L 70.984375 101.851562 C 71.671875 102.390625 71.960938 103.289062 71.722656 104.132812 Z M 71.722656 104.132812 "></path></g><g clip-rule="nonzero" clip-path="url(#51e0460006)"><path style=" stroke:none;fill-rule:nonzero;fill:#e8a26a;fill-opacity:1;" d="M 70.984375 101.851562 L 56.617188 90.488281 C 54.699219 88.976562 53.566406 86.679688 53.539062 84.238281 C 53.375 68.613281 49.800781 34.886719 45.621094 31.519531 C 43.890625 30.128906 41.363281 29.796875 38.300781 30.109375 C 39.703125 30.300781 40.90625 30.75 41.863281 31.519531 C 46.039062 34.886719 49.621094 68.613281 49.78125 84.238281 C 49.808594 86.679688 50.945312 88.976562 52.859375 90.488281 L 67.226562 101.851562 C 67.914062 102.390625 68.203125 103.289062 67.964844 104.132812 C 67.863281 104.492188 67.679688 104.804688 67.4375 105.050781 C 67.976562 105.238281 68.476562 105.421875 68.921875 105.578125 C 69.160156 105.664062 69.40625 105.703125 69.648438 105.703125 C 70.582031 105.703125 71.453125 105.089844 71.722656 104.132812 C 71.960938 103.289062 71.671875 102.390625 70.984375 101.851562 Z M 70.984375 101.851562 "></path></g><path style=" stroke:none;fill-rule:nonzero;fill:#d8e6f0;fill-opacity:1;" d="M 101.269531 58.996094 C 102.019531 58.207031 102.054688 56.976562 101.347656 56.140625 C 98.957031 53.328125 93.640625 47.398438 90.628906 46.46875 C 86.042969 45.066406 72.09375 47.160156 67.054688 47.988281 C 65.988281 48.164062 65.210938 49.082031 65.210938 50.15625 L 65.210938 64.742188 C 65.210938 65.957031 66.199219 66.941406 67.410156 66.941406 L 84.589844 66.941406 C 85.535156 66.941406 86.359375 67.59375 86.570312 68.515625 L 90.667969 86.433594 C 91.1875 88.699219 93.441406 90.113281 95.703125 89.597656 C 97.964844 89.078125 99.382812 86.824219 98.863281 84.5625 L 95.003906 67.691406 C 94.761719 66.625 95.066406 65.507812 95.824219 64.714844 Z M 101.269531 58.996094 "></path><path style=" stroke:none;fill-rule:nonzero;fill:#aac0d1;fill-opacity:1;" d="M 101.269531 58.996094 C 102.019531 58.207031 102.054688 56.976562 101.347656 56.140625 C 98.957031 53.328125 93.640625 47.398438 90.628906 46.46875 C 89.152344 46.019531 86.707031 45.929688 83.90625 46.042969 C 85.074219 46.105469 86.074219 46.242188 86.820312 46.46875 C 89.832031 47.398438 95.148438 53.328125 97.539062 56.140625 C 98.246094 56.976562 98.214844 58.207031 97.460938 58.996094 L 92.015625 64.714844 C 91.257812 65.507812 90.953125 66.625 91.195312 67.691406 L 95.054688 84.5625 C 95.492188 86.480469 94.542969 88.394531 92.863281 89.246094 C 96.015625 90.851562 99.65625 88.027344 98.863281 84.5625 L 95.003906 67.691406 C 94.761719 66.625 95.066406 65.507812 95.824219 64.714844 Z M 101.269531 58.996094 "></path><path style=" stroke:none;fill-rule:nonzero;fill:#78baf6;fill-opacity:1;" d="M 87.035156 70.5625 L 85.09375 70.5625 C 83.785156 70.5625 82.726562 71.617188 82.726562 72.925781 C 82.726562 74.234375 83.785156 75.296875 85.09375 75.296875 L 88.121094 75.296875 Z M 87.035156 70.5625 "></path><path style=" stroke:none;fill-rule:nonzero;fill:#78baf6;fill-opacity:1;" d="M 60.425781 52.660156 L 60.425781 61.222656 C 60.425781 61.742188 60.84375 62.15625 61.359375 62.15625 L 65.210938 62.15625 L 65.210938 51.726562 L 61.359375 51.726562 C 60.84375 51.726562 60.425781 52.144531 60.425781 52.660156 Z M 60.425781 52.660156 "></path><path style=" stroke:none;fill-rule:nonzero;fill:#606572;fill-opacity:1;" d="M 90.667969 86.433594 C 91.1875 88.699219 93.441406 90.113281 95.703125 89.597656 C 97.964844 89.078125 99.382812 86.824219 98.863281 84.5625 L 96.996094 76.40625 C 95.792969 79.878906 93.625 83.335938 90.460938 85.542969 Z M 90.667969 86.433594 "></path><path style=" stroke:none;fill-rule:nonzero;fill:#3b4254;fill-opacity:1;" d="M 96.996094 76.40625 C 96.378906 78.1875 95.503906 79.96875 94.371094 81.574219 L 95.054688 84.5625 C 95.492188 86.480469 94.539062 88.394531 92.863281 89.246094 C 96.042969 90.867188 99.652344 88.015625 98.863281 84.5625 Z M 96.996094 76.40625 "></path><g clip-rule="nonzero" clip-path="url(#a2a2d683ca)"><path style=" stroke:none;fill-rule:nonzero;fill:#000000;fill-opacity:1;" d="M 71.691406 100.953125 L 57.324219 89.59375 C 55.667969 88.289062 54.703125 86.328125 54.683594 84.226562 C 54.582031 74.84375 53.183594 57.664062 51.011719 45.15625 C 50.902344 44.535156 50.308594 44.121094 49.6875 44.226562 C 49.066406 44.335938 48.652344 44.925781 48.757812 45.546875 C 50.914062 57.941406 52.300781 74.957031 52.398438 84.25 C 52.429688 87.050781 53.707031 89.648438 55.90625 91.386719 L 70.277344 102.75 C 70.601562 103.003906 70.738281 103.421875 70.625 103.820312 C 70.5 104.257812 70.097656 104.558594 69.648438 104.558594 C 69.53125 104.558594 69.417969 104.542969 69.304688 104.5 C 66.140625 103.375 60.25 101.3125 56.304688 100.179688 C 53.800781 99.453125 51.710938 99.261719 49.6875 99.074219 C 48.308594 98.945312 47 98.820312 45.613281 98.539062 C 44.566406 98.324219 44.058594 97.394531 43.816406 96.65625 C 43.25 94.910156 43.535156 92.054688 45.503906 89.894531 C 45.65625 89.730469 45.753906 89.523438 45.789062 89.304688 C 46.144531 87.039062 44.035156 74.90625 41.011719 69.488281 C 35.953125 60.421875 34.84375 54.664062 37.0625 48.949219 C 37.242188 48.480469 37.09375 47.941406 36.691406 47.632812 C 36.289062 47.324219 35.730469 47.316406 35.320312 47.613281 C 34.175781 48.449219 30.40625 51.257812 27.527344 53.402344 C 27.019531 53.777344 26.917969 54.496094 27.292969 55.003906 C 27.667969 55.503906 28.386719 55.613281 28.890625 55.234375 C 30.515625 54.023438 32.425781 52.601562 33.980469 51.449219 C 32.832031 57.660156 35.164062 63.699219 39.015625 70.601562 C 41.832031 75.644531 43.574219 86.371094 43.550781 88.660156 C 41.5 91.113281 40.734375 94.558594 41.644531 97.363281 C 42.242188 99.199219 43.523438 100.441406 45.15625 100.777344 C 46.664062 101.085938 48.09375 101.21875 49.476562 101.347656 C 51.390625 101.527344 53.375 101.710938 55.671875 102.375 C 59.554688 103.492188 65.398438 105.535156 68.535156 106.65625 C 68.890625 106.78125 69.265625 106.84375 69.648438 106.84375 C 71.117188 106.84375 72.417969 105.859375 72.820312 104.445312 C 73.191406 103.15625 72.746094 101.78125 71.691406 100.953125 Z M 71.691406 100.953125 "></path></g><g clip-rule="nonzero" clip-path="url(#85caaeb848)"><path style=" stroke:none;fill-rule:nonzero;fill:#000000;fill-opacity:1;" d="M 28.546875 33.570312 C 35.210938 31.492188 41.804688 29.914062 44.902344 32.40625 C 45.230469 32.671875 46.402344 34.066406 47.894531 41.058594 C 48.011719 41.59375 48.484375 41.960938 49.011719 41.960938 C 49.09375 41.960938 49.171875 41.953125 49.25 41.9375 C 49.871094 41.804688 50.261719 41.199219 50.128906 40.582031 C 48.535156 33.113281 47.203125 31.324219 46.339844 30.628906 C 42.625 27.636719 36.269531 28.769531 27.867188 31.386719 C 27.265625 31.574219 26.929688 32.210938 27.117188 32.816406 C 27.304688 33.417969 27.941406 33.757812 28.546875 33.570312 Z M 28.546875 33.570312 "></path></g><path style=" stroke:none;fill-rule:nonzero;fill:#000000;fill-opacity:1;" d="M 88.378906 60.574219 C 88.507812 60.574219 88.640625 60.554688 88.769531 60.507812 C 89.363281 60.292969 89.671875 59.636719 89.453125 59.042969 L 87.257812 53.007812 C 87.042969 52.414062 86.386719 52.109375 85.792969 52.324219 C 85.199219 52.542969 84.894531 53.199219 85.109375 53.792969 L 87.304688 59.828125 C 87.476562 60.289062 87.914062 60.574219 88.378906 60.574219 Z M 88.378906 60.574219 "></path><path style=" stroke:none;fill-rule:nonzero;fill:#000000;fill-opacity:1;" d="M 80.921875 59.824219 C 81.089844 60.289062 81.53125 60.574219 81.996094 60.574219 C 82.128906 60.574219 82.257812 60.554688 82.386719 60.507812 C 82.980469 60.292969 83.285156 59.636719 83.070312 59.042969 L 80.871094 53.007812 C 80.65625 52.414062 80 52.109375 79.40625 52.324219 C 78.816406 52.542969 78.511719 53.199219 78.726562 53.792969 Z M 80.921875 59.824219 "></path><path style=" stroke:none;fill-rule:nonzero;fill:#000000;fill-opacity:1;" d="M 103.382812 94.609375 L 102.960938 94.609375 C 100.277344 94.609375 97.894531 92.855469 97.089844 90.3125 C 99.265625 89.265625 100.546875 86.808594 99.976562 84.304688 L 96.117188 67.4375 C 95.957031 66.742188 96.15625 66.019531 96.648438 65.503906 L 102.09375 59.785156 C 103.253906 58.566406 103.308594 56.679688 102.21875 55.402344 C 95.972656 48.054688 92.648438 45.898438 90.964844 45.382812 C 88.980469 44.769531 85.464844 44.691406 80.214844 45.136719 C 79.585938 45.191406 79.121094 45.742188 79.171875 46.371094 C 79.226562 47 79.78125 47.460938 80.40625 47.414062 C 86.492188 46.898438 89.140625 47.210938 90.296875 47.5625 C 92.210938 48.152344 96.015625 51.636719 100.476562 56.882812 C 100.808594 57.269531 100.789062 57.839844 100.441406 58.210938 L 94.996094 63.925781 C 93.972656 65 93.558594 66.503906 93.890625 67.945312 L 95.804688 76.328125 C 94.753906 79.222656 93.140625 81.710938 91.167969 83.511719 L 89.234375 75.042969 L 88.296875 70.949219 L 87.683594 68.261719 C 87.351562 66.8125 86.078125 65.796875 84.589844 65.796875 L 67.410156 65.796875 C 66.828125 65.796875 66.355469 65.324219 66.355469 64.742188 L 66.355469 50.15625 C 66.355469 49.636719 66.726562 49.199219 67.238281 49.117188 C 69.296875 48.777344 72.480469 48.289062 75.925781 47.875 C 76.550781 47.800781 76.996094 47.234375 76.925781 46.605469 C 76.847656 45.976562 76.28125 45.53125 75.652344 45.605469 C 72.167969 46.023438 68.953125 46.519531 66.867188 46.863281 C 65.246094 47.125 64.070312 48.511719 64.070312 50.15625 L 64.070312 50.585938 L 61.359375 50.585938 C 60.214844 50.585938 59.28125 51.515625 59.28125 52.660156 L 59.28125 61.222656 C 59.28125 62.367188 60.214844 63.296875 61.359375 63.296875 L 64.070312 63.296875 L 64.070312 64.742188 C 64.070312 66.582031 65.570312 68.082031 67.410156 68.082031 L 84.589844 68.082031 C 85.007812 68.082031 85.363281 68.367188 85.457031 68.769531 L 85.601562 69.417969 L 85.09375 69.417969 C 83.15625 69.417969 81.582031 70.992188 81.582031 72.925781 C 81.582031 74.863281 83.15625 76.4375 85.09375 76.4375 L 87.207031 76.4375 C 89.671875 87.199219 89.589844 87.070312 89.941406 87.800781 C 90.820312 89.660156 92.746094 90.886719 94.867188 90.84375 C 95.921875 94.414062 99.226562 96.894531 102.960938 96.894531 L 103.382812 96.894531 C 104.015625 96.894531 104.527344 96.386719 104.527344 95.753906 C 104.527344 95.121094 104.015625 94.609375 103.382812 94.609375 Z M 61.566406 61.015625 L 61.566406 52.871094 L 64.070312 52.871094 L 64.070312 61.015625 Z M 96.65625 80.035156 L 97.75 84.816406 C 97.773438 84.917969 97.789062 85.015625 97.804688 85.117188 C 98.089844 87.347656 95.933594 89.109375 93.804688 88.402344 C 92.824219 88.070312 92.027344 87.261719 91.78125 86.183594 L 91.746094 86.015625 C 93.6875 84.503906 95.367188 82.453125 96.65625 80.035156 Z M 85.09375 74.152344 C 84.417969 74.152344 83.867188 73.601562 83.867188 72.925781 C 83.867188 72.253906 84.417969 71.703125 85.09375 71.703125 L 86.125 71.703125 L 86.140625 71.769531 L 86.683594 74.152344 Z M 85.09375 74.152344 "></path></g></svg>
