<svg xmlns="http://www.w3.org/2000/svg" xmlns:xlink="http://www.w3.org/1999/xlink" width="180" zoomAndPan="magnify" viewBox="0 0 135 135.000003" height="180" preserveAspectRatio="xMidYMid meet"><defs><clipPath id="c784115d70"><path d="M 0.496094 0 L 134.503906 0 L 134.503906 134.007812 L 0.496094 134.007812 Z M 0.496094 0 "></path></clipPath><clipPath id="4221770176"><path d="M 0.496094 0 L 134.503906 0 L 134.503906 134.007812 L 0.496094 134.007812 Z M 0.496094 0 "></path></clipPath><clipPath id="e362e7dd52"><path d="M 67.5 0 C 30.496094 0 0.496094 30 0.496094 67.003906 C 0.496094 104.007812 30.496094 134.007812 67.5 134.007812 C 104.503906 134.007812 134.503906 104.007812 134.503906 67.003906 C 134.503906 30 104.503906 0 67.5 0 Z M 67.5 0 "></path></clipPath><clipPath id="1093d229fc"><path d="M 24.550781 23.226562 L 110.164062 23.226562 L 110.164062 111.078125 L 24.550781 111.078125 Z M 24.550781 23.226562 "></path></clipPath><clipPath id="5445eba4aa"><path d="M 65.789062 -3.082031 C 27.628906 -3.082031 -3.308594 27.855469 -3.308594 66.015625 C -3.308594 104.175781 27.628906 135.113281 65.789062 135.113281 C 103.949219 135.113281 134.886719 104.175781 134.886719 66.015625 C 134.886719 27.855469 103.949219 -3.082031 65.789062 -3.082031 Z M 65.789062 -3.082031 "></path></clipPath></defs><g id="6e776ff24a"><g clip-rule="nonzero" clip-path="url(#c784115d70)"><path style=" stroke:none;fill-rule:nonzero;fill:#ffffff;fill-opacity:1;" d="M 0.496094 0 L 134.503906 0 L 134.503906 134.007812 L 0.496094 134.007812 Z M 0.496094 0 "></path><path style=" stroke:none;fill-rule:nonzero;fill:#ffffff;fill-opacity:1;" d="M 0.496094 0 L 134.503906 0 L 134.503906 134.007812 L 0.496094 134.007812 Z M 0.496094 0 "></path></g><g clip-rule="nonzero" clip-path="url(#4221770176)"><g clip-rule="nonzero" clip-path="url(#e362e7dd52)"><path style=" stroke:none;fill-rule:nonzero;fill:#f4dddd;fill-opacity:1;" d="M 0.496094 0 L 134.503906 0 L 134.503906 134.007812 L 0.496094 134.007812 Z M 0.496094 0 "></path><path style="fill:none;stroke-width:12;stroke-linecap:butt;stroke-linejoin:miter;stroke:#7b2e07;stroke-opacity:1;stroke-miterlimit:4;" d="M 90.000004 -0.00000933333 C 40.29599 -0.00000933333 -0.000306642 40.296288 -0.000306642 90.000301 C -0.000306642 139.704314 40.29599 180.000611 90.000004 180.000611 C 139.704017 180.000611 180.000314 139.704314 180.000314 90.000301 C 180.000314 40.296288 139.704017 -0.00000933333 90.000004 -0.00000933333 Z M 90.000004 -0.00000933333 " transform="matrix(0.744485,0,0,0.744485,0.496322,0.00000694853)"></path></g></g><g clip-rule="nonzero" clip-path="url(#1093d229fc)"><g clip-rule="nonzero" clip-path="url(#5445eba4aa)"><path style=" stroke:none;fill-rule:nonzero;fill:#ffdfdf;fill-opacity:1;" d="M -3.308594 -3.082031 L 134.886719 -3.082031 L 134.886719 135.113281 L -3.308594 135.113281 Z M -3.308594 -3.082031 "></path><path style="fill:none;stroke-width:8;stroke-linecap:butt;stroke-linejoin:miter;stroke:#f80303;stroke-opacity:1;stroke-miterlimit:4;" d="M 90.001915 0.000559876 C 40.298049 0.000559876 0.00174264 40.296875 0.00174264 90.000752 C 0.00174264 139.704628 40.298049 180.000944 90.001915 180.000944 C 139.705781 180.000944 180.002087 139.704628 180.002087 90.000752 C 180.002087 40.296875 139.705781 0.000559876 90.001915 0.000559876 Z M 90.001915 0.000559876 " transform="matrix(0.76775,0,0,0.76775,-3.309932,-3.082461)"></path></g></g><path style=" stroke:none;fill-rule:nonzero;fill:#536882;fill-opacity:1;" d="M 45.574219 57.828125 L 45.574219 68.21875 C 45.574219 70.589844 44.652344 72.855469 42.96875 74.523438 L 39.644531 77.863281 L 38.152344 77.863281 C 37.628906 77.863281 37.117188 77.960938 36.664062 78.113281 L 36.664062 74.882812 C 36.664062 69.144531 38.996094 63.929688 42.757812 60.179688 C 43.628906 59.308594 44.566406 58.523438 45.574219 57.828125 Z M 45.574219 57.828125 "></path><path style=" stroke:none;fill-rule:nonzero;fill:#d68076;fill-opacity:1;" d="M 75.289062 77.863281 L 75.289062 86.773438 C 75.289062 96.570312 67.273438 104.597656 57.464844 104.597656 C 47.65625 104.597656 39.644531 96.570312 39.644531 86.773438 L 39.65625 86.773438 L 39.65625 77.863281 C 39.65625 77.863281 42.96875 74.523438 42.96875 74.523438 C 44.652344 72.855469 45.574219 70.589844 45.574219 68.21875 L 45.574219 57.828125 C 48.941406 55.457031 53.050781 54.078125 57.464844 54.078125 C 61.878906 54.078125 65.992188 55.457031 69.355469 57.828125 L 69.355469 68.21875 C 69.355469 70.589844 70.285156 72.855469 71.964844 74.523438 Z M 75.289062 77.863281 "></path><path style=" stroke:none;fill-rule:nonzero;fill:#536882;fill-opacity:1;" d="M 78.265625 74.882812 L 78.265625 78.125 C 77.800781 77.941406 77.304688 77.863281 76.78125 77.863281 L 75.289062 77.863281 L 71.964844 74.523438 C 70.285156 72.855469 69.355469 70.589844 69.355469 68.21875 L 69.355469 57.828125 C 74.75 61.566406 78.265625 67.820312 78.265625 74.882812 Z M 78.265625 74.882812 "></path><path style=" stroke:none;fill-rule:nonzero;fill:#b74846;fill-opacity:1;" d="M 81.234375 82.316406 C 81.234375 83.546875 80.726562 84.664062 79.921875 85.464844 C 79.125 86.261719 78.003906 86.773438 76.78125 86.773438 L 75.289062 86.773438 L 75.289062 77.863281 L 76.78125 77.863281 C 77.304688 77.863281 77.800781 77.941406 78.265625 78.125 C 80.007812 78.714844 81.234375 80.371094 81.234375 82.316406 Z M 81.234375 82.316406 "></path><path style=" stroke:none;fill-rule:nonzero;fill:#b74846;fill-opacity:1;" d="M 39.644531 77.863281 L 39.644531 86.773438 L 38.152344 86.773438 C 36.925781 86.773438 35.804688 86.261719 35.007812 85.464844 C 34.207031 84.664062 33.695312 83.546875 33.695312 82.316406 C 33.695312 80.371094 34.921875 78.734375 36.664062 78.113281 C 37.117188 77.960938 37.628906 77.863281 38.152344 77.863281 Z M 39.644531 77.863281 "></path><path style=" stroke:none;fill-rule:nonzero;fill:#85b9db;fill-opacity:1;" d="M 87.371094 33.5625 L 91.226562 37.515625 L 81.34375 47.148438 L 77.492188 43.195312 Z M 87.371094 33.5625 "></path><path style=" stroke:none;fill-rule:nonzero;fill:#85b9db;fill-opacity:1;" d="M 80.515625 36.40625 L 88.21875 44.308594 C 88.347656 44.441406 88.441406 44.589844 88.511719 44.757812 C 88.578125 44.925781 88.613281 45.105469 88.609375 45.289062 C 88.609375 45.472656 88.570312 45.648438 88.5 45.8125 C 88.425781 45.984375 88.324219 46.132812 88.191406 46.257812 L 70.414062 63.589844 C 70.285156 63.71875 70.132812 63.816406 69.960938 63.882812 C 69.792969 63.953125 69.613281 63.984375 69.433594 63.980469 C 69.253906 63.980469 69.074219 63.945312 68.90625 63.871094 C 68.742188 63.800781 68.589844 63.699219 68.460938 63.566406 L 60.761719 55.664062 C 60.632812 55.535156 60.535156 55.378906 60.464844 55.210938 C 60.398438 55.042969 60.367188 54.863281 60.371094 54.683594 C 60.371094 54.503906 60.40625 54.324219 60.476562 54.15625 C 60.550781 53.992188 60.652344 53.839844 60.785156 53.710938 L 78.566406 36.378906 C 78.695312 36.253906 78.847656 36.152344 79.015625 36.089844 C 79.1875 36.019531 79.363281 35.988281 79.542969 35.988281 C 79.726562 35.992188 79.902344 36.027344 80.070312 36.101562 C 80.238281 36.171875 80.386719 36.273438 80.515625 36.40625 Z M 80.515625 36.40625 "></path><path style=" stroke:none;fill-rule:nonzero;fill:#759dd1;fill-opacity:1;" d="M 61.976562 64.867188 L 59.273438 62.078125 C 58.820312 61.613281 58.75 60.867188 59.136719 60.328125 L 61.703125 56.65625 L 67.480469 62.589844 L 63.742188 65.0625 C 63.1875 65.417969 62.460938 65.351562 61.988281 64.867188 Z M 61.976562 64.867188 "></path><path style=" stroke:none;fill-rule:nonzero;fill:#759dd1;fill-opacity:1;" d="M 89.40625 27.722656 L 97.113281 35.625 C 97.238281 35.753906 97.332031 35.90625 97.402344 36.078125 C 97.46875 36.246094 97.503906 36.421875 97.503906 36.605469 C 97.5 36.789062 97.460938 36.964844 97.390625 37.132812 C 97.316406 37.300781 97.214844 37.445312 97.082031 37.574219 L 95.109375 39.5 C 94.976562 39.628906 94.828125 39.726562 94.660156 39.796875 C 94.488281 39.863281 94.3125 39.894531 94.132812 39.890625 C 93.945312 39.890625 93.773438 39.855469 93.601562 39.78125 C 93.433594 39.710938 93.285156 39.609375 93.160156 39.476562 L 85.453125 31.574219 C 85.328125 31.445312 85.226562 31.296875 85.164062 31.121094 C 85.09375 30.953125 85.0625 30.777344 85.0625 30.59375 C 85.066406 30.414062 85.101562 30.234375 85.175781 30.066406 C 85.25 29.902344 85.347656 29.753906 85.480469 29.625 L 87.457031 27.699219 C 87.585938 27.570312 87.738281 27.472656 87.90625 27.402344 C 88.078125 27.335938 88.253906 27.304688 88.433594 27.308594 C 88.621094 27.3125 88.792969 27.347656 88.960938 27.421875 C 89.132812 27.492188 89.28125 27.59375 89.40625 27.722656 Z M 89.40625 27.722656 "></path><path style=" stroke:none;fill-rule:nonzero;fill:#759dd1;fill-opacity:1;" d="M 79.554688 35.417969 L 89.1875 45.292969 C 89.3125 45.425781 89.414062 45.574219 89.476562 45.746094 C 89.546875 45.914062 89.578125 46.089844 89.578125 46.273438 C 89.574219 46.457031 89.539062 46.632812 89.464844 46.800781 C 89.394531 46.96875 89.292969 47.117188 89.160156 47.242188 L 87.1875 49.167969 C 87.054688 49.296875 86.902344 49.394531 86.734375 49.464844 C 86.566406 49.53125 86.386719 49.5625 86.207031 49.5625 C 86.023438 49.558594 85.847656 49.523438 85.679688 49.449219 C 85.511719 49.378906 85.359375 49.277344 85.238281 49.144531 L 75.605469 39.265625 C 75.480469 39.136719 75.378906 38.984375 75.316406 38.816406 C 75.246094 38.648438 75.214844 38.46875 75.214844 38.289062 C 75.21875 38.101562 75.253906 37.929688 75.328125 37.761719 C 75.398438 37.589844 75.5 37.445312 75.632812 37.316406 L 77.605469 35.390625 C 77.734375 35.261719 77.890625 35.167969 78.058594 35.097656 C 78.226562 35.03125 78.40625 34.996094 78.585938 35 C 78.769531 35 78.945312 35.039062 79.113281 35.109375 C 79.28125 35.183594 79.425781 35.289062 79.554688 35.417969 Z M 79.554688 35.417969 "></path><path style=" stroke:none;fill-rule:nonzero;fill:#1a2c3d;fill-opacity:1;" d="M 98.066406 34.710938 L 90.367188 26.804688 C 89.304688 25.714844 87.550781 25.6875 86.464844 26.75 L 84.492188 28.679688 C 83.96875 29.191406 83.664062 29.882812 83.664062 30.625 C 83.664062 31.355469 83.925781 32.0625 84.449219 32.585938 L 85.414062 33.578125 L 82.449219 36.464844 L 80.53125 34.488281 C 80.019531 33.964844 79.332031 33.660156 78.585938 33.648438 C 77.855469 33.648438 77.152344 33.910156 76.628906 34.433594 L 74.652344 36.367188 C 73.925781 37.066406 73.691406 38.089844 73.910156 39.011719 L 59.796875 52.753906 C 59.796875 52.753906 59.742188 52.824219 59.714844 52.851562 C 58.96875 52.78125 58.222656 52.726562 57.464844 52.726562 C 51.535156 52.726562 45.960938 55.03125 41.777344 59.222656 C 37.585938 63.40625 35.28125 68.976562 35.28125 74.910156 L 35.28125 77.28125 C 33.515625 78.289062 32.316406 80.167969 32.316406 82.328125 C 32.316406 83.890625 32.925781 85.351562 34.027344 86.453125 C 35.132812 87.558594 36.59375 88.167969 38.152344 88.167969 L 38.332031 88.167969 C 39.035156 98.113281 47.339844 105.992188 57.464844 105.992188 C 67.59375 105.992188 75.882812 98.113281 76.601562 88.167969 L 76.78125 88.167969 C 78.339844 88.167969 79.800781 87.558594 80.90625 86.453125 C 82.007812 85.351562 82.613281 83.890625 82.613281 82.328125 C 82.613281 80.179688 81.441406 78.25 79.648438 77.253906 L 79.648438 74.898438 C 79.648438 69.886719 77.9375 65.074219 74.847656 61.167969 L 85.441406 50.863281 C 85.664062 50.933594 85.898438 50.972656 86.148438 50.972656 L 86.1875 50.972656 C 86.902344 50.972656 87.597656 50.699219 88.121094 50.1875 L 90.089844 48.257812 C 91.183594 47.195312 91.210938 45.441406 90.148438 44.351562 L 88.230469 42.382812 L 91.195312 39.496094 L 92.160156 40.492188 C 92.699219 41.042969 93.417969 41.316406 94.136719 41.316406 C 94.851562 41.316406 95.527344 41.054688 96.050781 40.53125 L 98.027344 38.613281 C 99.113281 37.550781 99.140625 35.800781 98.078125 34.710938 Z M 75.535156 41.234375 L 83.234375 49.140625 L 69.398438 62.621094 L 61.703125 54.699219 L 75.535156 41.222656 Z M 62.957031 63.902344 L 60.253906 61.113281 L 61.867188 58.808594 L 65.316406 62.359375 L 62.972656 63.902344 Z M 38.039062 74.882812 C 38.039062 69.679688 40.070312 64.8125 43.742188 61.15625 C 43.890625 61.003906 44.042969 60.878906 44.195312 60.742188 L 44.195312 68.234375 C 44.195312 70.261719 43.40625 72.152344 41.988281 73.554688 L 39.074219 76.480469 L 38.152344 76.480469 C 38.152344 76.480469 38.085938 76.480469 38.039062 76.480469 Z M 35.972656 84.484375 C 35.394531 83.90625 35.074219 83.132812 35.074219 82.304688 C 35.074219 80.605469 36.453125 79.226562 38.152344 79.226562 L 38.261719 79.226562 L 38.261719 85.378906 L 38.152344 85.378906 C 37.339844 85.378906 36.566406 85.066406 35.972656 84.46875 Z M 73.910156 86.773438 C 73.910156 95.835938 66.527344 103.21875 57.464844 103.21875 C 48.402344 103.21875 41.023438 95.835938 41.023438 86.773438 L 41.023438 78.425781 L 43.933594 75.503906 C 45.875 73.574219 46.957031 70.992188 46.957031 68.21875 L 46.957031 58.5625 C 50.058594 56.546875 53.671875 55.457031 57.464844 55.457031 C 58.003906 55.457031 58.558594 55.484375 59.082031 55.527344 C 59.207031 55.941406 59.421875 56.316406 59.730469 56.617188 L 59.894531 56.792969 L 57.976562 59.542969 C 57.214844 60.632812 57.339844 62.097656 58.265625 63.046875 L 58.652344 63.445312 L 55.421875 66.589844 C 54.871094 67.132812 54.871094 67.996094 55.394531 68.535156 C 55.671875 68.8125 56.03125 68.953125 56.390625 68.953125 C 56.75 68.953125 57.078125 68.828125 57.355469 68.566406 L 60.582031 65.417969 L 60.96875 65.816406 C 61.507812 66.371094 62.226562 66.648438 62.945312 66.648438 C 63.46875 66.648438 63.992188 66.496094 64.457031 66.191406 L 67.246094 64.355469 L 67.425781 64.535156 C 67.59375 64.703125 67.769531 64.828125 67.964844 64.949219 L 67.964844 68.207031 C 67.964844 70.976562 69.039062 73.554688 70.972656 75.488281 L 73.898438 78.425781 L 73.898438 86.773438 Z M 78.960938 84.484375 C 78.378906 85.066406 77.605469 85.394531 76.78125 85.394531 L 76.667969 85.394531 L 76.667969 79.242188 L 76.78125 79.242188 C 77.140625 79.242188 77.46875 79.296875 77.8125 79.433594 C 79.027344 79.847656 79.855469 81.007812 79.855469 82.316406 C 79.855469 83.132812 79.539062 83.90625 78.960938 84.496094 Z M 76.890625 74.882812 L 76.890625 76.480469 C 76.890625 76.480469 76.820312 76.480469 76.78125 76.480469 L 75.855469 76.480469 L 72.929688 73.554688 C 71.507812 72.152344 70.738281 70.261719 70.738281 68.234375 L 70.738281 65.03125 C 70.945312 64.90625 71.148438 64.769531 71.332031 64.605469 L 72.875 63.101562 C 75.46875 66.484375 76.890625 70.609375 76.890625 74.898438 Z M 86.1875 48.203125 L 76.558594 38.324219 L 78.535156 36.390625 L 88.160156 46.269531 Z M 86.300781 40.40625 L 84.367188 38.421875 L 87.332031 35.535156 L 89.265625 37.511719 L 86.300781 40.394531 Z M 94.117188 38.558594 L 86.421875 30.65625 L 88.394531 28.722656 L 96.09375 36.628906 Z M 94.117188 38.558594 "></path></g></svg>
